<?xml version="1.0" encoding="utf-8"?>
<!-- Generator: Adobe Illustrator 22.0.0, SVG Export Plug-In . SVG Version: 6.00 Build 0)  -->
<svg version="1.1" id="Capa_1" xmlns="http://www.w3.org/2000/svg" xmlns:xlink="http://www.w3.org/1999/xlink" x="0px" y="0px"
	 viewBox="0 0 372.8 82.7" style="enable-background:new 0 0 372.8 82.7;" xml:space="preserve">
<style type="text/css">
	.st0{enable-background:new    ;}
	.st1{fill:#FFFFFF;}
	.st2{fill:none;stroke:#FFFFFF;stroke-width:0.75;stroke-miterlimit:10;}
	.st3{fill:#EDEDED;}
	.st4{fill:none;stroke:#EDEDED;stroke-width:0.75;stroke-miterlimit:10;}
</style>
<g class="st0">
	<path class="st1" d="M43.2,33.8h2.6v35.4H29.9H19.5v10.2H3.6V64.2V28.7h15.9h21v2.5h2.6V33.8z M29.9,64.2V33.8H19.5v30.4H29.9z"/>
	<path class="st1" d="M93.6,69.2H51.4v-5.1V33.8H54v-2.5h2.6v-2.5h10.6h26.3v5.1V54v-2.4h-2.6V54h-2.6v2.5h-21v2.5v5.1h26.3V69.2z
		 M67.2,33.8v17.8h10.5V33.8H67.2z"/>
	<path class="st1" d="M141.6,33.9V39v5V49h-15.9v-5.1v-5v-5.1h-10.5v35.3H99.5V28.8h15.8h10.5h10.6v2.5h2.6v2.5H141.6z"/>
	<path class="st1" d="M161.6,8.6v20.2H180v5.1h-18.4v35.3h-13.1V8.6h2.6V6.1h2.6V3.5h7.8H180v5.1H161.6z"/>
	<path class="st1" d="M204.1,8.5v5.1h-15.9V8.5V3.4h15.9V8.5z M188.2,69.2V28.7h15.9v40.5H188.2z"/>
	<path class="st1" d="M229.5,69.2h-15.8V3.5h15.8V69.2z"/>
</g>
<g class="st0">
	<path class="st2" d="M43.2,33.8h2.6v35.4H29.9H19.5v10.2H3.6V64.2V28.7h15.9h21v2.5h2.6V33.8z M29.9,64.2V33.8H19.5v30.4H29.9z"/>
	<path class="st2" d="M93.6,69.2H51.4v-5.1V33.8H54v-2.5h2.6v-2.5h10.6h26.3v5.1V54v-2.4h-2.6V54h-2.6v2.5h-21v2.5v5.1h26.3V69.2z
		 M67.2,33.8v17.8h10.5V33.8H67.2z"/>
	<path class="st2" d="M141.6,33.9V39v5V49h-15.9v-5.1v-5v-5.1h-10.5v35.3H99.5V28.8h15.8h10.5h10.6v2.5h2.6v2.5H141.6z"/>
	<path class="st2" d="M161.6,8.6v20.2H180v5.1h-18.4v35.3h-13.1V8.6h2.6V6.1h2.6V3.5h7.8H180v5.1H161.6z"/>
	<path class="st2" d="M204.1,8.5v5.1h-15.9V8.5V3.4h15.9V8.5z M188.2,69.2V28.7h15.9v40.5H188.2z"/>
	<path class="st2" d="M229.5,69.2h-15.8V3.5h15.8V69.2z"/>
</g>
<g class="st0">
	<path class="st3" d="M276.3,3.4v25.3v40.5h-10.5h-2.6h-2.6h-15.9h-5.3v-2.5h-2.6v-2.5h-2.6V33.8v-5.1h5.3h5.3h15.9V3.4H276.3z
		 M260.6,64.2V33.8H250v30.4H260.6z"/>
	<path class="st3" d="M324.4,69.2h-42.2v-5.1V33.8h2.6v-2.5h2.6v-2.5h10.6h26.3v5.1V54v-2.4h-2.6V54h-2.6v2.5h-21v2.5v5.1h26.3V69.2
		z M298.1,33.8v17.8h10.5V33.8H298.1z"/>
	<path class="st3" d="M371,28.8v2.5v37.9h-15.8h-2.6h-2.6h-2.5v-5.1h-2.6v-5h-2.6v-5.1h-2.6V49h-2.6v-2.5v-2.5h-2.6v-5h-2.6v-5.1
		H329v-2.5v-2.5h13.1v2.5h2.6v2.5v2.5h2.6V39v2.5h2.5v2.4v2.5h2.6V49v2.5h2.6V31.3v-2.5H371z"/>
</g>
<g class="st0">
	<path class="st4" d="M276.3,3.4v25.3v40.5h-10.5h-2.6h-2.6h-15.9h-5.3v-2.5h-2.6v-2.5h-2.6V33.8v-5.1h5.3h5.3h15.9V3.4H276.3z
		 M260.6,64.2V33.8H250v30.4H260.6z"/>
	<path class="st4" d="M324.4,69.2h-42.2v-5.1V33.8h2.6v-2.5h2.6v-2.5h10.6h26.3v5.1V54v-2.4h-2.6V54h-2.6v2.5h-21v2.5v5.1h26.3V69.2
		z M298.1,33.8v17.8h10.5V33.8H298.1z"/>
	<path class="st4" d="M371,28.8v2.5v37.9h-15.8h-2.6h-2.6h-2.5v-5.1h-2.6v-5h-2.6v-5.1h-2.6V49h-2.6v-2.5v-2.5h-2.6v-5h-2.6v-5.1
		H329v-2.5v-2.5h13.1v2.5h2.6v2.5v2.5h2.6V39v2.5h2.5v2.4v2.5h2.6V49v2.5h2.6V31.3v-2.5H371z"/>
</g>
</svg>
