<?xml version="1.0" encoding="utf-8"?>
<!-- Generator: Adobe Illustrator 22.0.0, SVG Export Plug-In . SVG Version: 6.00 Build 0)  -->
<svg version="1.1" xmlns="http://www.w3.org/2000/svg" xmlns:xlink="http://www.w3.org/1999/xlink" x="0px" y="0px"
	 viewBox="0 0 500 272.1" style="enable-background:new 0 0 500 272.1;" xml:space="preserve">
<style type="text/css">
	.st0{clip-path:url(#SVGID_2_);}
	.st1{fill:#EDEDED;stroke:#E1E1E1;stroke-width:1.0929;stroke-miterlimit:10;}
	.st2{fill:#EDEDED;stroke:#E1E1E1;stroke-width:0.8931;stroke-miterlimit:10;}
	.st3{fill:#EDEDED;stroke:#E1E1E1;stroke-miterlimit:10;}
	.st4{fill:#EDEDED;stroke:#E1E1E1;stroke-linecap:round;stroke-linejoin:round;stroke-miterlimit:10;}
	.st5{fill:#EDEDED;stroke:#E1E1E1;stroke-width:1.1471;stroke-miterlimit:10;}
	.st6{fill:#EDEDED;stroke:#E1E1E1;stroke-width:1.1471;stroke-linecap:round;stroke-linejoin:round;stroke-miterlimit:10;}
	.st7{fill:#EDEDED;stroke:#E1E1E1;stroke-width:1.2309;stroke-linecap:round;stroke-linejoin:round;stroke-miterlimit:10;}
	.st8{fill:#EDEDED;stroke:#E1E1E1;stroke-width:1.0731;stroke-linecap:round;stroke-linejoin:round;stroke-miterlimit:10;}
	.st9{fill:#EDEDED;}
	.st10{fill:none;stroke:#E1E1E1;stroke-linecap:round;stroke-linejoin:round;}
	.st11{fill:#E1E1E1;}
	.st12{font-family:'Roboto-Thin';}
	.st13{font-size:12px;}
	.st14{fill:#EDEDED;stroke:#E1E1E1;stroke-width:1.0974;stroke-linecap:round;stroke-linejoin:round;stroke-miterlimit:10;}
	.st15{fill:#EDEDED;stroke:#E1E1E1;stroke-width:0.9055;stroke-linecap:round;stroke-linejoin:round;stroke-miterlimit:10;}
	.st16{font-family:'Roboto-Light';}
	.st17{font-size:12.8085px;}
	.st18{fill:#EDEDED;stroke:#E1E1E1;stroke-width:1.5;stroke-linecap:round;stroke-linejoin:round;stroke-miterlimit:10;}
	.st19{fill:none;stroke:#E1E1E1;stroke-miterlimit:10;}
	.st20{display:none;}
	.st21{display:inline;}
	.st22{fill:#3894E7;}
</style>
<g id="BACKGROUND">
</g>
<g id="OBJECTS">
	<g>
		<g>
			<defs>
				<rect id="SVGID_1_" y="-1.9" width="500" height="274"/>
			</defs>
			<use xlink:href="#SVGID_1_"  style="overflow:visible;fill:#EDEDED;"/>
			<clipPath id="SVGID_2_">
				<use xlink:href="#SVGID_1_"  style="overflow:visible;"/>
			</clipPath>
			<g class="st0">
				<g>
					<path class="st1" d="M120.9,180.4c-9.5-7.1-12.3-20.3-6-30.7c6.6-11,20.9-14.5,31.9-7.9c11,6.6,14.5,20.9,7.9,31.9
						c-6.2,10.3-19.3,14.1-29.9,9"/>
					<path class="st1" d="M126.4,175.6c-7.7-4.6-10.2-14.6-5.5-22.3c4.6-7.7,14.6-10.2,22.3-5.5c7.7,4.6,10.2,14.6,5.5,22.3
						C144.1,177.8,134.1,180.3,126.4,175.6z"/>
					
						<rect x="91.4" y="199.7" transform="matrix(0.5166 -0.8562 0.8562 0.5166 -123.0618 192.1637)" class="st1" width="34.4" height="10.7"/>
					<line class="st1" x1="109.4" y1="193.6" x2="118.5" y2="199.1"/>
					<path class="st2" d="M124.9,182.5l-5.3,8.7l-3.9-2.3l5.3-8.7c0.6,0.4,1.2,0.8,1.9,1.2C123.6,181.8,124.2,182.2,124.9,182.5z"/>
				</g>
				<path class="st3" d="M10.3,176.8c-0.6,0-0.6,1,0,1C10.9,177.8,10.9,176.8,10.3,176.8z"/>
				<g>
					<g>
						<polygon class="st3" points="384.1,193 324.4,209.2 303.1,131.1 355.3,116.9 364.6,121.6 						"/>
						<polygon class="st3" points="355.3,116.9 357,124.2 364.6,121.6 						"/>
						<g>
							<line class="st4" x1="320.4" y1="143.8" x2="353.1" y2="134.9"/>
							<line class="st4" x1="322.1" y1="150.1" x2="354.8" y2="141.2"/>
							<line class="st4" x1="323.8" y1="156.4" x2="356.5" y2="147.5"/>
							<line class="st4" x1="325.5" y1="162.8" x2="358.2" y2="153.9"/>
							<line class="st4" x1="327.2" y1="169.1" x2="359.9" y2="160.2"/>
							<line class="st4" x1="329" y1="175.4" x2="361.7" y2="166.5"/>
							<line class="st4" x1="330.7" y1="181.8" x2="363.4" y2="172.9"/>
							<line class="st4" x1="332.4" y1="188.1" x2="365.1" y2="179.2"/>
						</g>
					</g>
				</g>
				<g>
					<g>
						
							<rect x="149.9" y="73.6" transform="matrix(1.548606e-02 -0.9999 0.9999 1.548606e-02 64.7341 266.4765)" class="st5" width="35.6" height="53.5"/>
						<polygon class="st6" points="140.6,117.7 167.8,91.5 194.2,118.6 						"/>
						<polygon class="st7" points="141.2,82.3 167.6,103.1 194.7,83.1 						"/>
					</g>
				</g>
				<g>
					<polyline class="st8" points="228.5,177.4 232,181 228.4,184.5 					"/>
					<g>
						<polyline class="st8" points="173.6,137.9 173,180.1 231.5,181 						"/>
						
							<rect x="169.3" y="150.8" transform="matrix(1.745295e-02 -0.9998 0.9998 1.745295e-02 28.3543 341.7315)" class="st8" width="37.5" height="11.3"/>
						
							<rect x="187.7" y="155.3" transform="matrix(1.548540e-02 -0.9999 0.9999 1.548540e-02 38.4411 360.9851)" class="st8" width="29.7" height="11.3"/>
						
							<rect x="208.9" y="162.2" transform="matrix(1.548540e-02 -0.9999 0.9999 1.548540e-02 45.9062 382.3111)" class="st8" width="16.4" height="11.3"/>
						<polyline class="st8" points="170.2,140.6 173.8,137.1 177.3,140.7 						"/>
					</g>
				</g>
				<g>
					
						<ellipse transform="matrix(0.8567 -0.5158 0.5158 0.8567 -79.6224 50.3236)" class="st4" cx="50.8" cy="168.5" rx="23.7" ry="23.7"/>
					
						<ellipse transform="matrix(0.9975 -7.136147e-02 7.136147e-02 0.9975 -11.8933 4.0524)" class="st4" cx="50.8" cy="168.5" rx="16.7" ry="16.7"/>
					<path class="st4" d="M50.4,176.9c-4.7-0.2-8.3-4.2-8.1-8.8c0.2-4.7,4.2-8.3,8.8-8.1c4.7,0.2,8.3,4.2,8.1,8.8
						C59,173.5,55.1,177.2,50.4,176.9z"/>
					<g>
						<line class="st9" x1="79.3" y1="143.8" x2="49.3" y2="170.4"/>
						<g>
							<line class="st10" x1="79.3" y1="143.8" x2="50.1" y2="169.7"/>
							<g>
								<polygon class="st11" points="49.9,164.4 50.9,164.5 50.4,169.4 55.4,169.6 55.3,170.6 49.3,170.4 								"/>
							</g>
						</g>
					</g>
					<path class="st4" d="M72.8,149.6"/>
					<polygon class="st4" points="71.4,150.8 70.4,142.6 79.8,133.9 79.3,143.8 					"/>
					<polygon class="st4" points="71.7,151.1 79.8,152.9 89.2,144.2 79.3,143.8 					"/>
				</g>
				<g>
					<path class="st4" d="M64.9,14l-0.4,25.7c0,1.4-1.2,2.5-2.6,2.5l-4.9-0.1l-0.1,8.3l-6.5-8.4L21,41.6c-1.4,0-2.5-1.2-2.5-2.6
						l0.4-25.7c0-1.4,1.2-2.5,2.6-2.5l40.9,0.6C63.8,11.4,64.9,12.6,64.9,14z"/>
					<g>
						<line class="st4" x1="26.2" y1="18" x2="57.4" y2="18.5"/>
						<line class="st4" x1="26.1" y1="23.3" x2="57.3" y2="23.8"/>
						<line class="st4" x1="26" y1="28.6" x2="57.3" y2="29.1"/>
						<line class="st4" x1="26" y1="34" x2="57.2" y2="34.5"/>
					</g>
				</g>
				<g>
					<g>
						<path class="st4" d="M315.8,229.1c2.1,2.8,1.6,6.8-1.3,8.9c-2.8,2.1-6.8,1.6-8.9-1.3c-2.1-2.8-1.6-6.8,1.3-8.9
							C309.7,225.7,313.7,226.3,315.8,229.1z"/>
						<path class="st4" d="M324.4,228.3l-1.7,1.5c0.1,2,0.2,2.8,0.3,4.8l1.8,1.2c-0.5,2.4-1.6,4.7-3.3,6.6l-2-0.7
							c-1.7,1.1-2.4,1.6-4,2.7l-0.1,2.1c-2.4,0.8-4.9,1-7.4,0.6l-0.4-2.1c-1.8-0.9-2.5-1.2-4.3-2.1l-2,1c-0.8-0.7-1.5-1.4-2.1-2.3
							c-0.9-1.2-1.6-2.5-2.1-3.8l1.7-1.5c-0.1-2-0.2-2.8-0.3-4.8l-2-1.3c0.5-2.4,1.5-4.7,3.2-6.6l2.2,0.7c1.7-1.1,2.4-1.6,4-2.7
							l0.2-2.4c2.4-0.8,4.9-0.9,7.3-0.5l0.5,2.3c1.8,0.9,2.5,1.2,4.3,2.1l2.1-1c0.7,0.6,1.3,1.3,1.9,2.1
							C323.2,225.5,323.9,226.9,324.4,228.3z"/>
					</g>
					<g>
						<path class="st4" d="M338,249.3l-1.1,1c0.1,1.3,0.1,1.8,0.2,3.1l1.2,0.8c-0.3,1.6-1,3.1-2.1,4.3l-1.3-0.4
							c-1.1,0.7-1.5,1-2.6,1.8l-0.1,1.4c-1.6,0.5-3.2,0.7-4.8,0.4l-0.3-1.4c-1.2-0.6-1.7-0.8-2.8-1.4l-1.3,0.6
							c-0.5-0.4-1-0.9-1.4-1.5c-0.6-0.8-1-1.6-1.3-2.5l1.1-1c-0.1-1.3-0.1-1.8-0.2-3.1l-1.3-0.9c0.3-1.6,1-3.1,2.1-4.3l1.5,0.5
							c1.1-0.7,1.5-1,2.6-1.8l0.1-1.5c1.6-0.5,3.2-0.6,4.8-0.3l0.3,1.5c1.2,0.6,1.7,0.8,2.8,1.4l1.4-0.7c0.4,0.4,0.9,0.8,1.2,1.4
							C337.3,247.5,337.7,248.4,338,249.3z"/>
						<path class="st4" d="M332.4,249.8c1.4,1.8,1,4.4-0.8,5.8c-1.8,1.4-4.4,1-5.8-0.8c-1.4-1.8-1-4.4,0.8-5.8S331,248,332.4,249.8z
							"/>
					</g>
				</g>
				<g>
					
						<ellipse transform="matrix(6.804428e-02 -0.9977 0.9977 6.804428e-02 146.1675 209.2183)" class="st4" cx="185.1" cy="26.4" rx="11" ry="11"/>
					<path class="st4" d="M193,26.5c-0.1,4.4-3.7,7.9-8.1,7.8c-4.4-0.1-7.9-3.7-7.8-8.1c0.1-4.4,3.7-7.9,8.1-7.8
						C189.6,18.5,193.1,22.1,193,26.5z"/>
					<text transform="matrix(0.9999 1.549000e-02 -1.549000e-02 0.9999 181.5793 30.6199)" class="st3 st12 st13">$</text>
				</g>
				<g>
					<ellipse transform="matrix(0.722 -0.6919 0.6919 0.722 41.247 281.6396)" class="st4" cx="371.1" cy="89.5" rx="11" ry="11"/>
					<circle class="st4" cx="371.1" cy="89.5" r="7.9"/>
					<text transform="matrix(0.9999 1.549000e-02 -1.549000e-02 0.9999 367.59 93.7429)" class="st3 st12 st13">$</text>
				</g>
				<g>
					
						<ellipse transform="matrix(0.7222 -0.6917 0.6917 0.7222 -134.3725 164.3577)" class="st4" cx="137.4" cy="249.5" rx="11" ry="11"/>
					<circle class="st4" cx="137.4" cy="249.5" r="7.9"/>
					<text transform="matrix(0.9999 1.549000e-02 -1.549000e-02 0.9999 133.946 253.7198)" class="st3 st12 st13">$</text>
				</g>
				<g>
					<path class="st4" d="M32.3,74.1c-0.1,6.1-5.1,11-11.2,10.9c-6.1-0.1-11-5.1-10.9-11.2c0.1-6.1,5.1-11,11.2-10.9
						C27.5,62.9,32.4,68,32.3,74.1z"/>
					
						<ellipse transform="matrix(0.1899 -0.9818 0.9818 0.1899 -55.3266 80.7051)" class="st4" cx="21.2" cy="73.9" rx="7.9" ry="7.9"/>
					<text transform="matrix(0.9999 1.549000e-02 -1.549000e-02 0.9999 17.7526 78.1294)" class="st3 st12 st13">$</text>
				</g>
				<g>
					<g>
						<path class="st4" d="M448,209.5c3.3,0.1,6.3,1,8.8,2.7l7.4-8.6c-4.5-3.3-10-5.3-16.1-5.4c-2.8,0-5.5,0.3-8,1l3.9,10.6
							C445.4,209.6,446.7,209.5,448,209.5z"/>
						<path class="st4" d="M464.4,226.3c-0.1,5.4-2.8,10.2-6.8,13.2l5.4,10c7.5-4.9,12.6-13.3,12.7-23c0.1-7.8-3-14.8-8-20l-7.4,8.6
							C462.9,218.1,464.4,222,464.4,226.3z"/>
						<path class="st4" d="M447.5,242.7c-9.2-0.1-16.5-7.7-16.3-16.8c0.1-6.2,3.6-11.6,8.8-14.4l-3.9-10.6
							c-9.4,4.4-15.9,13.8-16.1,24.8c-0.2,15.4,12,28.1,27.4,28.3c4.1,0.1,8.1-0.8,11.6-2.3l-5.4-10
							C451.7,242.3,449.7,242.7,447.5,242.7z"/>
					</g>
				</g>
				<g>
					<path class="st3" d="M493.6,108c0.6-1.1,0.9-2.4,0.9-3.8c0.1-4.7-3.7-8.6-8.4-8.7c-0.4,0-0.8,0-1.1,0.1
						c-2.3-3.4-6.1-5.6-10.5-5.7c-1.6,0-3.1,0.3-4.6,0.8c-3.3-4.3-8.4-7.1-14.2-7.1c-7.2-0.1-13.5,4-16.6,10
						c-0.8-0.3-1.7-0.5-2.7-0.5c-4.7-0.1-8.6,3.7-8.7,8.4c0,2.1,0.7,4,1.9,5.5L493.6,108z"/>
				</g>
				<g>
					
						<rect x="163.2" y="206.7" transform="matrix(1.548557e-02 -0.9999 0.9999 1.548557e-02 -41.7013 417.6458)" class="st14" width="56.1" height="46.6"/>
					
						<rect x="183.7" y="197.4" transform="matrix(1.548613e-02 -0.9999 0.9999 1.548613e-02 -26.0172 402.6737)" class="st4" width="15.5" height="34.3"/>
					<g>
						
							<rect x="173.9" y="226.7" transform="matrix(1.548235e-02 -0.9999 0.9999 1.548235e-02 -55.2712 403.0434)" class="st4" width="6.3" height="5.9"/>
						
							<rect x="173.7" y="236.6" transform="matrix(1.548235e-02 -0.9999 0.9999 1.548235e-02 -65.3972 412.7095)" class="st4" width="6.3" height="5.9"/>
						
							<rect x="183.3" y="226.8" transform="matrix(1.548210e-02 -0.9999 0.9999 1.548210e-02 -46.2037 412.5422)" class="st4" width="6.3" height="5.9"/>
						
							<rect x="183.1" y="236.8" transform="matrix(1.548208e-02 -0.9999 0.9999 1.548208e-02 -56.3297 422.2083)" class="st4" width="6.3" height="5.9"/>
						
							<rect x="192.6" y="226.9" transform="matrix(1.548235e-02 -0.9999 0.9999 1.548235e-02 -37.1363 422.041)" class="st4" width="6.3" height="5.9"/>
						
							<rect x="201.7" y="227.1" transform="matrix(1.548208e-02 -0.9999 0.9999 1.548208e-02 -28.3297 431.2666)" class="st4" width="6.3" height="5.9"/>
						
							<rect x="192.5" y="236.9" transform="matrix(1.549937e-02 -0.9999 0.9999 1.549937e-02 -47.2655 431.703)" class="st4" width="6.3" height="5.9"/>
						
							<rect x="173.6" y="246.6" transform="matrix(1.548235e-02 -0.9999 0.9999 1.548235e-02 -75.5231 422.3756)" class="st4" width="6.3" height="5.9"/>
						
							<rect x="182.9" y="246.7" transform="matrix(1.548210e-02 -0.9999 0.9999 1.548210e-02 -66.4556 431.8744)" class="st4" width="6.3" height="5.9"/>
						
							<rect x="192.3" y="246.9" transform="matrix(1.549937e-02 -0.9999 0.9999 1.549937e-02 -57.3914 441.3689)" class="st4" width="6.3" height="5.9"/>
						
							<rect x="196.8" y="241.7" transform="matrix(1.548729e-02 -0.9999 0.9999 1.548729e-02 -43.2265 446.0715)" class="st4" width="16.3" height="6.5"/>
					</g>
				</g>
				<g>
					<path class="st4" d="M469.3,144.4c0.2-10-7.8-18.3-17.8-18.4c-10-0.2-18.3,7.8-18.4,17.8c-0.1,7.3,4.1,13.6,10.2,16.6l2.5,12.2
						l9.8,0.2l2.9-12.1C464.8,157.9,469.2,151.7,469.3,144.4z"/>
					<line class="st4" x1="450.8" y1="168.1" x2="451.1" y2="151.3"/>
					<path class="st4" d="M457.7,144.8c-0.1,3.6-3,6.5-6.7,6.5c-3.6-0.1-6.5-3-6.5-6.7c0.1-3.6,3-6.5,6.7-6.5
						C454.9,138.2,457.8,141.2,457.7,144.8z"/>
					<line class="st4" x1="445.1" y1="168.3" x2="456.6" y2="168.4"/>
					<line class="st4" x1="445.5" y1="170.7" x2="456" y2="170.8"/>
					
						<rect x="449.3" y="170.2" transform="matrix(1.548757e-02 -0.9999 0.9999 1.548757e-02 269.6297 622.1116)" class="st15" width="2.9" height="7.8"/>
				</g>
				<path class="st4" d="M433.6,25.5c0,0.8-0.6,2.3-2.3,2.2c-1.3,0-2.3-1.1-2.2-2.3c0-1.3,1.1-2.3,2.3-2.2
					C432.6,23.2,433.6,24.2,433.6,25.5z"/>
				<path class="st4" d="M213.6,33.2c0,1.3-1.1,2.3-2.3,2.2c-1.3,0-2.3-1.1-2.2-2.3c0-1.3,1.1-2.3,2.3-2.2
					C212.6,30.9,213.6,32,213.6,33.2z"/>
				<path class="st4" d="M302.2,199.1c0,1.3-1.1,2.3-2.3,2.2c-1.3,0-2.3-1.1-2.2-2.3c0-1.3,1.1-2.3,2.3-2.2S302.2,197.9,302.2,199.1
					z"/>
				<path class="st4" d="M422.2,261.8c0,1.3-1.1,2.3-2.3,2.2c-1.3,0-2.3-1.1-2.2-2.3s1.1-2.3,2.3-2.2S422.2,260.5,422.2,261.8z"/>
				<path class="st4" d="M490.2,164c0,1.3-1.1,2.3-2.3,2.2c-1.3,0-2.3-1.1-2.2-2.3c0-1.3,1.1-2.3,2.3-2.2
					C489.2,161.7,490.2,162.7,490.2,164z"/>
				<path class="st4" d="M26.6,201.4c0,1.3-1.1,2.3-2.3,2.2c-1.3,0-2.3-1.1-2.2-2.3c0-1.3,1.1-2.3,2.3-2.2
					C25.6,199.1,26.6,200.1,26.6,201.4z"/>
				<path class="st4" d="M148.1,209.3c0,1.3-1.1,2.3-2.3,2.2c-1.3,0-2.3-1.1-2.2-2.3c0-1.3,1.1-2.3,2.3-2.2
					C147.1,207,148.1,208,148.1,209.3z"/>
				<path class="st4" d="M44.6,261.8c0,1.3-1.1,2.3-2.3,2.2c-1.3,0-2.3-1.1-2.2-2.3s1.1-2.3,2.3-2.2S44.6,260.5,44.6,261.8z"/>
				<path class="st4" d="M128.7,110.4c0,1.3-1.1,2.3-2.3,2.2c-1.3,0-2.3-1.1-2.2-2.3c0-1.3,1.1-2.3,2.3-2.2
					C127.7,108.1,128.7,109.1,128.7,110.4z"/>
				<path class="st4" d="M64.8,65.7c0,1.3-1.1,2.3-2.3,2.2c-1.3,0-2.3-1.1-2.2-2.3c0-1.3,1.1-2.3,2.3-2.2
					C63.8,63.4,64.8,64.4,64.8,65.7z"/>
				<path class="st4" d="M431.6,123.1c0,2.6-2.2,4.7-4.8,4.6c-2.6,0-4.7-2.2-4.6-4.8c0-2.6,2.2-4.7,4.8-4.6
					C429.6,118.4,431.6,120.5,431.6,123.1z"/>
				<path class="st4" d="M182,61.7c0,2.6-2.2,4.7-4.8,4.6c-2.6,0-4.7-2.2-4.6-4.8c0-2.6,2.2-4.7,4.8-4.6C180,56.9,182,59.1,182,61.7
					z"/>
				<path class="st4" d="M346.6,18.5c0,2.2-1.8,4.7-4.8,4.6c-2.6,0-4.7-2.2-4.6-4.8c0-2.6,2.2-4.7,4.8-4.6
					C344.6,13.8,346.6,15.9,346.6,18.5z"/>
				<path class="st4" d="M86.2,15.4c0,2.6-2.2,4.7-4.8,4.6c-2.6,0-4.7-2.2-4.6-4.8c0-2.6,2.2-4.7,4.8-4.6
					C84.2,10.7,86.2,12.8,86.2,15.4z"/>
				<path class="st4" d="M118.2,123.1c0,2.6-2.2,4.7-4.8,4.6c-2.6,0-4.7-2.2-4.6-4.8c0-2.6,2.2-4.7,4.8-4.6
					C116.2,118.4,118.3,120.5,118.2,123.1z"/>
				
					<ellipse transform="matrix(0.9706 -0.2409 0.2409 0.9706 -41.3917 8.3146)" class="st4" cx="13.3" cy="173.5" rx="4.7" ry="4.7"/>
				<path class="st4" d="M481.6,185.8c0,2.6-2.2,4.7-4.8,4.6c-2.6,0-4.7-2.2-4.6-4.8c0-2.6,2.2-4.7,4.8-4.6S481.6,183.2,481.6,185.8
					z"/>
				<g>
					<rect x="-10.6" y="219.5" class="st3" width="57.7" height="29.5"/>
					<path class="st3" d="M40.1,249.1H-3.6c0-3.9-3.1-7-7-7v-15.5c3.9,0,7-3.1,7-7h43.7c0,3.9,3.1,7,7,7v15.5
						C43.2,242.1,40.1,245.2,40.1,249.1z"/>
					<circle class="st3" cx="18.2" cy="234.3" r="10.1"/>
					<text transform="matrix(1 0 0 1 14.3143 238.8023)" class="st3 st16 st17">$</text>
					<g>
						<line class="st3" x1="-5.1" y1="234.3" x2="3.8" y2="234.3"/>
						<line class="st18" x1="32.9" y1="234.3" x2="41.7" y2="234.3"/>
					</g>
				</g>
				<g>
					<path class="st3" d="M341.8,97.9l-111,35.4c-2.6,0.8-5.4-0.6-6.3-3.2L201,56.2c-0.8-2.6,0.6-5.4,3.2-6.3l111-35.4
						c2.6-0.8,5.4,0.6,6.3,3.2l23.5,73.8C345.9,94.2,344.5,97,341.8,97.9z"/>
					<path class="st3" d="M280.9,71.4c1.4,4.3-1,9-5.4,10.4c-4.3,1.4-9-1-10.4-5.4c-1.4-4.3,1-9,5.4-10.4
						C274.9,64.6,279.5,67,280.9,71.4z"/>
				</g>
				<g>
					<path class="st3" d="M300.2,117.7l-3.6,3.3l-5.6,6.6l-7.9,10.7c-1.7,2.3-3.7,4.5-5.9,6.3l-5.1,16h-19l-2-19.1c0,0,0,0,0,0
						c0-0.1,0-0.2-0.1-0.2c-1.7-6-2.5-18.7,0-24.8l2.3-24.3c0.1-0.7,0.4-1.3,1-1.7c0.5-0.4,1.1-0.5,1.7-0.5c0.6,0.1,1.1,0.3,1.5,0.7
						c0.5,0.4,0.8,1.1,0.8,1.8c0,0,0,0,0,0l-0.1,20.5l3-29.8c0.1-0.6,0.3-1.2,0.7-1.6c0.5-0.5,1.3-0.9,2-0.8c0.7,0,1.3,0.3,1.8,0.8
						c0.5,0.5,0.7,1.1,0.7,1.8v0.1l-1.1,25.3l2.1-31.5c0-0.8,0.4-1.4,0.9-1.9c0.5-0.4,1.1-0.7,1.8-0.7c0.8,0,1.6,0.4,2.1,1
						c0.4,0.5,0.6,1.1,0.6,1.7v0.1l-0.7,31.4l1-26.5c0-0.8,0.3-1.6,0.8-2.2c0,0,0,0,0-0.1c0.5-0.7,1.4-1.2,2.5-0.8
						c0.5,0.2,1,0.6,1.3,1c0.3,0.4,0.5,1,0.6,1.6c0.5,4.6,2,20,0.8,37.4c0,0,0.1,7.9,5.2,4.6c0,0,6.9-11.1,13.1-11.2
						C297.4,112.7,304.7,112.6,300.2,117.7z"/>
					<g>
						<g>
							<g>
								<rect x="246.9" y="150.8" class="st3" width="33" height="19.7"/>
							</g>
						</g>
						<path class="st3" d="M250.4,161.2c0,1.3,1.1,2.4,2.4,2.4s2.4-1.1,2.4-2.4s-1.1-2.4-2.4-2.4S250.4,159.9,250.4,161.2z"/>
					</g>
					
						<rect x="241.3" y="170.4" transform="matrix(-1 -1.224647e-16 1.224647e-16 -1 525.043 472.7824)" class="st3" width="42.5" height="131.9"/>
				</g>
				<g>
					<polygon class="st3" points="413.5,191.5 351.6,194.4 347.9,113.5 401.9,111 410,117.6 					"/>
					<line class="st3" x1="362" y1="166.4" x2="395.8" y2="164.8"/>
					<line class="st3" x1="362.3" y1="172.8" x2="396.1" y2="171.2"/>
					<line class="st3" x1="362.6" y1="179.2" x2="396.5" y2="177.6"/>
					<polygon class="st4" points="401.9,111 402,118.5 410,117.6 					"/>
					<g>
						<g>
							<path class="st3" d="M381.9,131.8c1.7,0.9,2.9,2.2,3.8,3.7l6-2.4c-1.4-2.9-3.7-5.3-6.8-6.9c-1.4-0.7-2.9-1.2-4.4-1.5
								l-0.7,6.4C380.5,131.1,381.2,131.4,381.9,131.8z"/>
							<path class="st3" d="M385.9,144.6c-1.4,2.7-4.1,4.5-6.9,4.9l0.2,6.5c5.1-0.5,9.9-3.5,12.4-8.4c2.1-3.9,2.3-8.3,1.1-12.3
								l-6,2.4C387.3,140,387,142.4,385.9,144.6z"/>
							<path class="st3" d="M373.1,148.6c-4.6-2.4-6.4-8.2-4-12.8c1.7-3.2,4.9-5,8.2-5.1l0.7-6.4c-5.9-0.2-11.7,2.9-14.7,8.5
								c-4.1,7.8-1.1,17.4,6.7,21.5c2.1,1.1,4.3,1.7,6.5,1.8l-0.2-6.5C375.3,149.5,374.2,149.1,373.1,148.6z"/>
						</g>
					</g>
				</g>
				<g>
					<path class="st3" d="M341.5,194.2l3.6,3.3l5.6,6.6l7.9,10.8c1.7,2.3,3.7,4.5,5.9,6.3l5.1,16h19l2-19.1c0,0,0,0,0,0
						c0-0.1,0-0.1,0.1-0.2c1.7-6,2.5-18.7,0-24.8l-2.3-24.3c-0.1-0.7-0.4-1.3-1-1.7c-0.5-0.4-1.1-0.5-1.7-0.5
						c-0.6,0.1-1.1,0.3-1.4,0.7c-0.5,0.4-0.8,1.1-0.8,1.8c0,0,0,0,0,0l0.1,20.5l-3-29.8c-0.1-0.6-0.3-1.2-0.7-1.6
						c-0.5-0.5-1.3-0.9-2-0.8c-0.7,0-1.3,0.3-1.8,0.8c-0.5,0.5-0.7,1.1-0.7,1.8v0.1l1.1,25.3l-2-31.5c-0.1-0.8-0.4-1.4-0.9-1.9
						c-0.5-0.4-1.1-0.6-1.8-0.6c-0.8,0-1.6,0.4-2.1,1c-0.4,0.5-0.6,1.1-0.6,1.7v0.1l0.7,31.4l-1-26.5c0-0.8-0.3-1.6-0.8-2.2
						c0,0,0,0,0-0.1c-0.5-0.6-1.3-1.2-2.5-0.8c-0.5,0.2-1,0.6-1.3,1c-0.3,0.4-0.5,1-0.6,1.6c-0.5,4.6-2,20-0.8,37.4
						c0,0-0.1,7.9-5.2,4.6c0,0-6.9-11.1-13.1-11.2C344.3,189.2,336.9,189.1,341.5,194.2z"/>
					<g>
						<g>
							<g>
								<rect x="361.8" y="227.3" class="st3" width="33" height="19.7"/>
							</g>
						</g>
						<path class="st3" d="M391.3,237.7c0,1.3-1.1,2.4-2.4,2.4s-2.4-1.1-2.4-2.4s1.1-2.4,2.4-2.4S391.3,236.4,391.3,237.7z"/>
					</g>
					<rect x="357.9" y="246.9" class="st3" width="42.5" height="131.9"/>
				</g>
				<g>
					<g>
						<path class="st4" d="M118,66.4L118,66.4c-2.1,0.2-4-1.3-4.2-3.4l-3-29.7l7.6-0.8l3,29.7C121.7,64.3,120.1,66.1,118,66.4z"/>
						
							<rect x="102.8" y="19.4" transform="matrix(0.995 -9.998018e-02 9.998018e-02 0.995 -2.4736 11.6825)" class="st4" width="25" height="22.3"/>
						
							<rect x="95.7" y="22.3" transform="matrix(0.995 -9.997758e-02 9.997758e-02 0.995 -2.7145 10.0903)" class="st4" width="7.2" height="19.6"/>
						<polygon class="st4" points="128.6,40.5 158.9,47.3 154.7,5.4 126.4,18.1 						"/>
						<line class="st4" x1="121.7" y1="18.7" x2="123.9" y2="40.9"/>
					</g>
					
						<rect x="-32.8" y="107.8" transform="matrix(0.8978 -0.4404 0.4404 0.8978 -51.4619 22.1765)" class="st3" width="109.7" height="28.4"/>
					<g>
						<g>
							<path class="st3" d="M81,76.8l8.3-13.6c0.7-1.2,1.2-2.5,1.3-3.9c0.2-2.9,1-8.9,3.7-16c0.7-1.9,0.9-4,0.4-6.1l-0.4-1.7
								c-0.3-1.3,0.7-2.5,2.1-2.4c0.8,0.1,1.7,0.4,2.7,1.1c1.6,1.1,2.7,2.7,3.2,4.6c0.5,1.9,0.8,4.8-0.3,8.4
								c-0.5,1.5-0.6,3.2-0.3,4.8c0.5,3.4,2,8.4,5.8,8.1l13.3-4.7c1-0.3,2-0.4,3-0.2c2.2,0.6,5.3,2.2,2.3,7.4l-8.2,5.8l8.2-5.8
								c0,0,5.4,2.4,1.9,7.6l-8.7,8.5l8.7-8.5c0,0,4,2.8,1.9,6.1l-8.1,9.7l6.3-7.5c0.2,0.1,0.3,0.3,0.5,0.4c1.2,1.1,1.6,2.7,1.1,4.7
								c-1.9,4.8-5.8,7.4-10.3,10.3l-21.6,2.4l-14.3,10.3l-1.4-3.3l-9-20.8L81,76.8z"/>
							<g>
								<g>
									
										<rect x="60.2" y="84.7" transform="matrix(0.4404 0.8978 -0.8978 0.4404 127.8215 -15.9395)" class="st3" width="33" height="19.7"/>
								</g>
								<path class="st3" d="M81.5,105.8c-1.2,0.6-2.6,0.1-3.2-1.1c-0.6-1.2-0.1-2.6,1.1-3.2c1.2-0.6,2.6-0.1,3.2,1.1
									C83.2,103.8,82.7,105.2,81.5,105.8z"/>
							</g>
						</g>
						<g>
							<g>
								<path class="st9" d="M109.9,64.4c-2.2,3.8-0.2,7.6,2.3,8.5"/>
								<path class="st19" d="M109.9,64.4c-2.2,3.8-0.2,7.6,2.3,8.5"/>
							</g>
							<g>
								<path class="st9" d="M116.8,84.6c-1.3,2.2-0.1,4.4,1.3,4.9"/>
								<path class="st19" d="M116.8,84.6c-1.3,2.2-0.1,4.4,1.3,4.9"/>
							</g>
							<g>
								<path class="st9" d="M113,74.4c-1.9,3.2-0.2,6.4,1.9,7.1"/>
								<path class="st19" d="M113,74.4c-1.9,3.2-0.2,6.4,1.9,7.1"/>
							</g>
						</g>
					</g>
				</g>
				<g>
					<g>
						<g>
							<g>
								<g>
									<path class="st3" d="M395.3,52.6c-2.5-1.2-20.6-7.7-24.9-9.3c-0.6-0.2-1.2-0.1-1.7,0.3l0,0c-1.1,0.9-0.9,2.6,0.5,3.1
										l25,9.7l-31.4-12.9c-1.7-0.7-3.7-0.7-5.4,0.2l-0.8,0.4l-0.8-0.3c-0.7-0.3-2-0.2-3.3,0.9l0,0c-1.4,0.9-1.4,2.9,0,3.8l0,0
										l0,0c-0.6,1.3-0.1,2.9,1.1,3.7l18.8,12.3l21.6-6"/>
									<path class="st3" d="M371.1,66.7c0.2-2.8,2.7-10.4,24.5-14.3c4.6-0.8,9-2.8,12.8-5.7l0,0c5.2-4.8,15.1-4.5,22.5-3.9l23,1.9
										l1.5,20.7l-53.5,12.2c-2.4,0.5-4.7,0.2-6.6-1l-15-9.3c0,0-5,2.2-7.8,1.4C371.6,68.5,371,67.6,371.1,66.7z"/>
								</g>
								<g>
									<g>
										<rect x="436.9" y="37.9" class="st3" width="21.5" height="36"/>
									</g>
									<path class="st3" d="M446.9,70.1c-1.4,0-2.6-1.2-2.6-2.6c0-1.4,1.2-2.6,2.6-2.6c1.4,0,2.6,1.2,2.6,2.6
										C449.6,68.9,448.4,70.1,446.9,70.1z"/>
								</g>
							</g>
						</g>
						<line class="st3" x1="352.4" y1="48.4" x2="375.3" y2="60"/>
						<line class="st3" x1="356.5" y1="44.1" x2="381.5" y2="56.4"/>
						<path class="st3" d="M380.2,67.3c0,0,9.9-5.6,19.3-5.5c9.4,0.1,15.2-6,15.2-6"/>
						<path class="st3" d="M376.3,68.6c0,0-0.9-7.6,9.3-3.7"/>
					</g>
					<g>
						
							<ellipse transform="matrix(0.7215 -0.6924 0.6924 0.7215 88.5125 277.7257)" class="st3" cx="389.5" cy="28.8" rx="25" ry="25"/>
						
							<ellipse transform="matrix(1.548508e-02 -0.9999 0.9999 1.548508e-02 354.6315 417.8344)" class="st3" cx="389.5" cy="28.8" rx="25" ry="11.1"/>
						<path class="st3" d="M414.5,28c0,1.3-11.2,2.2-25,2c-13.8-0.2-25-1.4-25-2.8"/>
						<path class="st3" d="M411.3,40.9c0,1.3-9.9,2.2-22.1,2c-12.2-0.2-22-1.4-22-2.7"/>
						<path class="st3" d="M410.4,15.1c0,1.3-9.3,2.2-20.7,2C378.2,17,369,15.8,369,14.4"/>
						<line class="st3" x1="389.1" y1="53.6" x2="389.9" y2="4.1"/>
					</g>
					<rect x="458.3" y="41.6" class="st3" width="83.2" height="28.6"/>
				</g>
				<g>
					
						<rect x="66.9" y="239.7" transform="matrix(0.9324 0.3614 -0.3614 0.9324 103.0059 -9.9949)" class="st3" width="22.7" height="61.4"/>
					<g>
						<g>
							<path class="st4" d="M104.3,235.5l-21.9-6.9l3.4-12.3L85.4,194c0-0.4,0-0.8,0.2-1.3l4.8-16.2l8.7-17.1c0.2-0.5,0.9-0.5,1.1,0
								l0,0l1.1-2.3c0.4-0.8,1.3-1.2,2.1-0.8l0,0c0.9,0.4,1.3,1.5,0.8,2.3l-0.7,1.2l0,0c1.1-1,2.7-0.7,3.4,0.6l0,0
								c0.6,1.2,0.9,2.6,0.7,4l-1.6,14.9c-0.8,7.7-0.8,15.6,0.3,23.3l0,0c0,0,8.6,13,11.6,1.8c0,0-1.1-6.4,2.2-9.1
								c0.6-0.5,1.4-0.7,2.1-0.6l0,0c1,0.1,1.8,0.9,1.9,2l-0.5,4.9l0.7,5.2c0.2,1.6-0.1,3.2-0.9,4.5l-3.9,6.9
								c-0.5,0.9-1.3,1.6-2.3,2c-3.1,1.1-10.1,4.1-11.2,8.2L104.3,235.5z"/>
							<g>
								<g>
									
										<rect x="76.7" y="227.1" transform="matrix(-0.9483 -0.3175 0.3175 -0.9483 103.7742 489.1746)" class="st4" width="30.2" height="18"/>
								</g>
								<path class="st3" d="M79.7,232.1c0.3-1,1.4-1.5,2.4-1.2c1,0.3,1.5,1.4,1.2,2.4c-0.3,1-1.4,1.5-2.4,1.2
									C79.9,234.1,79.4,233.1,79.7,232.1z"/>
							</g>
						</g>
						<polyline class="st4" points="103.4,159.9 97.1,174.8 94.6,192 						"/>
						<polyline class="st4" points="100.1,159.4 92.6,177.4 90.3,187.5 						"/>
					</g>
				</g>
				<g>
					<rect x="221.7" y="11.9" class="st4" width="46" height="8"/>
					<g>
						<rect x="267.7" y="11.9" class="st3" width="2.6" height="8"/>
						<path class="st3" d="M272,19.9h-1.8v-8h1.8c2.2,0,4,1.8,4,4l0,0C276,18.1,274.3,19.9,272,19.9z"/>
					</g>
					<g>
						<polygon class="st4" points="221.7,19.9 211.3,15.9 221.7,11.9 						"/>
						<polygon class="st3" points="216.5,13.9 216.5,17.9 211.3,15.9 						"/>
					</g>
					<g>
						<line class="st4" x1="221.7" y1="14.6" x2="267.6" y2="14.6"/>
						<line class="st4" x1="221.7" y1="17.2" x2="267.6" y2="17.2"/>
					</g>
				</g>
				<g>
					
						<rect x="462.6" y="10.4" transform="matrix(-1 -1.224647e-16 1.224647e-16 -1 987.5851 31.5835)" class="st4" width="62.4" height="10.8"/>
					<g>
						
							<rect x="459" y="10.4" transform="matrix(-1 -1.224647e-16 1.224647e-16 -1 921.5851 31.5835)" class="st3" width="3.6" height="10.8"/>
						<path class="st3" d="M456.6,10.4h2.4v10.8h-2.4c-3,0-5.4-2.4-5.4-5.4l0,0C451.2,12.8,453.6,10.4,456.6,10.4z"/>
					</g>
					<g>
						<polygon class="st4" points="525,10.4 539.1,15.8 525,21.2 						"/>
						<polygon class="st3" points="532,18.5 532,13.1 539.1,15.8 						"/>
					</g>
					<rect x="468.8" y="21.2" class="st4" width="14" height="3.2"/>
					<rect x="468.1" y="24.4" class="st3" width="35" height="2.1"/>
				</g>
			</g>
			<use xlink:href="#SVGID_1_"  style="overflow:visible;fill:none;stroke:#E1E1E1;stroke-miterlimit:10;"/>
		</g>
	</g>
</g>
<g id="DESIGNED_BY_FREEPIK" class="st20">
	<g id="XMLID_62_" class="st21">
		<g id="XMLID_99_">
			<path id="XMLID_120_" class="st22" d="M181.1,253.1c-0.2,0-0.4,0.1-0.6,0.3c-0.1,0.2-0.2,0.4-0.2,0.8v2.4
				c-0.3-0.3-0.6-0.6-0.9-0.7c-0.3-0.2-0.7-0.2-1.2-0.2c-0.8,0-1.5,0.3-2,0.8c-0.5,0.6-0.7,1.4-0.7,2.4c0,0.5,0.1,0.9,0.2,1.3
				c0.1,0.4,0.3,0.8,0.5,1.1c0.2,0.3,0.5,0.5,0.9,0.7c0.3,0.2,0.7,0.2,1.1,0.2c0.3,0,0.6,0,0.8-0.1c0.2-0.1,0.5-0.2,0.7-0.4
				c0.2-0.2,0.4-0.4,0.6-0.6v0.2c0,0.3,0.1,0.5,0.2,0.7c0.1,0.2,0.3,0.2,0.5,0.2c0.2,0,0.4-0.1,0.6-0.2c0.1-0.2,0.2-0.4,0.2-0.7V254
				c0-0.3-0.1-0.5-0.2-0.7C181.5,253.2,181.3,253.1,181.1,253.1z M180,260c-0.1,0.3-0.3,0.5-0.6,0.7c-0.2,0.1-0.5,0.2-0.8,0.2
				c-0.3,0-0.5-0.1-0.8-0.2c-0.2-0.2-0.4-0.4-0.6-0.7c-0.1-0.3-0.2-0.7-0.2-1.1c0-0.4,0.1-0.8,0.2-1.1c0.1-0.3,0.3-0.6,0.5-0.7
				c0.2-0.2,0.5-0.3,0.8-0.3c0.3,0,0.5,0.1,0.8,0.2c0.2,0.2,0.4,0.4,0.6,0.7c0.1,0.3,0.2,0.7,0.2,1.1
				C180.2,259.3,180.2,259.7,180,260z"/>
			<path id="XMLID_117_" class="st22" d="M188.5,259c0.2-0.1,0.4-0.4,0.4-0.8c0-0.4-0.1-0.9-0.3-1.3c-0.2-0.4-0.6-0.8-1-1
				c-0.5-0.3-1-0.4-1.6-0.4c-0.5,0-0.9,0.1-1.3,0.2c-0.4,0.2-0.7,0.4-1,0.7c-0.3,0.3-0.5,0.6-0.6,1.1c-0.1,0.4-0.2,0.9-0.2,1.3
				c0,1,0.3,1.8,0.9,2.4c0.6,0.6,1.4,0.9,2.4,0.9c0.5,0,0.9-0.1,1.2-0.2c0.4-0.1,0.6-0.3,0.9-0.4c0.2-0.2,0.4-0.4,0.5-0.6
				c0.1-0.2,0.2-0.4,0.2-0.5c0-0.2-0.1-0.3-0.2-0.4c-0.1-0.1-0.2-0.1-0.4-0.1c-0.2,0-0.3,0-0.4,0.1c-0.2,0.2-0.4,0.3-0.5,0.5
				c-0.1,0.1-0.3,0.2-0.4,0.3c-0.2,0.1-0.3,0.2-0.5,0.2c-0.2,0-0.3,0.1-0.5,0.1c-0.3,0-0.6-0.1-0.8-0.2c-0.2-0.1-0.4-0.4-0.6-0.6
				c-0.1-0.3-0.2-0.6-0.2-1h3.2C187.9,259.2,188.2,259.2,188.5,259z M184.3,258.3c0.1-0.5,0.2-1,0.5-1.2c0.3-0.3,0.6-0.4,1-0.4
				c0.4,0,0.8,0.1,1,0.4c0.3,0.3,0.4,0.7,0.4,1.2H184.3z"/>
			<path id="XMLID_116_" class="st22" d="M193.9,258.6c-0.3-0.2-0.7-0.3-1.2-0.4c-0.4-0.1-0.8-0.2-1-0.3c-0.2-0.1-0.4-0.2-0.6-0.3
				c-0.1-0.1-0.2-0.2-0.2-0.4c0-0.2,0.1-0.3,0.3-0.5c0.2-0.1,0.4-0.2,0.7-0.2c0.3,0,0.5,0,0.7,0.1c0.2,0.1,0.3,0.2,0.4,0.4
				c0.2,0.2,0.3,0.3,0.4,0.4c0.1,0.1,0.3,0.1,0.4,0.1c0.2,0,0.4-0.1,0.5-0.2c0.1-0.1,0.2-0.3,0.2-0.5c0-0.2-0.1-0.3-0.2-0.5
				c-0.1-0.2-0.3-0.3-0.5-0.5c-0.2-0.1-0.5-0.3-0.8-0.4c-0.3-0.1-0.7-0.1-1.1-0.1c-0.5,0-1,0.1-1.4,0.3c-0.4,0.2-0.7,0.4-0.9,0.7
				c-0.2,0.3-0.3,0.6-0.3,0.9c0,0.4,0.1,0.7,0.3,0.9c0.2,0.2,0.5,0.5,0.8,0.6c0.4,0.2,0.8,0.3,1.4,0.4c0.5,0.1,0.8,0.2,1.1,0.4
				c0.2,0.1,0.3,0.3,0.3,0.6c0,0.2-0.1,0.4-0.3,0.5c-0.2,0.1-0.5,0.2-0.8,0.2c-0.4,0-0.7-0.1-0.9-0.2c-0.2-0.1-0.4-0.4-0.6-0.6
				c-0.1-0.1-0.2-0.3-0.3-0.4c-0.1-0.1-0.2-0.1-0.4-0.1c-0.2,0-0.4,0.1-0.5,0.2c-0.1,0.1-0.2,0.3-0.2,0.5c0,0.3,0.1,0.5,0.3,0.8
				c0.2,0.3,0.5,0.5,0.9,0.7c0.4,0.2,0.9,0.3,1.5,0.3c0.6,0,1.1-0.1,1.6-0.2c0.4-0.2,0.7-0.4,1-0.7c0.2-0.3,0.3-0.7,0.3-1.1
				c0-0.3-0.1-0.6-0.2-0.8C194.4,259,194.2,258.8,193.9,258.6z"/>
			<path id="XMLID_115_" class="st22" d="M196.5,255.5c-0.2,0-0.4,0.1-0.6,0.2c-0.1,0.2-0.2,0.4-0.2,0.7v4.6c0,0.3,0.1,0.6,0.2,0.7
				c0.1,0.2,0.3,0.3,0.6,0.3c0.2,0,0.4-0.1,0.6-0.2c0.2-0.2,0.2-0.4,0.2-0.7v-4.7c0-0.3-0.1-0.5-0.2-0.7
				C196.9,255.6,196.7,255.5,196.5,255.5z"/>
			<path id="XMLID_114_" class="st22" d="M196.5,253.2c-0.2,0-0.4,0.1-0.6,0.2c-0.2,0.1-0.2,0.3-0.2,0.6c0,0.3,0.1,0.4,0.2,0.6
				c0.2,0.1,0.4,0.2,0.6,0.2c0.2,0,0.4-0.1,0.6-0.2c0.2-0.1,0.2-0.3,0.2-0.6c0-0.3-0.1-0.5-0.2-0.6
				C196.9,253.3,196.7,253.2,196.5,253.2z"/>
			<path id="XMLID_111_" class="st22" d="M203.6,255.5c-0.2,0-0.4,0.1-0.5,0.2c-0.1,0.2-0.2,0.4-0.2,0.7v0.2
				c-0.3-0.4-0.6-0.7-0.9-0.8c-0.3-0.2-0.7-0.3-1.2-0.3c-0.4,0-0.7,0.1-1.1,0.2c-0.3,0.1-0.6,0.3-0.8,0.6c-0.2,0.3-0.4,0.6-0.6,1
				c-0.1,0.4-0.2,0.8-0.2,1.3c0,0.7,0.1,1.2,0.3,1.7c0.2,0.5,0.5,0.9,0.9,1.2c0.4,0.3,0.9,0.4,1.4,0.4c0.5,0,0.8-0.1,1.2-0.3
				c0.3-0.2,0.6-0.4,0.9-0.8c0,0.5,0,0.9,0,1.2c0,0.2-0.1,0.5-0.2,0.7c-0.1,0.2-0.3,0.4-0.5,0.5c-0.2,0.1-0.6,0.2-1,0.2
				c-0.2,0-0.4,0-0.5-0.1c-0.2,0-0.3-0.1-0.4-0.2c-0.1-0.1-0.2-0.2-0.3-0.3c-0.1-0.1-0.2-0.2-0.3-0.3c-0.2-0.2-0.4-0.3-0.6-0.3
				c-0.2,0-0.4,0.1-0.5,0.2c-0.1,0.1-0.2,0.3-0.2,0.5c0,0.3,0.1,0.5,0.4,0.8c0.2,0.2,0.6,0.4,1,0.6c0.4,0.2,0.9,0.2,1.5,0.2
				c0.6,0,1.1-0.1,1.5-0.2c0.4-0.1,0.7-0.3,1-0.6c0.3-0.3,0.4-0.6,0.6-1c0.1-0.4,0.2-0.9,0.2-1.4v-4.7c0-0.4-0.1-0.7-0.2-0.9
				C204.1,255.6,203.9,255.5,203.6,255.5z M202.6,259.9c-0.2,0.3-0.3,0.5-0.6,0.7c-0.2,0.1-0.5,0.2-0.8,0.2c-0.5,0-0.8-0.2-1.1-0.5
				c-0.3-0.3-0.4-0.8-0.4-1.5c0-0.6,0.1-1.2,0.4-1.5s0.6-0.5,1.1-0.5c0.5,0,0.9,0.2,1.1,0.6c0.3,0.4,0.4,0.9,0.4,1.5
				C202.8,259.3,202.7,259.6,202.6,259.9z"/>
			<path id="XMLID_110_" class="st22" d="M211,256.6c-0.2-0.3-0.4-0.6-0.8-0.8c-0.3-0.2-0.7-0.3-1.1-0.3c-0.4,0-0.8,0.1-1.2,0.3
				c-0.3,0.2-0.7,0.5-0.9,0.8v-0.2c0-0.2,0-0.4-0.1-0.5c-0.1-0.1-0.2-0.2-0.3-0.3c-0.1-0.1-0.2-0.1-0.4-0.1c-0.2,0-0.4,0.1-0.6,0.2
				c-0.1,0.2-0.2,0.4-0.2,0.7v4.7c0,0.3,0.1,0.6,0.2,0.7c0.2,0.2,0.3,0.3,0.6,0.3c0.2,0,0.4-0.1,0.6-0.2c0.2-0.2,0.2-0.4,0.2-0.7v-2
				c0-0.7,0-1.1,0.1-1.4c0.1-0.3,0.3-0.5,0.5-0.7c0.2-0.2,0.5-0.3,0.8-0.3c0.4,0,0.7,0.1,0.9,0.4c0.1,0.3,0.2,0.7,0.2,1.2v2.7
				c0,0.3,0.1,0.6,0.2,0.7c0.2,0.2,0.3,0.3,0.6,0.3c0.2,0,0.4-0.1,0.6-0.2c0.1-0.2,0.2-0.4,0.2-0.7v-3c0-0.4,0-0.6,0-0.9
				C211.2,257,211.1,256.8,211,256.6z"/>
			<path id="XMLID_107_" class="st22" d="M217.8,259c0.2-0.1,0.4-0.4,0.4-0.8c0-0.4-0.1-0.9-0.3-1.3c-0.2-0.4-0.6-0.8-1-1
				c-0.5-0.3-1-0.4-1.6-0.4c-0.5,0-0.9,0.1-1.3,0.2c-0.4,0.2-0.7,0.4-1,0.7c-0.3,0.3-0.5,0.6-0.6,1.1c-0.1,0.4-0.2,0.9-0.2,1.3
				c0,1,0.3,1.8,0.9,2.4c0.6,0.6,1.4,0.9,2.4,0.9c0.5,0,0.9-0.1,1.2-0.2c0.4-0.1,0.6-0.3,0.9-0.4c0.2-0.2,0.4-0.4,0.5-0.6
				c0.1-0.2,0.2-0.4,0.2-0.5c0-0.2-0.1-0.3-0.2-0.4c-0.1-0.1-0.2-0.1-0.4-0.1c-0.2,0-0.3,0-0.4,0.1c-0.2,0.2-0.4,0.3-0.5,0.5
				c-0.1,0.1-0.3,0.2-0.4,0.3c-0.2,0.1-0.3,0.2-0.5,0.2c-0.2,0-0.3,0.1-0.5,0.1c-0.3,0-0.6-0.1-0.8-0.2c-0.2-0.1-0.4-0.4-0.6-0.6
				c-0.1-0.3-0.2-0.6-0.2-1h3.2C217.3,259.2,217.6,259.2,217.8,259z M213.7,258.3c0.1-0.5,0.2-1,0.5-1.2c0.3-0.3,0.6-0.4,1-0.4
				c0.4,0,0.8,0.1,1,0.4c0.3,0.3,0.4,0.7,0.4,1.2H213.7z"/>
			<path id="XMLID_104_" class="st22" d="M224.2,253.1c-0.2,0-0.4,0.1-0.6,0.3c-0.1,0.2-0.2,0.4-0.2,0.8v2.4
				c-0.3-0.3-0.6-0.6-0.9-0.7c-0.3-0.2-0.7-0.2-1.2-0.2c-0.8,0-1.5,0.3-2,0.8c-0.5,0.6-0.7,1.4-0.7,2.4c0,0.5,0.1,0.9,0.2,1.3
				c0.1,0.4,0.3,0.8,0.5,1.1c0.2,0.3,0.5,0.5,0.9,0.7c0.3,0.2,0.7,0.2,1.1,0.2c0.3,0,0.6,0,0.8-0.1c0.2-0.1,0.5-0.2,0.7-0.4
				c0.2-0.2,0.4-0.4,0.6-0.6v0.2c0,0.3,0.1,0.5,0.2,0.7c0.1,0.2,0.3,0.2,0.5,0.2c0.2,0,0.4-0.1,0.6-0.2c0.1-0.2,0.2-0.4,0.2-0.7V254
				c0-0.3-0.1-0.5-0.2-0.7C224.6,253.2,224.5,253.1,224.2,253.1z M223.1,260c-0.1,0.3-0.3,0.5-0.6,0.7c-0.2,0.1-0.5,0.2-0.8,0.2
				c-0.3,0-0.5-0.1-0.8-0.2c-0.2-0.2-0.4-0.4-0.6-0.7c-0.1-0.3-0.2-0.7-0.2-1.1c0-0.4,0.1-0.8,0.2-1.1c0.1-0.3,0.3-0.6,0.5-0.7
				c0.2-0.2,0.5-0.3,0.8-0.3c0.3,0,0.5,0.1,0.8,0.2c0.2,0.2,0.4,0.4,0.6,0.7c0.1,0.3,0.2,0.7,0.2,1.1
				C223.4,259.3,223.3,259.7,223.1,260z"/>
			<path id="XMLID_101_" class="st22" d="M233.6,255.9c-0.4-0.3-0.9-0.4-1.4-0.4c-0.5,0-0.9,0.1-1.2,0.3c-0.3,0.2-0.6,0.4-0.9,0.7
				V254c0-0.3-0.1-0.5-0.2-0.7c-0.1-0.2-0.3-0.2-0.6-0.2c-0.2,0-0.4,0.1-0.6,0.3s-0.2,0.4-0.2,0.7v7.1c0,0.3,0.1,0.5,0.2,0.7
				c0.1,0.2,0.3,0.2,0.5,0.2c0.2,0,0.4-0.1,0.6-0.2c0.1-0.2,0.2-0.4,0.2-0.7V261c0.2,0.2,0.3,0.4,0.4,0.5c0.1,0.1,0.2,0.2,0.4,0.3
				c0.2,0.1,0.3,0.2,0.6,0.2c0.2,0.1,0.5,0.1,0.7,0.1c0.4,0,0.8-0.1,1.1-0.2c0.3-0.2,0.6-0.4,0.9-0.7c0.2-0.3,0.4-0.7,0.5-1.1
				c0.1-0.4,0.2-0.9,0.2-1.3c0-0.7-0.1-1.2-0.3-1.7C234.3,256.6,234,256.2,233.6,255.9z M232.8,260.3c-0.3,0.4-0.6,0.5-1.1,0.5
				c-0.5,0-0.9-0.2-1.2-0.5c-0.3-0.3-0.4-0.8-0.4-1.5c0-0.4,0.1-0.8,0.2-1.1c0.1-0.3,0.3-0.6,0.6-0.7c0.2-0.2,0.5-0.3,0.8-0.3
				c0.3,0,0.6,0.1,0.8,0.3c0.2,0.2,0.4,0.4,0.5,0.7c0.1,0.3,0.2,0.7,0.2,1.1C233.2,259.5,233.1,260,232.8,260.3z"/>
			<path id="XMLID_100_" class="st22" d="M240.5,255.6c-0.1-0.1-0.2-0.1-0.4-0.1c-0.2,0-0.3,0-0.4,0.1c-0.1,0.1-0.2,0.2-0.3,0.3
				c-0.1,0.2-0.2,0.4-0.3,0.7l-1.3,3.7l-1.4-4c-0.1-0.3-0.2-0.5-0.3-0.6c-0.1-0.1-0.3-0.2-0.5-0.2c-0.1,0-0.3,0-0.4,0.1
				c-0.1,0.1-0.2,0.2-0.3,0.3c-0.1,0.1-0.1,0.2-0.1,0.4c0,0.1,0.1,0.3,0.2,0.6l2,5l-0.1,0.4c-0.1,0.3-0.2,0.5-0.3,0.6
				c-0.1,0.1-0.2,0.2-0.3,0.3c-0.1,0.1-0.3,0.1-0.4,0.1c-0.1,0-0.2,0-0.3,0c-0.1,0-0.2,0-0.3,0c-0.2,0-0.4,0.1-0.5,0.2
				c-0.1,0.1-0.2,0.2-0.2,0.4c0,0.3,0.1,0.5,0.4,0.6c0.2,0.1,0.6,0.2,1.1,0.2c0.5,0,0.9-0.1,1.2-0.2c0.3-0.1,0.5-0.4,0.7-0.6
				c0.2-0.3,0.4-0.7,0.5-1.1l2.1-5.5c0.1-0.1,0.1-0.3,0.1-0.4c0-0.1,0.1-0.2,0.1-0.3c0-0.1,0-0.2-0.1-0.3
				C240.7,255.8,240.6,255.7,240.5,255.6z"/>
		</g>
		<g id="XMLID_63_">
			<g id="XMLID_78_">
				<path id="XMLID_98_" class="st22" d="M262.9,253.1c-0.5,0-1,0.1-1.3,0.2c-0.3,0.1-0.5,0.4-0.7,0.7c-0.1,0.3-0.2,0.7-0.2,1.2v0.5
					h-0.4c-0.5,0-0.8,0.2-0.8,0.6c0,0.2,0.1,0.3,0.2,0.4c0.1,0.1,0.3,0.2,0.6,0.2h0.4v4.3c0,0.3,0.1,0.6,0.2,0.7
					c0.2,0.2,0.3,0.3,0.6,0.3c0.2,0,0.4-0.1,0.6-0.3c0.2-0.2,0.2-0.4,0.2-0.7v-4.3h0.4c0.3,0,0.5,0,0.7-0.1c0.2-0.1,0.2-0.2,0.2-0.5
					c0-0.4-0.3-0.6-0.9-0.6h-0.4v-0.4c0-0.3,0-0.6,0.1-0.7c0.1-0.2,0.3-0.3,0.6-0.3c0.1,0,0.2,0,0.4,0c0.2,0,0.3,0,0.3,0
					c0.1,0,0.3-0.1,0.3-0.2c0.1-0.1,0.2-0.2,0.2-0.4C264.3,253.3,263.9,253.1,262.9,253.1z"/>
				<path id="XMLID_97_" class="st22" d="M268.1,255.8c-0.3-0.2-0.6-0.3-1-0.3c-0.3,0-0.6,0.1-0.8,0.3c-0.2,0.2-0.4,0.4-0.6,0.8
					c0-0.3-0.1-0.6-0.2-0.8c-0.1-0.2-0.3-0.3-0.6-0.3c-0.5,0-0.8,0.4-0.8,1.1v4.5c0,0.3,0.1,0.6,0.2,0.7c0.1,0.2,0.3,0.3,0.6,0.3
					c0.2,0,0.4-0.1,0.6-0.2c0.2-0.2,0.2-0.4,0.2-0.7v-1.4c0-0.5,0-0.9,0-1.2c0-0.3,0.1-0.6,0.2-0.9c0.1-0.2,0.2-0.4,0.4-0.6
					c0.1-0.1,0.3-0.2,0.6-0.2c0.2,0,0.4,0,0.6,0.1c0.2,0.1,0.4,0.1,0.4,0.1c0.2,0,0.3-0.1,0.4-0.2c0.1-0.1,0.2-0.3,0.2-0.5
					C268.6,256.2,268.4,256,268.1,255.8z"/>
				<path id="XMLID_94_" class="st22" d="M274.2,259c0.2-0.1,0.4-0.4,0.4-0.8c0-0.4-0.1-0.9-0.3-1.3c-0.2-0.4-0.6-0.8-1-1
					c-0.5-0.3-1-0.4-1.6-0.4c-0.5,0-0.9,0.1-1.3,0.2c-0.4,0.2-0.7,0.4-1,0.7c-0.3,0.3-0.5,0.6-0.6,1.1c-0.1,0.4-0.2,0.9-0.2,1.3
					c0,1,0.3,1.8,0.9,2.4c0.6,0.6,1.4,0.9,2.4,0.9c0.5,0,0.9-0.1,1.2-0.2c0.3-0.1,0.6-0.3,0.9-0.4c0.2-0.2,0.4-0.4,0.5-0.6
					c0.1-0.2,0.2-0.4,0.2-0.5c0-0.2,0-0.3-0.2-0.4c-0.1-0.1-0.2-0.1-0.4-0.1c-0.2,0-0.3,0-0.4,0.1c-0.2,0.2-0.4,0.3-0.5,0.4
					c-0.1,0.1-0.3,0.2-0.4,0.3c-0.2,0.1-0.3,0.2-0.5,0.2c-0.2,0-0.3,0.1-0.5,0.1c-0.3,0-0.6-0.1-0.8-0.2c-0.2-0.1-0.4-0.4-0.6-0.6
					c-0.1-0.3-0.2-0.6-0.2-1h3.2C273.6,259.2,273.9,259.2,274.2,259z M270,258.3c0.1-0.5,0.2-1,0.5-1.2c0.3-0.3,0.6-0.4,1-0.4
					c0.4,0,0.8,0.1,1,0.4c0.3,0.3,0.4,0.7,0.4,1.2H270z"/>
				<path id="XMLID_91_" class="st22" d="M280.9,259c0.2-0.1,0.4-0.4,0.4-0.8c0-0.4-0.1-0.9-0.3-1.3c-0.2-0.4-0.6-0.8-1-1
					c-0.5-0.3-1-0.4-1.6-0.4c-0.5,0-0.9,0.1-1.3,0.2c-0.4,0.2-0.7,0.4-1,0.7c-0.3,0.3-0.5,0.6-0.6,1.1c-0.1,0.4-0.2,0.9-0.2,1.3
					c0,1,0.3,1.8,0.9,2.4c0.6,0.6,1.4,0.9,2.4,0.9c0.5,0,0.9-0.1,1.2-0.2c0.3-0.1,0.6-0.3,0.9-0.4c0.2-0.2,0.4-0.4,0.5-0.6
					c0.1-0.2,0.2-0.4,0.2-0.5c0-0.2,0-0.3-0.2-0.4c-0.1-0.1-0.2-0.1-0.4-0.1c-0.2,0-0.3,0-0.4,0.1c-0.2,0.2-0.4,0.3-0.5,0.4
					c-0.1,0.1-0.3,0.2-0.4,0.3c-0.2,0.1-0.3,0.2-0.5,0.2c-0.2,0-0.3,0.1-0.5,0.1c-0.3,0-0.6-0.1-0.8-0.2c-0.2-0.1-0.4-0.4-0.6-0.6
					c-0.1-0.3-0.2-0.6-0.2-1h3.2C280.4,259.2,280.7,259.2,280.9,259z M276.8,258.3c0.1-0.5,0.2-1,0.5-1.2c0.3-0.3,0.6-0.4,1-0.4
					c0.4,0,0.8,0.1,1,0.4c0.3,0.3,0.4,0.7,0.4,1.2H276.8z"/>
				<path id="XMLID_88_" class="st22" d="M286.9,255.9c-0.4-0.3-0.9-0.4-1.4-0.4c-0.4,0-0.8,0.1-1.1,0.3c-0.3,0.2-0.6,0.5-1,0.8
					v-0.2c0-0.3-0.1-0.5-0.2-0.7c-0.1-0.2-0.3-0.2-0.6-0.2c-0.2,0-0.4,0.1-0.6,0.2c-0.1,0.2-0.2,0.4-0.2,0.7v7
					c0,0.4,0.1,0.6,0.1,0.8c0.1,0.2,0.3,0.3,0.6,0.3c0.5,0,0.8-0.4,0.8-1.1V261c0.3,0.4,0.6,0.6,0.9,0.8c0.3,0.2,0.7,0.3,1.2,0.3
					c0.4,0,0.7-0.1,1.1-0.2c0.3-0.2,0.6-0.4,0.9-0.7c0.2-0.3,0.4-0.6,0.6-1c0.1-0.4,0.2-0.9,0.2-1.4c0-0.7-0.1-1.3-0.4-1.8
					C287.7,256.6,287.3,256.2,286.9,255.9z M286.5,259.9c-0.1,0.3-0.3,0.5-0.6,0.7c-0.2,0.2-0.5,0.2-0.7,0.2c-0.5,0-0.8-0.2-1.1-0.5
					c-0.3-0.4-0.5-0.9-0.5-1.5c0-0.7,0.2-1.2,0.5-1.6c0.3-0.3,0.7-0.5,1.1-0.5c0.3,0,0.5,0.1,0.8,0.2c0.2,0.2,0.4,0.4,0.5,0.7
					c0.1,0.3,0.2,0.7,0.2,1.1C286.7,259.2,286.6,259.6,286.5,259.9z"/>
				<path id="XMLID_87_" class="st22" d="M289.9,255.5c-0.2,0-0.4,0.1-0.6,0.2c-0.1,0.2-0.2,0.4-0.2,0.7v4.6c0,0.3,0.1,0.6,0.2,0.7
					c0.2,0.2,0.3,0.3,0.6,0.3c0.2,0,0.4-0.1,0.6-0.3c0.2-0.2,0.2-0.4,0.2-0.7v-4.7c0-0.3-0.1-0.5-0.2-0.7
					C290.3,255.6,290.1,255.5,289.9,255.5z"/>
				<path id="XMLID_86_" class="st22" d="M289.9,253.2c-0.2,0-0.4,0.1-0.6,0.2c-0.2,0.1-0.2,0.3-0.2,0.6c0,0.3,0.1,0.4,0.2,0.6
					c0.2,0.1,0.4,0.2,0.6,0.2c0.2,0,0.4-0.1,0.6-0.2c0.2-0.1,0.2-0.3,0.2-0.6c0-0.3-0.1-0.5-0.2-0.6
					C290.3,253.3,290.1,253.2,289.9,253.2z"/>
				<path id="XMLID_85_" class="st22" d="M297.3,260.6l-1.7-2.6l0.9-0.8c0.4-0.4,0.7-0.7,0.7-1c0-0.2-0.1-0.4-0.2-0.5
					c-0.1-0.1-0.3-0.2-0.5-0.2c-0.2,0-0.3,0-0.4,0.1c-0.1,0.1-0.3,0.3-0.5,0.5l-1.8,1.9v-3.9c0-0.3-0.1-0.6-0.2-0.8
					c-0.1-0.2-0.3-0.3-0.6-0.3c-0.3,0-0.5,0.1-0.6,0.3c-0.1,0.2-0.2,0.5-0.2,0.8v6.9c0,0.3,0.1,0.6,0.2,0.7c0.1,0.2,0.3,0.3,0.6,0.3
					c0.2,0,0.4-0.1,0.6-0.3c0.2-0.2,0.2-0.4,0.2-0.7v-1.3l0.9-0.8l1.4,2.4c0.2,0.3,0.3,0.5,0.4,0.6c0.1,0.1,0.3,0.2,0.5,0.2
					c0.2,0,0.4-0.1,0.6-0.2c0.1-0.2,0.2-0.4,0.2-0.6c0-0.1,0-0.2-0.1-0.3C297.5,260.9,297.4,260.8,297.3,260.6z"/>
				<path id="XMLID_84_" class="st22" d="M299.4,260.3c-0.3,0-0.5,0.1-0.6,0.3c-0.2,0.2-0.3,0.4-0.3,0.6c0,0.3,0.1,0.5,0.3,0.7
					c0.2,0.2,0.4,0.2,0.6,0.2c0.2,0,0.4-0.1,0.6-0.2c0.2-0.2,0.3-0.4,0.3-0.7c0-0.2-0.1-0.5-0.3-0.6
					C299.9,260.4,299.7,260.3,299.4,260.3z"/>
				<path id="XMLID_83_" class="st22" d="M306.8,259.4c-0.2,0-0.3,0.1-0.4,0.2c-0.1,0.1-0.2,0.2-0.3,0.4c-0.2,0.3-0.4,0.5-0.6,0.7
					c-0.2,0.2-0.5,0.2-0.8,0.2c-0.2,0-0.5,0-0.7-0.1c-0.2-0.1-0.4-0.2-0.5-0.4c-0.1-0.2-0.3-0.4-0.3-0.7c-0.1-0.3-0.1-0.5-0.1-0.8
					c0-0.6,0.1-1.2,0.4-1.5c0.3-0.4,0.7-0.6,1.2-0.6c0.3,0,0.6,0.1,0.8,0.2c0.2,0.1,0.4,0.4,0.6,0.7c0.1,0.2,0.2,0.3,0.3,0.3
					c0.1,0.1,0.2,0.1,0.3,0.1c0.2,0,0.4-0.1,0.5-0.2c0.1-0.1,0.2-0.3,0.2-0.5c0-0.2-0.1-0.4-0.2-0.6c-0.1-0.2-0.3-0.4-0.6-0.6
					c-0.2-0.2-0.5-0.4-0.9-0.5c-0.4-0.1-0.7-0.2-1.2-0.2c-0.7,0-1.3,0.1-1.7,0.4c-0.5,0.3-0.9,0.7-1.1,1.2c-0.3,0.5-0.4,1.1-0.4,1.8
					c0,1,0.3,1.8,0.8,2.3c0.6,0.6,1.3,0.9,2.3,0.9c0.5,0,0.9-0.1,1.3-0.2c0.4-0.1,0.7-0.3,0.9-0.5c0.2-0.2,0.4-0.4,0.6-0.7
					c0.1-0.2,0.2-0.4,0.2-0.6c0-0.2-0.1-0.3-0.2-0.5C307.2,259.5,307,259.4,306.8,259.4z"/>
				<path id="XMLID_80_" class="st22" d="M313.6,256.4c-0.3-0.3-0.6-0.5-1-0.7c-0.4-0.2-0.8-0.2-1.3-0.2c-0.5,0-0.9,0.1-1.3,0.2
					c-0.4,0.2-0.7,0.4-1,0.7c-0.3,0.3-0.5,0.6-0.6,1c-0.1,0.4-0.2,0.9-0.2,1.3c0,0.5,0.1,0.9,0.2,1.3c0.2,0.4,0.4,0.7,0.7,1
					c0.3,0.3,0.6,0.5,1,0.7c0.4,0.2,0.8,0.2,1.3,0.2c0.5,0,0.9-0.1,1.3-0.2c0.4-0.2,0.7-0.4,1-0.7c0.3-0.3,0.5-0.6,0.7-1
					c0.1-0.4,0.2-0.9,0.2-1.3c0-0.5-0.1-0.9-0.2-1.3C314.1,257.1,313.9,256.7,313.6,256.4z M312.5,260.4c-0.3,0.4-0.7,0.6-1.2,0.6
					c-0.3,0-0.6-0.1-0.8-0.3c-0.2-0.2-0.4-0.4-0.6-0.7c-0.1-0.3-0.2-0.7-0.2-1.1c0-0.4,0.1-0.8,0.2-1.1c0.1-0.3,0.3-0.6,0.6-0.7
					c0.2-0.2,0.5-0.2,0.8-0.2c0.5,0,0.9,0.2,1.2,0.6c0.3,0.4,0.4,0.9,0.4,1.5C312.9,259.5,312.7,260,312.5,260.4z"/>
				<path id="XMLID_79_" class="st22" d="M323.6,255.8c-0.3-0.2-0.7-0.3-1.1-0.3c-0.4,0-0.7,0.1-1,0.2c-0.3,0.2-0.6,0.4-0.9,0.7
					c-0.2-0.3-0.4-0.6-0.7-0.7c-0.3-0.2-0.6-0.2-1-0.2c-0.4,0-0.7,0.1-1.1,0.2c-0.3,0.2-0.6,0.4-0.9,0.7v-0.2c0-0.3-0.1-0.5-0.2-0.6
					c-0.2-0.1-0.3-0.2-0.6-0.2c-0.2,0-0.4,0.1-0.6,0.2c-0.1,0.2-0.2,0.4-0.2,0.7v4.6c0,0.3,0.1,0.6,0.2,0.8c0.2,0.2,0.4,0.3,0.6,0.3
					c0.2,0,0.4-0.1,0.6-0.3c0.1-0.2,0.2-0.4,0.2-0.8v-2.2c0-0.7,0.1-1.2,0.3-1.6c0.2-0.4,0.5-0.6,1-0.6c0.3,0,0.5,0.1,0.6,0.2
					c0.1,0.1,0.2,0.3,0.2,0.6c0,0.2,0,0.5,0,1v2.6c0,0.3,0.1,0.6,0.2,0.8c0.1,0.2,0.3,0.3,0.6,0.3c0.3,0,0.5-0.1,0.6-0.3
					c0.2-0.2,0.2-0.4,0.2-0.8v-2.2c0-0.7,0.1-1.2,0.2-1.5c0.1-0.2,0.3-0.4,0.5-0.5c0.2-0.1,0.4-0.2,0.6-0.2c0.3,0,0.5,0.1,0.6,0.2
					c0.1,0.1,0.2,0.3,0.2,0.5c0,0.2,0,0.5,0,0.8v2.7c0,0.3,0.1,0.6,0.2,0.8c0.2,0.2,0.4,0.3,0.6,0.3c0.3,0,0.5-0.1,0.6-0.3
					c0.2-0.2,0.2-0.4,0.2-0.8v-3.2c0-0.6-0.1-1.1-0.2-1.4C324.1,256.2,323.9,256,323.6,255.8z"/>
			</g>
			<g id="XMLID_64_">
				<path id="XMLID_77_" class="st22" d="M245.3,258.4C245.3,258.4,245.3,258.4,245.3,258.4C245.3,258.4,245.3,258.4,245.3,258.4z"
					/>
				<path id="XMLID_76_" class="st22" d="M245.4,258.9C245.4,258.9,245.4,258.9,245.4,258.9c0-0.1-0.1-0.3-0.1-0.4
					C245.3,258.7,245.3,258.8,245.4,258.9z"/>
				<path id="XMLID_75_" class="st22" d="M245.9,260.5C245.9,260.4,245.9,260.4,245.9,260.5C245.9,260.4,245.9,260.4,245.9,260.5z"
					/>
				<path id="XMLID_74_" class="st22" d="M245.8,260.4C245.8,260.3,245.8,260.3,245.8,260.4C245.8,260.3,245.8,260.3,245.8,260.4z"
					/>
				<path id="XMLID_73_" class="st22" d="M245.5,259.5c0.1,0.3,0.2,0.5,0.3,0.7C245.7,260,245.6,259.8,245.5,259.5L245.5,259.5z"/>
				<path id="XMLID_72_" class="st22" d="M250.7,251.7l-0.1-0.3c0.3-0.1,0.5-0.3,0.5-0.6c0-0.4-0.3-0.7-0.7-0.7
					c-0.4,0-0.7,0.3-0.7,0.7c0,0.3,0.2,0.6,0.5,0.6l0.1,0.3c-1,0.1-1.8,0.5-1.8,0.5l0.1,0.4c0.6-0.2,1.2-0.3,1.6-0.4
					c0.5-0.1,0.8-0.1,1.1-0.1c0.3,0,0.5,0,0.8,0.1l0.1-0.5C252.4,251.8,251.7,251.6,250.7,251.7z"/>
				<path id="XMLID_71_" class="st22" d="M245.5,254.2c0,0-0.5,0.5-0.9,1.3c0,0,0-0.1-0.1-0.1c-0.1-0.1-0.3-0.2-0.5-0.2c0,0,0,0,0,0
					c-0.1,0-0.2,0-0.3-0.1c0.1-0.1,0.1-0.2,0.1-0.3c0-0.2-0.2-0.4-0.4-0.4c-0.2,0-0.4,0.2-0.4,0.4c0,0.2,0.2,0.4,0.4,0.4
					c0,0,0.1,0,0.1,0c0.1,0.1,0.3,0.2,0.5,0.2c0.1,0,0.2,0,0.3,0.1c0.1,0.1,0.1,0.2,0.1,0.3c0,0,0,0,0,0c-0.3,0.7-0.2,1.7-0.2,1.7
					l0.7,0c0-0.3,0.1-0.9,0.2-1.4c0.3-0.9,0.7-1.5,0.8-1.5l0,0c0,0,0-0.1,0.1-0.1l-0.2-0.1L245.5,254.2z"/>
				<path id="XMLID_70_" class="st22" d="M257.3,252.8c-0.2,0-0.4,0.2-0.4,0.4c0,0,0,0.1,0,0.1c-0.1,0.1-0.2,0.3-0.2,0.5
					c0,0.1,0,0.2-0.1,0.3c-0.1,0-0.1,0.1-0.2,0.1c-0.5-0.7-1.1-1.1-1.1-1.1l-0.5,0.5c0.4,0.3,0.7,0.7,1.1,1.2
					c0.2,0.4,0.5,0.8,0.7,1.3l0.6-0.3c0,0-0.3-0.7-0.7-1.4c0.1,0,0.1-0.1,0.2-0.1c0.1-0.1,0.2-0.3,0.2-0.5c0-0.1,0-0.2,0.1-0.3
					c0.1,0.1,0.2,0.1,0.3,0.1c0.2,0,0.4-0.2,0.4-0.4C257.7,253,257.5,252.8,257.3,252.8z"/>
				<path id="XMLID_69_" class="st22" d="M255.6,258.5c-0.9,0.4-2.3,1-4.2,1.3c-0.7,0.1-1.5,0.1-2.1,0.1c-0.9,0-1.6-0.1-2.2-0.1
					c-0.7-0.1-1.2-0.2-1.5-0.3c0.1,0.2,0.2,0.5,0.3,0.7c0,0,0,0,0,0c0,0,0,0.1,0,0.1c0,0,0,0.1,0,0.1c0,0,0,0,0,0
					c0.2,0.4,0.4,0.7,0.7,1c0.9,1,1.8,1.1,1.8,1.1l0,0l0,0c0,0,0.8,0.3,2.1,0.3c1.2,0,2.4-0.2,3.5-0.7c0.8-0.4,1.6-1.1,2-1.7
					c0.3-0.5,0.5-0.9,0.7-1.4c0.1-0.3,0.1-0.7,0.1-1.1C256.6,258,256.2,258.3,255.6,258.5z"/>
				<path id="XMLID_65_" class="st22" d="M252.3,252.6c-0.3,0-0.5-0.1-0.8-0.1c-0.3,0-0.6,0-1.1,0.1c-0.5,0-1,0.2-1.6,0.4
					c-0.8,0.3-1.6,0.7-2.2,1.3l0,0c-0.1,0.1-0.3,0.3-0.5,0.5c0,0-0.4,0.6-0.7,1.4c-0.2,0.6-0.2,1.5-0.2,1.5v0c0,0.2,0,0.4,0,0.6
					c0,0,0,0,0,0c0,0,0,0.1,0,0.1c0,0.1,0,0.3,0.1,0.4c0.4,0.1,3,0.7,6,0.3c1.8-0.3,3.2-0.8,4.1-1.2c0.7-0.3,1.2-0.6,1.3-0.8
					c-0.2-0.6-0.7-1.6-1.1-2.3C254.4,253.2,253,252.8,252.3,252.6z M248.7,257.9c-1,0-1.8-0.8-1.8-1.8c0-1,0.8-1.8,1.8-1.8
					c1,0,1.8,0.8,1.8,1.8C250.4,257.1,249.7,257.9,248.7,257.9z M253.8,256.6c-0.6,0-1.1-0.5-1.1-1.1c0-0.6,0.5-1.1,1.1-1.1
					c0.6,0,1.1,0.5,1.1,1.1C254.9,256.1,254.4,256.6,253.8,256.6z"/>
			</g>
		</g>
	</g>
</g>
</svg>
