<?xml version="1.0" encoding="utf-8"?>
<!-- Generator: Adobe Illustrator 22.0.0, SVG Export Plug-In . SVG Version: 6.00 Build 0)  -->
<svg version="1.1" xmlns="http://www.w3.org/2000/svg" xmlns:xlink="http://www.w3.org/1999/xlink" x="0px" y="0px"
	 viewBox="0 0 500 500" style="enable-background:new 0 0 500 500;" xml:space="preserve">
<style type="text/css">
	.st0{display:none;}
	.st1{display:inline;fill:#F1E6FF;}
	.st2{enable-background:new    ;}
	.st3{fill:url(#SVGID_1_);}
	.st4{fill:url(#SVGID_2_);}
	.st5{fill:#FFFFFF;}
	.st6{fill:#878787;}
	.st7{fill:url(#SVGID_3_);}
	.st8{fill:#E6FFFA;}
	.st9{fill:url(#SVGID_4_);}
	.st10{fill:#D9FCF5;}
	.st11{fill:#460084;}
	.st12{fill:url(#SVGID_5_);}
	.st13{fill:url(#SVGID_6_);}
	.st14{fill:url(#SVGID_7_);}
	.st15{fill:url(#SVGID_8_);}
	.st16{fill:url(#SVGID_9_);}
	.st17{fill:#0E4772;}
	.st18{fill:url(#SVGID_10_);}
	.st19{fill:url(#SVGID_11_);}
	.st20{fill:#7300ED;}
	.st21{fill:url(#SVGID_12_);}
	.st22{fill:url(#SVGID_13_);}
	.st23{fill:url(#SVGID_14_);}
	.st24{fill:url(#SVGID_15_);}
	.st25{fill:url(#SVGID_16_);}
	.st26{fill:url(#SVGID_17_);}
	.st27{fill:url(#SVGID_18_);}
	.st28{fill:url(#SVGID_19_);}
	.st29{opacity:0.33;}
	.st30{fill:url(#SVGID_20_);}
	.st31{fill:url(#SVGID_21_);}
	.st32{fill:#E8E8E8;}
	.st33{fill:url(#SVGID_22_);}
	.st34{fill:#280144;}
	.st35{fill:url(#SVGID_23_);}
	.st36{fill:url(#SVGID_24_);}
	.st37{fill:url(#SVGID_25_);}
	.st38{fill:url(#SVGID_26_);}
	.st39{fill:url(#SVGID_27_);}
	.st40{fill:url(#SVGID_28_);}
	.st41{fill:url(#SVGID_29_);}
	.st42{fill:url(#SVGID_30_);}
	.st43{fill:url(#SVGID_31_);}
	.st44{fill:none;}
	.st45{fill:#1D2635;}
	.st46{fill:#2D2326;}
	.st47{fill:url(#SVGID_32_);}
	.st48{fill:url(#SVGID_33_);}
	.st49{fill:url(#SVGID_34_);}
	.st50{fill:url(#SVGID_35_);}
	.st51{fill:url(#SVGID_36_);}
	.st52{fill:url(#SVGID_37_);}
	.st53{fill:url(#SVGID_38_);}
	.st54{fill:url(#SVGID_39_);}
	.st55{fill:url(#SVGID_40_);}
	.st56{fill:#67D6EF;}
	.st57{opacity:0.67;}
	.st58{fill:#9531FF;}
	.st59{fill:#A148FF;}
	.st60{fill:url(#SVGID_41_);}
	.st61{fill:#A855FF;}
	.st62{fill:url(#SVGID_42_);}
	.st63{opacity:0.86;}
	.st64{fill:url(#SVGID_43_);}
	.st65{fill:#383660;}
	.st66{fill:#2B2844;}
	.st67{fill:#D3D3D3;}
	.st68{fill:url(#SVGID_44_);}
	.st69{fill:url(#SVGID_45_);}
	.st70{fill:url(#SVGID_46_);}
	.st71{fill:url(#SVGID_47_);}
	.st72{fill:url(#SVGID_48_);}
	.st73{fill:url(#SVGID_49_);}
	.st74{fill:url(#SVGID_50_);}
	.st75{display:inline;}
	.st76{fill:url(#XMLID_32_);}
	.st77{fill:url(#XMLID_33_);}
	.st78{fill:url(#XMLID_34_);}
	.st79{fill:url(#XMLID_35_);}
	.st80{fill:url(#XMLID_36_);}
	.st81{fill:url(#XMLID_37_);}
	.st82{fill:url(#XMLID_38_);}
	.st83{fill:url(#XMLID_39_);}
	.st84{fill:url(#XMLID_40_);}
	.st85{fill:url(#XMLID_41_);}
	.st86{fill:url(#XMLID_42_);}
	.st87{fill:url(#XMLID_43_);}
	.st88{fill:url(#XMLID_44_);}
	.st89{fill:url(#XMLID_45_);}
	.st90{fill:url(#XMLID_46_);}
	.st91{fill:url(#XMLID_47_);}
	.st92{fill:url(#XMLID_48_);}
	.st93{fill:url(#XMLID_49_);}
	.st94{fill:url(#XMLID_50_);}
	.st95{fill:url(#XMLID_51_);}
	.st96{fill:url(#XMLID_52_);}
	.st97{fill:url(#XMLID_53_);}
</style>
<g id="BACKGROUND" class="st0">
	<rect id="XMLID_87_" class="st1" width="500" height="500"/>
</g>
<g id="OBJECTS">
	<g>
		<g>
			<g class="st2">
				<g>
					<linearGradient id="SVGID_1_" gradientUnits="userSpaceOnUse" x1="231.0875" y1="68.3255" x2="255.205" y2="320.423">
						<stop  offset="0" style="stop-color:#195EC3"/>
						<stop  offset="1" style="stop-color:#35B9C7"/>
					</linearGradient>
					<path class="st3" d="M251.4,280.1l-8.9-5.2c3.9-2.3,7.1-7.8,7.1-12.3l8.9,5.2C258.5,272.3,255.3,277.8,251.4,280.1z"/>
				</g>
				<g>
					<linearGradient id="SVGID_2_" gradientUnits="userSpaceOnUse" x1="179.0081" y1="73.3075" x2="203.1257" y2="325.4064">
						<stop  offset="0" style="stop-color:#195EC3"/>
						<stop  offset="1" style="stop-color:#35B9C7"/>
					</linearGradient>
					<polygon class="st4" points="159.6,333 150.8,327.9 242.5,274.9 251.4,280.1 					"/>
				</g>
				<g>
					<polygon class="st5" points="185.5,311 176.6,305.9 216.6,282.8 225.5,287.9 					"/>
				</g>
				<g>
					<polygon class="st6" points="185.5,309.8 176.6,304.7 216.6,281.6 225.5,286.7 					"/>
				</g>
				<g>
					<path class="st5" d="M219.9,277.1c1.3,0.7,2.6,1.5,3.9,2.2c1.7,1,3.3,1.9,5,2.9c0,2.1-1.5,4.6-3.3,5.6l-8.9-5.2
						C218.4,281.7,219.9,279.2,219.9,277.1z"/>
				</g>
				<g>
					<path class="st6" d="M225.5,286.7l-8.9-5.2c1.2-0.7,2.2-2.4,2.2-3.9l8.9,5.2C227.7,284.3,226.7,286,225.5,286.7z"/>
				</g>
				<g>
					<polygon class="st5" points="228.8,282.3 219.9,277.1 219.9,274.3 228.7,279.5 					"/>
				</g>
				<g>
					<polygon class="st6" points="227.7,282.9 218.9,277.7 218.8,274.9 227.7,280.1 					"/>
				</g>
				<g>
					<path class="st6" d="M218.2,273.5l8.9,5.2c0.4,0.2,0.7,0.7,0.7,1.4l-8.9-5.2C218.8,274.2,218.6,273.7,218.2,273.5z"/>
				</g>
				<g>
					<path class="st5" d="M219.9,274.3c0-1-0.4-1.8-1-2.1l8.9,5.2c0.6,0.3,1,1.1,1,2.1C226.1,278,222.5,275.9,219.9,274.3z"/>
				</g>
				<g>
					<polygon class="st5" points="185.5,301.9 176.6,296.8 216.6,273.7 225.5,278.8 					"/>
				</g>
				<g>
					<polygon class="st6" points="185.5,300.7 176.6,295.6 216.6,272.5 225.5,277.6 					"/>
				</g>
				<g>
					<path class="st5" d="M218.2,273.5l8.9,5.2c-0.4-0.2-1-0.2-1.6,0.2l-8.9-5.2C217.2,273.3,217.8,273.3,218.2,273.5z"/>
				</g>
				<g>
					<path class="st6" d="M218.9,272.2l8.9,5.2c-0.6-0.3-1.4-0.3-2.3,0.2l-8.9-5.2C217.5,271.9,218.3,271.9,218.9,272.2z"/>
				</g>
				<g>
					<linearGradient id="SVGID_3_" gradientUnits="userSpaceOnUse" x1="244.4417" y1="67.048" x2="268.5593" y2="319.1467">
						<stop  offset="0" style="stop-color:#195EC3"/>
						<stop  offset="1" style="stop-color:#35B9C7"/>
					</linearGradient>
					<polygon class="st7" points="258.5,267.7 249.6,262.6 249.1,61.7 257.9,66.9 					"/>
				</g>
				<g>
					<polygon class="st5" points="197.6,288.3 188.7,283.2 245.1,250.6 254,255.8 					"/>
				</g>
				<g>
					<polygon class="st5" points="254,255.8 245.1,250.6 244.9,185.8 253.8,191 					"/>
				</g>
				<g>
					<polygon class="st8" points="197.6,288.3 188.7,283.2 244.9,185.8 253.8,191 					"/>
				</g>
				<g>
					<polygon class="st8" points="253.8,191 254,255.8 197.6,288.3 					"/>
				</g>
				<g>
					<path class="st6" d="M183.9,310l-8.9-5.2c0.4,0.2,1,0.2,1.6-0.2l8.9,5.2C184.9,310.2,184.3,310.2,183.9,310z"/>
				</g>
				<g>
					<path class="st5" d="M183.2,311.2l-8.9-5.2c0.6,0.3,1.4,0.3,2.3-0.2l8.9,5.2C184.6,311.5,183.8,311.6,183.2,311.2z"/>
				</g>
				<g>
					<path class="st5" d="M183.9,310l-8.9-5.2c-0.4-0.2-0.6-0.7-0.7-1.4l8.9,5.2C183.2,309.3,183.5,309.7,183.9,310z"/>
				</g>
				<g>
					<path class="st6" d="M183.2,311.2l-8.9-5.2c-0.6-0.3-1-1.1-1-2.1l8.9,5.2C182.2,310.2,182.6,310.9,183.2,311.2z"/>
				</g>
				<g>
					<polygon class="st5" points="183.2,308.5 174.4,303.4 174.4,300.6 183.2,305.8 					"/>
				</g>
				<g>
					<polygon class="st6" points="182.2,309.1 173.3,304 173.3,301.2 182.2,306.4 					"/>
				</g>
				<g>
					<path class="st5" d="M225.5,278.8c1.2-0.7,2.2-0.1,2.2,1.3l0,2.8c0,1.4-1,3.1-2.2,3.9l-40,23.1c-1.2,0.7-2.2,0.1-2.2-1.3l0-2.8
						c0-1.4,1-3.1,2.2-3.9L225.5,278.8z"/>
				</g>
				<g>
					<path class="st5" d="M183.2,305.8l-8.9-5.2c0-1.4,1-3.1,2.2-3.9l8.9,5.2C184.2,302.6,183.2,304.4,183.2,305.8z"/>
				</g>
				<g>
					<path class="st6" d="M182.2,306.4l-8.9-5.2c0-2.1,1.5-4.6,3.3-5.6l8.9,5.2C183.7,301.8,182.2,304.3,182.2,306.4z"/>
				</g>
				<g>
					<linearGradient id="SVGID_4_" gradientUnits="userSpaceOnUse" x1="128.5061" y1="78.138" x2="152.6238" y2="330.2376">
						<stop  offset="0" style="stop-color:#195EC3"/>
						<stop  offset="1" style="stop-color:#35B9C7"/>
					</linearGradient>
					<path class="st9" d="M154.6,333.5l-8.9-5.2c1.3,0.8,3.1,0.7,5.1-0.5l8.9,5.2C157.7,334.2,155.9,334.3,154.6,333.5z"/>
				</g>
				<g>
					<path class="st5" d="M154.6,333.5l-8.9-5.2c-1.3-0.7-2.1-2.3-2.1-4.6l8.9,5.2C152.5,331.2,153.3,332.8,154.6,333.5z"/>
				</g>
				<g>
					<polygon class="st5" points="157.2,311.7 148.3,306.5 188.7,283.2 197.6,288.3 					"/>
				</g>
				<g>
					<polygon class="st10" points="157.2,311.7 148.3,306.5 148.2,293.2 157.1,298.4 					"/>
				</g>
				<g>
					<polygon class="st5" points="253.8,191 244.9,185.8 244.7,126.1 253.6,131.3 					"/>
				</g>
				<g>
					<polygon class="st10" points="157.1,298.4 148.2,293.2 244.7,126.1 253.6,131.3 					"/>
				</g>
				<g>
					<polygon class="st5" points="253.6,131.3 244.7,126.1 244.6,74.6 253.5,79.7 					"/>
				</g>
				<g>
					<polygon class="st8" points="157.1,298.4 148.2,293.2 148.1,228.9 156.9,234 					"/>
				</g>
				<g>
					<path class="st11" d="M153.1,336.1l-8.9-5.2c-1.7-1-2.7-3-2.7-5.9l8.9,5.2C150.4,333.1,151.4,335.1,153.1,336.1z"/>
				</g>
				<g>
					<linearGradient id="SVGID_5_" gradientUnits="userSpaceOnUse" x1="156.9323" y1="189.056" x2="253.6058" y2="189.056">
						<stop  offset="0" style="stop-color:#D9FFFF"/>
						<stop  offset="1" style="stop-color:#81C8FF"/>
					</linearGradient>
					<polygon class="st12" points="253.5,79.7 253.6,131.3 157.1,298.4 156.9,234 242.3,86.2 					"/>
				</g>
				<g>
					<polygon class="st8" points="242.3,86.2 233.4,81 244.6,74.6 253.5,79.7 					"/>
				</g>
				<g>
					<linearGradient id="SVGID_6_" gradientUnits="userSpaceOnUse" x1="252.8818" y1="66.2405" x2="276.9994" y2="318.3387">
						<stop  offset="0" style="stop-color:#195EC3"/>
						<stop  offset="1" style="stop-color:#35B9C7"/>
					</linearGradient>
					<path class="st13" d="M247,57.2l8.9,5.2c1.3,0.7,2.1,2.3,2.1,4.6l-8.9-5.2C249.1,59.5,248.3,57.9,247,57.2z"/>
				</g>
				<g>
					<path class="st5" d="M247,57.2C247,57.2,247,57.2,247,57.2l8.9,5.2c0,0,0,0,0,0C252.9,60.6,249.9,58.9,247,57.2z"/>
				</g>
				<g>
					<polygon class="st10" points="200.7,110.2 191.8,105 233.4,81 242.3,86.2 					"/>
				</g>
				<g>
					<polygon class="st10" points="156.8,186.2 147.9,181.1 191.8,105 200.7,110.2 					"/>
				</g>
				<g>
					<polygon class="st8" points="156.7,135.6 147.8,130.5 191.8,105 200.7,110.2 					"/>
				</g>
				<g>
					<polygon class="st5" points="174.1,119 165.2,113.9 226,78.8 234.9,83.9 					"/>
				</g>
				<g>
					<polygon class="st6" points="174.1,117.8 165.2,112.7 226,77.6 234.9,82.8 					"/>
				</g>
				<g>
					<polygon class="st5" points="174.1,115.7 165.2,110.5 226,75.4 234.9,80.6 					"/>
				</g>
				<g>
					<path class="st6" d="M226.7,75.4l8.9,5.2c0.2,0.1,0.3,0.3,0.3,0.6c0,0.6-0.4,1.3-0.9,1.6l-8.9-5.2c0.5-0.3,0.9-1,0.9-1.6
						C226.9,75.7,226.8,75.5,226.7,75.4z"/>
				</g>
				<g>
					<polygon class="st6" points="174.1,114.5 165.2,109.3 226,74.2 234.9,79.4 					"/>
				</g>
				<g>
					<path class="st5" d="M236.3,79.2l-8.9-5.2c0.4,0.2,0.6,0.6,0.6,1.3c0,0.2,0,0.5-0.1,0.7l7.6,4.4c0.2,0.1,0.3,0.3,0.3,0.6
						c0,0.6-0.4,1.3-0.9,1.6l-8-4.7c-0.3,0.3-0.5,0.5-0.8,0.7l8.9,5.2c1.1-0.6,2-2.2,2-3.4C236.8,79.9,236.6,79.5,236.3,79.2z"/>
				</g>
				<g>
					<path class="st6" d="M227.4,74.1l8.9,5.2c-0.4-0.2-0.9-0.2-1.4,0.1l-8.9-5.2C226.5,73.9,227,73.9,227.4,74.1z"/>
				</g>
				<g>
					<linearGradient id="SVGID_7_" gradientUnits="userSpaceOnUse" x1="156.7968" y1="160.0896" x2="242.307" y2="160.0896">
						<stop  offset="0" style="stop-color:#81C8FF"/>
						<stop  offset="1" style="stop-color:#D9FFFF"/>
					</linearGradient>
					<polygon class="st14" points="242.3,86.2 156.9,234 156.8,186.2 200.7,110.2 					"/>
				</g>
				<g>
					<path class="st6" d="M173.4,117.9l-8.9-5.2c0.2,0.1,0.4,0.1,0.7-0.1l8.9,5.2C173.8,118,173.6,118,173.4,117.9z"/>
				</g>
				<g>
					<path class="st5" d="M163.8,114c0.4,0.2,0.9,0.2,1.4-0.1l8.9,5.2c-0.6,0.3-1.1,0.3-1.4,0.1C170,117.6,166.5,115.6,163.8,114z"
						/>
				</g>
				<g>
					<path class="st5" d="M164.5,112.8c-0.2-0.1-0.3-0.3-0.3-0.6c3,1.7,5.9,3.4,8.9,5.2c0,0.3,0.1,0.5,0.3,0.6
						C170.7,116.4,167.2,114.3,164.5,112.8z"/>
				</g>
				<g>
					<path class="st5" d="M164.8,110.9c0.1-0.2,0.3-0.3,0.4-0.4l8.9,5.2c-0.2,0.1-0.3,0.2-0.4,0.4
						C170.7,114.3,167.7,112.6,164.8,110.9z"/>
				</g>
				<g>
					<path class="st5" d="M164.8,110.9c3,1.7,5.9,3.4,8.9,5.2c-0.3,0.4-0.5,0.8-0.5,1.3c-1.7-1-3.3-1.9-5-2.9
						c-0.9-0.5-1.9-1.1-2.8-1.6c-0.3-0.2-0.7-0.5-1-0.6C164.3,111.7,164.5,111.2,164.8,110.9z"/>
				</g>
				<g>
					<path class="st6" d="M172.7,119.2l-8.9-5.2c-0.4-0.2-0.6-0.6-0.6-1.3c0-1.3,0.9-2.8,2-3.4l8.9,5.2c-1.1,0.6-2,2.2-2,3.4
						C172.1,118.5,172.3,119,172.7,119.2z"/>
				</g>
				<g>
					<path class="st5" d="M160.3,114.6c0-0.6-0.2-1.1-0.6-1.3l8.9,5.2c0.4,0.2,0.6,0.7,0.6,1.3C166.3,118,163.3,116.3,160.3,114.6
						c3,1.7,5.9,3.4,8.9,5.2c0,1.3-0.9,2.8-2,3.5c-0.6,0.3-1.1,0.4-1.4,0.1l-8.9-5.2c0.4,0.2,0.9,0.2,1.4-0.1
						C159.4,117.5,160.3,115.9,160.3,114.6z"/>
				</g>
				<g>
					<path class="st6" d="M159.8,113.3l8.9,5.2c-0.4-0.2-0.9-0.2-1.4,0.1l-8.9-5.2C158.9,113.1,159.4,113.1,159.8,113.3z"/>
				</g>
				<g>
					<path class="st5" d="M226,75.4c0.3-0.2,0.5-0.2,0.7-0.1l8.9,5.2c-0.2-0.1-0.4-0.1-0.7,0.1C232.2,79,228.6,77,226,75.4z"/>
				</g>
				<g>
					<path class="st6" d="M159,114.6l8.9,5.2c0.2,0.1,0.3,0.3,0.3,0.6c0,0.6-0.4,1.4-1,1.7l-8.9-5.2c0.5-0.3,1-1.1,1-1.7
						C159.3,114.9,159.2,114.7,159,114.6z"/>
				</g>
				<g>
					<path class="st6" d="M166.5,122.1l-8.9-5.2c0.2,0.1,0.4,0.1,0.7-0.1l8.9,5.2C166.9,122.2,166.7,122.2,166.5,122.1z"/>
				</g>
				<g>
					<path class="st5" d="M158.3,114.7c0.3-0.2,0.5-0.2,0.7-0.1l8.9,5.2c-0.2-0.1-0.4-0.1-0.7,0.1c-0.5,0.3-1,1.1-1,1.7
						c-3-1.7-5.9-3.4-8.9-5.2C157.3,115.7,157.8,115,158.3,114.7z"/>
				</g>
				<g>
					<path class="st5" d="M157.6,117c-0.2-0.1-0.3-0.3-0.3-0.6c3,1.7,5.9,3.4,8.9,5.2c0,0.3,0.1,0.5,0.3,0.6
						C163.8,120.6,160.3,118.5,157.6,117z"/>
				</g>
				<g>
					<path class="st6" d="M165.8,123.4l-8.9-5.2c-0.4-0.2-0.6-0.7-0.6-1.3c0-1.3,0.9-2.8,2-3.5l8.9,5.2c-1.1,0.6-2,2.2-2,3.5
						C165.2,122.7,165.4,123.2,165.8,123.4z"/>
				</g>
				<g>
					<polygon class="st5" points="159,115.8 150.2,110.6 241.9,57.7 250.8,62.8 					"/>
				</g>
				<g>
					<path class="st5" d="M241.9,57.7c2-1.1,3.8-1.3,5.1-0.5c3,1.7,5.9,3.4,8.9,5.2c-1.3-0.7-3.1-0.6-5.1,0.5
						C248.1,61.3,244.6,59.2,241.9,57.7z"/>
				</g>
				<g>
					<polygon class="st10" points="156.9,234 148.1,228.9 147.9,181.1 156.8,186.2 					"/>
				</g>
				<g>
					<path class="st6" d="M167.2,118.6c1.1-0.6,2-0.1,2,1.1c0,1.3-0.9,2.8-2,3.5c-1.1,0.6-2,0.1-2-1.2
						C165.2,120.8,166.1,119.3,167.2,118.6z M167.2,122.1c0.5-0.3,1-1.1,1-1.7c0-0.6-0.4-0.9-1-0.6c-0.5,0.3-1,1.1-1,1.7
						C166.2,122.1,166.7,122.4,167.2,122.1"/>
				</g>
				<g>
					<path class="st5" d="M167.2,122.1c-0.5,0.3-1,0.1-1-0.6c0-0.6,0.4-1.4,1-1.7c0.5-0.3,1-0.1,1,0.6
						C168.2,121,167.7,121.8,167.2,122.1z"/>
				</g>
				<g>
					<path class="st5" d="M153.7,121.5c0.1-0.1,0.1-0.2,0.2-0.4c3,1.7,5.9,3.4,8.9,5.2c-0.1,0.1-0.1,0.2-0.2,0.3
						C159.6,124.9,156.7,123.2,153.7,121.5z"/>
				</g>
				<g>
					<path class="st5" d="M155.2,121.5c2.6,1.5,5.2,3,7.8,4.5c-0.1,0.1-0.1,0.2-0.2,0.3c-3-1.7-5.9-3.4-8.9-5.2
						c0.1-0.1,0.1-0.2,0.2-0.3C154.5,121.1,154.8,121.3,155.2,121.5z"/>
				</g>
				<g>
					<path class="st5" d="M154.8,122.1c2.6,1.5,5.2,3,7.8,4.5c-0.1,0.1-0.1,0.2-0.2,0.3c-3-1.7-5.9-3.4-8.9-5.2
						c0.1-0.1,0.1-0.2,0.2-0.3C154.1,121.7,154.4,121.9,154.8,122.1z"/>
				</g>
				<g>
					<linearGradient id="SVGID_8_" gradientUnits="userSpaceOnUse" x1="156.6533" y1="148.2007" x2="200.7175" y2="148.2007">
						<stop  offset="0" style="stop-color:#D9FFFF"/>
						<stop  offset="1" style="stop-color:#81C8FF"/>
					</linearGradient>
					<polygon class="st15" points="200.7,110.2 156.8,186.2 156.7,135.6 					"/>
				</g>
				<g>
					<polygon class="st8" points="156.8,186.2 147.9,181.1 147.8,130.5 156.7,135.6 					"/>
				</g>
				<g>
					<path class="st5" d="M151.2,124.1c0.9-0.5,1.7-1.3,2.4-2.3c3,1.7,5.9,3.4,8.9,5.2c-0.7,1-1.5,1.8-2.4,2.3
						c-0.2,0.1-0.5,0.3-0.7,0.3c-3-1.7-5.9-3.4-8.9-5.2C150.7,124.3,150.9,124.2,151.2,124.1z"/>
				</g>
				<g>
					<path class="st5" d="M150,124.5c0.1,0,0.3-0.1,0.4-0.1c3,1.7,5.9,3.4,8.9,5.2c-0.1,0-0.3,0.1-0.4,0.1
						C155.9,128,153,126.3,150,124.5z"/>
				</g>
				<g>
					<path class="st5" d="M149.9,124.6C150,124.6,150,124.5,149.9,124.6c3,1.7,6,3.4,9,5.1c0,0-0.1,0-0.1,0
						C155.9,128,152.9,126.3,149.9,124.6z"/>
				</g>
				<g>
					<path class="st5" d="M155,117.4c0-1.1-0.4-1.9-0.9-2.4c3,1.7,5.9,3.4,8.9,5.2c0.6,0.5,0.9,1.3,0.9,2.4c0,1.1-0.4,2.4-0.9,3.5
						c-3-1.7-5.9-3.4-8.9-5.2C154.7,119.7,155,118.5,155,117.4z"/>
				</g>
				<g>
					<path class="st5" d="M148.6,124.5c0.4,0.2,0.9,0.2,1.4,0.1c3,1.7,5.9,3.4,8.9,5.2c-0.5,0.1-1,0.1-1.4-0.1
						C154.5,127.9,151.5,126.2,148.6,124.5z"/>
				</g>
				<g>
					<path class="st5" d="M149.7,125.1c2.6,1.5,5.2,3,7.8,4.5c0,0,0,0,0,0c-3-1.7-5.9-3.4-8.9-5.2c0,0,0,0,0,0
						C149,124.7,149.3,124.9,149.7,125.1z"/>
				</g>
				<g>
					<path class="st5" d="M154.1,115c3,1.7,5.9,3.4,8.9,5.2c-1.3-0.8-2.6-1.5-3.9-2.3c-1.3-0.8-2.6-1.5-3.9-2.3
						C154.8,115.4,154.4,115.2,154.1,115C154.1,115,154.1,115,154.1,115z"/>
				</g>
				<g>
					<path class="st5" d="M154.1,115c3,1.7,5.9,3.4,8.9,5.2c0,0,0,0,0,0C160,118.4,157.1,116.7,154.1,115
						C154.1,115,154.1,115,154.1,115z"/>
				</g>
				<g>
					<path class="st5" d="M148.4,124.3c0.1,0,0.1,0.1,0.2,0.1c3,1.7,5.9,3.4,8.9,5.2c-0.1,0-0.1-0.1-0.2-0.1
						C154.6,128,151,125.9,148.4,124.3z"/>
				</g>
				<g>
					<path class="st6" d="M158,128.2l-8.9-5.2c0.5,0.3,1.2,0.3,2-0.2l8.9,5.2C159.2,128.5,158.5,128.5,158,128.2z"/>
				</g>
				<g>
					<path class="st6" d="M153.2,116.1l8.9,5.2c0.5,0.3,0.8,0.9,0.8,1.8c0,1.8-1.3,4-2.9,4.9l-8.9-5.2c1.6-0.9,2.9-3.1,2.9-4.9
						C154,117,153.7,116.4,153.2,116.1z"/>
				</g>
				<g>
					<path class="st5" d="M154.1,115c-0.1,0-0.1-0.1-0.2-0.1l8.9,5.2c0.1,0,0.1,0.1,0.2,0.1C160,118.4,157,116.7,154.1,115z"/>
				</g>
				<g>
					<path class="st5" d="M160,121.5c-2.2-1.3-4.5-2.6-6.7-3.9C155.5,118.9,157.8,120.2,160,121.5L160,121.5z"/>
				</g>
				<g>
					<path class="st5" d="M151.1,116.3c0.8-0.5,1.5-0.5,2-0.2l8.9,5.2c-0.5-0.3-1.2-0.3-2,0.2C157,119.7,154.1,118,151.1,116.3
						c3,1.7,5.9,3.4,8.9,5.2c-1.6,0.9-2.9,3.1-2.9,4.9c-3-1.7-5.9-3.4-8.9-5.2c3,1.7,5.9,3.4,8.9,5.2c0,0.9,0.3,1.5,0.8,1.8
						l-8.9-5.2c-0.5-0.3-0.8-0.9-0.8-1.8C148.3,119.4,149.6,117.2,151.1,116.3z"/>
				</g>
				<g>
					<path class="st6" d="M153.9,114.8l8.9,5.2c-0.7-0.4-1.7-0.4-2.8,0.3l-8.9-5.2C152.2,114.5,153.2,114.4,153.9,114.8z"/>
				</g>
				<g>
					<path class="st6" d="M157.3,129.5l-8.9-5.2c-0.7-0.4-1.1-1.3-1.1-2.5c0-2.5,1.7-5.5,3.9-6.7l8.9,5.2c-2.2,1.2-3.9,4.3-3.9,6.7
						C156.1,128.2,156.6,129.1,157.3,129.5z"/>
				</g>
				<g>
					<path class="st6" d="M160,120.3c2.2-1.2,3.9-0.2,3.9,2.2c0,2.5-1.7,5.5-3.9,6.7c-2.2,1.2-3.9,0.2-3.9-2.2
						C156.1,124.5,157.8,121.5,160,120.3z M160,128c1.6-0.9,2.9-3.1,2.9-4.9c0-1.8-1.3-2.6-2.9-1.6c-1.6,0.9-2.9,3.1-2.9,4.9
						C157.2,128.2,158.4,129,160,128"/>
				</g>
				<g>
					<path class="st5" d="M160,128c-1.6,0.9-2.9,0.2-2.9-1.6c0-1.8,1.3-4,2.9-4.9c1.6-0.9,2.9-0.2,2.9,1.6
						C162.9,124.9,161.6,127.1,160,128z"/>
				</g>
				<g>
					<polygon class="st11" points="150.4,330.2 141.5,325 141.2,216.2 150.1,221.3 					"/>
				</g>
				<g>
					<linearGradient id="SVGID_9_" gradientUnits="userSpaceOnUse" x1="133.5659" y1="77.6552" x2="157.6834" y2="329.7536">
						<stop  offset="0" style="stop-color:#195EC3"/>
						<stop  offset="1" style="stop-color:#35B9C7"/>
					</linearGradient>
					<polygon class="st16" points="150.1,221.3 141.2,216.2 141.1,185.9 150,191.1 					"/>
				</g>
				<g>
					<polygon class="st17" points="150,191.1 150.1,221.3 148.4,222.3 148.3,192.1 					"/>
				</g>
				<g>
					<polygon class="st17" points="148.3,192.1 139.5,186.9 141.1,185.9 150,191.1 					"/>
				</g>
				<g>
					<linearGradient id="SVGID_10_" gradientUnits="userSpaceOnUse" x1="135.2153" y1="77.4977" x2="159.3328" y2="329.5958">
						<stop  offset="0" style="stop-color:#195EC3"/>
						<stop  offset="1" style="stop-color:#35B9C7"/>
					</linearGradient>
					<polygon class="st18" points="150,191.1 141.1,185.9 141.1,180.3 150,185.5 					"/>
				</g>
				<g>
					<linearGradient id="SVGID_11_" gradientUnits="userSpaceOnUse" x1="137.5867" y1="77.2708" x2="161.7042" y2="329.3691">
						<stop  offset="0" style="stop-color:#195EC3"/>
						<stop  offset="1" style="stop-color:#35B9C7"/>
					</linearGradient>
					<polygon class="st19" points="150,185.5 141.1,180.3 141,134.4 149.9,139.5 					"/>
				</g>
				<g>
					<polygon class="st17" points="149.9,139.5 150,185.5 148.3,186.4 148.2,140.5 					"/>
				</g>
				<g>
					<path class="st5" d="M143,123c0-1.1,0.2-2.3,0.6-3.5c3,1.7,5.9,3.4,8.9,5.2c-0.4,1.2-0.6,2.4-0.6,3.5
						C149.2,126.6,145.7,124.5,143,123z"/>
				</g>
				<g>
					<path class="st5" d="M143.6,119.5c1.1-3.6,3.6-7.1,6.6-8.8l8.9,5.2c-3,1.7-5.5,5.2-6.6,8.8
						C149.5,122.9,146.5,121.2,143.6,119.5z"/>
				</g>
				<g>
					<polygon class="st5" points="149.9,139.5 150,185.5 150,191.1 150,191.1 150,191.1 150.1,221.3 150.4,327.7 152.5,329 
						151.9,128.1 143,123 143.1,135.6 					"/>
				</g>
				<g>
					<path class="st20" d="M260,65.7c0-5.8-4.2-8.2-9.3-5.3l-91.7,53c-5.1,2.9-9.2,10.1-9.2,15.9l0,10.2l0.1,45.9l0,5.6l0.1,30.2
						l0.3,108.8c0,5.8,4.2,8.2,9.2,5.3l91.7-53c5.1-2.9,9.2-10.1,9.2-15.9L260,65.7z M251.4,280.1l-91.7,53
						c-3.9,2.3-7.2,0.4-7.2-4.1l-0.6-200.8c0-4.5,3.2-10.1,7.1-12.3l91.7-53c3.9-2.3,7.2-0.4,7.2,4.1l0.6,200.8
						C258.5,272.3,255.3,277.8,251.4,280.1"/>
				</g>
				<g>
					<linearGradient id="SVGID_12_" gradientUnits="userSpaceOnUse" x1="157.1147" y1="221.4681" x2="253.775" y2="221.4681">
						<stop  offset="0" style="stop-color:#81C8FF"/>
						<stop  offset="1" style="stop-color:#D9FFFF"/>
					</linearGradient>
					<polygon class="st21" points="253.6,131.3 157.1,298.4 157.2,311.7 197.6,288.3 253.8,191 					"/>
				</g>
				<g>
					<path class="st5" d="M256.2,275.2c1.4-2.3,2.3-5,2.3-7.4l-0.6-200.8c0-1.7-0.5-3-1.2-3.9c-0.1-0.1-0.1-0.1-0.2-0.2
						c-0.5-0.5-1.1-0.8-1.7-0.9c-1.1-0.2-2.5,0-4,0.9l-91.7,53c-1,0.6-1.9,1.3-2.8,2.2c-0.1,0.1-0.2,0.3-0.4,0.4
						c-0.1,0.2-0.3,0.3-0.4,0.5c-0.6,0.7-1.1,1.4-1.5,2.2c-0.4,0.6-0.7,1.3-0.9,1.9c-0.1,0.2-0.1,0.4-0.2,0.5c0,0.1-0.1,0.2-0.1,0.3
						c-0.3,0.8-0.5,1.7-0.7,2.5c-0.1,0.6-0.1,1.2-0.1,1.7l0.6,200.8c0,0.9,0.1,1.6,0.3,2.3c0.1,0.4,0.3,0.8,0.5,1.2
						c0.2,0.3,0.4,0.5,0.6,0.7c0.7,0.7,1.6,1,2.6,1c0,0,0,0,0,0c0.9,0,2-0.3,3.1-1l91.7-53c1.5-0.9,2.9-2.2,4-3.7
						c0.1-0.1,0.2-0.3,0.3-0.4C255.8,275.7,256,275.4,256.2,275.2z M174.1,114.5l60.8-35.1c1.1-0.6,2-0.1,2,1.1c0,1.3-0.9,2.8-2,3.4
						L174.1,119c-1.1,0.6-2,0.1-2-1.1C172.1,116.6,173,115.1,174.1,114.5 M167.2,118.6c1.1-0.6,2-0.1,2,1.1c0,1.3-0.9,2.8-2,3.5
						c-1.1,0.6-2,0.1-2-1.2C165.2,120.8,166.1,119.3,167.2,118.6 M160,120.3c2.2-1.2,3.9-0.2,3.9,2.2c0,2.5-1.7,5.5-3.9,6.7
						c-2.2,1.2-3.9,0.2-3.9-2.2C156.1,124.5,157.8,121.5,160,120.3 M225.5,287.9l-40,23.1c-1.8,1-3.3,0.2-3.3-1.9l0-2.8
						c0-2.1,1.5-4.6,3.3-5.6l40-23.1c1.8-1,3.3-0.2,3.3,1.9l0,2.8C228.8,284.3,227.3,286.9,225.5,287.9 M197.6,288.3l-40.4,23.3
						l0-13.3l-0.2-64.4l-0.1-47.8l-0.1-50.6l44.1-25.4l41.6-24l11.2-6.4l0.1,51.6l0.2,59.7l0,0l0.2,64.8L197.6,288.3"/>
				</g>
				<g>
					<path class="st6" d="M225.5,277.6l-40,23.1c-1.8,1-3.3,3.6-3.3,5.6l0,2.8c0,2.1,1.5,2.9,3.3,1.9l40-23.1c1.8-1,3.3-3.6,3.3-5.6
						l0-2.8C228.7,277.4,227.3,276.6,225.5,277.6z M225.5,286.7l-40,23.1c-1.2,0.7-2.2,0.1-2.2-1.3l0-2.8c0-1.4,1-3.1,2.2-3.9
						l40-23.1c1.2-0.7,2.2-0.1,2.2,1.3l0,2.8C227.7,284.3,226.7,286,225.5,286.7"/>
				</g>
				<g>
					<path class="st11" d="M248.5,54.6l8.9,5.2c-1.7-1-4-0.8-6.6,0.6l-8.9-5.2C244.4,53.8,246.8,53.7,248.5,54.6z"/>
				</g>
				<g>
					<linearGradient id="SVGID_13_" gradientUnits="userSpaceOnUse" x1="142.4437" y1="219.2945" x2="151.1351" y2="133.4236">
						<stop  offset="0" style="stop-color:#195EC3"/>
						<stop  offset="1" style="stop-color:#35B9C7"/>
					</linearGradient>
					<polygon class="st22" points="148.4,222.3 139.5,217.2 139.5,186.9 148.3,192.1 					"/>
				</g>
				<g>
					<path class="st6" d="M234.9,79.4c1.1-0.6,2-0.1,2,1.1c0,1.3-0.9,2.8-2,3.4L174.1,119c-1.1,0.6-2,0.1-2-1.1c0-1.3,0.9-2.8,2-3.4
						L234.9,79.4z M234.9,82.8c0.5-0.3,0.9-1,0.9-1.6c0-0.6-0.4-0.8-1-0.5l-60.8,35.1c-0.5,0.3-0.9,1-0.9,1.6c0,0.6,0.4,0.8,1,0.5
						L234.9,82.8"/>
				</g>
				<g>
					<path class="st5" d="M174.1,117.8c-0.5,0.3-0.9,0.1-1-0.5c0-0.6,0.4-1.3,0.9-1.6l60.8-35.1c0.5-0.3,0.9-0.1,1,0.5
						c0,0.6-0.4,1.3-0.9,1.6L174.1,117.8z"/>
				</g>
				<g>
					<linearGradient id="SVGID_14_" gradientUnits="userSpaceOnUse" x1="137.942" y1="218.839" x2="146.6334" y2="132.9682">
						<stop  offset="0" style="stop-color:#195EC3"/>
						<stop  offset="1" style="stop-color:#35B9C7"/>
					</linearGradient>
					<polygon class="st23" points="148.3,186.4 139.4,181.3 139.3,135.3 148.2,140.5 					"/>
				</g>
				<g>
					<polygon class="st17" points="148.2,140.5 139.3,135.3 141,134.4 149.9,139.5 					"/>
				</g>
				<g>
					<polygon class="st11" points="159,113.4 150.2,108.3 241.9,55.3 250.8,60.4 					"/>
				</g>
				<g>
					<path class="st11" d="M149.8,129.3l-8.9-5.2c0-5.8,4.1-13,9.2-15.9l8.9,5.2C153.9,116.3,149.8,123.5,149.8,129.3z"/>
				</g>
				<g>
					<polygon class="st11" points="149.9,139.5 141,134.4 141,124.2 149.8,129.3 					"/>
				</g>
			</g>
		</g>
		<g>
			<g>
				<linearGradient id="SVGID_15_" gradientUnits="userSpaceOnUse" x1="195.9905" y1="130.5307" x2="192.8281" y2="100.4879">
					<stop  offset="0" style="stop-color:#211E28"/>
					<stop  offset="1" style="stop-color:#29146D"/>
				</linearGradient>
				<polygon class="st24" points="194.8,115.6 196.3,118.1 199.6,116.8 197.2,120.8 197.8,124.3 194.8,124.2 191.9,127.7 
					192.4,123.6 190,122.3 193.3,119.9 				"/>
			</g>
			<g>
				<linearGradient id="SVGID_16_" gradientUnits="userSpaceOnUse" x1="184.0897" y1="131.7834" x2="180.9273" y2="101.7408">
					<stop  offset="0" style="stop-color:#211E28"/>
					<stop  offset="1" style="stop-color:#29146D"/>
				</linearGradient>
				<polygon class="st25" points="183.5,122.1 185,124.7 188.3,123.3 185.9,127.4 186.5,130.9 183.5,130.8 180.6,134.3 181.1,130.2 
					178.7,128.9 182,126.4 				"/>
			</g>
			<g>
				<linearGradient id="SVGID_17_" gradientUnits="userSpaceOnUse" x1="207.9138" y1="129.2755" x2="204.7515" y2="99.233">
					<stop  offset="0" style="stop-color:#211E28"/>
					<stop  offset="1" style="stop-color:#29146D"/>
				</linearGradient>
				<polygon class="st26" points="206.1,108.5 207.6,111.1 210.9,109.7 208.5,113.8 209.1,117.2 206.2,117.2 203.2,120.6 
					203.8,116.5 201.4,115.2 204.7,112.8 				"/>
			</g>
			<g>
				<linearGradient id="SVGID_18_" gradientUnits="userSpaceOnUse" x1="219.7137" y1="128.0335" x2="216.5513" y2="97.9909">
					<stop  offset="0" style="stop-color:#211E28"/>
					<stop  offset="1" style="stop-color:#29146D"/>
				</linearGradient>
				<polygon class="st27" points="217.4,102.4 218.9,105 222.2,103.6 219.8,107.7 220.4,111.1 217.4,111.1 214.5,114.6 215,110.4 
					212.6,109.1 216,106.7 				"/>
			</g>
			<g>
				<linearGradient id="SVGID_19_" gradientUnits="userSpaceOnUse" x1="232.0466" y1="126.7352" x2="228.8842" y2="96.6927">
					<stop  offset="0" style="stop-color:#211E28"/>
					<stop  offset="1" style="stop-color:#29146D"/>
				</linearGradient>
				<polygon class="st28" points="229.2,95.5 230.7,98.1 234,96.8 231.6,100.8 232.2,104.3 229.2,104.2 226.2,107.7 226.8,103.6 
					224.4,102.3 227.7,99.9 				"/>
			</g>
		</g>
	</g>
	<g>
		<g class="st29">
			<linearGradient id="SVGID_20_" gradientUnits="userSpaceOnUse" x1="149.7076" y1="352.8773" x2="286.1205" y2="352.8773">
				<stop  offset="0" style="stop-color:#FFFFFF"/>
				<stop  offset="1" style="stop-color:#000000"/>
			</linearGradient>
			<path class="st30" d="M266.3,380.8c-26.5,15.4-69.7,15.4-96.5,0c-26.7-15.4-26.9-40.5-0.3-55.9c24.1-14,61.8-15.3,88.5-3.9
				c2.8,1.2,5.4,2.5,7.9,3.9C292.7,340.4,292.8,365.4,266.3,380.8z"/>
		</g>
		<g class="st29">
			<linearGradient id="SVGID_21_" gradientUnits="userSpaceOnUse" x1="275.8166" y1="426.356" x2="378.2159" y2="396.959">
				<stop  offset="0" style="stop-color:#CCFAFF;stop-opacity:0"/>
				<stop  offset="1" style="stop-color:#460084"/>
			</linearGradient>
			<path class="st31" d="M365.8,434.1c-21.3,12.4-55.9,12.4-77.3,0c-21.4-12.4-21.5-32.4-0.3-44.8c19.3-11.2,49.5-12.3,71-3.1
				c2.2,0.9,4.3,2,6.4,3.1C387,401.6,387.1,421.7,365.8,434.1z"/>
		</g>
		<g id="XMLID_30_">
			<g>
				<path class="st32" d="M219.9,167.1c-0.7,1.4-1.6,1.9-1.6,1.9c0-0.6-0.2-1.2-0.4-1.8c-0.2-0.6-0.5-1.1-0.8-1.4
					c0.3-0.1,0.5-0.2,0.8-0.3c0,0,1.2-1,2-1.7l1,0.2C220.6,165.4,220.3,166.4,219.9,167.1z"/>
				
					<linearGradient id="SVGID_22_" gradientUnits="userSpaceOnUse" x1="257.7303" y1="190.656" x2="273.7309" y2="190.656" gradientTransform="matrix(-1 0 0 -1 529.7989 420.8142)">
					<stop  offset="0" style="stop-color:#FFF2D2"/>
					<stop  offset="1" style="stop-color:#FFCD9C"/>
				</linearGradient>
				<path class="st33" d="M271.9,231.9c0.4,1.8,0,3.5-1.5,4.7c-1.9,1.5-3.4,2-4.6,1.9c-2.1-0.1-3.2-1.8-3.6-2.4
					c-0.6-1-6.2-8.6-6.2-8.6c1.1-0.9,2.9-2.8,3.7-5.6C265.1,222.2,270.9,227.4,271.9,231.9z"/>
				<path class="st11" d="M365.9,292.5c0.2,1.3,0.3,2.4,0.5,3.1c0.2,1.1,0.3,1.7,0.3,1.7l-2.4,2.1v0l-8.9,7.9l-2.7-5l-2.7,7.1
					l-12.9-2.1l-17.6-5.1l0.7-48.6c8.5-7.2,16.5-16.8,17.1-21.2c1-7.7-2-11.5-8.7-11.4c3.2-2.7,6.4-4.7,9.4-6.3
					c9-4.7,16.3-5.4,16.3-5.4s15.8,8.3,11.9,36.5C363.2,266.4,364.8,284.3,365.9,292.5z"/>
				<path class="st34" d="M372.3,402.9c-1,3-5.7,4.8-9.6,5.7c-0.9,0.2-1.8,0.2-2.6-0.1c-1.9-0.6-3.4-2.4-3.5-4.6
					c-0.1-2.7-0.2-5.3-0.3-7.9c-1.1-23.7-4.3-42.7-7.4-56.1c-3.3-14.8-6.5-22.8-6.5-22.8c0,6.7-0.1,13-0.2,19
					c-0.5,25.5-1.5,44.5-2.5,58c-0.5,1.1-0.5,2.6-0.3,4.3c-1.2,15.1-2.4,21.8-2.4,21.8c-0.1,0-0.1,0-0.1,0.1
					c-7.6,2.6-13.8-1.2-13.8-1.2s0-1.1-0.1-3c-0.3-12.6-1.5-61.8-3.2-72.5c-1.9-12.4-0.5-41.1-0.5-41.1l17.6,5.1l12.9,2.1l2.7-7.1
					l2.7,5l8.9-7.9c0.1,1.3,0.2,2.6,0.3,3.9c0.2,2.7,0.4,5.5,0.6,8.2c1.1,13.3,2.1,26.9,3.1,39.4c1.8,23.5,3.3,43.1,3.8,49.6
					C372.2,402.1,372.3,402.9,372.3,402.9z"/>
				<path class="st34" d="M301.4,243.9c11.9-12.5,26.9-22.7,26.9-22.7c0.1,0,0.1,0,0.2,0c6.7-0.1,9.7,3.7,8.7,11.4
					c-0.6,4.4-8.6,14-17.1,21.2c-6.5,5.5-13.3,9.6-17.3,8.8c-9.2-1.9-29.3-14.6-30.4-17.4c-0.9-2.3,1.9-7.6,5-8.9
					c0.6-0.3,1.3-0.4,1.9-0.3C283.1,236.5,301.4,243.9,301.4,243.9z"/>
				<linearGradient id="SVGID_23_" gradientUnits="userSpaceOnUse" x1="321.7564" y1="198.0932" x2="352.1954" y2="198.0932">
					<stop  offset="0" style="stop-color:#FFF2D2"/>
					<stop  offset="1" style="stop-color:#FFCD9C"/>
				</linearGradient>
				<path class="st35" d="M340.7,209.1c-0.3,0.2-4.6,4.1-7.9,3.8c-3.4-0.3-6.7-6.4-6.7-6.4s-3-2.8-4-4c-1-1.2,1-6.2,1-6.2
					c-0.8-5.2,0.6-11.1,1.1-13.1c2,1.4,4.3,2.8,5.1,4.6c1.8,3.9,0,9.9,2.1,9.9c2.1,0.1,3.4-5.9,5.8-4.6c2.3,1.3-0.2,5.4-1.4,7.4
					c-1.1,1.9,3.3,3.3,6.3,4.1c3,0.7,9.3-2.5,9.3-2.5l0.1,0.4l0.8,3.9C350.2,205.9,340.7,209.1,340.7,209.1
					C340.7,209.1,340.7,209.1,340.7,209.1z"/>
				<path class="st5" d="M354.2,209.5c0,0-7.3,0.6-16.3,5.4l2.8-5.7c0,0,0,0,0,0s9.6-3.2,11.5-2.8L354.2,209.5z"/>
				<linearGradient id="SVGID_24_" gradientUnits="userSpaceOnUse" x1="210.3104" y1="373.2939" x2="210.0828" y2="298.4379">
					<stop  offset="0" style="stop-color:#232C5E"/>
					<stop  offset="1" style="stop-color:#3F2B85"/>
				</linearGradient>
				<path class="st36" d="M198.8,152.7c-8.5-8.1-3.4-16.5,1-22.6c4.4-6,13.3-5.3,20.3-1.2c7,4.1,4.2,11.2,4.2,11.2
					c-7.2,7.2-11.6,0-15,0.3c-3.4,0.3-2.6,13.5-4.9,12.8c-2.4-0.7-0.1-2.7-2.1-5.2c-2-2.5-5.1-4.4-4.8,0.6
					C197.6,150.4,198.1,151.7,198.8,152.7z"/>
				<linearGradient id="SVGID_25_" gradientUnits="userSpaceOnUse" x1="345.6696" y1="372.883" x2="345.442" y2="298.0271">
					<stop  offset="0" style="stop-color:#232C5E"/>
					<stop  offset="1" style="stop-color:#3F2B85"/>
				</linearGradient>
				<path class="st37" d="M348.9,340l-6.7-3.8c0.1-6,0.2-12.3,0.2-19C342.4,317.2,345.6,325.2,348.9,340z"/>
				<path class="st5" d="M216.3,209.8l-2.1,0.4c-1.1-5.9-2.6-10.6-4.8-12.6c-9.2-8.7-12.5-33.1-12.5-33.1l3.7-2.1
					c-0.2,1.1-0.2,2.3,0.2,3.6c1.3,4.5,5.6,8.9,5.6,8.9s3-6.4,5.9-8.4c0.1,0.2,1,4.3,2.7,5.2l0.1,31
					C215.2,202.7,215.6,206,216.3,209.8z"/>
				<linearGradient id="SVGID_26_" gradientUnits="userSpaceOnUse" x1="368.6078" y1="372.8128" x2="368.3802" y2="297.9573">
					<stop  offset="0" style="stop-color:#211E28"/>
					<stop  offset="1" style="stop-color:#29146D"/>
				</linearGradient>
				<path class="st38" d="M371,303.9c0,0.2,0,0.3,0,0.3c-0.3,3.7-4.1,4-3.9,1.1c0.1-2.4-0.9-3.2-1.3-3.5c1.8-1.7,3.9-2,3.9-2
					C370.9,301.8,371,303.3,371,303.9z"/>
				<path class="st5" d="M256.1,230.2c0.9-6.4,4-8.8,5.4-9.6l2.1,1.2c0,0-0.1,0.1-0.3,0.3c-1.2,1.1-5.5,5.6-6,9.1L256.1,230.2z"/>
				<path class="st32" d="M213.7,165.8c-0.4,0.1-0.9,0.3-1.3,0.6c0,0,0,0,0,0c-2.9,2-5.9,8.4-5.9,8.4s-4.3-4.3-5.6-8.9
					c-0.4-1.3-0.4-2.5-0.2-3.6c0.4-2.6,2-4.4,2-4.4C203.8,161.7,209.1,165.1,213.7,165.8z"/>
				<linearGradient id="SVGID_27_" gradientUnits="userSpaceOnUse" x1="197.4983" y1="153.1966" x2="224.3971" y2="153.1966">
					<stop  offset="0" style="stop-color:#FFF2D2"/>
					<stop  offset="1" style="stop-color:#FFCD9C"/>
				</linearGradient>
				<path class="st39" d="M216.3,166.1c-1,0.2-2.1,0.2-3.2,0c-4.3-0.7-9.3-3.9-10.3-7.4c-0.9-3-2.7-4.3-4-6.1l0,0
					c-0.7-1-1.2-2.2-1.3-4c-0.2-5,2.9-3.1,4.8-0.6c2,2.5-0.2,4.4,2.1,5.2c2.4,0.7,1.6-12.5,4.9-12.8c3.4-0.3,7.8,6.9,15-0.3
					c0,0-0.9,10.5-0.5,12.9c0.4,2-1.4,8.4-4.6,11.5c-0.7,0.6-1.4,1.2-2.2,1.4C216.8,166,216.6,166.1,216.3,166.1z"/>
				<linearGradient id="SVGID_28_" gradientUnits="userSpaceOnUse" x1="374.6971" y1="372.7946" x2="374.4695" y2="297.9388">
					<stop  offset="0" style="stop-color:#3F2B85"/>
					<stop  offset="1" style="stop-color:#232C5E"/>
				</linearGradient>
				<path class="st40" d="M367,305.4c-0.1,2.9,3.6,2.6,3.9-1.1c0,0,0-0.1,0-0.3l13.4,8.4l-9.6,5.6l-0.1,0l-9.5-6.5h0
					c-0.2-2.7-0.4-5.5-0.6-8.2c0.4-0.6,0.8-1.1,1.2-1.5C366.1,302.1,367.1,303,367,305.4z"/>
				<linearGradient id="SVGID_29_" gradientUnits="userSpaceOnUse" x1="340.7117" y1="372.8982" x2="340.4841" y2="298.0423">
					<stop  offset="0" style="stop-color:#232C5E"/>
					<stop  offset="1" style="stop-color:#3F2B85"/>
				</linearGradient>
				<path class="st41" d="M324.1,183.2c-2.4-1.7-4.5-3.2-3.5-5.1c2-3.4,3.3,1,8.1-2.5c4.9-3.4,9.2-6.3,17.1-4.7c7.8,1.7,8.8,8,8.8,8
					s7.4,4.7,4.7,11.8c-1.9,5.1-5.8,9.6-7.9,11.7l-0.1-0.4c0,0-6.4,3.3-9.3,2.5c-3-0.7-7.4-2.1-6.3-4.1c1.1-2,3.7-6.1,1.4-7.4
					c-2.3-1.3-3.7,4.6-5.8,4.6c-2.1,0-0.3-6.1-2.1-9.9C328.4,186.1,326.1,184.6,324.1,183.2z"/>
				<path class="st34" d="M265.4,268.8c11,9.1,0.7,79.2,0.7,79.2s-2.3-0.5-4.9-1.5c-2.7-1.1-5.9-2.7-7.3-4.8
					c-0.5-0.7-0.8-1.4-0.8-2.2l-1.4-52.9l-38.8-15.2c5.9-4.2,20.3-15,22-19.9l0.1-0.1C242.1,254.7,257.2,262.1,265.4,268.8z"/>
				<linearGradient id="SVGID_30_" gradientUnits="userSpaceOnUse" x1="219.834" y1="210.6467" x2="234.8648" y2="210.6467">
					<stop  offset="0" style="stop-color:#12285A"/>
					<stop  offset="1" style="stop-color:#294F91"/>
				</linearGradient>
				<path class="st42" d="M229,192l5.9,51.6l-3.9,6l-5.1,7.9l-0.2-3.9l-1.8-38.3c0,0,2.9-16.9,2.5-20c-0.3-3.1-6.5-28.1-6.5-28.1
					c0.4-0.7-0.2-1.9,0-3.2l5.9,0L229,192C229,192,229,192,229,192z"/>
				<linearGradient id="SVGID_31_" gradientUnits="userSpaceOnUse" x1="186.839" y1="270.5794" x2="234.9238" y2="270.5794">
					<stop  offset="0" style="stop-color:#211E28"/>
					<stop  offset="1" style="stop-color:#29146D"/>
				</linearGradient>
				<path class="st43" d="M217.1,268.4c-2.5,1.8-4.3,3-4.3,3v7.9l-25.7,14.8l-0.3-30.5l4.8-10.2l24.8,8.7c0,0,0.2-9.1,0.3-11.3
					l8.7-3.7l0,0l0.5,10.4l5.1-7.9c0,0,1.5,0.7,4,1.8l-0.1,0.1C233.1,256.4,223,264.2,217.1,268.4z"/>
				<path class="st5" d="M270.9,241c0.8-2.9,2.6-4.7,3.7-5.6c0.6-0.5,1-0.7,1-0.7l1.8,1.6c-3.1,1.4-5.9,6.6-5,8.9l-1.9-1.2
					C270.5,242.9,270.6,241.9,270.9,241z"/>
				<path class="st44" d="M222.6,194.5c-1.7-9.1-5.8-22.9-5.8-22.9s1-1.6,1-4.4c0.2,0.5,0.4,1.2,0.4,1.8L222.6,194.5z"/>
				<path class="st45" d="M223.8,215.2l-1-9.1c0.2-1.8,0.3-3.5,0.5-5c0.1-1.2,0-3-0.4-5.2l-0.2-1.4l-4.3-25.5c0,0,1.9-1.8,1.6-5.1
					h1.4c0,0,4.7,28.2,5.1,31.3C226.7,198.3,223.8,215.2,223.8,215.2z"/>
				<path class="st45" d="M214.3,210.2c0.7,3.8,1.2,8.1,1.5,12.6c-3.4-13.9-20.8-30.5-20.8-30.5l-0.3,0c0.6-6.3,0.5-13.5-2.3-16.9
					l4.5-11c0,0,3.2,24.4,12.5,33.1C211.7,199.6,213.2,204.3,214.3,210.2z"/>
				<path class="st34" d="M373.1,228c2.6,16,0.8,50.2-7.2,64.5c-1.1-8.2-2.7-26.1,0.1-46.6c3.9-28.2-11.9-36.5-11.9-36.5
					S370.4,211.2,373.1,228z"/>
				<path class="st46" d="M270,355.6c8.1,3,9.2,9.3,3.6,11.7c-5.5,2.3-12.1-4.4-13.9-6.7c-1.8-2.4-10.2-7.1-10.1-8.8
					c0.1-1.7,4.2-10,4.2-10c1.5,2.1,4.6,3.7,7.3,4.8l3.6,1.2L270,355.6z"/>
				<linearGradient id="SVGID_32_" gradientUnits="userSpaceOnUse" x1="379.7921" y1="372.7792" x2="379.5645" y2="297.9234">
					<stop  offset="0" style="stop-color:#3F2B85"/>
					<stop  offset="1" style="stop-color:#232C5E"/>
				</linearGradient>
				<polygon class="st47" points="384.4,312.4 384.4,349.2 375,354.8 375,318.3 374.8,318 				"/>
				<linearGradient id="SVGID_33_" gradientUnits="userSpaceOnUse" x1="150.0442" y1="251.1893" x2="165.9131" y2="251.1893">
					<stop  offset="0" style="stop-color:#FFF2D2"/>
					<stop  offset="1" style="stop-color:#FFCD9C"/>
				</linearGradient>
				<path class="st48" d="M165.9,249.4c-3,4.8-5.1,7.9-5.2,8.1c0,0,0,0,0,0c-0.7,0.8-1.5,1.4-2.3,1.8c-3.7,1.8-8.8-0.9-8.3-5.7
					c0.5-4.7,10.3-11,10.3-11S165.5,242.8,165.9,249.4z"/>
				<linearGradient id="SVGID_34_" gradientUnits="userSpaceOnUse" x1="186.6196" y1="227.9814" x2="216.6363" y2="227.9814">
					<stop  offset="0" style="stop-color:#12285A"/>
					<stop  offset="1" style="stop-color:#294F91"/>
				</linearGradient>
				<path class="st49" d="M215.8,222.9c1.1,13.7,0.9,28.9,0.7,35.6c-0.1,2.3-0.1,3.6-0.1,3.6l-24.8-8.7l-4.8,10.2v-47.8l-0.2-0.1
					c3.7-6.6,6.5-12,6.9-14.4c0.4-2.2,0.9-5.3,1.2-8.8l0.3,0C195,192.4,212.4,208.9,215.8,222.9z"/>
				<path class="st5" d="M220.1,220c1.6-2.2,2.2-8.4,2.7-13.8l1,9.1l1.5,31.8l0,0l-8.7,3.7c0.2-6.7,0.3-14.2-0.8-27.9
					c-0.4-4.5-0.9-8.8-1.5-12.6l2.1-0.4C217.3,215.3,218.8,221.7,220.1,220z"/>
				<path class="st46" d="M336.9,420.3c0.2,1.9,0.4,7.1-1.9,9.2c-2.1,1.8-4.8,1.3-9.9-0.1c-4.3-1.2-8.4-2.9-12.4-5l-8.4-4.4
					c-0.8-6-1.3-10.5,7.5-9c1.9,0.3,7.5,3.2,11.2,5.1c0,1.9,0.1,3,0.1,3S329.3,422.9,336.9,420.3z"/>
				<path class="st46" d="M370.4,410.5c-2.2,1.9-5.2,1.3-10.8-0.4c-0.5-0.2-1.1-0.3-1.7-0.5c-2.6-0.8-5.2-1.8-7.7-3.1l-10.5-5.3
					c-0.1-1-0.3-1.9-0.3-2.8c0.1-1.4,0.2-2.8,0.3-4.3c0.8-1.9,2.9-2.8,7.5-2c1.6,0.3,5.6,2.2,9.1,3.9c0.1,2.6,0.2,5.2,0.3,7.9
					c0.1,2.2,1.6,4,3.5,4.6c0.8,0.2,1.7,0.3,2.6,0.1c4-1,8.6-2.7,9.6-5.7c0,0-0.1-0.8-0.2-2.3l0.1,0
					C372.2,400.6,373.3,407.9,370.4,410.5z"/>
				<linearGradient id="SVGID_35_" gradientUnits="userSpaceOnUse" x1="160.3709" y1="211.4027" x2="195.0058" y2="211.4027">
					<stop  offset="0" style="stop-color:#211E28"/>
					<stop  offset="1" style="stop-color:#29146D"/>
				</linearGradient>
				<path class="st50" d="M192.5,175.5c2.7,3.4,2.8,10.6,2.3,16.9c-0.3,3.5-0.8,6.7-1.2,8.8c-0.4,2.4-3.2,7.8-6.9,14.4
					c-6.2,10.9-15.1,25-20.7,33.7c-0.4-6.5-5.5-6.8-5.5-6.8s16.3-52.5,18.3-59.4c2-7,4.5-8.3,4.5-8.3
					C187.8,172.6,190.7,173.2,192.5,175.5z"/>
				<linearGradient id="SVGID_36_" gradientUnits="userSpaceOnUse" x1="339.287" y1="396.2318" x2="339.6996" y2="396.2318">
					<stop  offset="0" style="stop-color:#211E28"/>
					<stop  offset="1" style="stop-color:#29146D"/>
				</linearGradient>
				<path class="st51" d="M339.4,398.4c-0.2-1.7-0.1-3.1,0.3-4.3C339.6,395.6,339.5,397,339.4,398.4z"/>
				<linearGradient id="SVGID_37_" gradientUnits="userSpaceOnUse" x1="370.2671" y1="372.8082" x2="370.0395" y2="297.9523">
					<stop  offset="0" style="stop-color:#232C5E"/>
					<stop  offset="1" style="stop-color:#3F2B85"/>
				</linearGradient>
				<path class="st52" d="M375,318.3v36.5l-6.6-3.8c-1-12.5-2-26-3.1-39.4h0l9.5,6.5l0.1,0L375,318.3z"/>
				<linearGradient id="SVGID_38_" gradientUnits="userSpaceOnUse" x1="364.2441" y1="299.5391" x2="369.6778" y2="299.5391">
					<stop  offset="0" style="stop-color:#FFF2D2"/>
					<stop  offset="1" style="stop-color:#FFCD9C"/>
				</linearGradient>
				<path class="st53" d="M365.8,301.9c-0.4,0.4-0.9,0.9-1.2,1.5c-0.1-1.3-0.2-2.6-0.3-3.9v0l2.4-2.1c0,0-0.1-0.6-0.3-1.7
					c0,0,3.2,0.2,3.3,4.2C369.7,299.9,367.6,300.2,365.8,301.9z"/>
				<linearGradient id="SVGID_39_" gradientUnits="userSpaceOnUse" x1="258.5621" y1="232.6924" x2="274.5628" y2="232.6924">
					<stop  offset="0" style="stop-color:#FFF2D2"/>
					<stop  offset="1" style="stop-color:#FFCD9C"/>
				</linearGradient>
				<path class="st54" d="M258.7,231c-0.4-1.8,0-3.5,1.5-4.7c1.9-1.5,3.4-2,4.6-1.9c2.1,0.1,3.2,1.8,3.6,2.4c0.6,1,6.2,8.6,6.2,8.6
					c-1.1,0.9-2.9,2.8-3.7,5.6C265.5,240.7,259.7,235.5,258.7,231z"/>
				<path class="st11" d="M256.1,230.2c0,0-22.8-20.3-27.1-38.2c0,0,0,0,0,0l-3.2-28.1c0,0,3.1-4.2,11.1,11.7
					c8,15.8,18.7,39.6,25.4,44.8c0,0-0.3,0.1-0.8,0.3C260,221.4,257,223.7,256.1,230.2z"/>
				<linearGradient id="SVGID_40_" gradientUnits="userSpaceOnUse" x1="183.2362" y1="169.9868" x2="197.0061" y2="169.9868">
					<stop  offset="0" style="stop-color:#12285A"/>
					<stop  offset="1" style="stop-color:#294F91"/>
				</linearGradient>
				<path class="st55" d="M183.2,174.8l13.8-10.4l-4.5,11C190.7,173.2,187.8,172.6,183.2,174.8z"/>
				<path class="st56" d="M217.9,167.2c0,2.7-1,4.4-1,4.4h-1.8c-1.7-1-2.6-5-2.7-5.2c0,0,0,0,0,0c0.4-0.3,0.9-0.5,1.3-0.6
					c1.2,0.2,2.4,0.2,3.4,0C217.4,166.1,217.7,166.6,217.9,167.2z"/>
				<path class="st56" d="M222.8,206.2c-0.5,5.4-1.1,11.6-2.7,13.8c-1.3,1.7-2.8-4.7-3.8-10.2c-0.7-3.8-1.2-7.2-1.2-7.2l-0.1-31h1.8
					c0,0,7.1,23.7,6.4,29.6C223.1,202.6,223,204.4,222.8,206.2z"/>
			</g>
			<line class="st44" x1="222.9" y1="195.9" x2="222.6" y2="194.5"/>
		</g>
	</g>
	<g>
		<g class="st57">
			<g>
				<polygon class="st58" points="253.6,79.7 253.7,131.3 157.3,298.4 157.1,234 242.4,86.2 				"/>
			</g>
			<g>
				<polygon class="st59" points="242.4,86.2 157.1,234 156.9,186.2 200.9,110.2 				"/>
			</g>
			<g>
				<linearGradient id="SVGID_41_" gradientUnits="userSpaceOnUse" x1="156.7921" y1="148.2008" x2="200.8564" y2="148.2008">
					<stop  offset="0" style="stop-color:#460084"/>
					<stop  offset="1" style="stop-color:#D9FFFF"/>
				</linearGradient>
				<polygon class="st60" points="200.9,110.2 156.9,186.2 156.8,135.6 				"/>
			</g>
			<g>
				<polygon class="st61" points="253.7,131.3 157.3,298.4 157.3,311.7 197.7,288.3 253.9,191 				"/>
			</g>
		</g>
		<linearGradient id="SVGID_42_" gradientUnits="userSpaceOnUse" x1="150.0442" y1="251.1893" x2="165.9131" y2="251.1893">
			<stop  offset="0" style="stop-color:#FFF2D2"/>
			<stop  offset="1" style="stop-color:#FFCD9C"/>
		</linearGradient>
		<path class="st62" d="M165.9,249.4c-3,4.8-5.1,7.9-5.2,8.1c0,0,0,0,0,0c-0.7,0.8-1.5,1.4-2.3,1.8c-3.7,1.8-8.8-0.9-8.3-5.7
			c0.5-4.7,10.3-11,10.3-11S165.5,242.8,165.9,249.4z"/>
	</g>
	<g>
		<g class="st63">
			<g>
				<linearGradient id="SVGID_43_" gradientUnits="userSpaceOnUse" x1="139.1427" y1="169.1476" x2="143.9113" y2="169.1476">
					<stop  offset="0" style="stop-color:#FFF2D2"/>
					<stop  offset="1" style="stop-color:#FFCD9C"/>
				</linearGradient>
				<path class="st64" d="M142.4,163.5c0.1-0.1,0.2-0.1,0.3-0.2c0.4-0.1,0.9-0.1,1.1,0.8c0.1,0.2,0.1,0.5,0.1,0.8c0,0.1,0,0.2,0,0.3
					c0,3-1.8,7.7-4.8,9.8c0.1-0.2,0.1-0.3,0.1-0.3l0.5-4.7c0.1-0.1,1.9-1.1,1.9-4c0-0.2,0-0.4,0-0.6c0-0.1,0-0.2,0-0.4
					c0-0.3,0-0.6,0.1-0.9l0.1,0C141.7,164,141.9,163.8,142.4,163.5C142.3,163.5,142.3,163.5,142.4,163.5z"/>
			</g>
			<g>
				<path class="st65" d="M154,190.5c2-0.2,3.6-0.2,3.9,0.1c0.6,0.5,0.8,1.3,0.8,2.2c0,0.8-0.1,1.6-0.1,2c0,0.9,1.1,21.2,1.2,22.2
					l-11.1,6.4c0-0.2,0.3-22.8,0.4-23.7C149.2,198.8,153.8,191,154,190.5z"/>
			</g>
			<g>
				<path class="st65" d="M100.2,221.6c0.2,0.1,4.9,2.7,5,3.4c0.1,0.8,0.5,22.1,0.5,23.2l-11.1,6.4l0-0.3c0.1-1.1,1-22.3,1-23.2
					c0-0.5-0.1-1.1-0.1-1.9c0-0.8,0.1-1.9,0.7-3C96.6,225.6,98.1,223.8,100.2,221.6z"/>
			</g>
			<g class="st2">
				<g>
					<path class="st66" d="M141.5,192.2c0.4-0.1,7.6-1.2,12.5-1.6c-0.2,0.4-4.8,8.3-4.9,9.2c-0.1,0.9-0.4,23.6-0.4,23.7l-21.5,12.4
						l0-0.3l15.5-23.3l-4.8-3.5l6.1-4.5L141.5,192.2z"/>
				</g>
				<g>
					<polygon class="st65" points="137.9,190.3 141.5,192.2 144,204.3 137.9,208.8 142.7,212.3 127.2,235.6 127.2,232.6 
						134.7,210.9 					"/>
				</g>
				<g>
					<polygon class="st5" points="136.4,188.7 137.9,190.3 131.8,207.5 128.4,202.5 					"/>
				</g>
				<g>
					<polygon class="st67" points="137.9,190.3 134.7,210.9 127.2,232.6 119.6,219.6 116.2,202.8 122.5,212.9 125.8,204 
						127.1,203.2 128.4,202.5 131.8,207.5 					"/>
				</g>
				<g>
					<polygon class="st65" points="116.2,202.8 119.6,219.6 127.2,232.6 127.2,235.6 111.6,230.3 116.3,221.3 110.2,223.8 
						112.7,208.8 					"/>
				</g>
				<g>
					<polygon class="st5" points="117.8,199.5 125.8,204 122.5,212.9 116.2,202.8 					"/>
				</g>
				<g>
					<linearGradient id="SVGID_44_" gradientUnits="userSpaceOnUse" x1="117.7381" y1="193.7581" x2="136.3584" y2="193.7581">
						<stop  offset="0" style="stop-color:#FFF2D2"/>
						<stop  offset="1" style="stop-color:#FFCD9C"/>
					</linearGradient>
					<path class="st68" d="M136.3,183.5l0,5.2l-8,13.8l-1.3,0.7l-1.3,0.7l-8-4.5l0-5.2c0.7,0.8,1.5,1.4,2.4,1.7
						c3.3,1,2.6,1.8,6.8-0.6l0.4-0.2c4.2-2.4,3.4-2.3,6.7-7.2C134.9,186.7,135.7,185.1,136.3,183.5z"/>
				</g>
				<g>
					<path class="st66" d="M112.7,208.8l-2.5,15l6.1-2.5l-4.7,9l15.6,5.3l0,0.3l-21.5,12.4c0-1.1-0.4-22.4-0.5-23.2
						c-0.1-0.8-4.7-3.3-5-3.4C105.1,216.4,112.3,209.2,112.7,208.8z"/>
				</g>
				<g>
					<linearGradient id="SVGID_45_" gradientUnits="userSpaceOnUse" x1="121.7455" y1="176.1092" x2="139.6795" y2="176.1092">
						<stop  offset="0" style="stop-color:#FFF2D2"/>
						<stop  offset="1" style="stop-color:#FFCD9C"/>
					</linearGradient>
					<path class="st69" d="M132.4,157.6c0.2-0.1,0.5-0.3,0.8-0.4c0,0,0.1,0,0.1,0c0.1,0,0.1,0,0.1,0c0,0,0.1,0,0.1,0
						c3.6-1.3,2.2,4.8,4.3,5.3c1.1,0.3,1.3,1.5,1.3,3c0,1.4-0.3,3-0.3,3.8c0,0.2,0,0.3,0,0.4c0.1,0.6,0.3,0.6,0.5,0.5
						c0.2-0.1,0.2-0.2,0.2-0.2l-0.5,4.7c0,0,0,0.1-0.1,0.3c-0.3,1.1-1.2,4.9-2.8,8.5c-0.7,1.6-1.5,3.1-2.3,4.4
						c-3.3,4.8-2.5,4.7-6.7,7.2l-0.4,0.2c0-0.3-0.5-5.3-0.5-9.1c0-0.1,0-0.2,0-0.3c0,0,0,0-0.1,0c-0.1,0.1-0.2,0.1-0.3,0.2
						c-0.1,0.1-0.2,0.1-0.4,0.2c-0.1,0-0.2,0.1-0.2,0.1c-0.2,0.1-0.5,0.1-0.7,0c0,0-0.1,0-0.1,0c-0.1-0.1-0.2-0.1-0.2-0.2
						c0,0-0.1-0.1-0.1-0.1c0-0.1-0.1-0.1-0.1-0.2c0-0.1-0.1-0.3-0.1-0.5c0,0,0-0.1,0-0.1c0-2.1,2-4.9,2-8.6c0-3.6-4-7-4.3-13
						c0.1-0.1,0.3-0.1,0.4-0.1c1.3-0.4,1,1.2,4.6-0.8c0,0,0.1,0,0.1-0.1c0.1,0,0.1-0.1,0.2-0.1c0.1,0,0.1-0.1,0.2-0.1
						c2-1.2,2.9-2.1,3.4-2.9C131.1,158.8,131.4,158.1,132.4,157.6z"/>
				</g>
				<g>
					<linearGradient id="SVGID_46_" gradientUnits="userSpaceOnUse" x1="110.0915" y1="185.1352" x2="114.896" y2="185.1352">
						<stop  offset="0" style="stop-color:#FFF2D2"/>
						<stop  offset="1" style="stop-color:#FFCD9C"/>
					</linearGradient>
					<path class="st70" d="M111.6,181.2c0,0,0.1,0,0.1-0.1c0.2-0.1,0.4-0.2,0.5-0.2c0,0,0,0,0.1,0l0.1-0.1c0,0.2,0.1,0.5,0.1,0.7
						c0,0.2,0,0.3,0,0.5c0,0.2,0,0.4,0,0.6c0,2.8,1.8,1.9,1.9,1.8l0.5,4.2c0,0,0,0.1,0.1,0.3c-3,1.3-4.8-1.3-4.8-4.3
						c0-0.1,0-0.2,0-0.3c0.1-1.8,0.8-2.6,1.4-3.1C111.5,181.3,111.6,181.3,111.6,181.2z"/>
				</g>
				<g>
					<path class="st66" d="M126.7,149.8c0.1-0.1,0.2-0.1,0.2-0.1c0.1,0,0.1-0.1,0.2-0.1c9.4-5.4,11.7-3.1,11.9-1.7
						c0,0.1,0,0.1,0,0.2c0,1.3,4.1,3.5,4.8,6.6c0.1,0.3,0.1,0.6,0.1,0.9c0,2.6-2,5.8-2.4,8.6c0,0.3-0.1,0.6-0.1,0.9
						c0,0.1,0,0.3,0,0.4c0,0.2,0,0.4,0,0.6c0,2.8-1.8,3.9-1.9,4c0,0,0,0-0.1,0.1c-0.3,0.1-0.5,0.1-0.6-0.4c0-0.1,0-0.2,0-0.4
						c0-0.8,0.3-2.4,0.3-3.8c0-1.4-0.3-2.7-1.3-3c-2.2-0.6-0.7-6.6-4.3-5.3c0,0-0.1,0-0.1,0c0,0-0.1,0-0.1,0c0,0-0.1,0-0.1,0
						c-0.3,0.1-0.6,0.3-0.8,0.4c-1,0.6-1.3,1.2-1.8,2c-0.5,0.8-1.4,1.8-3.4,2.9c-0.1,0-0.1,0.1-0.2,0.1c-0.1,0-0.1,0.1-0.2,0.1
						c-3.6,2.1-3.4,0.5-4.7,0.8c-0.1,0-0.2,0.1-0.4,0.1c-0.1,0-0.1,0.1-0.2,0.1c-0.1,0.1-0.3,0.2-0.4,0.2c-0.2,0.2-0.5,0.4-0.8,0.6
						c-3.6,2.9-2.1,7.2-4.3,10.3c-1.1,1.5-1.3,3.1-1.3,4.5c0,1.4,0.3,2.7,0.3,3.5c0,1-0.3,1.4-0.5,1.5c-0.1,0.1-0.2,0.1-0.2,0.1
						c-0.1,0.1-1.9,1-1.9-1.8c0-0.2,0-0.4,0-0.6c0-0.2,0-0.3,0-0.5c0-0.3,0-0.5-0.1-0.7c-0.4-2.3-2.4-3.1-2.5-5.7
						c0-0.3,0-0.7,0.1-1.1c0.7-4,4.8-10.8,4.8-12.1C114.8,160.7,116.9,155.5,126.7,149.8z"/>
				</g>
				<g>
					<path class="st11" d="M162.2,122.8l0.3,92.6l-2.8,1.6c-0.1-1.1-1.2-21.3-1.2-22.2c0-0.5,0.1-1.2,0.1-2c0-0.8-0.2-1.7-0.8-2.2
						c-0.3-0.3-1.9-0.3-3.9-0.1c-4.9,0.4-12.2,1.6-12.5,1.6l-3.6-1.8l-1.5-1.6l0-5.2c1.6-3.6,2.5-7.4,2.8-8.5c3-2.1,4.8-6.8,4.8-9.8
						c0-0.1,0-0.2,0-0.3c0-0.3-0.1-0.6-0.1-0.8c-0.2-0.8-0.7-0.9-1.1-0.8c-0.1,0-0.2,0.1-0.3,0.2c-0.4,0.3-0.7,0.5-0.7,0.6
						c0.3-2.7,2.4-6,2.3-8.5c0-0.3,0-0.6-0.1-0.9c-0.8-3.1-4.8-5.3-4.8-6.6c-0.2-1.5-2.6-3.8-11.9,1.5
						c-10.2,5.9-12.3,11.2-12.3,12.5c0,1.3-4,8.2-4.8,12.1c-0.1,0.4-0.1,0.8-0.1,1.1c0,2.6,2.1,3.4,2.5,5.7
						c-0.2,0.1-0.4,0.1-0.7,0.2c-0.9,0.6-1.6,1.5-1.7,3.2c0,0.1,0,0.2,0,0.3c0,3,1.8,5.6,4.8,4.3c0.3,0.8,1.3,3.5,2.8,5.3l0,5.2
						l-1.5,3.4l-3.6,6c-0.4,0.4-7.6,7.6-12.5,12.8c-2,2.2-3.6,4-3.9,4.6c-0.6,1.2-0.7,2.2-0.7,3c0,0.8,0.1,1.4,0.1,1.9
						c0,0.9-1,22.1-1,23.2l-2.8,1.8l-0.3-92.6L162.2,122.8z"/>
				</g>
				<g>
					<linearGradient id="SVGID_47_" gradientUnits="userSpaceOnUse" x1="114.3323" y1="180.3312" x2="126.8636" y2="180.3312">
						<stop  offset="0" style="stop-color:#FFF2D2"/>
						<stop  offset="1" style="stop-color:#FFCD9C"/>
					</linearGradient>
					<path class="st71" d="M126.4,186c0,0,0,0-0.1,0.1c-0.1,0-0.2,0.1-0.3,0.1c-0.1,0.1-0.2,0.1-0.4,0.2c-0.1,0-0.2,0.1-0.2,0.1
						c-0.2,0.1-0.5,0.1-0.7,0c0,0-0.1,0-0.2-0.1c0,0-0.1-0.1-0.1-0.1c0,0-0.1-0.1-0.1-0.1c0-0.1-0.1-0.1-0.1-0.2
						c0-0.1-0.1-0.3-0.1-0.5c0,0,0-0.1,0-0.1c0-2.1,2-4.9,2-8.6c0-3.6-4-7-4.3-13c0,0-0.1,0-0.1,0c0,0,0,0-0.1,0c0,0-0.1,0-0.1,0
						c-0.1,0.1-0.2,0.1-0.3,0.2c0,0-0.1,0-0.1,0.1c0,0-0.1,0-0.1,0.1c-0.1,0.1-0.2,0.1-0.3,0.2c0,0-0.1,0.1-0.1,0.1
						c-0.1,0.1-0.2,0.2-0.3,0.3c-0.5,0.4-0.8,0.7-1.1,1.2c0,0.1-0.1,0.1-0.1,0.2c0,0.1-0.1,0.1-0.1,0.2c0,0,0,0.1-0.1,0.1
						c-0.3,0.4-0.5,0.8-0.7,1.3c0,0.1-0.1,0.2-0.1,0.2c-0.1,0.4-0.3,0.8-0.4,1.3c0,0,0,0.1,0,0.1c0,0.2-0.1,0.3-0.1,0.5
						c0,0,0,0.1,0,0.1c0,0.1,0,0.2-0.1,0.3c0,0,0,0.1,0,0.1c0,0.1,0,0.2,0,0.3c0,0.1,0,0.1,0,0.2c0,0.1,0,0.3-0.1,0.4
						c0,0,0,0.1,0,0.1c0,0.1-0.1,0.3-0.1,0.4c0,0.1,0,0.1,0,0.2c-0.1,0.6-0.3,1.2-0.4,1.7c0,0,0,0.1,0,0.1c-0.2,0.5-0.4,1-0.8,1.5
						c-0.3,0.4-0.5,0.8-0.7,1.1c0,0,0,0.1-0.1,0.1c-0.1,0.1-0.1,0.3-0.2,0.4c-0.3,1-0.4,1.9-0.4,2.8c0,0.1,0,0.2,0,0.3
						c0,1.3,0.3,2.5,0.3,3.2c0,0,0,0,0,0c0,0,0,0,0,0c0,0.4,0,0.7-0.1,0.9c-0.1,0.3-0.2,0.5-0.4,0.6c0,0,0,0,0,0c0,0,0,0,0,0
						c-0.1,0.1-0.2,0.1-0.2,0.1c0,0,0,0,0,0l0.5,4.2c0,0,0,0.1,0.1,0.3c0.3,0.8,1.3,3.5,2.8,5.3c0.7,0.8,1.5,1.4,2.4,1.7
						c3.3,1,2.6,1.8,6.8-0.6c0-0.3-0.5-5.3-0.5-9.1C126.4,186.2,126.4,186.1,126.4,186z"/>
				</g>
			</g>
		</g>
		<g>
			<g>
				<polygon class="st5" points="127,218.5 128.5,221.1 131.8,219.8 129.4,223.8 130,227.3 127,227.2 124.1,230.7 124.6,226.6 
					122.2,225.3 125.5,222.8 				"/>
			</g>
			<g>
				<polygon class="st5" points="115.6,225.1 117.1,227.7 120.4,226.3 118.1,230.4 118.6,233.8 115.7,233.8 112.7,237.3 
					113.3,233.1 110.9,231.8 114.2,229.4 				"/>
			</g>
			<g>
				<polygon class="st5" points="138.3,211.4 139.8,214 143.1,212.7 140.7,216.7 141.3,220.2 138.3,220.1 135.4,223.6 135.9,219.5 
					133.5,218.2 136.8,215.8 				"/>
			</g>
		</g>
	</g>
	<g>
		<g class="st63">
			<g class="st2">
				<g>
					<path class="st65" d="M306.4,120.6c1.8-0.1,3.1-0.2,3.4,0.1c0.5,0.4,0.7,1.2,0.7,1.9c0,0.7-0.1,1.4-0.1,1.8
						c0,0.8,2.6,16.6,2.7,17.4l0,0.7l-9.6,5.6l0-0.7c-0.1-0.8-1.4-16.7-1.4-18.6c0-0.1,0-0.1,0-0.1
						C302.2,127.8,306.2,121,306.4,120.6z"/>
				</g>
				<g>
					<path class="st66" d="M295.5,122l7.5-1.1c0.8-0.1,1.7-0.2,2.5-0.3c0.3,0,0.6-0.1,0.9-0.1c0,0-4.2,7.2-4.3,8c0,0,0,0.1,0,0.1
						c0,1.9,1.3,17.8,1.4,18.6l0,0.7l-20.4,11.8l13.5-20.2l-4.1-3.1l5.3-3.9L295.5,122z"/>
				</g>
				<g>
					<polygon class="st65" points="292.4,120.5 295.5,122 297.7,132.6 292.4,136.5 296.6,139.6 283.1,159.8 283.1,157.2 
						289.6,138.3 					"/>
				</g>
				<g>
					<polygon class="st5" points="291,119.1 292.4,120.5 287,135.4 284.1,131 290.3,120.3 					"/>
				</g>
				<g>
					<polygon class="st67" points="292.4,120.5 289.6,138.3 283.1,157.2 276.5,145.9 273.6,131.3 279,140.1 281.9,132.3 283,131.7 
						284.1,131 287,135.4 					"/>
				</g>
				<g>
					<path class="st66" d="M270.5,136.5l-2.2,13.1l5.3-2.2l-4.1,7.8l13.6,4.6l-19.5,11.3l0-0.7c0-0.8,0.4-15.9,0.4-19.2
						c0-0.3,0-0.5,0-0.6c-0.1-0.7-4.1-2.9-4.3-3c0.6-0.6,1.2-1.3,1.9-2c0.4-0.4,0.7-0.8,1.1-1.2L270.5,136.5z"/>
				</g>
				<g>
					<polygon class="st65" points="276.5,145.9 283.1,157.2 283.1,159.8 269.5,155.2 273.6,147.4 268.3,149.6 270.5,136.5 
						273.6,131.3 					"/>
				</g>
				<g>
					<polygon class="st5" points="274.9,128.4 275.6,128.8 281.9,132.3 279,140.1 273.6,131.3 					"/>
				</g>
				<g>
					<path class="st65" d="M259.6,147.7c0.2,0.1,4.2,2.3,4.3,3c0,0.1,0,0.3,0,0.6c0,3.3-0.4,18.4-0.4,19.2l0,0.7l-9.6,5.6l0-0.7
						c0.1-1,1.8-19.2,1.8-20c0-0.4-0.1-1-0.1-1.6c0-0.7,0.1-1.6,0.6-2.6C256.5,151.1,257.8,149.5,259.6,147.7z"/>
				</g>
				<g>
					<linearGradient id="SVGID_48_" gradientUnits="userSpaceOnUse" x1="270.4327" y1="108.2128" x2="282.9563" y2="108.2128">
						<stop  offset="0" style="stop-color:#FFF2D2"/>
						<stop  offset="1" style="stop-color:#FFCD9C"/>
					</linearGradient>
					<path class="st72" d="M279.5,94.5c1.2,2.8,2.8,5.1,2.9,7.3c0,3.7-2,6.5-2,8.6c0,0,0,0.1,0,0.1c0,0,0,0.1,0,0.1
						c0,0.2,0,0.3,0.1,0.4c0,0.1,0.1,0.2,0.1,0.2c0,0,0.1,0.1,0.1,0.1c0,0,0.1,0.1,0.1,0.1c0,0,0,0,0,0c0,0,0,0,0,0c0,0,0.1,0,0.1,0
						c0.2,0.1,0.4,0,0.7,0c0.1,0,0.2,0,0.2-0.1c0.1,0,0.3-0.1,0.4-0.2c0.1-0.1,0.2-0.1,0.3-0.1c0.1-0.1,0.1-0.1,0.1-0.1
						c0,0.1,0,0.2,0,0.4c0,3.9,0.3,10.1,0.3,10.4c-0.2,0-3.2,0.1-6.6-0.8c-0.9-0.3-1.7-0.9-2.4-1.7c-1.9-2.2-2.9-5.4-2.9-5.5
						l-0.4-3.5c-0.2-0.6-0.3-1.2-0.3-1.9c0-1.2,0.2-2.4,0.6-3.7c0.5-1.6,1.3-3.1,2.2-4.5c1.6-2.3,3.7-3.9,5.7-5.3
						C279.1,94.8,279.3,94.6,279.5,94.5z"/>
				</g>
				<g>
					<path class="st11" d="M319.1,46.2l0.3,92.6l-6.3,3.6l0-0.7c-0.1-0.8-2.7-16.6-2.7-17.4c0-0.4,0.1-1.1,0.1-1.8
						c0-0.7-0.1-1.5-0.7-1.9c-0.3-0.2-1.7-0.2-3.4-0.1c-0.3,0-0.6,0-0.9,0.1c1.1-2,1.5-3.7,1.5-5.3c0-1.5-0.4-2.8-1-3.8
						c-1.3-2-3.3-3-4.5-5.1c-1.3-2.1-1.7-5.1-1.7-8.3c0-1,0-2,0.1-3c0.1-2.6,0.3-5.3,0.3-7.8c0-1.6-0.1-3.2-0.4-4.7
						c-1.1-6.1-5.4-9.5-11-8.7c-0.1,0-0.3,0-0.4,0.1c-1.8,0.3-3.7,1-5.6,2.1c-4.1,2.4-7.9,6.1-10.9,10.5c-4.2,6.2-6.7,13.7-6.6,19.7
						c0,0.7,0,1.5,0.1,2.2c0.4,3.3,1.5,6,2.4,8.8c0.6,1.9,1,4,1,6.3c0,1.2-0.1,2.5-0.4,3.8c-1.2,6-5.5,12.2-7,18.2
						c-0.7,0.7-1.3,1.4-1.9,2c-1.8,1.9-3.1,3.4-3.4,4c-0.5,1-0.6,1.9-0.6,2.6c0,0.7,0.1,1.2,0.1,1.6c0,0.8-1.7,19-1.8,20l0,0.7
						l-5.2,3L248.5,87L319.1,46.2z"/>
				</g>
				<g>
					<path class="st66" d="M282.8,76.2c2-1.1,3.9-1.9,5.7-2.2c0.1,0,0.3,0,0.4-0.1c5.6-0.8,9.9,2.6,11,8.7c0.3,1.5,0.4,3,0.4,4.7
						c0,2.5-0.2,5.2-0.3,7.8c0,1-0.1,2-0.1,3c0,3.2,0.4,6.2,1.7,8.3c1.2,2,3.3,3.1,4.5,5.1c0.6,1,1,2.3,1,3.8c0,1.6-0.4,3.4-1.4,5
						l-0.1,0.3c-0.8,0.1-1.6,0.2-2.5,0.3l-7.5,1.1l-3.1-1.6l-1.3-1.4l-0.7,1.3l-0.9-6c0.3-0.4,0.6-0.9,0.9-1.3
						c0.9-1.3,1.7-2.8,2.4-4.4c1.9-4.3,2.8-8.7,2.9-8.9l0.3-2.8c0-0.3,0-0.6,0-0.9c0-0.3,0-0.6,0-0.9c0-1.1-0.1-2.2-0.3-3.2
						c-0.3-1.7-0.9-3.2-2-4c-1-0.7-2.1-1.1-3.1-1.8c-0.9-0.7-1.7-1.8-1.7-3.4c-0.2,0.1-0.3,0.2-0.5,0.3c-0.1,2.3-1.6,5-3.4,7
						c-1.7,1.9-3.5,3.2-5.3,4.5c-0.2,0.1-0.3,0.3-0.5,0.4c-2,1.5-4,3.1-5.7,5.3c-1,1.4-1.8,2.9-2.2,4.5c-0.4,1.3-0.6,2.6-0.6,3.7
						c0,0.7,0.1,1.3,0.3,1.9l0.4,3.4c0.1,0.2,1,3.4,2.9,5.5c0.7,0.8,1.5,1.4,2.4,1.7l-0.8,7.7l-0.7-0.4l-1.3,2.9l-3.1,5.2l-7.9,8
						c-0.4,0.4-0.7,0.8-1.1,1.2c1.4-6,5.7-12.2,7-18.2c0.3-1.3,0.4-2.6,0.4-3.8c0-2.3-0.5-4.4-1-6.3c-0.9-2.9-2-5.5-2.4-8.8
						c-0.1-0.7-0.1-1.4-0.1-2.2c0-6.1,2.5-13.6,6.6-19.7c3-4.4,6.8-8.1,10.6-10.3C282.6,76.3,282.7,76.3,282.8,76.2z"/>
				</g>
			</g>
			<g>
				<linearGradient id="SVGID_49_" gradientUnits="userSpaceOnUse" x1="279.469" y1="102.28" x2="295.7982" y2="102.28">
					<stop  offset="0" style="stop-color:#FFF2D2"/>
					<stop  offset="1" style="stop-color:#FFCD9C"/>
				</linearGradient>
				<path class="st73" d="M288.7,82.7c0,1.6,0.8,2.7,1.7,3.4c1,0.7,2.1,1.1,3.1,1.8c1,0.8,1.7,2.3,2,4c0.2,1,0.3,2.1,0.3,3.2
					c0,0.3,0,0.6,0,0.9c0,0.3,0,0.6,0,0.9l-0.3,2.8c-0.1,0.2-1,4.6-2.9,8.9c-0.7,1.6-1.5,3.1-2.4,4.4c-0.3,0.4-0.6,0.9-0.9,1.3
					c-3,4.2-5.9,7.2-6,7.3l-0.4,0.2c0-0.3-0.3-6.5-0.3-10.4c0-0.1,0-0.2,0-0.4c0,0,0,0-0.1,0c-0.1,0.1-0.2,0.1-0.3,0.2
					c-0.1,0.1-0.2,0.1-0.4,0.2c-0.1,0-0.2,0.1-0.2,0.1c-0.2,0.1-0.5,0.1-0.7,0c0,0-0.1,0-0.1,0c-0.1-0.1-0.2-0.1-0.2-0.2
					c0,0-0.1-0.1-0.1-0.1c0-0.1-0.1-0.1-0.1-0.2c0-0.1-0.1-0.3-0.1-0.4c0-0.1,0-0.1,0-0.2c0-2.1,2-4.9,2-8.6c0-2.3-1.6-4.5-2.9-7.3
					c1.8-1.3,3.7-2.7,5.3-4.5c1.7-2,3.3-4.7,3.4-7C288.3,82.9,288.5,82.8,288.7,82.7z"/>
			</g>
			<g>
				<linearGradient id="SVGID_50_" gradientUnits="userSpaceOnUse" x1="275.6168" y1="123.3235" x2="290.3108" y2="123.3235">
					<stop  offset="0" style="stop-color:#FFF2D2"/>
					<stop  offset="1" style="stop-color:#FFCD9C"/>
				</linearGradient>
				<path class="st74" d="M276.4,121.1c3.3,1,6.4,0.8,6.6,0.8l0.4-0.2c0.1-0.2,3-3.1,6-7.3l0.9,6l-6.2,10.7l-1.1,0.6l-1.1,0.6
					l-6.3-3.5L276.4,121.1z"/>
			</g>
		</g>
		<g>
			<g>
				<polygon class="st5" points="279.5,147.2 281,149.8 284.3,148.4 281.9,152.5 282.5,155.9 279.5,155.9 276.5,159.4 277.1,155.2 
					274.7,153.9 278,151.5 				"/>
			</g>
			<g>
				<polygon class="st5" points="268.1,153.7 269.6,156.3 272.9,154.9 270.5,159 271.1,162.5 268.2,162.4 265.2,165.9 265.8,161.8 
					263.4,160.5 266.7,158 				"/>
			</g>
			<g>
				<polygon class="st5" points="290.8,140.1 292.3,142.7 295.6,141.3 293.2,145.4 293.8,148.8 290.8,148.8 287.9,152.3 
					288.4,148.2 286,146.9 289.3,144.4 				"/>
			</g>
			<g>
				<polygon class="st5" points="302.1,134 303.6,136.6 306.9,135.2 304.5,139.3 305.1,142.8 302.1,142.7 299.1,146.2 299.7,142.1 
					297.3,140.8 300.6,138.3 				"/>
			</g>
		</g>
	</g>
</g>
<g id="DESIGNED_BY_FREEPIK" class="st0">
	<g id="XMLID_1_" class="st75">
		<g id="XMLID_319_">
			<g id="XMLID_338_">
				<linearGradient id="XMLID_32_" gradientUnits="userSpaceOnUse" x1="257.3386" y1="472.3503" x2="260.6466" y2="472.3503">
					<stop  offset="0" style="stop-color:#413F6B"/>
					<stop  offset="1" style="stop-color:#1E1E1C"/>
				</linearGradient>
				<path id="XMLID_346_" class="st76" d="M260.1,470.3c-0.4,0.4-0.8,0.9-1.1,1.5l-0.5-0.2c-0.1-0.3-0.3-0.5-0.7-0.5
					c-0.3,0-0.6,0.3-0.5,0.7c0,0.3,0.3,0.6,0.7,0.5c0.1,0,0.1,0,0.2-0.1l0.5,0.2c-0.3,0.6-0.4,1.1-0.5,1.7l0.7,0.1
					c0.2-1.3,0.8-2.5,1.8-3.5L260.1,470.3z"/>
				<linearGradient id="XMLID_33_" gradientUnits="userSpaceOnUse" x1="262.2693" y1="467.8197" x2="267.2274" y2="467.8197">
					<stop  offset="0" style="stop-color:#413F6B"/>
					<stop  offset="1" style="stop-color:#1E1E1C"/>
				</linearGradient>
				<path id="XMLID_345_" class="st77" d="M265.6,468c-0.2,0-0.3,0-0.5,0l-0.1-0.6c0.2-0.1,0.3-0.4,0.3-0.6c0-0.4-0.4-0.7-0.8-0.6
					c-0.4,0-0.7,0.4-0.6,0.8c0,0.3,0.2,0.5,0.4,0.6l0.1,0.6c-0.7,0.1-1.4,0.3-2.1,0.6l0.3,0.7c0.9-0.4,1.9-0.7,3-0.7
					c0.5,0,1,0.1,1.5,0.2l0.2-0.7C266.7,468.1,266.1,468,265.6,468z"/>
				<linearGradient id="XMLID_34_" gradientUnits="userSpaceOnUse" x1="269.2897" y1="471.0127" x2="272.7242" y2="471.0127">
					<stop  offset="0" style="stop-color:#413F6B"/>
					<stop  offset="1" style="stop-color:#1E1E1C"/>
				</linearGradient>
				<path id="XMLID_344_" class="st78" d="M272.2,470.6c0.3,0,0.6-0.3,0.5-0.7c0-0.3-0.3-0.6-0.7-0.5c-0.3,0-0.5,0.3-0.5,0.6
					l-0.4,0.4c-0.4-0.4-0.9-0.8-1.4-1.1l-0.4,0.6c1.1,0.7,2,1.7,2.6,2.9l0.7-0.3c-0.3-0.6-0.6-1.1-0.9-1.5l0.4-0.4
					C272.1,470.6,272.1,470.6,272.2,470.6z"/>
				<linearGradient id="XMLID_35_" gradientUnits="userSpaceOnUse" x1="260.1384" y1="478.6924" x2="271.4764" y2="478.6924">
					<stop  offset="0" style="stop-color:#413F6B"/>
					<stop  offset="1" style="stop-color:#1E1E1C"/>
				</linearGradient>
				<path id="XMLID_343_" class="st79" d="M265,478.3c-0.4,0-0.8,0-1.2,0c-0.9,0-1.7-0.1-2.5-0.2c-0.4-0.1-0.8-0.2-1.3-0.3
					c1,1.9,3.1,3.1,5.4,3.1c2.9,0,5.3-1.9,5.9-4.5c-0.7,0.4-1.5,0.8-2.5,1.1C267.8,477.9,266.5,478.2,265,478.3z"/>
				<linearGradient id="XMLID_36_" gradientUnits="userSpaceOnUse" x1="259.5122" y1="473.5489" x2="271.669" y2="473.5489">
					<stop  offset="0" style="stop-color:#413F6B"/>
					<stop  offset="1" style="stop-color:#1E1E1C"/>
				</linearGradient>
				<path id="XMLID_339_" class="st80" d="M265.6,469.6c-3.4,0-6.1,2.7-6.1,5.9c0,0.4,0,0.8,0.1,1.3c0.7,0.5,2.7,0.9,5.3,0.7
					c2.9-0.2,5.3-1,6.7-2.2c0-0.2,0-0.4,0-0.6C271.2,471.8,268.7,469.6,265.6,469.6z M263.4,476.1c-1,0-1.8-0.8-1.8-1.8
					c0-1,0.8-1.8,1.8-1.8c1,0,1.8,0.8,1.8,1.8C265.3,475.2,264.5,476.1,263.4,476.1z M268.2,475.2c-0.8,0-1.4-0.6-1.4-1.4
					s0.6-1.4,1.4-1.4c0.8,0,1.4,0.6,1.4,1.4S268.9,475.2,268.2,475.2z"/>
			</g>
			<linearGradient id="XMLID_37_" gradientUnits="userSpaceOnUse" x1="276.0977" y1="474.8164" x2="281.597" y2="474.8164">
				<stop  offset="0" style="stop-color:#413F6B"/>
				<stop  offset="1" style="stop-color:#1E1E1C"/>
			</linearGradient>
			<path id="XMLID_336_" class="st81" d="M281.6,471.4c-0.3-0.1-0.8-0.3-1.4-0.2c-0.6,0.1-0.8,0.3-0.8,1v0.9h2.2v1.7h-2.2v5.5h-1.9
				v-5.5h-1.3v-1.7h1.3v-0.9c0-1.7,0.9-2.8,2.6-2.8c0.6,0,1.2,0.1,1.6,0.3L281.6,471.4z"/>
			<linearGradient id="XMLID_38_" gradientUnits="userSpaceOnUse" x1="282.33" y1="476.5557" x2="287.3175" y2="476.5557">
				<stop  offset="0" style="stop-color:#413F6B"/>
				<stop  offset="1" style="stop-color:#1E1E1C"/>
			</linearGradient>
			<path id="XMLID_334_" class="st82" d="M286.3,474.8c-0.2,0-0.4,0-0.5,0c-0.9,0-1.5,0.5-1.5,1.6v3.9h-1.9v-7.2h1.9v0.8
				c0.5-0.7,1.1-1,2-1c0.4,0,0.8,0.1,1.1,0.3L286.3,474.8z"/>
			<linearGradient id="XMLID_39_" gradientUnits="userSpaceOnUse" x1="286.8524" y1="476.6483" x2="293.9651" y2="476.6483">
				<stop  offset="0" style="stop-color:#413F6B"/>
				<stop  offset="1" style="stop-color:#1E1E1C"/>
			</linearGradient>
			<path id="XMLID_331_" class="st83" d="M294,476.6c0,0.2,0,0.5,0,0.7h-5.1c0.2,1,0.9,1.5,1.8,1.5c0.6,0,1.3-0.3,1.8-0.7l1.1,1.2
				c-0.8,0.7-1.9,1.1-3.1,1.1c-2.2,0-3.7-1.5-3.7-3.8c0-2.3,1.5-3.8,3.6-3.8C292.5,472.9,294,474.4,294,476.6z M288.9,476h3.2
				c-0.2-0.9-0.7-1.4-1.6-1.4C289.6,474.5,289,475.1,288.9,476z"/>
			<linearGradient id="XMLID_40_" gradientUnits="userSpaceOnUse" x1="294.5056" y1="476.6483" x2="301.6184" y2="476.6483">
				<stop  offset="0" style="stop-color:#413F6B"/>
				<stop  offset="1" style="stop-color:#1E1E1C"/>
			</linearGradient>
			<path id="XMLID_328_" class="st84" d="M301.6,476.6c0,0.2,0,0.5,0,0.7h-5.1c0.2,1,0.9,1.5,1.8,1.5c0.6,0,1.3-0.3,1.8-0.7l1.1,1.2
				c-0.8,0.7-1.9,1.1-3.1,1.1c-2.2,0-3.7-1.5-3.7-3.8c0-2.3,1.5-3.8,3.6-3.8C300.2,472.9,301.6,474.4,301.6,476.6z M296.5,476h3.2
				c-0.2-0.9-0.7-1.4-1.6-1.4C297.2,474.5,296.7,475.1,296.5,476z"/>
			<linearGradient id="XMLID_41_" gradientUnits="userSpaceOnUse" x1="302.459" y1="478.036" x2="309.964" y2="478.036">
				<stop  offset="0" style="stop-color:#413F6B"/>
				<stop  offset="1" style="stop-color:#1E1E1C"/>
			</linearGradient>
			<path id="XMLID_325_" class="st85" d="M310,476.6c0,2.2-1.5,3.8-3.5,3.8c-1,0-1.6-0.4-2.1-0.9v3.7h-1.9v-10.1h1.9v0.8
				c0.5-0.6,1.2-1,2.1-1C308.5,472.9,310,474.5,310,476.6z M304.3,476.6c0,1.1,0.7,2,1.8,2c1.1,0,1.9-0.9,1.9-2c0-1.1-0.7-2-1.9-2
				C305,474.7,304.3,475.5,304.3,476.6z"/>
			<linearGradient id="XMLID_42_" gradientUnits="userSpaceOnUse" x1="310.6028" y1="474.8571" x2="313.0675" y2="474.8571">
				<stop  offset="0" style="stop-color:#413F6B"/>
				<stop  offset="1" style="stop-color:#1E1E1C"/>
			</linearGradient>
			<path id="XMLID_322_" class="st86" d="M313.1,470.7c0,0.7-0.5,1.2-1.2,1.2c-0.7,0-1.2-0.5-1.2-1.2c0-0.7,0.5-1.2,1.2-1.2
				C312.5,469.5,313.1,470,313.1,470.7z M312.8,480.2h-1.9v-7.2h1.9V480.2z"/>
			<linearGradient id="XMLID_43_" gradientUnits="userSpaceOnUse" x1="314.1004" y1="474.9089" x2="321.1243" y2="474.9089">
				<stop  offset="0" style="stop-color:#413F6B"/>
				<stop  offset="1" style="stop-color:#1E1E1C"/>
			</linearGradient>
			<path id="XMLID_320_" class="st87" d="M316,475.6l2.7-2.6h2.4l-3.5,3.4l3.5,3.8h-2.4l-2.7-2.9v2.9h-1.9v-10.7h1.9V475.6z"/>
		</g>
		<g id="XMLID_2_">
			<linearGradient id="XMLID_44_" gradientUnits="userSpaceOnUse" x1="178.8757" y1="475.3758" x2="185.5113" y2="475.3758">
				<stop  offset="0" style="stop-color:#413F6B"/>
				<stop  offset="1" style="stop-color:#1E1E1C"/>
			</linearGradient>
			<path id="XMLID_3_" class="st88" d="M184.4,480.2v-1.1c-0.5,0.7-1.4,1.2-2.4,1.2c-1.8,0-3.1-1.4-3.1-3.7c0-2.3,1.3-3.7,3.1-3.7
				c1,0,1.8,0.5,2.4,1.2v-3.8h1.1v9.8H184.4z M184.4,478.3V475c-0.4-0.6-1.2-1.1-2.1-1.1c-1.4,0-2.3,1.2-2.3,2.7
				c0,1.6,0.8,2.7,2.3,2.7C183.2,479.4,184,478.9,184.4,478.3z"/>
			<linearGradient id="XMLID_45_" gradientUnits="userSpaceOnUse" x1="186.9319" y1="476.6355" x2="193.8163" y2="476.6355">
				<stop  offset="0" style="stop-color:#413F6B"/>
				<stop  offset="1" style="stop-color:#1E1E1C"/>
			</linearGradient>
			<path id="XMLID_6_" class="st89" d="M186.9,476.6c0-2.1,1.5-3.7,3.5-3.7c2.1,0,3.4,1.7,3.4,3.8v0.3h-5.7c0.1,1.3,1,2.4,2.5,2.4
				c0.8,0,1.6-0.3,2.2-0.9l0.5,0.7c-0.7,0.7-1.7,1.1-2.8,1.1C188.4,480.3,186.9,478.8,186.9,476.6z M190.4,473.8
				c-1.5,0-2.3,1.3-2.3,2.4h4.6C192.7,475.1,192,473.8,190.4,473.8z"/>
			<linearGradient id="XMLID_46_" gradientUnits="userSpaceOnUse" x1="194.6071" y1="476.6355" x2="200.2463" y2="476.6355">
				<stop  offset="0" style="stop-color:#413F6B"/>
				<stop  offset="1" style="stop-color:#1E1E1C"/>
			</linearGradient>
			<path id="XMLID_9_" class="st90" d="M194.6,479.2l0.6-0.8c0.5,0.5,1.4,1,2.3,1c1.1,0,1.7-0.5,1.7-1.2c0-1.7-4.4-0.7-4.4-3.3
				c0-1.1,1-2,2.6-2c1.2,0,2.1,0.5,2.6,1l-0.5,0.8c-0.4-0.5-1.2-0.9-2.1-0.9c-1,0-1.6,0.5-1.6,1.1c0,1.6,4.4,0.5,4.4,3.3
				c0,1.2-1,2.1-2.8,2.1C196.3,480.3,195.3,480,194.6,479.2z"/>
			<linearGradient id="XMLID_47_" gradientUnits="userSpaceOnUse" x1="201.477" y1="475.3905" x2="202.9562" y2="475.3905">
				<stop  offset="0" style="stop-color:#413F6B"/>
				<stop  offset="1" style="stop-color:#1E1E1C"/>
			</linearGradient>
			<path id="XMLID_11_" class="st91" d="M201.5,471.4c0-0.4,0.3-0.7,0.7-0.7c0.4,0,0.7,0.3,0.7,0.7c0,0.4-0.3,0.7-0.7,0.7
				C201.8,472.1,201.5,471.8,201.5,471.4z M201.7,480.2v-7.1h1.1v7.1H201.7z"/>
			<linearGradient id="XMLID_48_" gradientUnits="userSpaceOnUse" x1="204.1863" y1="477.9832" x2="210.8072" y2="477.9832">
				<stop  offset="0" style="stop-color:#413F6B"/>
				<stop  offset="1" style="stop-color:#1E1E1C"/>
			</linearGradient>
			<path id="XMLID_14_" class="st92" d="M204.6,482l0.6-0.8c0.6,0.7,1.3,1,2.3,1c1.2,0,2.3-0.6,2.3-2.1v-1c-0.5,0.7-1.4,1.3-2.4,1.3
				c-1.8,0-3.1-1.4-3.1-3.7c0-2.3,1.3-3.7,3.1-3.7c1,0,1.8,0.5,2.4,1.2v-1.1h1.1v6.9c0,2.3-1.6,3.1-3.4,3.1
				C206.2,483,205.4,482.8,204.6,482z M209.7,478.1V475c-0.4-0.6-1.2-1.1-2.1-1.1c-1.4,0-2.3,1.1-2.3,2.7c0,1.6,0.8,2.7,2.3,2.7
				C208.5,479.3,209.3,478.8,209.7,478.1z"/>
			<linearGradient id="XMLID_49_" gradientUnits="userSpaceOnUse" x1="212.638" y1="476.5476" x2="218.5119" y2="476.5476">
				<stop  offset="0" style="stop-color:#413F6B"/>
				<stop  offset="1" style="stop-color:#1E1E1C"/>
			</linearGradient>
			<path id="XMLID_17_" class="st93" d="M217.4,480.2v-4.6c0-1.2-0.6-1.6-1.6-1.6c-0.9,0-1.7,0.5-2.1,1.1v5.2h-1.1v-7.1h1.1v1
				c0.5-0.6,1.5-1.2,2.5-1.2c1.5,0,2.3,0.7,2.3,2.3v5H217.4z"/>
			<linearGradient id="XMLID_50_" gradientUnits="userSpaceOnUse" x1="219.9325" y1="476.6355" x2="226.8172" y2="476.6355">
				<stop  offset="0" style="stop-color:#413F6B"/>
				<stop  offset="1" style="stop-color:#1E1E1C"/>
			</linearGradient>
			<path id="XMLID_19_" class="st94" d="M219.9,476.6c0-2.1,1.5-3.7,3.5-3.7c2.1,0,3.4,1.7,3.4,3.8v0.3h-5.7c0.1,1.3,1,2.4,2.5,2.4
				c0.8,0,1.6-0.3,2.2-0.9l0.5,0.7c-0.7,0.7-1.7,1.1-2.8,1.1C221.4,480.3,219.9,478.8,219.9,476.6z M223.4,473.8
				c-1.5,0-2.3,1.3-2.3,2.4h4.6C225.7,475.1,225,473.8,223.4,473.8z"/>
			<linearGradient id="XMLID_51_" gradientUnits="userSpaceOnUse" x1="227.8129" y1="475.3758" x2="234.4485" y2="475.3758">
				<stop  offset="0" style="stop-color:#413F6B"/>
				<stop  offset="1" style="stop-color:#1E1E1C"/>
			</linearGradient>
			<path id="XMLID_22_" class="st95" d="M233.4,480.2v-1.1c-0.5,0.7-1.4,1.2-2.4,1.2c-1.8,0-3.1-1.4-3.1-3.7c0-2.3,1.3-3.7,3.1-3.7
				c1,0,1.8,0.5,2.4,1.2v-3.8h1.1v9.8H233.4z M233.4,478.3V475c-0.4-0.6-1.2-1.1-2.1-1.1c-1.4,0-2.3,1.2-2.3,2.7
				c0,1.6,0.8,2.7,2.3,2.7C232.1,479.4,233,478.9,233.4,478.3z"/>
			<linearGradient id="XMLID_52_" gradientUnits="userSpaceOnUse" x1="239.692" y1="475.3758" x2="246.3276" y2="475.3758">
				<stop  offset="0" style="stop-color:#413F6B"/>
				<stop  offset="1" style="stop-color:#1E1E1C"/>
			</linearGradient>
			<path id="XMLID_25_" class="st96" d="M239.7,480.2v-9.8h1.1v3.8c0.6-0.8,1.4-1.2,2.4-1.2c1.8,0,3.1,1.5,3.1,3.7
				c0,2.3-1.3,3.7-3.1,3.7c-1,0-1.9-0.5-2.4-1.2v1.1H239.7z M242.9,479.4c1.4,0,2.3-1.2,2.3-2.7c0-1.6-0.8-2.7-2.3-2.7
				c-0.9,0-1.7,0.5-2.1,1.1v3.2C241.2,478.9,242,479.4,242.9,479.4z"/>
			<linearGradient id="XMLID_53_" gradientUnits="userSpaceOnUse" x1="246.6936" y1="478.071" x2="253.7831" y2="478.071">
				<stop  offset="0" style="stop-color:#413F6B"/>
				<stop  offset="1" style="stop-color:#1E1E1C"/>
			</linearGradient>
			<path id="XMLID_28_" class="st97" d="M247.5,481.9c0.2,0.1,0.4,0.1,0.6,0.1c0.5,0,0.8-0.2,1.1-0.7l0.5-1.1l-3-7.1h1.2l2.4,5.8
				l2.3-5.8h1.2l-3.5,8.5c-0.4,1-1.1,1.4-2.1,1.4c-0.2,0-0.6,0-0.8-0.1L247.5,481.9z"/>
		</g>
	</g>
</g>
</svg>
