<?xml version="1.0" encoding="utf-8"?>
<!-- Generator: Adobe Illustrator 22.0.0, SVG Export Plug-In . SVG Version: 6.00 Build 0)  -->
<svg version="1.1" id="Capa_1" xmlns="http://www.w3.org/2000/svg" xmlns:xlink="http://www.w3.org/1999/xlink" x="0px" y="0px"
	 viewBox="0 0 1920 500.4" style="enable-background:new 0 0 1920 500.4;" xml:space="preserve">
<style type="text/css">
	.st0{opacity:0.29;fill:#280042;enable-background:new    ;}
	.st1{fill:#280042;}
	.st2{opacity:0.29;fill:url(#SVGID_1_);enable-background:new    ;}
	.st3{opacity:0.29;fill:url(#SVGID_2_);enable-background:new    ;}
	.st4{opacity:0.29;fill:#260050;enable-background:new    ;}
	.st5{opacity:0.29;fill:url(#SVGID_3_);enable-background:new    ;}
	.st6{opacity:0.29;fill:url(#SVGID_4_);enable-background:new    ;}
	.st7{opacity:0.29;fill:url(#SVGID_5_);enable-background:new    ;}
	.st8{opacity:0.29;fill:url(#SVGID_6_);enable-background:new    ;}
	.st9{opacity:0.29;fill:url(#SVGID_7_);enable-background:new    ;}
	.st10{opacity:0.29;fill:url(#SVGID_8_);enable-background:new    ;}
	.st11{opacity:0.29;fill:url(#SVGID_9_);enable-background:new    ;}
	.st12{opacity:0.29;fill:url(#SVGID_10_);enable-background:new    ;}
	.st13{opacity:0.29;fill:url(#SVGID_11_);enable-background:new    ;}
	.st14{opacity:0.29;fill:url(#SVGID_12_);enable-background:new    ;}
	.st15{opacity:0.29;fill:url(#SVGID_13_);enable-background:new    ;}
	.st16{opacity:0.29;fill:url(#SVGID_14_);enable-background:new    ;}
	.st17{opacity:0.29;fill:url(#SVGID_15_);enable-background:new    ;}
	.st18{opacity:0.29;fill:url(#SVGID_16_);enable-background:new    ;}
	.st19{opacity:0.29;fill:url(#SVGID_17_);enable-background:new    ;}
	.st20{opacity:0.29;fill:url(#SVGID_18_);enable-background:new    ;}
	.st21{opacity:0.29;fill:url(#SVGID_19_);enable-background:new    ;}
	.st22{opacity:0.29;fill:url(#SVGID_20_);enable-background:new    ;}
	.st23{opacity:0.29;fill:url(#SVGID_21_);enable-background:new    ;}
	.st24{opacity:0.29;fill:url(#SVGID_22_);enable-background:new    ;}
	.st25{opacity:0.29;fill:url(#SVGID_23_);enable-background:new    ;}
	.st26{opacity:0.29;fill:url(#SVGID_24_);enable-background:new    ;}
	.st27{opacity:0.29;fill:url(#SVGID_25_);enable-background:new    ;}
	.st28{opacity:0.29;fill:url(#SVGID_26_);enable-background:new    ;}
	.st29{opacity:0.29;fill:url(#SVGID_27_);enable-background:new    ;}
	.st30{opacity:0.29;fill:url(#SVGID_28_);enable-background:new    ;}
	.st31{opacity:0.29;fill:url(#SVGID_29_);enable-background:new    ;}
	.st32{opacity:0.29;fill:url(#SVGID_30_);enable-background:new    ;}
	.st33{opacity:0.29;fill:url(#SVGID_31_);enable-background:new    ;}
	.st34{opacity:0.29;fill:url(#SVGID_32_);enable-background:new    ;}
	.st35{opacity:0.29;fill:url(#SVGID_33_);enable-background:new    ;}
	.st36{opacity:0.29;fill:url(#SVGID_34_);enable-background:new    ;}
	.st37{opacity:0.29;fill:url(#SVGID_35_);enable-background:new    ;}
	.st38{opacity:0.29;fill:url(#SVGID_36_);enable-background:new    ;}
	.st39{fill:none;}
	.st40{opacity:0.29;}
	.st41{fill:#330066;}
	.st42{fill:url(#SVGID_37_);}
	.st43{fill:url(#SVGID_38_);}
	.st44{fill:url(#SVGID_39_);}
	.st45{fill:#30005E;}
	.st46{fill:url(#SVGID_40_);}
	.st47{fill:url(#SVGID_41_);}
	.st48{fill:url(#SVGID_42_);}
	.st49{fill:url(#SVGID_43_);}
	.st50{fill:url(#SVGID_44_);}
	.st51{fill:url(#SVGID_45_);}
	.st52{fill:url(#SVGID_46_);}
	.st53{fill:url(#SVGID_47_);}
	.st54{fill:url(#SVGID_48_);}
	.st55{fill:url(#SVGID_49_);}
	.st56{fill:url(#SVGID_50_);}
	.st57{fill:url(#SVGID_51_);}
	.st58{fill:url(#SVGID_52_);}
	.st59{fill:url(#SVGID_53_);}
	.st60{fill:url(#SVGID_54_);}
	.st61{fill:url(#SVGID_55_);}
	.st62{fill:url(#SVGID_56_);}
	.st63{opacity:0.29;fill:url(#SVGID_57_);enable-background:new    ;}
	.st64{opacity:0.29;fill:url(#SVGID_58_);enable-background:new    ;}
	.st65{opacity:0.29;fill:#30005E;enable-background:new    ;}
	.st66{opacity:0.29;fill:#330066;enable-background:new    ;}
	.st67{fill:#260050;}
	.st68{fill:url(#SVGID_59_);}
	.st69{fill:url(#SVGID_60_);}
	.st70{fill:url(#SVGID_61_);}
	.st71{fill:url(#SVGID_62_);}
	.st72{fill:url(#SVGID_63_);}
	.st73{fill:url(#SVGID_64_);}
	.st74{fill:url(#SVGID_65_);}
	.st75{fill:url(#SVGID_66_);}
	.st76{fill:url(#SVGID_67_);}
	.st77{fill:url(#SVGID_68_);}
	.st78{fill:url(#SVGID_69_);}
</style>
<polyline class="st0" points="382.3,-616.2 382.3,-549.3 398.4,-530.9 398.4,-447.7 439.7,-413.4 439.7,-367.4 436.8,-367.4 
	436.8,-412.1 395.5,-446.4 395.5,-529.9 379.3,-548.3 379.3,-617.3 "/>
<path class="st0" d="M408.9-614.2v131.9c1.2,0.6,5.6,4.2,25.6,22.8c12.3,11.4,24.6,23.1,24.7,23.2l0.1,0.1v110.9l75.6,71.1v118.5
	l-0.1,0.1l-18.6,18.3v85.6h-0.7v-85.9l0.1-0.1l18.6-18.3v-118l-75.6-71v-110.9c-19.1-18.1-48.1-45.2-50-45.8c0,0,0.1,0,0.2-0.1
	l-0.2-0.2h-0.1h-0.4v-132.5"/>
<polyline class="st1" points="465.5,-660.2 465.5,-514.8 505.3,-479.4 504.3,-478.4 464,-514.2 464,-660.2 "/>
<polyline class="st0" points="497.2,-582.5 442.3,-527.4 442.3,-475.2 495.9,-425 495.9,-243.7 455.9,-207.6 455.9,-150 452.9,-150 
	452.9,-208.8 493,-244.9 493,-423.8 439.4,-474.1 439.4,-528.5 494.3,-583.6 "/>
<polyline class="st0" points="546.8,-568.7 546.8,-488.4 546.6,-488.2 517.8,-462.7 517.8,-314.8 516.3,-314.8 516.3,-463.3 
	516.6,-463.5 545.4,-489 545.4,-568.1 "/>
<polyline class="st0" points="570.7,-591.9 570.7,-474.9 603.7,-440.6 603.7,-330.7 602.2,-330.7 602.2,-440.1 569.3,-474.4 
	569.3,-591.3 "/>
<polyline class="st0" points="578.1,-659.6 578.1,-438 529,-387.2 529,-341 634.3,-238.1 634.3,-81.3 676.5,-38.8 763.6,-38.8 
	796.4,-10.9 796.4,125.3 790.5,125.3 790.5,-8.5 761.3,-33.3 674,-33.3 628.4,-79 628.4,-235.8 523.2,-338.7 523.2,-389.3 
	572.2,-440.2 572.2,-659.6 "/>
<polyline class="st0" points="597.4,-661 597.4,-492.7 642,-451.5 642,-271.9 641.8,-271.7 555.3,-190.2 555.3,-90.5 598.2,-49.7 
	822.5,-49.7 822.7,-49.5 868.7,-3.5 868.7,194.5 867.2,194.5 867.2,-3 821.8,-48.4 597.6,-48.4 553.8,-89.9 553.8,-190.7 554,-191 
	640.6,-272.5 640.6,-450.9 596,-492.1 596,-661 "/>
<polyline class="st0" points="619.6,-568.3 685.6,-506.2 685.6,-314.9 739.7,-264 739.7,-115.8 733.9,-115.8 733.9,-261.7 
	679.7,-312.6 679.7,-503.9 613.7,-566 "/>
<polyline class="st0" points="635.6,-659.6 635.6,-540.1 658.6,-516.6 658.6,-470 658.2,-469.6 545.6,-364.1 545.6,-293.8 
	598.4,-243.7 598.4,-77.5 631.3,-47.1 631.3,-13.9 628.4,-13.9 628.4,-45.9 595.4,-76.3 595.4,-242.6 542.6,-292.6 542.6,-365.3 
	543.1,-365.7 655.7,-471.2 655.7,-515.5 632.6,-539 632.6,-659.6 "/>
<polyline class="st0" points="665.6,-664 665.6,-553.9 701.2,-519.4 701.2,-251.8 650.5,-203.6 650.5,-128.6 694.4,-86.2 694.4,7 
	691.4,7 691.4,-85.1 647.5,-127.5 647.5,-204.8 698.3,-252.9 698.3,-518.3 662.7,-552.8 662.7,-664 "/>
<polyline class="st0" points="690.6,-571.2 743.2,-523.6 743.2,-401.4 741.7,-401.4 741.7,-523 689.1,-570.6 "/>
<polyline class="st0" points="766.8,-608.5 837.5,-549.1 837.5,-415.7 871.4,-384.1 871.4,-147.7 871.3,-147.6 828.6,-107.9 
	828.6,17.1 827.9,17.1 827.9,-108.2 828,-108.3 870.6,-148 870.6,-383.8 836.8,-415.4 836.8,-548.8 766,-608.2 "/>
<polyline class="st0" points="829,-611.6 754.6,-541.7 754.6,-341 820.2,-282.3 820.2,-158.8 761.2,-102.9 761.2,2.4 759.8,2.4 
	759.8,-103.4 818.7,-159.3 818.7,-281.7 753.1,-340.4 753.1,-542.3 827.5,-612.2 "/>
<polyline class="st0" points="785.2,-624.6 785.2,-410.5 785.1,-410.4 720.4,-347.6 720.4,-230.9 720.2,-230.8 675.4,-192.4 
	675.4,-149.3 674.7,-149.3 674.7,-192.7 674.8,-192.8 719.6,-231.2 719.6,-347.9 719.7,-348 784.4,-410.8 784.4,-624.3 "/>
<polyline class="st0" points="865.8,-577.4 865.8,-402.3 844.5,-385.5 844.5,-290.6 844.1,-290.1 708.9,-159.9 708.9,10.9 
	736.5,35.6 734.4,37.6 706,12.1 706,-161 706.4,-161.4 841.5,-291.7 841.5,-386.8 862.9,-403.6 862.9,-576.5 "/>
<polyline class="st0" points="871,-663.6 871,-484.9 890.2,-462.6 890.2,-392.4 888.7,-392.4 888.7,-462.1 869.5,-484.4 
	869.5,-663.6 "/>
<polygon class="st0" points="713.7,-504.3 713.7,-457.3 713.6,-457.2 660.7,-410.5 660.7,-339.9 660.6,-339.8 513.3,-200.8 
	513.3,-152.8 512.6,-152.8 512.6,-201.1 512.7,-201.2 659.9,-340.2 659.9,-410.8 660.1,-410.9 713,-457.6 713,-504.3 "/>
<polyline class="st0" points="770.8,-569.7 770.8,-423.7 815.7,-384.6 815.7,-302.8 861.4,-260.1 861.4,-217 855.5,-217 
	855.5,-257.8 809.9,-300.4 809.9,-382.1 764.9,-421.3 764.9,-567.4 "/>
<path class="st0" d="M438.4-368c1.7,0,3,1.3,3,2.9s-1.4,2.9-3,2.9c-1.7,0-3-1.3-3-2.9C435.4-366.8,436.7-368,438.4-368z"/>
<path class="st0" d="M517.4-316.3c1.7,0,3,1.3,3,2.9s-1.4,2.9-3,2.9c-1.7,0-3-1.3-3-2.9S515.8-316.3,517.4-316.3z"/>
<radialGradient id="SVGID_1_" cx="4375.7705" cy="-60.2752" r="172.6748" gradientTransform="matrix(0 -2.0093 2.1182 0 1061.0758 8284.1611)" gradientUnits="userSpaceOnUse">
	<stop  offset="0" style="stop-color:#00B7C3"/>
	<stop  offset="0.3766" style="stop-color:#0090A8"/>
	<stop  offset="1" style="stop-color:#004976"/>
</radialGradient>
<path class="st2" d="M513-154.5c1.7,0,3,1.3,3,2.9c0,1.6-1.4,2.9-3,2.9c-1.7,0-3-1.3-3-2.9C509.9-153.3,511.3-154.5,513-154.5z"/>
<radialGradient id="SVGID_2_" cx="4375.77" cy="-60.2817" r="172.6714" gradientTransform="matrix(0 -2.0093 2.1182 0 1061.0758 8284.1611)" gradientUnits="userSpaceOnUse">
	<stop  offset="0" style="stop-color:#00B7C3"/>
	<stop  offset="0.3766" style="stop-color:#0090A8"/>
	<stop  offset="1" style="stop-color:#004976"/>
</radialGradient>
<ellipse class="st3" cx="629.8" cy="-11.9" rx="3" ry="2.9"/>
<path class="st4" d="M454.4-151.1c1.7,0,3,1.3,3,2.9c0,1.6-1.4,2.9-3,2.9c-1.7,0-3-1.3-3-2.9C451.3-149.8,452.7-151.1,454.4-151.1z"
	/>
<radialGradient id="SVGID_3_" cx="4375.77" cy="-60.2823" r="172.6713" gradientTransform="matrix(0 -2.0093 2.1182 0 1061.0758 8284.1611)" gradientUnits="userSpaceOnUse">
	<stop  offset="0" style="stop-color:#00B7C3"/>
	<stop  offset="0.3766" style="stop-color:#0090A8"/>
	<stop  offset="1" style="stop-color:#004976"/>
</radialGradient>
<ellipse class="st5" cx="515.7" cy="-29.2" rx="3" ry="2.9"/>
<radialGradient id="SVGID_4_" cx="4375.7729" cy="-60.2804" r="172.6734" gradientTransform="matrix(0 -2.0093 2.1182 0 1061.0758 8284.1611)" gradientUnits="userSpaceOnUse">
	<stop  offset="0" style="stop-color:#00B7C3"/>
	<stop  offset="0.3766" style="stop-color:#0090A8"/>
	<stop  offset="1" style="stop-color:#004976"/>
</radialGradient>
<path class="st6" d="M858.4-218.5c2.8,0,5.1,2.2,5.1,4.8c0,2.7-2.3,4.8-5.1,4.8s-5.1-2.2-5.1-4.8
	C853.3-216.3,855.6-218.5,858.4-218.5z"/>
<radialGradient id="SVGID_5_" cx="4375.7734" cy="-60.2803" r="172.6739" gradientTransform="matrix(0 -2.0093 2.1182 0 1061.0758 8284.1611)" gradientUnits="userSpaceOnUse">
	<stop  offset="0" style="stop-color:#00B7C3"/>
	<stop  offset="0.3766" style="stop-color:#0090A8"/>
	<stop  offset="1" style="stop-color:#004976"/>
</radialGradient>
<path class="st7" d="M736.6-118.1c2.8,0,5.1,2.2,5.1,4.8c0,2.7-2.3,4.8-5.1,4.8s-5.1-2.2-5.1-4.8
	C731.6-115.9,733.8-118.1,736.6-118.1z"/>
<radialGradient id="SVGID_6_" cx="4375.7705" cy="-60.2773" r="172.6736" gradientTransform="matrix(0 -2.0093 2.1182 0 1061.0758 8284.1611)" gradientUnits="userSpaceOnUse">
	<stop  offset="0" style="stop-color:#00B7C3"/>
	<stop  offset="0.3766" style="stop-color:#0090A8"/>
	<stop  offset="1" style="stop-color:#004976"/>
</radialGradient>
<path class="st8" d="M675-149.8c1.7,0,3,1.3,3,2.9c0,1.6-1.4,2.9-3,2.9c-1.7,0-3-1.3-3-2.9C672-148.6,673.4-149.8,675-149.8z"/>
<path class="st0" d="M603.1-331.1c1.7,0,3,1.3,3,2.9s-1.4,2.9-3,2.9s-3-1.3-3-2.9C600-329.8,601.4-331.1,603.1-331.1z"/>
<ellipse class="st1" cx="713.1" cy="-506.9" rx="3" ry="2.9"/>
<path class="st0" d="M742.2-402c1.7,0,3,1.3,3,2.9s-1.4,2.9-3,2.9c-1.7,0-3-1.3-3-2.9S740.6-402,742.2-402z"/>
<ellipse class="st0" cx="889.3" cy="-390.1" rx="3" ry="2.9"/>
<path class="st1" d="M506.3-481.1c1.7,0,3,1.3,3,2.9s-1.4,2.9-3,2.9c-1.7,0-3-1.3-3-2.9S504.6-481.1,506.3-481.1z"/>
<polyline class="st0" points="1391,-617.3 1391,-548.3 1374.8,-529.9 1374.8,-446.4 1333.5,-412.1 1333.5,-367.4 1330.5,-367.4 
	1330.5,-413.4 1371.9,-447.7 1371.9,-530.9 1388,-549.3 1388,-616.2 "/>
<path class="st0" d="M1362.1-614.5V-482h-0.4l-0.2,0.2c0.1,0.1,0.2,0.1,0.2,0.1c-1.9,0.6-30.9,27.7-50,45.8V-325l-0.1,0.1l-75.4,71
	V-136l18.7,18.4v85.9h-0.7v-85.6l-18.7-18.4v-118.5l0.1-0.1l75.4-71v-110.9l0.1-0.1c0.1-0.1,12.4-11.8,24.7-23.2
	c19.9-18.6,24.4-22.2,25.6-22.8v-131.9"/>
<polyline class="st1" points="1306.3,-660.2 1306.3,-514.2 1266,-478.4 1265,-479.4 1304.8,-514.8 1304.8,-660.2 "/>
<polyline class="st0" points="1276,-583.6 1330.9,-528.5 1330.9,-474.1 1277.3,-423.8 1277.3,-244.9 1317.3,-208.8 1317.3,-150 
	1314.4,-150 1314.4,-207.6 1274.4,-243.7 1274.4,-425 1328,-475.2 1328,-527.4 1273.1,-582.5 "/>
<polyline class="st0" points="1224.9,-568.1 1224.9,-489 1254,-463.3 1254,-314.8 1252.5,-314.8 1252.5,-462.7 1223.4,-488.4 
	1223.4,-568.7 "/>
<polyline class="st0" points="1201,-591.3 1201,-474.4 1168.1,-440.1 1168.1,-330.7 1166.6,-330.7 1166.6,-440.6 1199.5,-474.9 
	1199.5,-591.9 "/>
<polyline class="st0" points="1198,-659.6 1198,-440.2 1247.1,-389.3 1247.1,-338.7 1141.9,-235.8 1141.9,-79 1096.3,-33.3 
	1009,-33.3 979.8,-8.5 979.8,30.1 973.9,30.1 973.9,-10.9 1006.7,-38.8 1093.7,-38.8 1136,-81.3 1136,-238.1 1241.2,-341 
	1241.2,-387.2 1192.2,-438 1192.2,-659.6 "/>
<polyline class="st0" points="1174.3,-661 1174.3,-492.1 1174.1,-491.9 1129.7,-450.9 1129.7,-272.5 1216.5,-190.7 1216.5,-89.9 
	1172.6,-48.4 948.4,-48.4 903,-3 903,62.2 901.6,62.2 901.6,-3.5 901.8,-3.7 947.8,-49.7 1172,-49.7 1215,-90.5 1215,-190.2 
	1128.2,-271.9 1128.2,-451.5 1128.5,-451.7 1172.8,-492.7 1172.8,-661 "/>
<polyline class="st0" points="1156.5,-566 1090.6,-503.9 1090.6,-312.6 1036.4,-261.7 1036.4,-115.8 1030.5,-115.8 1030.5,-264 
	1084.7,-314.9 1084.7,-506.2 1150.7,-568.3 "/>
<polyline class="st0" points="1137.6,-659.6 1137.6,-539 1114.6,-515.5 1114.6,-471.2 1227.6,-365.3 1227.6,-292.6 1174.9,-242.6 
	1174.9,-76.3 1141.9,-45.9 1141.9,-13.9 1139,-13.9 1139,-47.1 1171.9,-77.5 1171.9,-243.7 1224.7,-293.8 1224.7,-364.1 
	1111.6,-470 1111.6,-516.6 1134.7,-540.1 1134.7,-659.6 "/>
<polyline class="st0" points="1107.6,-664 1107.6,-552.8 1072,-518.3 1072,-252.9 1122.8,-204.8 1122.8,-127.5 1078.8,-85.1 
	1078.8,7 1075.9,7 1075.9,-86.2 1119.8,-128.6 1119.8,-203.6 1069.1,-251.8 1069.1,-519.4 1104.7,-553.9 1104.7,-664 "/>
<polyline class="st0" points="1081.2,-570.6 1028.6,-523 1028.6,-401.4 1027.1,-401.4 1027.1,-523.6 1079.7,-571.2 "/>
<polyline class="st0" points="1004.1,-608.1 933.5,-548.8 933.5,-415.4 933.4,-415.3 899.6,-383.8 899.6,-148 942.4,-108.2 
	942.4,17.1 941.6,17.1 941.6,-107.9 898.9,-147.7 898.9,-384.1 899,-384.2 932.8,-415.7 932.8,-549.1 932.9,-549.2 1003.5,-608.5 
	"/>
<polyline class="st0" points="942.7,-612.2 1017.1,-542.3 1017.1,-340.4 1016.9,-340.2 951.6,-281.7 951.6,-159.3 1010.5,-103.4 
	1010.5,87.9 1009,87.9 1009,-102.9 950.1,-158.8 950.1,-282.3 950.3,-282.5 1015.7,-341 1015.7,-541.7 941.3,-611.6 "/>
<polyline class="st0" points="985.8,-624.3 985.8,-410.8 1050.7,-347.9 1050.7,-231.2 1095.6,-192.7 1095.6,-149.3 1094.9,-149.3 
	1094.9,-192.4 1049.9,-230.9 1049.9,-347.6 985.1,-410.5 985.1,-624.6 "/>
<polyline class="st0" points="907.4,-576.5 907.4,-403.6 928.7,-386.8 928.7,-291.7 1064.3,-161 1064.3,12.1 1035.8,37.6 
	1033.8,35.6 1061.3,10.9 1061.3,-159.9 925.8,-290.6 925.8,-385.5 904.4,-402.3 904.4,-577.4 "/>
<polyline class="st0" points="900.7,-663.6 900.7,-484.4 900.6,-484.3 881.6,-462.1 881.6,-392.4 880.1,-392.4 880.1,-462.6 
	899.3,-484.9 899.3,-663.6 "/>
<polygon class="st0" points="1257.7,-201.1 1257.7,-152.8 1256.9,-152.8 1256.9,-200.8 1109.6,-339.9 1109.6,-410.5 1056.6,-457.3 
	1056.6,-504.3 1057.3,-504.3 1057.3,-457.6 1110.3,-410.8 1110.3,-340.2 "/>
<polyline class="st0" points="1005.3,-567.4 1005.3,-421.3 960.4,-382.1 960.4,-300.4 914.7,-257.8 914.7,-217 908.9,-217 
	908.9,-260.1 954.5,-302.8 954.5,-384.6 999.5,-423.7 999.5,-569.7 "/>
<path class="st0" d="M1331.9-368c-1.7,0-3,1.3-3,2.9s1.4,2.9,3,2.9s3-1.3,3-2.9C1334.9-366.8,1333.5-368,1331.9-368z"/>
<path class="st0" d="M1252.9-316.3c-1.7,0-3,1.3-3,2.9s1.4,2.9,3,2.9c1.7,0,3-1.3,3-2.9S1254.5-316.3,1252.9-316.3z"/>
<radialGradient id="SVGID_7_" cx="4375.7705" cy="-60.2799" r="172.6711" gradientTransform="matrix(0 -2.0093 2.1182 0 1061.0758 8284.1611)" gradientUnits="userSpaceOnUse">
	<stop  offset="0" style="stop-color:#00B7C3"/>
	<stop  offset="0.3766" style="stop-color:#0090A8"/>
	<stop  offset="1" style="stop-color:#004976"/>
</radialGradient>
<ellipse class="st9" cx="1257.3" cy="-151.7" rx="3" ry="2.9"/>
<radialGradient id="SVGID_8_" cx="4375.77" cy="-60.2799" r="172.6714" gradientTransform="matrix(0 -2.0093 2.1182 0 1061.0758 8284.1611)" gradientUnits="userSpaceOnUse">
	<stop  offset="0" style="stop-color:#00B7C3"/>
	<stop  offset="0.3766" style="stop-color:#0090A8"/>
	<stop  offset="1" style="stop-color:#004976"/>
</radialGradient>
<ellipse class="st10" cx="1140.5" cy="-11.9" rx="3" ry="2.9"/>
<radialGradient id="SVGID_9_" cx="4375.7705" cy="-60.2793" r="172.6714" gradientTransform="matrix(0 -2.0093 2.1182 0 1061.0758 8284.1611)" gradientUnits="userSpaceOnUse">
	<stop  offset="0" style="stop-color:#00B7C3"/>
	<stop  offset="0.3766" style="stop-color:#0090A8"/>
	<stop  offset="1" style="stop-color:#004976"/>
</radialGradient>
<ellipse class="st11" cx="1315.9" cy="-148.3" rx="3" ry="2.9"/>
<radialGradient id="SVGID_10_" cx="4375.77" cy="-60.2796" r="172.6712" gradientTransform="matrix(0 -2.0093 2.1182 0 1061.0758 8284.1611)" gradientUnits="userSpaceOnUse">
	<stop  offset="0" style="stop-color:#00B7C3"/>
	<stop  offset="0.3766" style="stop-color:#0090A8"/>
	<stop  offset="1" style="stop-color:#004976"/>
</radialGradient>
<ellipse class="st12" cx="1254.5" cy="-29.2" rx="3" ry="2.9"/>
<radialGradient id="SVGID_11_" cx="4375.7729" cy="-60.2808" r="172.6738" gradientTransform="matrix(0 -2.0093 2.1182 0 1061.0758 8284.1611)" gradientUnits="userSpaceOnUse">
	<stop  offset="0" style="stop-color:#00B7C3"/>
	<stop  offset="0.3766" style="stop-color:#0090A8"/>
	<stop  offset="1" style="stop-color:#004976"/>
</radialGradient>
<path class="st13" d="M911.9-218.5c-2.8,0-5.1,2.2-5.1,4.8c0,2.7,2.3,4.8,5.1,4.8s5.1-2.2,5.1-4.8
	C916.9-216.3,914.7-218.5,911.9-218.5z"/>
<radialGradient id="SVGID_12_" cx="4375.7734" cy="-60.28" r="172.6741" gradientTransform="matrix(0 -2.0093 2.1182 0 1061.0758 8284.1611)" gradientUnits="userSpaceOnUse">
	<stop  offset="0" style="stop-color:#00B7C3"/>
	<stop  offset="0.3766" style="stop-color:#0090A8"/>
	<stop  offset="1" style="stop-color:#004976"/>
</radialGradient>
<path class="st14" d="M1033.6-118.1c-2.8,0-5.1,2.2-5.1,4.8c0,2.7,2.3,4.8,5.1,4.8s5.1-2.2,5.1-4.8S1036.4-118.1,1033.6-118.1z"/>
<radialGradient id="SVGID_13_" cx="4375.7705" cy="-60.2801" r="172.6711" gradientTransform="matrix(0 -2.0093 2.1182 0 1061.0758 8284.1611)" gradientUnits="userSpaceOnUse">
	<stop  offset="0" style="stop-color:#00B7C3"/>
	<stop  offset="0.3766" style="stop-color:#0090A8"/>
	<stop  offset="1" style="stop-color:#004976"/>
</radialGradient>
<ellipse class="st15" cx="1095.2" cy="-147" rx="3" ry="2.9"/>
<path class="st0" d="M1167.2-331.1c-1.7,0-3,1.3-3,2.9s1.4,2.9,3,2.9s3-1.3,3-2.9C1170.2-329.8,1168.9-331.1,1167.2-331.1z"/>
<path class="st1" d="M1057.2-509.8c-1.7,0-3,1.3-3,2.9s1.4,2.9,3,2.9c1.7,0,3-1.3,3-2.9S1058.9-509.8,1057.2-509.8z"/>
<ellipse class="st0" cx="1028.1" cy="-399.1" rx="3" ry="2.9"/>
<ellipse class="st0" cx="881" cy="-390.1" rx="3" ry="2.9"/>
<ellipse class="st1" cx="1264" cy="-478.2" rx="3" ry="2.9"/>
<polyline class="st0" points="1324.4,986.7 1324.4,940.7 1327.3,940.7 1327.3,985.4 "/>
<path class="st0" d="M1304.8,1009.5V898.6l-75.6-71.1V709l0.1-0.1l18.6-18.3V605h0.7v85.9l-0.1,0.1l-18.6,18.3v117.9l75.6,71.1
	v110.9"/>
<polyline class="st0" points="1268.2,998.3 1268.2,817 1308.3,780.8 1308.3,723.2 1311.2,723.2 1311.2,782 1271.2,818.2 
	1271.2,997.1 "/>
<polyline class="st0" points="1246.4,1036 1246.4,888 1247.8,888 1247.8,1036.6 "/>
<polyline class="st0" points="1160.5,1013.9 1160.5,904 1161.9,904 1161.9,1013.3 "/>
<polyline class="st0" points="1186,1011.3 1235.1,960.5 1235.1,914.3 1129.8,811.4 1129.8,654.5 1087.6,612.1 1000.6,612.1 
	967.8,584.2 967.8,448 973.6,448 973.6,581.7 1002.8,606.5 1090.1,606.5 1135.7,652.3 1135.7,809.1 1241,912 1241,962.6 
	1191.9,1013.5 "/>
<polyline class="st0" points="1122.1,1024.8 1122.1,845.2 1122.3,844.9 1208.8,763.4 1208.8,663.8 1165.9,623 941.7,623 
	941.5,622.8 895.4,576.8 895.4,378.8 896.9,378.8 896.9,576.3 942.3,621.6 1166.5,621.6 1210.3,663.2 1210.3,764 1210.1,764.2 
	1123.6,845.7 1123.6,1024.2 "/>
<polyline class="st0" points="1078.6,1079.5 1078.6,888.2 1024.4,837.2 1024.4,689.1 1030.3,689.1 1030.3,834.9 1084.5,885.9 
	1084.5,1077.1 "/>
<polyline class="st0" points="1105.9,1042.9 1218.6,937.4 1218.6,867.1 1165.8,817 1165.8,650.8 1132.8,620.4 1132.8,587.2 
	1135.8,587.2 1135.8,619.2 1168.7,649.6 1168.7,815.8 1221.5,865.9 1221.5,938.6 1221.1,939 1108.4,1044.5 "/>
<polyline class="st0" points="1062.9,1092.7 1062.9,825 1113.7,776.9 1113.7,701.9 1069.8,659.5 1069.8,566.3 1072.7,566.3 
	1072.7,658.4 1116.6,700.7 1116.6,778 1065.9,826.2 1065.9,1091.6 "/>
<polyline class="st1" points="1021,1096.9 1021,974.7 1022.5,974.7 1022.5,1096.3 "/>
<polyline class="st0" points="926.7,988.9 892.8,957.3 892.8,721 892.9,720.9 935.5,681.2 935.5,556.2 936.2,556.2 936.2,681.5 
	936.1,681.6 893.5,721.3 893.5,957 927.4,988.6 "/>
<polyline class="st0" points="1009.5,1115 1009.5,914.3 944,855.6 944,732 1002.9,676.1 1002.9,570.9 1004.4,570.9 1004.4,676.7 
	945.4,732.6 945.4,855 1011,913.7 1011,1115.6 "/>
<polyline class="st0" points="979,1197.9 979,983.7 979.1,983.6 1043.8,920.9 1043.8,804.1 1043.9,804 1088.7,765.7 1088.7,722.5 
	1089.5,722.5 1089.5,766 1089.3,766.1 1044.5,804.5 1044.5,921.1 1044.4,921.2 979.7,984 979.7,1197.6 "/>
<polyline class="st0" points="898.3,1150.7 898.3,975.5 919.7,958.8 919.7,863.8 920.1,863.4 1055.2,733.1 1055.2,562.4 
	1027.7,537.7 1029.7,535.6 1058.1,561.2 1058.1,734.3 1057.7,734.7 922.6,865 922.6,960.1 901.2,976.9 901.2,1149.7 "/>
<polyline class="st1" points="874,1035.9 874,965.7 875.5,965.7 875.5,1035.4 "/>
<polyline class="st0" points="1050.5,1030.5 1103.5,983.7 1103.5,913.2 1103.6,913.1 1250.8,774.1 1250.8,726 1251.5,726 
	1251.5,774.4 1251.4,774.5 1104.2,913.5 1104.2,984 1104.1,984.1 1051.2,1030.9 "/>
<polyline class="st0" points="993.3,997 948.4,957.9 948.4,876 902.7,833.4 902.7,790.3 908.6,790.3 908.6,831.1 954.3,873.7 
	954.3,955.4 999.2,994.5 "/>
<ellipse class="st0" cx="1325.7" cy="938.5" rx="3" ry="2.9"/>
<ellipse class="st0" cx="1246.7" cy="886.7" rx="3" ry="2.9"/>
<radialGradient id="SVGID_14_" cx="1720.8623" cy="2905.8591" r="172.6745" gradientTransform="matrix(0 2.0093 -2.1182 0 6985.9653 -2376.3135)" gradientUnits="userSpaceOnUse">
	<stop  offset="0" style="stop-color:#00B7C3"/>
	<stop  offset="0.3766" style="stop-color:#0090A8"/>
	<stop  offset="1" style="stop-color:#004976"/>
</radialGradient>
<path class="st16" d="M1251.2,727.8c-1.7,0-3-1.3-3-2.9c0-1.6,1.4-2.9,3-2.9c1.7,0,3,1.3,3,2.9S1252.8,727.8,1251.2,727.8z"/>
<radialGradient id="SVGID_15_" cx="1720.8557" cy="2905.8591" r="172.6714" gradientTransform="matrix(0 2.0093 -2.1182 0 6985.9653 -2376.3135)" gradientUnits="userSpaceOnUse">
	<stop  offset="0" style="stop-color:#00B7C3"/>
	<stop  offset="0.3766" style="stop-color:#0090A8"/>
	<stop  offset="1" style="stop-color:#004976"/>
</radialGradient>
<ellipse class="st17" cx="1134.3" cy="585.2" rx="3" ry="2.9"/>
<radialGradient id="SVGID_16_" cx="1720.8624" cy="2905.8582" r="172.6737" gradientTransform="matrix(0 2.0093 -2.1182 0 6985.9653 -2376.3135)" gradientUnits="userSpaceOnUse">
	<stop  offset="0" style="stop-color:#00B7C3"/>
	<stop  offset="0.3766" style="stop-color:#0090A8"/>
	<stop  offset="1" style="stop-color:#004976"/>
</radialGradient>
<path class="st18" d="M1309.8,724.4c-1.7,0-3-1.3-3-2.9c0-1.6,1.4-2.9,3-2.9c1.7,0,3,1.3,3,2.9
	C1312.8,723.1,1311.4,724.4,1309.8,724.4z"/>
<radialGradient id="SVGID_17_" cx="1720.8556" cy="2905.8584" r="172.6713" gradientTransform="matrix(0 2.0093 -2.1182 0 6985.9653 -2376.3135)" gradientUnits="userSpaceOnUse">
	<stop  offset="0" style="stop-color:#00B7C3"/>
	<stop  offset="0.3766" style="stop-color:#0090A8"/>
	<stop  offset="1" style="stop-color:#004976"/>
</radialGradient>
<ellipse class="st19" cx="1248.4" cy="602.4" rx="3" ry="2.9"/>
<radialGradient id="SVGID_18_" cx="1720.8553" cy="2905.8591" r="172.6713" gradientTransform="matrix(0 2.0093 -2.1182 0 6985.9653 -2376.3135)" gradientUnits="userSpaceOnUse">
	<stop  offset="0" style="stop-color:#00B7C3"/>
	<stop  offset="0.3766" style="stop-color:#0090A8"/>
	<stop  offset="1" style="stop-color:#004976"/>
</radialGradient>
<ellipse class="st20" cx="1071" cy="564.7" rx="3" ry="2.9"/>
<radialGradient id="SVGID_19_" cx="1720.8555" cy="2905.8596" r="172.6698" gradientTransform="matrix(0 2.0093 -2.1182 0 6985.9653 -2376.3135)" gradientUnits="userSpaceOnUse">
	<stop  offset="0" style="stop-color:#00B7C3"/>
	<stop  offset="0.3766" style="stop-color:#0090A8"/>
	<stop  offset="1" style="stop-color:#004976"/>
</radialGradient>
<ellipse class="st21" cx="905.7" cy="786.9" rx="5.1" ry="4.8"/>
<radialGradient id="SVGID_20_" cx="1720.8546" cy="2905.8604" r="172.671" gradientTransform="matrix(0 2.0093 -2.1182 0 6985.9653 -2376.3135)" gradientUnits="userSpaceOnUse">
	<stop  offset="0" style="stop-color:#00B7C3"/>
	<stop  offset="0.3766" style="stop-color:#0090A8"/>
	<stop  offset="1" style="stop-color:#004976"/>
</radialGradient>
<path class="st22" d="M1027.5,691.4c-2.8,0-5.1-2.2-5.1-4.8c0-2.7,2.3-4.8,5.1-4.8c2.8,0,5.1,2.2,5.1,4.8S1030.3,691.4,1027.5,691.4
	z"/>
<radialGradient id="SVGID_21_" cx="1720.8645" cy="2905.8594" r="172.6768" gradientTransform="matrix(0 2.0093 -2.1182 0 6985.9653 -2376.3135)" gradientUnits="userSpaceOnUse">
	<stop  offset="0" style="stop-color:#00B7C3"/>
	<stop  offset="0.3766" style="stop-color:#0090A8"/>
	<stop  offset="1" style="stop-color:#004976"/>
</radialGradient>
<path class="st23" d="M1003.4,571.8c-1.7,0-3-1.3-3-2.9c0-1.6,1.4-2.9,3-2.9s3,1.3,3,2.9C1006.4,570.6,1005,571.8,1003.4,571.8z"/>
<radialGradient id="SVGID_22_" cx="1720.8649" cy="2905.8594" r="172.6768" gradientTransform="matrix(0 2.0093 -2.1182 0 6985.9653 -2376.3135)" gradientUnits="userSpaceOnUse">
	<stop  offset="0" style="stop-color:#00B7C3"/>
	<stop  offset="0.3766" style="stop-color:#0090A8"/>
	<stop  offset="1" style="stop-color:#004976"/>
</radialGradient>
<path class="st24" d="M1027.1,538.4c-1.7,0-3-1.3-3-2.9c0-1.6,1.4-2.9,3-2.9s3,1.3,3,2.9C1030.1,537.1,1028.7,538.4,1027.1,538.4z"
	/>
<radialGradient id="SVGID_23_" cx="1720.8553" cy="2905.8599" r="172.6713" gradientTransform="matrix(0 2.0093 -2.1182 0 6985.9653 -2376.3135)" gradientUnits="userSpaceOnUse">
	<stop  offset="0" style="stop-color:#00B7C3"/>
	<stop  offset="0.3766" style="stop-color:#0090A8"/>
	<stop  offset="1" style="stop-color:#004976"/>
</radialGradient>
<ellipse class="st25" cx="935.7" cy="554.2" rx="3" ry="2.9"/>
<radialGradient id="SVGID_24_" cx="1720.8623" cy="2905.8594" r="172.676" gradientTransform="matrix(0 2.0093 -2.1182 0 6985.9653 -2376.3135)" gradientUnits="userSpaceOnUse">
	<stop  offset="0" style="stop-color:#00B7C3"/>
	<stop  offset="0.3766" style="stop-color:#0090A8"/>
	<stop  offset="1" style="stop-color:#004976"/>
</radialGradient>
<path class="st26" d="M1089.1,723.1c-1.7,0-3-1.3-3-2.9c0-1.6,1.4-2.9,3-2.9s3,1.3,3,2.9S1090.8,723.1,1089.1,723.1z"/>
<ellipse class="st0" cx="1161.1" cy="901.5" rx="3" ry="2.9"/>
<ellipse class="st1" cx="1021.9" cy="972.4" rx="3" ry="2.9"/>
<ellipse class="st1" cx="874.8" cy="963.4" rx="3" ry="2.9"/>
<polyline class="st0" points="430.7,985.4 430.7,940.7 433.6,940.7 433.6,986.7 "/>
<path class="st0" d="M452.4,1009.2V898.3l0.1-0.1l75.4-71V709.3l-18.7-18.4V605h0.7v85.6l18.7,18.4v118.5l-0.1,0.1l-75.4,71v110.9"
	/>
<polyline class="st0" points="486.8,997.1 486.8,818.2 446.8,782 446.8,723.2 449.7,723.2 449.7,780.8 489.8,817 489.8,998.3 "/>
<polyline class="st0" points="510.2,1036.6 510.2,888 511.7,888 511.7,1036 "/>
<polyline class="st0" points="596.1,1013.3 596.1,904 597.5,904 597.5,1013.9 "/>
<polyline class="st0" points="566.1,1013.5 517,962.6 517,912 622.3,809.1 622.3,652.3 667.9,606.5 755.2,606.5 784.4,581.7 
	784.4,543.2 790.2,543.2 790.2,584.2 757.4,612.1 670.4,612.1 628.2,654.5 628.2,811.4 522.9,914.3 522.9,960.5 572,1011.3 "/>
<polyline class="st0" points="634.4,1024.2 634.4,845.7 547.7,764 547.7,663.2 591.5,621.6 815.7,621.6 861.1,576.3 861.1,511.1 
	862.6,511.1 862.6,576.8 862.4,577 816.3,623 592.1,623 549.2,663.8 549.2,763.4 635.9,845.2 635.9,1024.8 "/>
<polyline class="st0" points="673.5,1077.1 673.5,885.9 727.7,834.9 727.7,689.1 733.6,689.1 733.6,837.2 679.4,888.2 679.4,1079.5 
	"/>
<polyline class="st0" points="649.6,1044.5 536.5,938.6 536.5,865.9 589.3,815.8 589.3,649.6 622.3,619.2 622.3,587.2 625.2,587.2 
	625.2,620.4 592.2,650.8 592.2,817 539.4,867.1 539.4,937.4 652.5,1043.3 "/>
<polyline class="st0" points="692.1,1091.6 692.1,826.2 641.4,778 641.4,700.7 685.3,658.4 685.3,566.3 688.2,566.3 688.2,659.5 
	644.3,701.9 644.3,776.9 695.1,825 695.1,1092.7 "/>
<polyline class="st1" points="735.5,1096.3 735.5,974.7 737,974.7 737,1096.9 "/>
<polyline class="st0" points="830.7,988.5 864.5,957 864.5,721.3 821.8,681.5 821.8,556.2 822.5,556.2 822.5,681.2 865.2,721 
	865.2,957.3 865.1,957.4 831.3,988.9 "/>
<polyline class="st0" points="747,1115.6 747,913.7 747.2,913.5 812.6,855 812.6,732.6 753.6,676.7 753.6,485.3 755.1,485.3 
	755.1,676.1 814,732 814,855.6 813.8,855.8 748.5,914.3 748.5,1115 "/>
<polyline class="st0" points="778.3,1197.6 778.3,984 713.5,921.1 713.5,804.5 668.5,766 668.5,722.5 669.3,722.5 669.3,765.7 
	714.2,804.1 714.2,920.9 779,983.7 779,1197.9 "/>
<polyline class="st0" points="856.8,1149.7 856.8,976.9 835.4,960.1 835.4,865 699.9,734.3 699.9,561.2 728.3,535.6 730.3,537.7 
	702.8,562.4 702.8,733.1 838.3,863.8 838.3,958.8 859.7,975.5 859.7,1150.7 "/>
<polyline class="st1" points="882.6,1035.4 882.6,965.7 884,965.7 884,1035.9 "/>
<polyline class="st0" points="706.9,1030.9 653.8,984 653.8,913.5 506.5,774.4 506.5,726 507.2,726 507.2,774.1 654.5,913.2 
	654.5,983.7 707.6,1030.6 "/>
<polyline class="st0" points="758.8,994.5 803.7,955.4 803.7,873.7 849.4,831.1 849.4,790.3 855.3,790.3 855.3,833.4 809.6,876 
	809.6,957.9 764.7,997 "/>
<ellipse class="st0" cx="432.3" cy="938.5" rx="3" ry="2.9"/>
<ellipse class="st0" cx="511.3" cy="886.7" rx="3" ry="2.9"/>
<radialGradient id="SVGID_25_" cx="1720.8623" cy="2905.8613" r="172.6742" gradientTransform="matrix(0 2.0093 -2.1182 0 6985.9653 -2376.3135)" gradientUnits="userSpaceOnUse">
	<stop  offset="0" style="stop-color:#00B7C3"/>
	<stop  offset="0.3766" style="stop-color:#0090A8"/>
	<stop  offset="1" style="stop-color:#004976"/>
</radialGradient>
<path class="st27" d="M506.8,727.8c1.7,0,3-1.3,3-2.9c0-1.6-1.4-2.9-3-2.9s-3,1.3-3,2.9S505.2,727.8,506.8,727.8z"/>
<radialGradient id="SVGID_26_" cx="1720.8557" cy="2905.8608" r="172.6714" gradientTransform="matrix(0 2.0093 -2.1182 0 6985.9653 -2376.3135)" gradientUnits="userSpaceOnUse">
	<stop  offset="0" style="stop-color:#00B7C3"/>
	<stop  offset="0.3766" style="stop-color:#0090A8"/>
	<stop  offset="1" style="stop-color:#004976"/>
</radialGradient>
<ellipse class="st28" cx="623.7" cy="585.2" rx="3" ry="2.9"/>
<radialGradient id="SVGID_27_" cx="1720.8624" cy="2905.8613" r="172.6744" gradientTransform="matrix(0 2.0093 -2.1182 0 6985.9653 -2376.3135)" gradientUnits="userSpaceOnUse">
	<stop  offset="0" style="stop-color:#00B7C3"/>
	<stop  offset="0.3766" style="stop-color:#0090A8"/>
	<stop  offset="1" style="stop-color:#004976"/>
</radialGradient>
<path class="st29" d="M448.2,724.4c1.7,0,3-1.3,3-2.9c0-1.6-1.4-2.9-3-2.9c-1.7,0-3,1.3-3,2.9C445.2,723.1,446.6,724.4,448.2,724.4z
	"/>
<radialGradient id="SVGID_28_" cx="1720.8556" cy="2905.8611" r="172.6712" gradientTransform="matrix(0 2.0093 -2.1182 0 6985.9653 -2376.3135)" gradientUnits="userSpaceOnUse">
	<stop  offset="0" style="stop-color:#00B7C3"/>
	<stop  offset="0.3766" style="stop-color:#0090A8"/>
	<stop  offset="1" style="stop-color:#004976"/>
</radialGradient>
<ellipse class="st30" cx="509.6" cy="602.4" rx="3" ry="2.9"/>
<radialGradient id="SVGID_29_" cx="1720.8553" cy="2905.8608" r="172.6713" gradientTransform="matrix(0 2.0093 -2.1182 0 6985.9653 -2376.3135)" gradientUnits="userSpaceOnUse">
	<stop  offset="0" style="stop-color:#00B7C3"/>
	<stop  offset="0.3766" style="stop-color:#0090A8"/>
	<stop  offset="1" style="stop-color:#004976"/>
</radialGradient>
<ellipse class="st31" cx="687" cy="564.7" rx="3" ry="2.9"/>
<radialGradient id="SVGID_30_" cx="1720.8591" cy="2905.8599" r="172.6738" gradientTransform="matrix(0 2.0093 -2.1182 0 6985.9653 -2376.3135)" gradientUnits="userSpaceOnUse">
	<stop  offset="0" style="stop-color:#00B7C3"/>
	<stop  offset="0.3766" style="stop-color:#0090A8"/>
	<stop  offset="1" style="stop-color:#004976"/>
</radialGradient>
<path class="st32" d="M787.4,544.7c2.8,0,5.1-2.2,5.1-4.8c0-2.7-2.3-4.8-5.1-4.8s-5.1,2.2-5.1,4.8
	C782.3,542.5,784.6,544.7,787.4,544.7z"/>
<radialGradient id="SVGID_31_" cx="1720.8555" cy="2905.8599" r="172.6702" gradientTransform="matrix(0 2.0093 -2.1182 0 6985.9653 -2376.3135)" gradientUnits="userSpaceOnUse">
	<stop  offset="0" style="stop-color:#00B7C3"/>
	<stop  offset="0.3766" style="stop-color:#0090A8"/>
	<stop  offset="1" style="stop-color:#004976"/>
</radialGradient>
<ellipse class="st33" cx="852.3" cy="786.9" rx="5.1" ry="4.8"/>
<radialGradient id="SVGID_32_" cx="1720.8546" cy="2905.8596" r="172.671" gradientTransform="matrix(0 2.0093 -2.1182 0 6985.9653 -2376.3135)" gradientUnits="userSpaceOnUse">
	<stop  offset="0" style="stop-color:#00B7C3"/>
	<stop  offset="0.3766" style="stop-color:#0090A8"/>
	<stop  offset="1" style="stop-color:#004976"/>
</radialGradient>
<path class="st34" d="M730.5,691.4c2.8,0,5.1-2.2,5.1-4.8c0-2.7-2.3-4.8-5.1-4.8s-5.1,2.2-5.1,4.8S727.7,691.4,730.5,691.4z"/>
<radialGradient id="SVGID_33_" cx="1720.8551" cy="2905.8599" r="172.6713" gradientTransform="matrix(0 2.0093 -2.1182 0 6985.9653 -2376.3135)" gradientUnits="userSpaceOnUse">
	<stop  offset="0" style="stop-color:#00B7C3"/>
	<stop  offset="0.3766" style="stop-color:#0090A8"/>
	<stop  offset="1" style="stop-color:#004976"/>
</radialGradient>
<ellipse class="st35" cx="861.8" cy="509.2" rx="3" ry="2.9"/>
<radialGradient id="SVGID_34_" cx="1720.8649" cy="2905.8604" r="172.6771" gradientTransform="matrix(0 2.0093 -2.1182 0 6985.9653 -2376.3135)" gradientUnits="userSpaceOnUse">
	<stop  offset="0" style="stop-color:#00B7C3"/>
	<stop  offset="0.3766" style="stop-color:#0090A8"/>
	<stop  offset="1" style="stop-color:#004976"/>
</radialGradient>
<path class="st36" d="M731,538.4c1.7,0,3-1.3,3-2.9c0-1.6-1.4-2.9-3-2.9s-3,1.3-3,2.9C727.9,537.1,729.3,538.4,731,538.4z"/>
<radialGradient id="SVGID_35_" cx="1720.8553" cy="2905.8601" r="172.6712" gradientTransform="matrix(0 2.0093 -2.1182 0 6985.9653 -2376.3135)" gradientUnits="userSpaceOnUse">
	<stop  offset="0" style="stop-color:#00B7C3"/>
	<stop  offset="0.3766" style="stop-color:#0090A8"/>
	<stop  offset="1" style="stop-color:#004976"/>
</radialGradient>
<ellipse class="st37" cx="822.3" cy="554.2" rx="3" ry="2.9"/>
<radialGradient id="SVGID_36_" cx="1720.8623" cy="2905.8608" r="172.6761" gradientTransform="matrix(0 2.0093 -2.1182 0 6985.9653 -2376.3135)" gradientUnits="userSpaceOnUse">
	<stop  offset="0" style="stop-color:#00B7C3"/>
	<stop  offset="0.3766" style="stop-color:#0090A8"/>
	<stop  offset="1" style="stop-color:#004976"/>
</radialGradient>
<path class="st38" d="M668.9,723.1c1.7,0,3-1.3,3-2.9c0-1.6-1.4-2.9-3-2.9c-1.7,0-3,1.3-3,2.9S667.2,723.1,668.9,723.1z"/>
<ellipse class="st0" cx="596.9" cy="901.5" rx="3" ry="2.9"/>
<ellipse class="st1" cx="736.1" cy="972.4" rx="3" ry="2.9"/>
<ellipse class="st1" cx="883.2" cy="963.4" rx="3" ry="2.9"/>
<rect x="110.3" y="-256" class="st39" width="1588.7" height="1004.7"/>
<g class="st40">
	<g>
		<path class="st41" d="M1509.3-97.2h-124.9l-0.1-0.1L1365-115h-90.3v-0.7h90.6l0.1,0.1l19.3,17.7H1509l74.9-71.7h116.9
			c19.1-18.1,47.7-45.7,48.3-47.4c0,0,0,0.1,0.1,0.2l0.2-0.2v-0.1v-0.3H1889l0.1,0.1l24.4,23.8h25.7v0.7h-26l-0.1-0.1l-24.4-23.8
			h-139c-0.6,1.1-4.5,5.3-24,24.3c-12,11.6-24.3,23.3-24.4,23.4l-0.1,0.1h-116.9L1509.3-97.2z"/>
		
			<radialGradient id="SVGID_37_" cx="1863.9761" cy="415.6218" r="172.6732" gradientTransform="matrix(2.1182 0 0 2.0093 -2171.3494 -554.228)" gradientUnits="userSpaceOnUse">
			<stop  offset="0" style="stop-color:#00B7C3"/>
			<stop  offset="0.3766" style="stop-color:#0090A8"/>
			<stop  offset="1" style="stop-color:#004976"/>
		</radialGradient>
		<polygon class="st42" points="1746.7,-125.2 1745.6,-126.2 1783.3,-164.4 1937.3,-164.4 1937.3,-163 1783.9,-163 		"/>
		<polygon class="st41" points="1937.9,-132.9 1855.3,-132.9 1797.2,-184.9 1742.2,-184.9 1689.3,-134.1 1498.2,-134.1 
			1460.1,-172.1 1399.4,-172.1 1399.4,-174.9 1461.3,-174.9 1499.4,-136.9 1688.1,-136.9 1741,-187.7 1798.4,-187.7 1856.5,-135.7 
			1937.9,-135.7 		"/>
		
			<radialGradient id="SVGID_38_" cx="1863.976" cy="415.6214" r="172.6721" gradientTransform="matrix(2.1182 0 0 2.0093 -2171.3494 -554.228)" gradientUnits="userSpaceOnUse">
			<stop  offset="0" style="stop-color:#00B7C3"/>
			<stop  offset="0.3766" style="stop-color:#0090A8"/>
			<stop  offset="1" style="stop-color:#004976"/>
		</radialGradient>
		<polygon class="st43" points="1840.7,-85.8 1756.2,-85.8 1755.9,-86 1729,-113.4 1573.1,-113.4 1573.1,-114.7 1729.7,-114.7 
			1729.9,-114.5 1756.8,-87.2 1840.1,-87.2 1875,-121.5 1937.3,-121.5 1937.3,-120.1 1875.6,-120.1 		"/>
		
			<radialGradient id="SVGID_39_" cx="1863.976" cy="415.6211" r="172.6721" gradientTransform="matrix(2.1182 0 0 2.0093 -2171.3494 -554.228)" gradientUnits="userSpaceOnUse">
			<stop  offset="0" style="stop-color:#00B7C3"/>
			<stop  offset="0.3766" style="stop-color:#0090A8"/>
			<stop  offset="1" style="stop-color:#004976"/>
		</radialGradient>
		<polygon class="st44" points="1705.7,-31.9 1589.9,-31.9 1589.9,-33.3 1705.2,-33.3 1741.3,-64.5 1864.6,-64.5 1892.4,-92.1 
			1937.9,-92.1 1937.9,-90.7 1893,-90.7 1865.3,-63.1 1741.9,-63.1 		"/>
		<polygon class="st41" points="1252.8,150.9 1109.2,150.9 1109.2,145.3 1250.2,145.3 1276.3,117.7 1276.3,34.8 1324.6,-8.4 
			1489.9,-8.4 1598.4,-108.3 1651.7,-108.3 1705.3,-61.7 1936.6,-61.7 1936.6,-56.1 1703,-56.1 1649.4,-102.7 1600.7,-102.7 
			1492.3,-2.8 1326.9,-2.8 1282.2,37.2 1282.2,119.8 		"/>
		<polygon class="st41" points="1245,219.5 1036.3,219.5 1036.3,218.1 1244.4,218.1 1292.2,175.1 1292.2,-37.6 1336,-79.2 
			1442.3,-79.2 1442.6,-79 1528.5,3.1 1716.6,3.1 1760,-39.2 1938.1,-39.2 1938.1,-37.8 1760.6,-37.8 1717.3,4.5 1527.9,4.5 
			1527.7,4.3 1441.7,-77.8 1336.6,-77.8 1293.7,-37 1293.7,175.7 1293.5,175.9 		"/>
		<polygon class="st41" points="1519.5,97.2 1363.3,97.2 1363.3,91.6 1517.1,91.6 1570.8,40.2 1772.4,40.2 1837.9,-22.3 
			1937.1,-22.3 1937.1,-16.8 1840.4,-16.8 1774.9,45.8 1573.2,45.8 		"/>
		<polygon class="st41" points="1785.9,20.3 1736.8,20.3 1736.3,19.9 1625.1,-87 1551,-87 1498.2,-36.9 1323,-36.9 1290.9,-5.7 
			1255.9,-5.7 1255.9,-8.4 1289.7,-8.4 1321.7,-39.7 1497,-39.7 1549.7,-89.8 1626.3,-89.8 1626.8,-89.4 1738,17.5 1784.7,17.5 
			1809.5,-4.4 1936.6,-4.4 1936.6,-1.6 1810.6,-1.6 		"/>
		<polygon class="st41" points="1788.9,60.6 1506.7,60.6 1455.9,12.5 1376.8,12.5 1332.2,54.2 1233.9,54.2 1233.9,51.4 1331,51.4 
			1375.6,9.7 1457.1,9.7 1507.9,57.8 1787.7,57.8 1824,24.1 1941.2,24.1 1941.2,26.9 1825.2,26.9 		"/>
		<polygon class="st45" points="1793.2,100.4 1664.4,100.4 1664.4,99 1792.6,99 1842.8,49.2 1939.5,49.2 1939.5,50.6 1843.4,50.6 		
			"/>
		<polygon class="st41" points="1646.1,222.1 1397,222.1 1396.9,221.9 1355,181.5 1223.3,181.5 1223.3,180.8 1355.3,180.8 
			1355.4,180.9 1397.3,221.4 1645.8,221.4 1679.1,189.2 1819.8,189.2 1882.4,122.1 1943,122.1 1943,122.8 1882.8,122.8 
			1820.2,189.9 1679.4,189.9 		"/>
		<polygon class="st41" points="1943,181.9 1886,181.9 1812.3,111.3 1600.8,111.3 1538.9,173.5 1408.6,173.5 1349.7,117.6 
			1238.7,117.6 1238.7,116.2 1350.3,116.2 1409.2,172.1 1538.3,172.1 1600.1,109.9 1812.9,109.9 1886.6,180.5 1943,180.5 		"/>
		<polygon class="st41" points="1899.7,140.3 1674,140.3 1673.9,140.2 1607.7,78.8 1484.6,78.8 1484.5,78.7 1444.1,36.2 
			1398.6,36.2 1398.6,35.5 1444.4,35.5 1444.6,35.6 1485,78.1 1608,78.1 1608.1,78.2 1674.3,139.6 1899.4,139.6 1943.5,102 
			1944,102.5 		"/>
		<polygon class="st41" points="1849.9,216.8 1665.3,216.8 1647.7,196.5 1547.6,196.5 1547.1,196.1 1409.8,68 1229.8,68 
			1203.7,94.1 1201.6,92.2 1228.5,65.2 1411,65.2 1411.4,65.6 1548.8,193.8 1649,193.8 1666.7,214 1849,214 1868.9,200 1940.8,200 
			1940.8,202.8 1869.8,202.8 		"/>
		<polyline class="st45" points="1655,239.9 1655,238.5 1728.4,238.5 1752,220.3 1940.8,220.3 1940.8,221.7 1752.5,221.7 
			1728.9,239.9 		"/>
		<polygon class="st41" points="1772.8,72.5 1723.3,72.5 1723.2,72.4 1674,22.2 1599.6,22.2 1599.5,22.1 1453,-117.6 1402.3,-117.6 
			1402.3,-118.3 1453.3,-118.3 1453.4,-118.2 1599.9,21.5 1674.3,21.5 1674.4,21.6 1723.6,71.8 1772.8,71.8 		"/>
		<polygon class="st41" points="1515.5,212.6 1470.1,212.6 1470.1,207 1513,207 1558,163.7 1644.1,163.7 1685.4,121.1 1839.4,121.1 
			1867.4,94.5 1899.6,94.5 1899.6,100.1 1869.8,100.1 1841.8,126.7 1687.9,126.7 1646.7,169.3 1560.4,169.3 		"/>
		
			<radialGradient id="SVGID_40_" cx="1863.9753" cy="415.6196" r="172.672" gradientTransform="matrix(2.1182 0 0 2.0093 -2171.3494 -554.228)" gradientUnits="userSpaceOnUse">
			<stop  offset="0" style="stop-color:#00B7C3"/>
			<stop  offset="0.3766" style="stop-color:#0090A8"/>
			<stop  offset="1" style="stop-color:#004976"/>
		</radialGradient>
		<ellipse class="st46" cx="1626.2" cy="-188.6" rx="3" ry="2.9"/>
		
			<radialGradient id="SVGID_41_" cx="1863.9753" cy="415.6197" r="172.672" gradientTransform="matrix(2.1182 0 0 2.0093 -2171.3494 -554.228)" gradientUnits="userSpaceOnUse">
			<stop  offset="0" style="stop-color:#00B7C3"/>
			<stop  offset="0.3766" style="stop-color:#0090A8"/>
			<stop  offset="1" style="stop-color:#004976"/>
		</radialGradient>
		<ellipse class="st47" cx="1571.7" cy="-113.7" rx="3" ry="2.9"/>
		
			<radialGradient id="SVGID_42_" cx="1863.9755" cy="415.6198" r="172.6717" gradientTransform="matrix(2.1182 0 0 2.0093 -2171.3494 -554.228)" gradientUnits="userSpaceOnUse">
			<stop  offset="0" style="stop-color:#00B7C3"/>
			<stop  offset="0.3766" style="stop-color:#0090A8"/>
			<stop  offset="1" style="stop-color:#004976"/>
		</radialGradient>
		<ellipse class="st48" cx="1401.2" cy="-117.9" rx="3" ry="2.9"/>
		
			<radialGradient id="SVGID_43_" cx="1863.9828" cy="415.6254" r="172.6775" gradientTransform="matrix(2.1182 0 0 2.0093 -2171.3494 -554.228)" gradientUnits="userSpaceOnUse">
			<stop  offset="0" style="stop-color:#00B7C3"/>
			<stop  offset="0.3766" style="stop-color:#0090A8"/>
			<stop  offset="1" style="stop-color:#004976"/>
		</radialGradient>
		<path class="st49" d="M1256.8-7.1c0,1.6-1.4,2.9-3,2.9c-1.7,0-3-1.3-3-2.9s1.4-2.9,3-2.9C1255.5-10,1256.8-8.7,1256.8-7.1z"/>
		
			<radialGradient id="SVGID_44_" cx="1863.9747" cy="415.6195" r="172.6714" gradientTransform="matrix(2.1182 0 0 2.0093 -2171.3494 -554.228)" gradientUnits="userSpaceOnUse">
			<stop  offset="0" style="stop-color:#00B7C3"/>
			<stop  offset="0.3766" style="stop-color:#0090A8"/>
			<stop  offset="1" style="stop-color:#004976"/>
		</radialGradient>
		<ellipse class="st50" cx="1397.6" cy="-173.5" rx="3" ry="2.9"/>
		
			<radialGradient id="SVGID_45_" cx="1863.9741" cy="415.6198" r="172.6713" gradientTransform="matrix(2.1182 0 0 2.0093 -2171.3494 -554.228)" gradientUnits="userSpaceOnUse">
			<stop  offset="0" style="stop-color:#00B7C3"/>
			<stop  offset="0.3766" style="stop-color:#0090A8"/>
			<stop  offset="1" style="stop-color:#004976"/>
		</radialGradient>
		<ellipse class="st51" cx="1272" cy="-115.3" rx="3" ry="2.9"/>
		<path class="st41" d="M1471.6,209.8c0,2.7-2.3,4.8-5.1,4.8c-2.8,0-5.1-2.2-5.1-4.8c0-2.7,2.3-4.8,5.1-4.8
			C1469.3,205,1471.6,207.1,1471.6,209.8z"/>
		<path class="st45" d="M1365.8,94.2c0,2.7-2.3,4.8-5.1,4.8c-2.8,0-5.1-2.2-5.1-4.8c0-2.7,2.3-4.8,5.1-4.8
			C1363.5,89.4,1365.8,91.6,1365.8,94.2z"/>
		<ellipse class="st45" cx="1396.2" cy="35.8" rx="3" ry="2.9"/>
		
			<radialGradient id="SVGID_46_" cx="1863.9753" cy="415.6255" r="172.6755" gradientTransform="matrix(2.1182 0 0 2.0093 -2171.3494 -554.228)" gradientUnits="userSpaceOnUse">
			<stop  offset="0" style="stop-color:#00B7C3"/>
			<stop  offset="0.3766" style="stop-color:#0090A8"/>
			<stop  offset="1" style="stop-color:#004976"/>
		</radialGradient>
		<path class="st52" d="M1590.3-32.5c0,1.6-1.4,2.9-3,2.9c-1.7,0-3-1.3-3-2.9c0-1.6,1.4-2.9,3-2.9
			C1589-35.3,1590.3-34.1,1590.3-32.5z"/>
		<path class="st45" d="M1778.6,71.9c0,1.6-1.4,2.9-3,2.9c-1.7,0-3-1.3-3-2.9s1.4-2.9,3-2.9C1777.3,69,1778.6,70.3,1778.6,71.9z"/>
		<ellipse class="st45" cx="1901.6" cy="97.4" rx="3" ry="2.9"/>
		<ellipse class="st45" cx="1662" cy="99.5" rx="3" ry="2.9"/>
		<path class="st45" d="M1655.5,239.1c0,1.6-1.4,2.9-3,2.9c-1.7,0-3-1.3-3-2.9c0-1.6,1.4-2.9,3-2.9
			C1654.2,236.2,1655.5,237.5,1655.5,239.1z"/>
		
			<radialGradient id="SVGID_47_" cx="1863.9758" cy="415.6197" r="172.6717" gradientTransform="matrix(2.1182 0 0 2.0093 -2171.3494 -554.228)" gradientUnits="userSpaceOnUse">
			<stop  offset="0" style="stop-color:#00B7C3"/>
			<stop  offset="0.3766" style="stop-color:#0090A8"/>
			<stop  offset="1" style="stop-color:#004976"/>
		</radialGradient>
		<ellipse class="st53" cx="1745.4" cy="-124.3" rx="3" ry="2.9"/>
	</g>
	<g>
		<path class="st41" d="M1889,687.5h-139.7v-0.4l-0.2-0.2c-0.1,0.1-0.1,0.2-0.1,0.2c-0.6-1.8-29.2-29.3-48.3-47.4h-116.9l-0.1-0.1
			l-74.8-71.6h-124.3l-19.4,17.8h-90.6v-0.7h90.3l19.4-17.8h124.9l0.1,0.1l74.8,71.6H1701l0.1,0.1c0.1,0.1,12.4,11.8,24.4,23.4
			c19.6,18.9,23.4,23.1,24,24.3h139l24.5-23.9h26v0.7h-25.7L1889,687.5z"/>
		
			<radialGradient id="SVGID_48_" cx="1863.9761" cy="415.6219" r="172.6725" gradientTransform="matrix(2.1182 0 0 2.0093 -2171.3494 -554.228)" gradientUnits="userSpaceOnUse">
			<stop  offset="0" style="stop-color:#00B7C3"/>
			<stop  offset="0.3766" style="stop-color:#0090A8"/>
			<stop  offset="1" style="stop-color:#004976"/>
		</radialGradient>
		<polygon class="st54" points="1937.3,634.6 1783.3,634.6 1745.6,596.4 1746.7,595.4 1783.9,633.2 1937.3,633.2 		"/>
		
			<radialGradient id="SVGID_49_" cx="1863.976" cy="415.6215" r="172.6723" gradientTransform="matrix(2.1182 0 0 2.0093 -2171.3494 -554.228)" gradientUnits="userSpaceOnUse">
			<stop  offset="0" style="stop-color:#00B7C3"/>
			<stop  offset="0.3766" style="stop-color:#0090A8"/>
			<stop  offset="1" style="stop-color:#004976"/>
		</radialGradient>
		<polygon class="st55" points="1937.3,591.7 1875,591.7 1840.1,557.4 1756.8,557.4 1729.7,585 1573.1,585 1573.1,583.6 1729,583.6 
			1756.2,556 1840.7,556 1875.6,590.3 1937.3,590.3 		"/>
		
			<radialGradient id="SVGID_50_" cx="1863.976" cy="415.6216" r="172.6729" gradientTransform="matrix(2.1182 0 0 2.0093 -2171.3494 -554.228)" gradientUnits="userSpaceOnUse">
			<stop  offset="0" style="stop-color:#00B7C3"/>
			<stop  offset="0.3766" style="stop-color:#0090A8"/>
			<stop  offset="1" style="stop-color:#004976"/>
		</radialGradient>
		<polygon class="st56" points="1937.9,562.3 1892.4,562.3 1864.6,534.7 1741.3,534.7 1705.2,503.5 1589.9,503.5 1589.9,502.1 
			1705.7,502.1 1741.9,533.3 1865.3,533.3 1893,560.9 1937.9,560.9 		"/>
		<polygon class="st41" points="1651.7,578.5 1598.4,578.5 1489.9,478.6 1324.6,478.6 1276.3,435.4 1276.3,352.6 1250.2,324.9 
			1209.5,324.9 1209.5,319.3 1252.8,319.3 1282.2,350.4 1282.2,433 1326.9,473.1 1492.3,473.1 1600.7,572.9 1649.4,572.9 
			1703,526.4 1936.6,526.4 1936.6,531.9 1705.3,531.9 		"/>
		<polygon class="st41" points="1442.3,549.4 1336,549.4 1292.2,507.8 1292.2,295.2 1244.4,252.1 1175.7,252.1 1175.7,250.7 
			1245,250.7 1245.2,250.9 1293.7,294.6 1293.7,507.3 1336.6,548 1441.7,548 1527.9,465.7 1717.3,465.7 1717.5,465.9 1760.6,508 
			1938.1,508 1938.1,509.4 1760,509.4 1759.8,509.2 1716.6,467.1 1528.5,467.1 		"/>
		<polygon class="st41" points="1937.1,492.6 1837.9,492.6 1772.4,430 1570.8,430 1517.1,378.6 1363.3,378.6 1363.3,373 1519.5,373 
			1573.2,424.4 1774.9,424.4 1840.4,487 1937.1,487 		"/>
		<polygon class="st41" points="1626.3,560 1549.7,560 1497,509.9 1321.7,509.9 1289.7,478.7 1255.9,478.7 1255.9,475.9 
			1290.9,475.9 1323,507.2 1498.2,507.2 1551,557.2 1625.1,557.2 1736.8,450 1785.9,450 1810.6,471.9 1936.6,471.9 1936.6,474.6 
			1809.5,474.6 1784.7,452.7 1738,452.7 		"/>
		<polygon class="st41" points="1457.1,460.5 1375.6,460.5 1331,418.8 1233.9,418.8 1233.9,416.1 1332.2,416.1 1376.8,457.7 
			1455.9,457.7 1506.7,409.6 1788.9,409.6 1825.2,443.4 1941.2,443.4 1941.2,446.1 1824,446.1 1787.7,412.4 1507.9,412.4 		"/>
		<polygon class="st45" points="1939.5,421.1 1842.8,421.1 1792.6,371.2 1664.4,371.2 1664.4,369.8 1793.2,369.8 1843.4,419.7 
			1939.5,419.7 		"/>
		<polygon class="st41" points="1943,348.1 1882.4,348.1 1882.3,348 1819.8,281 1679.1,281 1679,280.9 1645.8,248.9 1397.3,248.9 
			1355.3,289.4 1223.3,289.4 1223.3,288.7 1355,288.7 1397,248.2 1646.1,248.2 1646.2,248.3 1679.4,280.3 1820.2,280.3 
			1820.3,280.4 1882.8,347.4 1943,347.4 		"/>
		<polygon class="st41" points="1812.9,360.3 1600.1,360.3 1599.9,360.1 1538.3,298.1 1409.2,298.1 1350.3,354 1148.6,354 
			1148.6,352.6 1349.7,352.6 1408.6,296.7 1538.9,296.7 1539.1,297 1600.8,358.9 1812.3,358.9 1886,288.4 1943,288.4 1943,289.7 
			1886.6,289.7 		"/>
		<polygon class="st41" points="1444.4,434.8 1398.6,434.8 1398.6,434.1 1444.1,434.1 1484.6,391.4 1607.7,391.4 1674,329.9 
			1899.7,329.9 1899.8,330 1944,367.8 1943.5,368.3 1899.4,330.6 1674.3,330.6 1608,392.1 1485,392.1 		"/>
		<polygon class="st41" points="1411,405 1228.5,405 1201.6,378.1 1203.7,376.1 1229.8,402.3 1409.8,402.3 1547.6,273.7 
			1647.7,273.7 1665.3,253.4 1849.9,253.4 1869.8,267.4 1940.8,267.4 1940.8,270.2 1868.9,270.2 1849,256.2 1666.7,256.2 
			1649,276.5 1548.8,276.5 		"/>
		<polygon class="st41" points="1453.3,588.5 1402.3,588.5 1402.3,587.8 1453,587.8 1599.6,448 1674,448 1723.3,397.7 1772.8,397.7 
			1772.8,398.4 1723.6,398.4 1674.3,448.7 1599.9,448.7 		"/>
		<polygon class="st41" points="1899.6,375.7 1867.4,375.7 1839.4,349.1 1685.4,349.1 1644.1,306.5 1558,306.5 1513,263.2 
			1470.1,263.2 1470.1,257.6 1515.5,257.6 1560.4,300.9 1646.7,300.9 1687.9,343.6 1841.8,343.6 1869.8,370.1 1899.6,370.1 		"/>
		
			<radialGradient id="SVGID_51_" cx="1863.9753" cy="415.6225" r="172.6709" gradientTransform="matrix(2.1182 0 0 2.0093 -2171.3494 -554.228)" gradientUnits="userSpaceOnUse">
			<stop  offset="0" style="stop-color:#00B7C3"/>
			<stop  offset="0.3766" style="stop-color:#0090A8"/>
			<stop  offset="1" style="stop-color:#004976"/>
		</radialGradient>
		<ellipse class="st57" cx="1571.7" cy="583.9" rx="3" ry="2.9"/>
		
			<radialGradient id="SVGID_52_" cx="1863.9755" cy="415.6227" r="172.6712" gradientTransform="matrix(2.1182 0 0 2.0093 -2171.3494 -554.228)" gradientUnits="userSpaceOnUse">
			<stop  offset="0" style="stop-color:#00B7C3"/>
			<stop  offset="0.3766" style="stop-color:#0090A8"/>
			<stop  offset="1" style="stop-color:#004976"/>
		</radialGradient>
		<ellipse class="st58" cx="1401.2" cy="588.2" rx="3" ry="2.9"/>
		<path class="st45" d="M1256.8,477.3c0-1.6-1.4-2.9-3-2.9c-1.7,0-3,1.3-3,2.9s1.4,2.9,3,2.9
			C1255.5,480.2,1256.8,478.9,1256.8,477.3z"/>
		
			<radialGradient id="SVGID_53_" cx="1863.9747" cy="415.6227" r="172.6714" gradientTransform="matrix(2.1182 0 0 2.0093 -2171.3494 -554.228)" gradientUnits="userSpaceOnUse">
			<stop  offset="0" style="stop-color:#00B7C3"/>
			<stop  offset="0.3766" style="stop-color:#0090A8"/>
			<stop  offset="1" style="stop-color:#004976"/>
		</radialGradient>
		<ellipse class="st59" cx="1397.6" cy="643.7" rx="3" ry="2.9"/>
		
			<radialGradient id="SVGID_54_" cx="1863.9741" cy="415.6172" r="172.673" gradientTransform="matrix(2.1182 0 0 2.0093 -2171.3494 -554.228)" gradientUnits="userSpaceOnUse">
			<stop  offset="0" style="stop-color:#00B7C3"/>
			<stop  offset="0.3766" style="stop-color:#0090A8"/>
			<stop  offset="1" style="stop-color:#004976"/>
		</radialGradient>
		<path class="st60" d="M1275,585.5c0-1.6-1.4-2.9-3-2.9c-1.7,0-3,1.3-3,2.9c0,1.6,1.4,2.9,3,2.9
			C1273.7,588.4,1275,587.1,1275,585.5z"/>
		<path class="st41" d="M1471.6,260.5c0-2.7-2.3-4.8-5.1-4.8c-2.8,0-5.1,2.2-5.1,4.8c0,2.7,2.3,4.8,5.1,4.8
			C1469.3,265.3,1471.6,263.1,1471.6,260.5z"/>
		<path class="st45" d="M1365.8,376c0-2.7-2.3-4.8-5.1-4.8c-2.8,0-5.1,2.2-5.1,4.8c0,2.7,2.3,4.8,5.1,4.8S1365.8,378.6,1365.8,376z"
			/>
		<ellipse class="st45" cx="1396.2" cy="434.4" rx="3" ry="2.9"/>
		
			<radialGradient id="SVGID_55_" cx="1863.9753" cy="415.6183" r="172.6751" gradientTransform="matrix(2.1182 0 0 2.0093 -2171.3494 -554.228)" gradientUnits="userSpaceOnUse">
			<stop  offset="0" style="stop-color:#00B7C3"/>
			<stop  offset="0.3766" style="stop-color:#0090A8"/>
			<stop  offset="1" style="stop-color:#004976"/>
		</radialGradient>
		<path class="st61" d="M1590.3,502.7c0-1.6-1.4-2.9-3-2.9c-1.7,0-3,1.3-3,2.9s1.4,2.9,3,2.9C1589,505.6,1590.3,504.3,1590.3,502.7z
			"/>
		<path class="st45" d="M1778.6,398.3c0-1.6-1.4-2.9-3-2.9c-1.7,0-3,1.3-3,2.9s1.4,2.9,3,2.9
			C1777.3,401.2,1778.6,399.9,1778.6,398.3z"/>
		<ellipse class="st45" cx="1901.6" cy="372.9" rx="3" ry="2.9"/>
		<ellipse class="st45" cx="1662" cy="370.7" rx="3" ry="2.9"/>
		<path class="st45" d="M1655.5,231.2c0-1.6-1.4-2.9-3-2.9c-1.7,0-3,1.3-3,2.9c0,1.6,1.4,2.9,3,2.9
			C1654.2,234,1655.5,232.8,1655.5,231.2z"/>
		
			<radialGradient id="SVGID_56_" cx="1863.9758" cy="415.6225" r="172.6713" gradientTransform="matrix(2.1182 0 0 2.0093 -2171.3494 -554.228)" gradientUnits="userSpaceOnUse">
			<stop  offset="0" style="stop-color:#00B7C3"/>
			<stop  offset="0.3766" style="stop-color:#0090A8"/>
			<stop  offset="1" style="stop-color:#004976"/>
		</radialGradient>
		<ellipse class="st62" cx="1745.4" cy="594.5" rx="3" ry="2.9"/>
	</g>
</g>
<radialGradient id="SVGID_57_" cx="1625.6016" cy="218.4482" r="7.5592" gradientTransform="matrix(2.1182 0 0 2.0093 -2171.3494 -554.228)" gradientUnits="userSpaceOnUse">
	<stop  offset="0" style="stop-color:#82FFFF"/>
	<stop  offset="1" style="stop-color:#82FFFF;stop-opacity:0"/>
</radialGradient>
<ellipse class="st63" cx="1272" cy="-115.3" rx="16" ry="15.2"/>
<radialGradient id="SVGID_58_" cx="1774.3127" cy="259.9305" r="7.5716" gradientTransform="matrix(2.1182 0 0 2.0093 -2171.3494 -554.228)" gradientUnits="userSpaceOnUse">
	<stop  offset="0" style="stop-color:#82FFFF"/>
	<stop  offset="1" style="stop-color:#82FFFF;stop-opacity:0"/>
</radialGradient>
<ellipse class="st64" cx="1587" cy="-31.9" rx="16" ry="15.2"/>
<path class="st65" d="M1360.4,78c8.8,0,16,6.8,16,15.2s-7.2,16.2-16,16.2s-16-7.8-16-16.2S1351.6,78,1360.4,78z"/>
<ellipse class="st66" cx="1466.3" cy="259.9" rx="16" ry="15.2"/>
<g class="st40">
	<g>
		<path class="st67" d="M296.7,567.4h124.9l0.1,0.1l19.3,17.7h90.3v0.7h-90.6l-0.1-0.1l-19.3-17.7H297l-74.9,71.7H105.2
			c-19.1,18.1-47.7,45.7-48.3,47.4c0,0,0-0.1-0.1-0.2l-0.2,0.2v0.1v0.3H-83l-0.1-0.1l-24.4-23.8h-25.7V663h26l0.1,0.1l24.4,23.8h139
			c0.6-1.1,4.5-5.3,24-24.3c12-11.6,24.3-23.3,24.4-23.4l0.1-0.1h116.9L296.7,567.4z"/>
		
			<radialGradient id="SVGID_59_" cx="4437.0371" cy="2666.335" r="172.6732" gradientTransform="matrix(-2.1182 0 0 -2.0093 9427.624 5546.8604)" gradientUnits="userSpaceOnUse">
			<stop  offset="0" style="stop-color:#00B7C3"/>
			<stop  offset="0.3766" style="stop-color:#0090A8"/>
			<stop  offset="1" style="stop-color:#004976"/>
		</radialGradient>
		<polygon class="st68" points="59.3,595.4 60.4,596.4 22.7,634.6 -131.3,634.6 -131.3,633.2 22.1,633.2 		"/>
		<polygon class="st67" points="-131.9,603.1 -49.3,603.1 8.8,655.2 63.8,655.2 116.7,604.3 307.8,604.3 345.9,642.3 406.6,642.3 
			406.6,645.1 344.7,645.1 306.6,607.1 117.9,607.1 65,658 7.6,658 -50.5,605.9 -131.9,605.9 		"/>
		<polygon class="st67" points="553.2,319.3 696.8,319.3 696.8,324.9 555.8,324.9 529.7,352.6 529.7,435.4 481.4,478.6 316.1,478.6 
			207.6,578.5 154.3,578.5 100.7,531.9 -130.6,531.9 -130.6,526.4 103,526.4 156.6,572.9 205.3,572.9 313.7,473.1 479.1,473.1 
			523.8,433 523.8,350.4 		"/>
		<polygon class="st67" points="561,250.7 769.7,250.7 769.7,252.1 561.6,252.1 513.8,295.2 513.8,507.8 470,549.4 363.7,549.4 
			363.4,549.2 277.5,467.1 89.4,467.1 46,509.4 -132.1,509.4 -132.1,508 45.4,508 88.7,465.7 278.1,465.7 278.3,465.9 364.3,548 
			469.4,548 512.3,507.3 512.3,294.6 512.5,294.4 		"/>
		<polygon class="st67" points="286.5,373 442.7,373 442.7,378.6 288.9,378.6 235.2,430 33.6,430 -31.9,492.6 -131.1,492.6 
			-131.1,487 -34.4,487 31.1,424.4 232.8,424.4 		"/>
		<polygon class="st67" points="20.1,450 69.2,450 69.7,450.4 180.9,557.2 255,557.2 307.8,507.2 483,507.2 515.1,475.9 
			550.1,475.9 550.1,478.7 516.3,478.7 484.3,509.9 309,509.9 256.3,560 179.7,560 179.2,559.6 68,452.7 21.3,452.7 -3.5,474.6 
			-130.6,474.6 -130.6,471.9 -4.6,471.9 		"/>
		<polygon class="st67" points="17.1,409.6 299.3,409.6 350.1,457.7 429.2,457.7 473.8,416.1 572.1,416.1 572.1,418.9 475,418.9 
			430.4,460.5 348.9,460.5 298.1,412.4 18.3,412.4 -18,446.2 -135.2,446.2 -135.2,443.4 -19.2,443.4 		"/>
		<polygon class="st67" points="159.9,248.2 409,248.2 409.1,248.3 451,288.7 582.7,288.7 582.7,289.4 450.7,289.4 450.6,289.3 
			408.7,248.9 160.2,248.9 126.9,281 -13.8,281 -76.4,348.1 -137,348.1 -137,347.4 -76.8,347.4 -14.2,280.3 126.6,280.3 		"/>
		<polygon class="st67" points="-137,288.4 -80,288.4 -6.3,358.9 205.2,358.9 267.1,296.7 397.4,296.7 456.3,352.6 567.3,352.6 
			567.3,354 455.7,354 396.8,298.1 267.7,298.1 205.9,360.3 -6.9,360.3 -80.6,289.7 -137,289.7 		"/>
		<polygon class="st67" points="-93.7,329.9 132,329.9 132.1,330 198.3,391.4 321.4,391.4 321.5,391.5 361.9,434.1 407.4,434.1 
			407.4,434.8 361.6,434.8 361.4,434.6 321,392.1 198,392.1 197.9,392 131.7,330.6 -93.4,330.6 -137.5,368.3 -138,367.8 		"/>
		<polygon class="st67" points="-43.9,253.4 140.7,253.4 158.3,273.7 258.4,273.7 258.9,274.1 396.2,402.3 576.2,402.3 602.3,376.1 
			604.4,378.1 577.5,405 395,405 394.6,404.6 257.2,276.5 157,276.5 139.3,256.2 -43,256.2 -62.9,270.2 -134.8,270.2 -134.8,267.4 
			-63.8,267.4 		"/>
		<polygon class="st67" points="33.2,397.7 82.7,397.7 82.8,397.8 132,448 206.4,448 206.5,448.1 353,587.8 403.7,587.8 
			403.7,588.5 352.7,588.5 352.6,588.4 206.1,448.7 131.7,448.7 131.6,448.6 82.4,398.4 33.2,398.4 		"/>
		<polygon class="st67" points="290.5,257.6 335.9,257.6 335.9,263.2 293,263.2 248,306.5 161.9,306.5 120.6,349.1 -33.4,349.1 
			-61.4,375.7 -93.6,375.7 -93.6,370.1 -63.8,370.1 -35.8,343.6 118.1,343.6 159.3,300.9 245.6,300.9 		"/>
		<ellipse class="st67" cx="404.8" cy="588.2" rx="3" ry="2.9"/>
		<ellipse class="st67" cx="408.4" cy="643.7" rx="3" ry="2.9"/>
		
			<radialGradient id="SVGID_60_" cx="4437.0352" cy="2666.333" r="172.6713" gradientTransform="matrix(-2.1182 0 0 -2.0093 9427.624 5546.8604)" gradientUnits="userSpaceOnUse">
			<stop  offset="0" style="stop-color:#00B7C3"/>
			<stop  offset="0.3766" style="stop-color:#0090A8"/>
			<stop  offset="1" style="stop-color:#004976"/>
		</radialGradient>
		<ellipse class="st69" cx="534" cy="585.5" rx="3" ry="2.9"/>
		<ellipse class="st45" cx="30.4" cy="398.3" rx="3" ry="2.9"/>
		
			<radialGradient id="SVGID_61_" cx="4437.0376" cy="2666.3337" r="172.671" gradientTransform="matrix(-2.1182 0 0 -2.0093 9427.624 5546.8604)" gradientUnits="userSpaceOnUse">
			<stop  offset="0" style="stop-color:#00B7C3"/>
			<stop  offset="0.3766" style="stop-color:#0090A8"/>
			<stop  offset="1" style="stop-color:#004976"/>
		</radialGradient>
		<ellipse class="st70" cx="-95.6" cy="372.9" rx="3" ry="2.9"/>
		
			<radialGradient id="SVGID_62_" cx="4437.0371" cy="2666.3328" r="172.6717" gradientTransform="matrix(-2.1182 0 0 -2.0093 9427.624 5546.8604)" gradientUnits="userSpaceOnUse">
			<stop  offset="0" style="stop-color:#00B7C3"/>
			<stop  offset="0.3766" style="stop-color:#0090A8"/>
			<stop  offset="1" style="stop-color:#004976"/>
		</radialGradient>
		<ellipse class="st71" cx="60.6" cy="594.5" rx="3" ry="2.9"/>
	</g>
	<g>
		<path class="st67" d="M-83-217.3H56.7v0.4l0.2,0.2c0.1-0.1,0.1-0.2,0.1-0.2c0.6,1.8,29.2,29.3,48.3,47.4h116.9l0.1,0.1L297-97.9
			h124.3l19.4-17.8h90.6v0.7H441l-19.4,17.8H296.7l-0.1-0.1l-74.8-71.6H104.9l-0.1-0.1c-0.1-0.1-12.4-11.8-24.4-23.4
			c-19.6-18.9-23.4-23.1-24-24.3h-139l-24.5,23.9h-26v-0.7h25.7L-83-217.3z"/>
		
			<radialGradient id="SVGID_63_" cx="4437.0371" cy="2666.335" r="172.6725" gradientTransform="matrix(-2.1182 0 0 -2.0093 9427.624 5546.8604)" gradientUnits="userSpaceOnUse">
			<stop  offset="0" style="stop-color:#00B7C3"/>
			<stop  offset="0.3766" style="stop-color:#0090A8"/>
			<stop  offset="1" style="stop-color:#004976"/>
		</radialGradient>
		<polygon class="st72" points="-131.3,-164.4 22.7,-164.4 60.4,-126.2 59.3,-125.2 22.1,-163 -131.3,-163 		"/>
		<polygon class="st67" points="7.6,-187.7 65,-187.7 117.9,-136.9 306.6,-136.9 344.7,-174.9 406.6,-174.9 406.6,-172.1 
			345.9,-172.1 307.8,-134.1 116.7,-134.1 63.8,-184.9 8.8,-184.9 -49.3,-132.9 -131.9,-132.9 -131.9,-135.7 -50.5,-135.7 		"/>
		<polygon class="st67" points="154.3,-108.3 207.6,-108.3 316.1,-8.4 481.4,-8.4 529.7,34.8 529.7,117.7 555.8,145.3 596.5,145.3 
			596.5,150.9 553.2,150.9 523.8,119.8 523.8,37.2 479.1,-2.8 313.7,-2.8 205.3,-102.7 156.6,-102.7 103,-56.1 -130.6,-56.1 
			-130.6,-61.7 100.7,-61.7 		"/>
		<polygon class="st67" points="363.7,-79.2 470,-79.2 513.8,-37.6 513.8,175.1 561.6,218.1 630.3,218.1 630.3,219.5 561,219.5 
			560.8,219.3 512.3,175.7 512.3,-37 469.4,-77.8 364.3,-77.8 278.1,4.5 88.7,4.5 88.5,4.3 45.4,-37.8 -132.1,-37.8 -132.1,-39.2 
			46,-39.2 46.2,-39 89.4,3.1 277.5,3.1 		"/>
		<polygon class="st67" points="-131.1,-22.3 -31.9,-22.3 33.6,40.2 235.2,40.2 288.9,91.6 442.7,91.6 442.7,97.2 286.5,97.2 
			232.8,45.8 31.1,45.8 -34.4,-16.8 -131.1,-16.8 		"/>
		<polygon class="st67" points="179.7,-89.8 256.3,-89.8 309,-39.7 484.3,-39.7 516.3,-8.4 550.1,-8.4 550.1,-5.7 515.1,-5.7 
			483,-36.9 307.8,-36.9 255,-87 180.9,-87 69.2,20.3 20.1,20.3 -4.6,-1.6 -130.6,-1.6 -130.6,-4.4 -3.5,-4.4 21.3,17.5 68,17.5 		
			"/>
		<polygon class="st67" points="348.9,9.7 430.4,9.7 475,51.4 572.1,51.4 572.1,54.2 473.8,54.2 429.2,12.5 350.1,12.5 299.3,60.6 
			17.1,60.6 -19.2,26.9 -135.2,26.9 -135.2,24.1 -18,24.1 18.3,57.8 298.1,57.8 		"/>
		<polygon class="st67" points="-137,122.1 -76.4,122.1 -76.3,122.2 -13.8,189.2 126.9,189.2 127,189.3 160.2,221.4 408.7,221.4 
			450.7,180.8 582.7,180.8 582.7,181.5 451,181.5 409,222.1 159.9,222.1 159.8,222 126.6,189.9 -14.2,189.9 -14.3,189.8 
			-76.8,122.8 -137,122.8 		"/>
		<polygon class="st67" points="-6.9,109.9 205.9,109.9 206.1,110.1 267.7,172.1 396.8,172.1 455.7,116.2 657.4,116.2 657.4,117.6 
			456.3,117.6 397.4,173.5 267.1,173.5 266.9,173.3 205.2,111.3 -6.3,111.3 -80,181.9 -137,181.9 -137,180.5 -80.6,180.5 		"/>
		<polygon class="st67" points="361.6,35.5 407.4,35.5 407.4,36.2 361.9,36.2 321.4,78.8 198.3,78.8 132,140.3 -93.7,140.3 
			-93.8,140.2 -138,102.5 -137.5,102 -93.4,139.6 131.7,139.6 198,78.1 321,78.1 		"/>
		<polygon class="st67" points="395,65.2 577.5,65.2 604.4,92.2 602.3,94.1 576.2,68 396.2,68 258.4,196.5 158.3,196.5 140.7,216.8 
			-43.9,216.8 -63.8,202.8 -134.8,202.8 -134.8,200 -62.9,200 -43,214 139.3,214 157,193.8 257.2,193.8 		"/>
		<polygon class="st67" points="352.7,-118.3 403.7,-118.3 403.7,-117.6 353,-117.6 206.4,22.2 132,22.2 82.7,72.5 33.2,72.5 
			33.2,71.8 82.4,71.8 131.7,21.5 206.1,21.5 		"/>
		<polygon class="st67" points="-93.6,94.5 -61.4,94.5 -33.4,121.1 120.6,121.1 161.9,163.7 248,163.7 293,207 335.9,207 
			335.9,212.6 290.5,212.6 245.6,169.3 159.3,169.3 118.1,126.7 -35.8,126.7 -63.8,100.1 -93.6,100.1 		"/>
		
			<radialGradient id="SVGID_64_" cx="4340.1587" cy="2818.6235" r="0" gradientTransform="matrix(-2.1182 0 0 -2.0093 9427.624 5546.8604)" gradientUnits="userSpaceOnUse">
			<stop  offset="0" style="stop-color:#00B7C3"/>
			<stop  offset="0.3766" style="stop-color:#0090A8"/>
			<stop  offset="1" style="stop-color:#004976"/>
		</radialGradient>
		<path class="st73" d="M234.3-116.6"/>
		
			<radialGradient id="SVGID_65_" cx="4340.1587" cy="2815.7368" r="0" gradientTransform="matrix(-2.1182 0 0 -2.0093 9427.624 5546.8604)" gradientUnits="userSpaceOnUse">
			<stop  offset="0" style="stop-color:#00B7C3"/>
			<stop  offset="0.3766" style="stop-color:#0090A8"/>
			<stop  offset="1" style="stop-color:#004976"/>
		</radialGradient>
		<path class="st74" d="M234.3-110.8"/>
		<path class="st67" d="M401.8-117.9c0,1.6,1.4,2.9,3,2.9s3-1.3,3-2.9s-1.4-2.9-3-2.9S401.8-119.5,401.8-117.9z"/>
		
			<radialGradient id="SVGID_66_" cx="4437.0352" cy="2666.3318" r="172.6723" gradientTransform="matrix(-2.1182 0 0 -2.0093 9427.624 5546.8604)" gradientUnits="userSpaceOnUse">
			<stop  offset="0" style="stop-color:#00B7C3"/>
			<stop  offset="0.3766" style="stop-color:#0090A8"/>
			<stop  offset="1" style="stop-color:#004976"/>
		</radialGradient>
		<path class="st75" d="M549.2-7.1c0,1.6,1.4,2.9,3,2.9c1.7,0,3-1.3,3-2.9s-1.4-2.9-3-2.9C550.5-10,549.2-8.7,549.2-7.1z"/>
		<ellipse class="st67" cx="408.4" cy="-173.5" rx="3" ry="2.9"/>
		
			<radialGradient id="SVGID_67_" cx="4437.0352" cy="2666.3303" r="172.673" gradientTransform="matrix(-2.1182 0 0 -2.0093 9427.624 5546.8604)" gradientUnits="userSpaceOnUse">
			<stop  offset="0" style="stop-color:#00B7C3"/>
			<stop  offset="0.3766" style="stop-color:#0090A8"/>
			<stop  offset="1" style="stop-color:#004976"/>
		</radialGradient>
		<path class="st76" d="M531-115.3c0,1.6,1.4,2.9,3,2.9s3-1.3,3-2.9s-1.4-2.9-3-2.9S531-116.9,531-115.3z"/>
		<ellipse class="st45" cx="30.4" cy="71.9" rx="3" ry="2.9"/>
		
			<radialGradient id="SVGID_68_" cx="4437.0376" cy="2666.3333" r="172.674" gradientTransform="matrix(-2.1182 0 0 -2.0093 9427.624 5546.8604)" gradientUnits="userSpaceOnUse">
			<stop  offset="0" style="stop-color:#00B7C3"/>
			<stop  offset="0.3766" style="stop-color:#0090A8"/>
			<stop  offset="1" style="stop-color:#004976"/>
		</radialGradient>
		<path class="st77" d="M-98.6,97.4c0,1.6,1.4,2.9,3,2.9s3-1.3,3-2.9s-1.4-2.9-3-2.9S-98.6,95.8-98.6,97.4z"/>
		
			<radialGradient id="SVGID_69_" cx="4437.0371" cy="2666.3357" r="172.6713" gradientTransform="matrix(-2.1182 0 0 -2.0093 9427.624 5546.8604)" gradientUnits="userSpaceOnUse">
			<stop  offset="0" style="stop-color:#00B7C3"/>
			<stop  offset="0.3766" style="stop-color:#0090A8"/>
			<stop  offset="1" style="stop-color:#004976"/>
		</radialGradient>
		<ellipse class="st78" cx="60.6" cy="-124.3" rx="3" ry="2.9"/>
	</g>
</g>
<polygon class="st39" points="1698.9,748.6 110.3,748.6 89.1,1910 1677.7,1910 "/>
</svg>
