<?xml version="1.0" encoding="utf-8"?>
<!-- Generator: Adobe Illustrator 22.0.0, SVG Export Plug-In . SVG Version: 6.00 Build 0)  -->
<svg version="1.1" id="b59c9f89-c93e-413f-a14b-776784e615e2"
	 xmlns="http://www.w3.org/2000/svg" xmlns:xlink="http://www.w3.org/1999/xlink" x="0px" y="0px" viewBox="0 0 1075.5 646.9"
	 style="enable-background:new 0 0 1075.5 646.9;" xml:space="preserve">
<style type="text/css">
	.st0{fill:#DAC0FC;}
	.st1{fill:#3F3D56;}
	.st2{fill:#460084;}
	.st3{fill:#FFFFFF;}
	.st4{fill:#A0616A;}
	.st5{fill:#2F2E41;}
</style>
<title>sign_in</title>
<path class="st0" d="M74.4,607l63.4-91.1L74.3,616.9l0,10.4c-4.5,0-9-0.2-13.4-0.4c0-2.4,5.4-131.9,5.1-134.2
	c0.3-0.1,0.5-12.3,0.6-12.8L0.3,380.2l66.3,90.2l0.2,2.7l3.9-100.6l-57-103.1l57.4,85.4c0-1.4,2.7-208,2.7-209.3
	c0,0.7,1.3,164.5,1.3,165.1l54.5-65.9l-54.5,80.1l-0.3,90.1l50.6-87.1c-63.1,127-49.1,82.6-50.7,150.4l73.4-121.3L74.7,495.6
	L74.4,607z"/>
<path class="st0" d="M1044.7,619.4l26.4-38l-26.4,42.1l0,4.3c-1.9,0-3.8-0.1-5.6-0.2c0-1,2.2-55,2.1-55.9c0.1,0,0.2-5.1,0.3-5.3
	l-27.6-41.5l27.6,37.6l0.1,1.1l1.6-41.9l-23.7-43l23.9,35.6c0-0.6,1.1-86.7,1.1-87.2c0,0.3,0.5,68.5,0.5,68.8l22.7-27.5l-22.7,33.4
	l-0.1,37.5l21.1-36.3c-26.3,52.9-20.5,34.4-21.1,62.7l30.6-50.5l-30.6,57.8L1044.7,619.4z"/>
<ellipse class="st0" cx="536" cy="625.9" rx="536" ry="21"/>
<rect x="184" y="248" class="st1" width="612" height="364.9"/>
<path class="st2" d="M335.5,248c-1.3,79.9-66.4,144-146.3,144c-1.7,0-3.4,0-5.1-0.1V248H335.5z"/>
<path class="st2" d="M519.9,612.9h-58.2c5.9-16.1,23.7-24.3,39.8-18.4C510.1,597.6,516.8,604.4,519.9,612.9z"/>
<path class="st2" d="M796,424.2v122.9c-33.9-1.7-60.1-30.5-58.4-64.5C739.1,451,764.4,425.7,796,424.2z"/>
<path class="st3" d="M297.5,380.6h386.1c10,0,18,8.1,18,18l0,0c0,10-8.1,18-18,18H297.5c-10,0-18-8.1-18-18l0,0
	C279.5,388.7,287.5,380.6,297.5,380.6z"/>
<path class="st3" d="M297.5,451.7h386.1c10,0,18,8.1,18,18l0,0c0,10-8.1,18-18,18H297.5c-10,0-18-8.1-18-18l0,0
	C279.5,459.8,287.5,451.7,297.5,451.7z"/>
<path class="st3" d="M571.6,522.7h111.9c10,0,18,8.1,18,18l0,0c0,10-8.1,18-18,18H571.6c-10,0-18-8.1-18-18l0,0
	C553.6,530.8,561.7,522.7,571.6,522.7z"/>
<path class="st4" d="M893.1,112.1c0,0,16.8,6.5,17.8,28s-4.7,81.3-4.7,81.3s20.6,29.9,4.7,38.3c-15.9,8.4-17.8-33.7-17.8-33.7
	l-18.7-88.8C874.4,137.4,885.6,111.2,893.1,112.1z"/>
<path class="st4" d="M721,181.3c0,0-40.2,26.2-42.1,5.6s12.2-101,12.2-101s1.9-34.6,21.5-26.2S707,97.2,707,97.2l2.8,65.4l18.7-0.9
	L721,181.3z"/>
<path class="st5" d="M785.5,205.6c0,0-123.4-45.8-116.9,7.5S707,333.7,707,333.7l11.2,17.8h23.4l-15-96.3c0,0,53.3,29.9,69.2,25.2
	c0,0,20.6,137.4,28,147.7s20.6,134.6,20.6,134.6l12.2,15H880V367.4c0,0,40.2-130.9,9.3-137.4S785.5,205.6,785.5,205.6z"/>
<path class="st5" d="M715.4,339.3c0,0-5.6-10.3-15,0s-31.8,22.4-31.8,22.4s-48.6,11.2-9.3,20.6c39.3,9.3,43.9,0,43.9,0
	s6.5,1.9,12.2,3.7s42.1-4.7,42.1-10.3c0-5.6-12.4-39.1-17.4-34.1C735,346.8,715.4,339.3,715.4,339.3z"/>
<path class="st5" d="M858.4,568.5c0,0-13.8-11.4-17-8.1s-20.3,25.1-20.3,25.1s-45.4,34.9-4.1,40.5s38.9-9.7,38.9-9.7h13
	c1.6,0,23.5-9.7,22.7-13.8s-10.5-37.1-13.8-34.8S858.4,568.5,858.4,568.5z"/>
<circle class="st4" cx="733.2" cy="44.8" r="31.8"/>
<path class="st4" d="M755.6,41.1c0,0,24.3,20.6,41.1,20.6S772.4,100,772.4,100L736,67.2L755.6,41.1z"/>
<path class="st2" d="M765,100l-0.7-7.4c0,0,18.5-32.8,24.1-35.6s9.3-2.8,9.3-2.8s18.7-19.6,39.3-9.3s69.2,75.7,69.2,75.7
	s-34.6,2.8-29.9,29.9c0,0,34.6,88.8,25.2,89.8s-37.4-5.6-66.4,7.5c-29,13.1-42.1,4.7-42.1,4.7l-15-48.6c0,0-28-15.9-27.1-29.9
	l-40.7,18.2l3.7-34.6l24.8-28.5C738.8,128.9,734.1,125.2,765,100z"/>
<path class="st5" d="M703.9,48.2c-1.3,1.4-2.8,2.5-4.6,3.1c-1.8,0.5-4.1-0.1-4.8-1.9l1.3-1.7l-4-2.5l1.8-2.1l-3.2-3.5l2.6-2
	l-4.9-3.5c6.3-10.3,13.2-20.8,23.1-27.6s23.9-9.3,34.1-2.8c5.3,3.4,9.1,8.7,12.1,14.2c6,11.1,11.4,21.9,12.2,34.5
	c-3.8-3.7-9.3-5.8-13.1-9.5c-1.7-1.8-3.6-3.3-5.7-4.6c-4-2.2-8.7-2.4-13.2-3.4c-3.7-0.8-6.2-2.5-9-4.9c-3.4-2.9-3.5-1.8-6.9,1.5
	C715.8,37,709.8,42.6,703.9,48.2z"/>
</svg>
