<?xml version="1.0" encoding="utf-8"?>
<!-- Generator: Adobe Illustrator 22.0.0, SVG Export Plug-In . SVG Version: 6.00 Build 0)  -->
<svg version="1.1" id="Capa_1" xmlns="http://www.w3.org/2000/svg" xmlns:xlink="http://www.w3.org/1999/xlink" x="0px" y="0px"
	 viewBox="0 0 372.8 82.7" style="enable-background:new 0 0 372.8 82.7;" xml:space="preserve">
<style type="text/css">
	.st0{fill:#FFFFFF;stroke:#FFFFFF;stroke-width:0.75;stroke-miterlimit:10;}
	.st1{fill:#EDEDED;stroke:#EDEDED;stroke-width:0.75;stroke-miterlimit:10;}
</style>
<g>
	<path class="st0" d="M43.2,33.8h2.6v35.4H30H19.5v10.2H3.6V64.2V28.7h15.9h21v2.5h2.6V33.8z M30,64.2V33.8H19.5v30.4H30z"/>
	<path class="st0" d="M93.1,69.2H50.9v-5.1V33.8h2.6v-2.5h2.6v-2.5h10.6h26.3v5.1V54v-2.4h-2.6V54h-2.6v2.5h-21v2.5v5.1h26.3V69.2z
		 M66.8,33.8v17.8h10.5V33.8H66.8z"/>
	<path class="st0" d="M140.6,33.9V39v5V49h-15.9v-5.1v-5v-5.1h-10.5v35.3H98.6V28.8h15.8h10.5h10.6v2.5h2.6v2.5H140.6z"/>
	<path class="st0" d="M160.1,8.6v20.2h18.4v5.1h-18.4v35.3H147V8.6h2.6V6.1h2.6V3.5h7.8h18.4v5.1H160.1z"/>
	<path class="st0" d="M202.1,8.5v5.1h-15.9V8.5V3.4h15.9V8.5z M186.3,69.2V28.7h15.9v40.5H186.3z"/>
	<path class="st0" d="M227.1,69.2h-15.8V3.5h15.8V69.2z"/>
	<path class="st1" d="M276.4,3.4v25.3v40.5h-10.5h-2.6h-2.6h-15.9h-5.3v-2.5h-2.6v-2.5h-2.6V33.8v-5.1h5.3h5.3h15.9V3.4H276.4z
		 M260.6,64.2V33.8h-10.6v30.4H260.6z"/>
	<path class="st1" d="M324,69.2h-42.2v-5.1V33.8h2.6v-2.5h2.6v-2.5h10.6H324v5.1V54v-2.4h-2.6V54h-2.6v2.5h-21v2.5v5.1H324V69.2z
		 M297.6,33.8v17.8h10.5V33.8H297.6z"/>
	<path class="st1" d="M370.1,28.8v2.5v37.9h-15.8h-2.6H349h-2.5v-5.1h-2.6v-5h-2.6v-5.1h-2.6V49h-2.6v-2.5v-2.5h-2.6v-5h-2.6v-5.1
		h-2.5v-2.5v-2.5h13.1v2.5h2.6v2.5v2.5h2.6V39v2.5h2.5v2.4v2.5h2.6V49v2.5h2.6V31.3v-2.5H370.1z"/>
</g>
</svg>
