<?xml version="1.0" encoding="utf-8"?>
<!-- Generator: Adobe Illustrator 22.0.0, SVG Export Plug-In . SVG Version: 6.00 Build 0)  -->
<svg version="1.1" id="Capa_1" xmlns="http://www.w3.org/2000/svg" xmlns:xlink="http://www.w3.org/1999/xlink" x="0px" y="0px"
	 viewBox="0 0 372.8 82.7" style="enable-background:new 0 0 372.8 82.7;" xml:space="preserve">
<style type="text/css">
	.st0{fill:#280144;stroke:#280144;stroke-width:0.75;stroke-miterlimit:10;}
</style>
<text transform="matrix(1.0412 0 0 1 0 179.2316)"><tspan x="0" y="0" style="fill:#FFFFFF;stroke:#FFFFFF;stroke-width:0.75;stroke-miterlimit:10; font-family:'AlphaQuadrant'; font-size:94px; letter-spacing:-1;">perfil</tspan><tspan x="221.7" y="0" style="fill:#EDEDED;stroke:#EDEDED;stroke-width:0.75;stroke-miterlimit:10; font-family:'AlphaQuadrant'; font-size:94px; letter-spacing:-1;">dev</tspan></text>
<g>
	<path class="st0" d="M43.2,35.2h2.6v35.4H30H19.5v10.2H3.6V65.5V30.1h15.9h21v2.5h2.6V35.2z M30,65.5V35.2H19.5v30.4H30z"/>
	<path class="st0" d="M93.1,70.6H50.9v-5.1V35.2h2.6v-2.5h2.6v-2.5h10.6h26.3v5.1v20.2v-2.4h-2.6v2.4h-2.6v2.5h-21v2.5v5.1h26.3
		V70.6z M66.8,35.2v17.8h10.5V35.2H66.8z"/>
	<path class="st0" d="M140.6,35.3v5.1v5v5.1h-15.9v-5.1v-5v-5.1h-10.5v35.3H98.6V30.2h15.8h10.5h10.6v2.5h2.6v2.5H140.6z"/>
	<path class="st0" d="M160.1,10v20.2h18.4v5.1h-18.4v35.3H147V10h2.6V7.4h2.6V4.9h7.8h18.4V10H160.1z"/>
	<path class="st0" d="M202.1,9.9V15h-15.9V9.9V4.8h15.9V9.9z M186.3,70.6V30.1h15.9v40.5H186.3z"/>
	<path class="st0" d="M227.1,70.6h-15.8V4.9h15.8V70.6z"/>
	<path class="st0" d="M276.4,4.8v25.3v40.5h-10.5h-2.6h-2.6h-15.9h-5.3v-2.5h-2.6v-2.5h-2.6V35.2v-5.1h5.3h5.3h15.9V4.8H276.4z
		 M260.6,65.5V35.2h-10.6v30.4H260.6z"/>
	<path class="st0" d="M324,70.6h-42.2v-5.1V35.2h2.6v-2.5h2.6v-2.5h10.6H324v5.1v20.2v-2.4h-2.6v2.4h-2.6v2.5h-21v2.5v5.1H324V70.6z
		 M297.6,35.2v17.8h10.5V35.2H297.6z"/>
	<path class="st0" d="M370.1,30.2v2.5v37.9h-15.8h-2.6H349h-2.5v-5.1h-2.6v-5h-2.6v-5.1h-2.6v-5.1h-2.6v-2.5v-2.5h-2.6v-5h-2.6v-5.1
		h-2.5v-2.5v-2.5h13.1v2.5h2.6v2.5v2.5h2.6v2.5v2.5h2.5v2.4v2.5h2.6v2.5v2.5h2.6V32.7v-2.5H370.1z"/>
</g>
</svg>
