<?xml version="1.0" encoding="utf-8"?>
<!-- Generator: Adobe Illustrator 22.0.0, SVG Export Plug-In . SVG Version: 6.00 Build 0)  -->
<svg version="1.1" xmlns="http://www.w3.org/2000/svg" xmlns:xlink="http://www.w3.org/1999/xlink" x="0px" y="0px"
	 viewBox="0 0 423 290.6" style="enable-background:new 0 0 423 290.6;" xml:space="preserve">
<style type="text/css">
	.st0{display:none;}
	.st1{display:inline;fill:#3E89CC;}
	.st2{opacity:0.35;}
	.st3{fill:#D29FFF;}
	.st4{fill:none;stroke:#D29FFF;stroke-width:1.0564;stroke-miterlimit:10;}
	.st5{fill:#C3ECFE;}
	.st6{fill:#280144;}
	.st7{fill:none;stroke:#FFCE00;stroke-width:1.0564;stroke-miterlimit:10;stroke-dasharray:2.641;}
	.st8{fill:#88D2FF;}
	.st9{fill:#AA5AFF;}
	.st10{fill:#C0EDFF;}
	.st11{fill:none;stroke:#FFCE00;stroke-width:1.0564;stroke-miterlimit:10;}
	.st12{fill:none;stroke:#FFCE00;stroke-width:1.0564;stroke-miterlimit:10;stroke-dasharray:2.6719,2.6719;}
	.st13{fill:#FFCE00;}
	.st14{opacity:0.5;}
	.st15{fill:none;stroke:#A148FF;stroke-width:1.0564;stroke-miterlimit:10;}
	.st16{fill:none;stroke:#CCF3FF;stroke-width:1.0564;stroke-miterlimit:10;}
	.st17{fill:#A148FF;}
	.st18{fill:#E9E8EE;}
	.st19{opacity:0.45;}
	.st20{fill:#CEA600;}
	.st21{fill:#FFFFFF;}
	.st22{opacity:0.45;fill:#B03D44;}
	.st23{opacity:0.25;fill:#D29FFF;}
	.st24{fill:none;stroke:#280144;stroke-width:1.0564;stroke-miterlimit:10;}
	.st25{opacity:0.15;}
	.st26{fill:none;stroke:#280144;stroke-width:2.1128;stroke-linecap:round;stroke-linejoin:round;stroke-miterlimit:10;}
	.st27{opacity:0.25;fill:#280144;}
	.st28{fill:none;stroke:#0964AF;stroke-width:2.1128;stroke-linecap:round;stroke-linejoin:round;stroke-miterlimit:10;}
	.st29{opacity:0.45;fill:#D29FFF;}
	.st30{opacity:0.35;fill:#BDEEFF;}
	.st31{fill:#FFBE9D;}
	.st32{fill:#170D54;}
	.st33{fill:#F2A181;}
	.st34{fill:#FFCCB0;}
	.st35{fill:#CD00FF;}
	.st36{opacity:0.45;fill:#460084;}
	.st37{fill:#460084;}
	.st38{fill:#EAEAEA;}
	.st39{fill:#E5F8FF;}
	.st40{fill:none;stroke:#460084;stroke-width:0.5282;stroke-linecap:round;stroke-linejoin:round;stroke-miterlimit:10;}
	.st41{fill:none;stroke:#A1D2F0;stroke-width:0.5282;stroke-linecap:round;stroke-linejoin:round;stroke-miterlimit:10;}
	.st42{fill:#1B227A;}
	.st43{opacity:0.45;fill:#FFCE00;}
	.st44{fill:#F3E8FC;}
	.st45{fill:none;stroke:#280144;stroke-width:0.5282;stroke-linecap:round;stroke-linejoin:round;stroke-miterlimit:10;}
	.st46{fill:#891EF9;}
	.st47{fill:#330075;}
	.st48{fill:#F9E79B;}
	.st49{fill:#8C7100;}
	.st50{fill:#500072;}
	.st51{fill:#BA9600;}
	.st52{fill:none;stroke:#280144;stroke-width:5.282;stroke-miterlimit:10;}
	.st53{fill:none;stroke:#280144;stroke-width:5.282;stroke-linecap:round;stroke-linejoin:round;stroke-miterlimit:10;}
	.st54{opacity:0.45;fill:#C19D05;}
	.st55{opacity:0.45;fill:#C49E00;}
	.st56{opacity:0.25;fill:#0964AF;}
	.st57{opacity:0.19;fill:#0964AF;}
	.st58{fill:none;stroke:#FFFFFF;stroke-width:1.0564;stroke-linecap:round;stroke-linejoin:round;stroke-miterlimit:10;}
	.st59{fill:#FFFFFF;stroke:#FFCE00;stroke-width:2.1128;stroke-linecap:round;stroke-linejoin:round;stroke-miterlimit:10;}
	.st60{fill:none;stroke:#FFCE00;stroke-width:2.1128;stroke-linecap:round;stroke-linejoin:round;stroke-miterlimit:10;}
	.st61{fill:#D3AB02;}
	.st62{display:inline;}
	.st63{fill:#F9FBFC;}
</style>
<g id="BACKGROUND" class="st0">
	<rect x="-247" y="-111" class="st1" width="750" height="500"/>
</g>
<g id="OBJECTS">
	<g>
		<g class="st2">
			<path class="st3" d="M391.5,195.5c-5.6-20.1,12.2-20.9,12.6-46.9c0.2-10.6-5.7-21.4-19.6-26.4c-6.9-2.4-13.7-4.1-19.8-8
				c-13.9-8.8-13.7-25.6-17.5-40c-8.4-31.5-40.5-56.5-73-55.6c-23.5,0.6-44.7,1.3-66,21.2c-14.6,13.6-24.1,30.4-37.7,44.4
				c-14.4,14.9-31.9,22-51.6,26.8c-18.6,4.5-38.9,9.9-53.1,23.4c-13.4,12.7-11.4,26.1-5.7,41.7c6.3,17.2-7.4,29-21.7,35.7
				c-12.1,5.7-28.1,5.2-33.7,18.7c-6.1,14.7,12,14.9,28.7,14.9c16.8,0,233.7-1.3,294.4,0.5c16.3,0.5,68.4,4.9,75.8-15.4
				C408.4,216.7,395.4,209.5,391.5,195.5z"/>
		</g>
		<g>
			<path class="st4" d="M410.1,189.2c-12.1,28.2-35.5,51.2-63.5,63.7"/>
			<g>
				<g>
					<path class="st3" d="M406.6,196.7c4.2-3.5,7.1-8.6,8-14.1c0.2-1.3,0.3-2.9-0.6-3.9c-0.2-0.3-0.6-0.5-0.9-0.5
						c-0.6-0.1-1.1,0.4-1.5,0.8c-2.1,2.4-2.8,5.6-3.2,8.8C407.9,191,407.2,193.3,406.6,196.7"/>
				</g>
				<g>
					<path class="st3" d="M400.8,206.3c2.5-4.9,3.1-10.7,1.8-16.1c-0.3-1.3-0.9-2.7-2.1-3.3c-0.3-0.2-0.7-0.2-1.1-0.1
						c-0.6,0.2-0.9,0.8-1.1,1.4c-1,3-0.4,6.3,0.5,9.3C399.8,200.5,400.1,202.9,400.8,206.3"/>
				</g>
				<g>
					<path class="st3" d="M392.3,218.1c3.1-4.6,4.4-10.3,3.7-15.7c-0.2-1.3-0.6-2.8-1.7-3.5c-0.3-0.2-0.7-0.3-1.1-0.3
						c-0.6,0.1-1,0.7-1.2,1.2c-1.4,2.9-1.1,6.2-0.6,9.3C392,212.3,392,214.7,392.3,218.1"/>
				</g>
				<g>
					<path class="st3" d="M382.6,228.5c3.1-4.6,4.4-10.3,3.7-15.7c-0.2-1.3-0.6-2.8-1.7-3.5c-0.3-0.2-0.7-0.3-1.1-0.3
						c-0.6,0.1-1,0.7-1.2,1.2c-1.4,2.9-1.1,6.2-0.6,9.3C382.3,222.6,382.3,225,382.6,228.5"/>
				</g>
				<g>
					<path class="st3" d="M368,240.4c3.5-4.2,5.5-9.8,5.3-15.3c0-1.3-0.3-2.9-1.3-3.7c-0.3-0.2-0.7-0.4-1-0.4c-0.6,0-1,0.6-1.3,1.1
						c-1.6,2.7-1.8,6.1-1.6,9.2C368.3,234.6,368.1,237,368,240.4"/>
				</g>
				<g>
					<path class="st5" d="M356.6,248.1c3.5-3.8,5.7-9,6.2-14.5c0.1-1.3,0.1-2.9-0.7-3.8c-0.2-0.3-0.5-0.5-0.8-0.5
						c-0.5,0-0.9,0.4-1.3,0.9c-1.7,2.5-2.2,5.8-2.3,9C357.5,242.3,357,244.6,356.6,248.1"/>
				</g>
				<g>
					<path class="st3" d="M397.9,210.5c5.6,0.9,11.6-0.2,16.6-3.2c1.2-0.7,2.5-1.7,2.8-3.1c0.1-0.4,0.1-0.8-0.2-1.1
						c-0.3-0.5-1-0.6-1.6-0.6c-3.3,0-6.4,1.6-9.3,3.4C403.5,207.8,401.1,208.8,397.9,210.5"/>
				</g>
				<g>
					<path class="st3" d="M391.1,219.5c5.2,2.2,11.3,2.5,16.9,0.9c1.4-0.4,2.8-1.1,3.4-2.3c0.2-0.3,0.2-0.7,0.1-1.1
						c-0.2-0.6-0.8-0.8-1.4-1c-3.2-0.8-6.6,0-9.8,1.1C397.1,218.1,394.6,218.5,391.1,219.5"/>
				</g>
				<g>
					<path class="st3" d="M380.9,229.9c4.7,3.2,10.6,4.8,16.4,4.2c1.4-0.1,3-0.5,3.8-1.6c0.2-0.3,0.4-0.7,0.3-1
						c-0.1-0.6-0.7-1-1.2-1.3c-2.9-1.4-6.5-1.3-9.8-0.9C387.1,229.8,384.5,229.7,380.9,229.9"/>
				</g>
				<g>
					<path class="st3" d="M366.6,242c5.3,2.1,11.4,2.3,16.9,0.5c1.4-0.4,2.8-1.1,3.4-2.4c0.2-0.4,0.2-0.7,0.1-1.1
						c-0.2-0.6-0.9-0.8-1.5-1c-3.2-0.8-6.6,0.1-9.8,1.3C372.6,240.5,370.1,240.9,366.6,242"/>
				</g>
				<g>
					<path class="st5" d="M355,248.9c3.7,4.2,9.1,7.2,14.9,8.1c1.4,0.2,3,0.3,4.1-0.6c0.3-0.2,0.5-0.6,0.6-0.9
						c0.1-0.6-0.4-1.1-0.9-1.5c-2.5-2.1-6-2.9-9.3-3.2C361,250.2,358.6,249.5,355,248.9"/>
				</g>
			</g>
		</g>
		<g>
			<g>
				<path class="st6" d="M341.6,129.9c-0.1,0-0.3-0.1-0.3-0.3l-0.1-1.5c0-0.2,0.1-0.3,0.3-0.3c0.2,0,0.3,0.1,0.3,0.3l0.1,1.5
					C341.9,129.7,341.8,129.8,341.6,129.9C341.6,129.9,341.6,129.9,341.6,129.9z"/>
			</g>
			<g>
				<g>
					<polygon class="st3" points="348.4,198.4 344.4,198.7 340,134.4 341.9,134.3 343.9,134.1 					"/>
				</g>
			</g>
			<polygon class="st3" points="342,128.9 341.2,129 340,134.4 343.9,134.1 			"/>
		</g>
		<g>
			<path class="st4" d="M123.4,144.9c7.1,38.7,34.1,73.3,70,89.5"/>
			<g>
				<g>
					<path class="st3" d="M125.2,153c-3.3-4.4-5-10-4.7-15.5c0.1-1.3,0.4-2.8,1.5-3.6c0.3-0.2,0.7-0.4,1-0.3c0.6,0.1,1,0.6,1.3,1.1
						c1.5,2.8,1.5,6.1,1.2,9.3S125.3,149.6,125.2,153"/>
				</g>
				<g>
					<path class="st3" d="M128.6,163.7c-1.3-5.3-0.7-11.2,1.9-16.1c0.6-1.2,1.5-2.5,2.8-2.7c0.4-0.1,0.8-0.1,1.1,0.1
						c0.5,0.3,0.7,1,0.7,1.6c0.3,3.2-1,6.2-2.6,9C130.9,158.3,130.1,160.6,128.6,163.7"/>
				</g>
				<g>
					<path class="st3" d="M134.3,177.1c-2-5.1-2-11-0.1-16.2c0.5-1.3,1.2-2.6,2.4-3.1c0.4-0.1,0.7-0.2,1.1,0
						c0.5,0.2,0.8,0.9,0.9,1.5c0.7,3.1-0.3,6.3-1.5,9.2C135.9,171.5,135.3,173.8,134.3,177.1"/>
				</g>
				<g>
					<path class="st5" d="M141.4,189.4c-2-5.1-2-11-0.1-16.2c0.5-1.3,1.2-2.6,2.4-3.1c0.4-0.1,0.7-0.2,1.1,0
						c0.5,0.2,0.8,0.9,0.9,1.5c0.7,3.1-0.3,6.3-1.5,9.2C143,183.7,142.5,186.1,141.4,189.4"/>
				</g>
				<g>
					<path class="st5" d="M153,204.3c-2.5-4.9-3.1-10.7-1.8-16.1c0.3-1.3,0.9-2.7,2.1-3.3c0.3-0.2,0.7-0.2,1.1-0.1
						c0.6,0.2,0.9,0.8,1.1,1.4c1,3,0.4,6.3-0.5,9.3C154,198.5,153.7,200.9,153,204.3"/>
				</g>
				<g>
					<path class="st5" d="M162.4,214.3c-2.5-4.4-3.6-10.1-2.8-15.5c0.2-1.3,0.6-2.8,1.6-3.6c0.3-0.2,0.6-0.3,0.9-0.3
						c0.5,0.1,0.8,0.6,1,1.2c1.1,2.8,0.8,6.1,0.3,9.2C162.8,208.4,162.8,210.8,162.4,214.3"/>
				</g>
				<g>
					<path class="st3" d="M130.5,168.5c-5.7-0.3-11.3-2.8-15.5-6.8c-1-1-2.1-2.2-2-3.6c0-0.4,0.1-0.8,0.4-1c0.4-0.4,1.1-0.4,1.7-0.2
						c3.2,0.7,5.9,3,8.3,5.4C125.7,164.5,127.8,166,130.5,168.5"/>
				</g>
				<g>
					<path class="st3" d="M135.2,178.7c-5.6,1-11.6,0-16.7-2.9c-1.2-0.7-2.5-1.7-2.8-3c-0.1-0.4-0.1-0.8,0.1-1.1
						c0.3-0.5,1-0.6,1.6-0.6c3.3-0.1,6.5,1.5,9.3,3.2C129.6,176,131.9,177,135.2,178.7"/>
				</g>
				<g>
					<path class="st3" d="M142.8,191.1c-5.3,2.1-11.4,2.3-16.9,0.5c-1.4-0.4-2.8-1.1-3.4-2.4c-0.2-0.4-0.2-0.7-0.1-1.1
						c0.2-0.6,0.9-0.8,1.5-1c3.2-0.8,6.6,0.1,9.8,1.3C136.8,189.6,139.3,190.1,142.8,191.1"/>
				</g>
				<g>
					<path class="st3" d="M154.1,206.1c-5.6,0.9-11.6-0.3-16.6-3.3c-1.2-0.7-2.5-1.7-2.7-3.1c-0.1-0.4,0-0.8,0.2-1.1
						c0.3-0.5,1-0.6,1.6-0.6c3.3,0,6.4,1.6,9.2,3.4C148.5,203.3,150.9,204.3,154.1,206.1"/>
				</g>
				<g>
					<path class="st5" d="M163.8,215.4c-4.6,3.3-10.5,5-16.3,4.5c-1.4-0.1-3-0.4-3.8-1.5c-0.2-0.3-0.4-0.7-0.4-1
						c0.1-0.6,0.6-1,1.2-1.3c2.9-1.5,6.5-1.5,9.8-1.1C157.6,215.4,160.1,215.2,163.8,215.4"/>
				</g>
			</g>
		</g>
		<g>
			<path class="st4" d="M53.5,199c39.3-1.8,79.1,16.8,102.9,48.1"/>
			<g>
				<g>
					<path class="st3" d="M61.8,199c-5-2.3-10.9-2.7-16.1-1.1c-1.3,0.4-2.7,1-3.2,2.3c-0.1,0.3-0.2,0.7-0.1,1.1
						c0.2,0.6,0.8,0.8,1.4,1c3,0.9,6.3,0.1,9.3-1C56.1,200.2,58.5,199.8,61.8,199"/>
				</g>
				<g>
					<path class="st3" d="M73,199.9c-5.5-0.1-11,1.9-15.2,5.4c-1,0.9-2.1,2-2,3.3c0,0.4,0.1,0.8,0.4,1c0.4,0.4,1.1,0.4,1.7,0.4
						c3.1-0.4,5.8-2.4,8.2-4.6C68.2,203.4,70.3,202.1,73,199.9"/>
				</g>
				<g>
					<path class="st3" d="M87.3,202.4c-5.5-0.8-11.2,0.5-15.8,3.5c-1.1,0.7-2.3,1.7-2.4,3.1c0,0.4,0,0.8,0.2,1.1
						c0.4,0.5,1,0.6,1.6,0.6c3.2,0,6.1-1.7,8.7-3.5S84.3,204.2,87.3,202.4"/>
				</g>
				<g>
					<path class="st3" d="M100.9,206.6c-5.5-0.8-11.2,0.5-15.8,3.5c-1.1,0.7-2.3,1.7-2.4,3.1c0,0.4,0,0.8,0.2,1.1
						c0.4,0.5,1,0.6,1.6,0.6c3.2,0,6.1-1.7,8.7-3.5C95.7,209.5,97.9,208.4,100.9,206.6"/>
				</g>
				<g>
					<path class="st3" d="M118,214.5c-5.3-1.3-11.2-0.7-16.1,1.9c-1.2,0.6-2.5,1.5-2.7,2.8c-0.1,0.4-0.1,0.8,0.1,1.1
						c0.3,0.5,1,0.7,1.6,0.7c3.2,0.3,6.2-1,9-2.6C112.6,216.8,114.9,216,118,214.5"/>
				</g>
				<g>
					<path class="st3" d="M129.8,221.5c-4.9-1.5-10.6-1.2-15.7,0.8c-1.3,0.5-2.6,1.2-3.1,2.3c-0.1,0.3-0.2,0.7-0.1,1
						c0.2,0.5,0.8,0.7,1.4,0.7c3,0.4,6.2-0.6,9.1-1.8C124.3,223.2,126.6,222.6,129.8,221.5"/>
				</g>
				<g>
					<path class="st3" d="M78,200.7c-1.6-5.4-5.3-10.3-10.1-13.6c-1.2-0.8-2.6-1.5-4-1.2c-0.4,0.1-0.7,0.3-0.9,0.6
						c-0.3,0.5-0.1,1.2,0.2,1.7c1.4,3,4.2,5.1,7.1,6.8S75.1,198.6,78,200.7"/>
				</g>
				<g>
					<path class="st5" d="M89.1,202.9c-0.3-5.7-2.7-11.3-6.6-15.6c-1-1.1-2.2-2.1-3.6-2.1c-0.4,0-0.8,0.1-1,0.4
						c-0.4,0.4-0.4,1.1-0.3,1.7c0.6,3.2,2.9,6,5.2,8.3C85.2,198.1,86.7,200.2,89.1,202.9"/>
				</g>
				<g>
					<path class="st5" d="M102.9,207.6c0.9-5.6-0.3-11.6-3.3-16.6c-0.7-1.2-1.7-2.5-3.1-2.7c-0.4-0.1-0.8,0-1.1,0.2
						c-0.5,0.3-0.6,1-0.6,1.6c0,3.3,1.6,6.4,3.5,9.2C100.1,202.1,101.1,204.4,102.9,207.6"/>
				</g>
				<g>
					<path class="st3" d="M120,215.2c-0.4-5.6-2.9-11.2-6.9-15.4c-1-1-2.2-2-3.6-2c-0.4,0-0.8,0.1-1,0.4c-0.4,0.4-0.4,1.1-0.2,1.7
						c0.7,3.2,3,5.9,5.4,8.2C116,210.5,117.5,212.5,120,215.2"/>
				</g>
				<g>
					<path class="st3" d="M131.2,222.6c2.2-5.2,2.5-11.3,0.8-16.9c-0.4-1.4-1.1-2.8-2.3-3.4c-0.3-0.2-0.7-0.2-1.1-0.1
						c-0.6,0.2-0.8,0.9-1,1.5c-0.8,3.2,0,6.6,1.1,9.8C129.8,216.6,130.3,219.1,131.2,222.6"/>
				</g>
			</g>
		</g>
		<g>
			<path class="st3" d="M177.8,215.7c-5.7-5.3-13.7-8-21.5-7.3c-5.3,0.5-11,3.3-12.1,8.5c-0.6,2.5-0.4,5.7-2.7,6.7
				c-2.3,0.9-4.5-1.4-6.8-2.2c-3.9-1.3-8.3,3.1-7,7c0.6,1.8,2.1,3.3,2,5.2c-0.2,2.5-3.3,3.9-5.8,3.5c-2.5-0.4-4.7-1.9-7.2-2.5
				c-2.5-0.6-5.6,0-6.5,2.4c-0.8,2.1,0.6,5-1.1,6.5c-0.7,0.7-1.8,0.8-2.7,0.9c-21.3,2-44.8,5.8-42.4,9.6c0.7,1,2.3,0.7,3.5,0.7
				c45.3-0.7,86.5-1.4,131.9,0"/>
		</g>
		<path class="st7" d="M183.1,129.4c-3.2,9-12.6,19.1-23.4,19.1c-12.2,0-15.2-9.9-18.8-13c-8.8-7.7-14.2-9.5-25.4-11.4
			c-7.3-1.2-15-11.4-13.1-21.5c3.4-18.4,36.7-27.2,45.1-40.7c6.9-11,6.5-17.5,18.5-25.4"/>
		<g>
			<polyline class="st8" points="328.9,144.4 342.3,197.2 339.8,197.8 323.2,145.9 			"/>
			<g>
				<path class="st9" d="M316.5,145.6c-6.9,1.8-14.2-3.6-16.3-11.9c-2.1-8.3,1.7-16.5,8.6-18.2c6.9-1.8,14.2,3.6,16.3,11.9
					C327.2,135.7,323.3,143.9,316.5,145.6z M310,120.2c-4.3,1.1-6.6,6.7-5.2,12.4c1.5,5.8,6.2,9.5,10.5,8.4
					c4.3-1.1,6.6-6.7,5.2-12.4C319,122.9,314.3,119.1,310,120.2z"/>
			</g>
			<g>
				<path class="st10" d="M323.5,131c0.2,0.9,4.1,16,4.1,16c0.2,0.8-0.3,1.6-1.1,1.8l0,0c-0.8,0.2-1.6-0.3-1.8-1.1l-0.5-1.8
					c0,0-2.1-4.6-8.1-2.7c0,0,7.1-0.9,7.3-0.9C323.7,142.4,323.3,130.1,323.5,131z"/>
				<path class="st9" d="M327.1,151.2c-2.1,0.5-4.2-0.7-4.7-2.8c0,0-0.2-1.3-0.7-2c-0.8-1.1-2.3-1.5-5.2-0.8l-0.7-4.1
					c1.5-0.5,2.6-1.2,3.8-1.1c0.6-0.1,1.2-0.1,1.6-0.2c0-1.2,0-2.9,0-4.1c0-1.3,1.7-2.8,1.7-3.8c0-1.7-1.8-3.5,0.4-3.7l2.1-0.3
					l4.6,18.1C330.5,148.5,329.2,150.6,327.1,151.2z"/>
			</g>
			<g>
				<polyline class="st9" points="330.9,144 330.9,198.4 333.6,198.4 336.8,144 				"/>
				<g>
					<path class="st9" d="M330.4,126.5c0-8.6,5.8-15.5,12.8-15.5s12.9,7,12.9,15.5s-5.8,15.5-12.8,15.5
						C336.1,142.1,330.4,135.1,330.4,126.5z M335.1,126.5c0,5.9,3.6,10.8,8.1,10.8c4.5,0,8.1-4.8,8.1-10.8c0-5.9-3.6-10.8-8.1-10.8
						C338.8,115.8,335.1,120.6,335.1,126.5z"/>
				</g>
				<g>
					<path class="st10" d="M332.8,129.6c0,0.9,0,16.5,0,16.5c0,0.8,0.7,1.5,1.5,1.5l0,0c0.8,0,1.5-0.7,1.5-1.5l0-1.9
						c0,0,0.9-5,7.2-4.6c0,0-7.1,0.9-7.3,1C335.4,140.7,332.8,128.7,332.8,129.6z"/>
					<path class="st9" d="M334.3,150c2.1,0,3.9-1.7,3.9-3.9c0,0-0.1-1.3,0.2-2.1c0.5-1.2,1.9-2,4.9-2l-0.3-4.1
						c-1.6-0.1-2.8-0.5-4-0.1c-0.6,0.1-1.2,0.2-1.6,0.2c-0.3-1.2-0.7-2.8-1-4c-0.3-1.3-2.4-2.3-2.6-3.2c-0.4-1.7,0.9-3.8-1.3-3.5
						l-2.1,0.2l0,18.7C330.4,148.3,332.1,150,334.3,150z"/>
				</g>
			</g>
		</g>
		<g>
			<g>
				<path class="st11" d="M261.2,67.2c0.1-0.4,0.2-0.9,0.3-1.3"/>
				<path class="st12" d="M262.4,63.4c3.8-9.6,14.5-19.2,30.6-15.5c11.7,2.7,14.8,13.7,21.1,20.8c4.7,5.3,11.3,9.6,13.4,17
					c5,17.1-1.8,35.7-14,41.5c-6.7,3.2-23.5,1.8-32.1-1.2"/>
				<path class="st11" d="M280.1,125.5c-0.4-0.2-0.8-0.4-1.2-0.5"/>
			</g>
		</g>
		<g>
			<g>
				<path class="st3" d="M353.8,188.7l-6.8-1.2l10.6-58.6c0.1-0.6,0.7-1.1,1.4-0.9l4.5,0.8c0.6,0.1,1.1,0.7,0.9,1.4L353.8,188.7z"/>
			</g>
			<g>
				<path class="st13" d="M363.4,135.6l-6.8-1.2l1-5.4c0.1-0.6,0.7-1.1,1.4-0.9l4.5,0.8c0.6,0.1,1.1,0.7,0.9,1.4L363.4,135.6z"/>
			</g>
			<g class="st14">
				<g>
					
						<rect x="358.7" y="132.5" transform="matrix(0.1777 -0.9841 0.9841 0.1777 162.0394 465.8581)" class="st6" width="2.1" height="7"/>
				</g>
			</g>
		</g>
		<g>
			
				<rect x="359.5" y="137.4" transform="matrix(0.9303 0.3667 -0.3667 0.9303 87.7335 -122.1827)" class="st3" width="12" height="64.9"/>
			<g>
				<line class="st15" x1="378.5" y1="142.3" x2="382.2" y2="143.8"/>
				<line class="st15" x1="377.3" y1="145.5" x2="380.9" y2="146.9"/>
				<line class="st15" x1="376" y1="148.6" x2="379.7" y2="150.1"/>
				<line class="st15" x1="373" y1="151" x2="378.5" y2="153.2"/>
				<line class="st15" x1="373.6" y1="154.9" x2="377.2" y2="156.3"/>
				<line class="st15" x1="372.3" y1="158" x2="376" y2="159.5"/>
				<line class="st15" x1="371.1" y1="161.2" x2="374.8" y2="162.6"/>
				<line class="st15" x1="368" y1="163.6" x2="373.5" y2="165.8"/>
				<line class="st15" x1="368.6" y1="167.4" x2="372.3" y2="168.9"/>
				<line class="st15" x1="367.4" y1="170.6" x2="371" y2="172"/>
				<line class="st16" x1="366.1" y1="173.7" x2="369.8" y2="175.2"/>
				<line class="st16" x1="363.1" y1="176.1" x2="368.6" y2="178.3"/>
				<line class="st16" x1="363.7" y1="180" x2="367.3" y2="181.4"/>
				<line class="st16" x1="362.4" y1="183.1" x2="366.1" y2="184.6"/>
				<line class="st16" x1="361.2" y1="186.3" x2="364.9" y2="187.7"/>
				<line class="st16" x1="358.1" y1="188.7" x2="363.6" y2="190.9"/>
				<line class="st16" x1="358.7" y1="192.5" x2="362.4" y2="194"/>
				<line class="st16" x1="357.5" y1="195.7" x2="361.2" y2="197.1"/>
				<line class="st16" x1="356.2" y1="198.8" x2="359.9" y2="200.3"/>
			</g>
		</g>
		<path class="st17" d="M367.3,257.4h-55.7l-9.4-84.2c-0.1-1.1,0.7-2,1.8-2h70.8c1.1,0,1.9,0.9,1.8,2L367.3,257.4z"/>
		<g>
			<path class="st3" d="M297.5,261.1c33.5,0.5,67.1,0.9,100.6,1.4c1.1,0,4.7-1.1-1.4-5c-5.2-3.3-21.5-0.3-21.5-0.3s3.8-1.5,3.8-3.5
				c0-2-1.5-3.7-3.3-4.5c-1.8-0.8-3.8-0.9-5.8-0.8c-4,0.2-8,1.1-11.7,2.6c1.6-1,2.1-3.4,1-4.9c-1.1-1.5-3.5-1.8-4.9-0.6
				c2.5-3.4,6.4-18.5-5.5-25.1c-15-8.3-26.3-1.5-28.8,3.5c-1.2-4.9-6.9-8.7-10.6-9.6c-8.5-2.1-14-1.5-21.9,2.2
				c-2.8,1.3-6.6,5.8-8.4,8.2c-2.9,3.9-3.4,9-3.5,13.8c-0.1,3.6-0.1,7.3,0,10.9"/>
		</g>
		<g>
			<path class="st18" d="M317.1,266.4c0,1.7-33.8,3.1-75.4,3.1s-75.4-1.4-75.4-3.1c0-1.7,33.8-3.1,75.4-3.1S317.1,264.7,317.1,266.4
				z"/>
			<g>
				<g>
					<path class="st13" d="M243.1,46.8c-4.2,0-7.6,3.4-7.6,7.6v9.7h15.1c0,0,0-7.7,0-9.7C250.6,50.2,247.3,46.8,243.1,46.8z
						 M243.1,58.7c-2.3,0-4.2-1.9-4.2-4.2c0-2.3,1.9-4.2,4.2-4.2c2.3,0,4.2,1.9,4.2,4.2C247.3,56.8,245.4,58.7,243.1,58.7z"/>
				</g>
			</g>
			<g class="st19">
				<g>
					<path class="st20" d="M247.3,54.5c0-2.3-1.9-4.2-4.2-4.2c-0.2,0-0.4,0-0.6,0.1c0.6-0.2,0.7-0.4,1.7-0.4c2.3,0,4.2,1.9,4.2,4.2
						c0,2.1-1.1,3.3-2.7,3.7C246.6,57.1,247.3,55.8,247.3,54.5z M237.8,63.1v-9.7c0-2.6,1.1-5,3.2-6.3c-3.2,0.9-5.5,3.8-5.5,7.3v9.7
						h15.1c0,0,0-0.4,0-1H237.8z"/>
				</g>
			</g>
			<path class="st6" d="M303.2,266.4H180c-5.4,0-9.7-4.4-9.7-9.7V74.4c0-5.4,4.4-9.7,9.7-9.7h123.2c5.4,0,9.7,4.4,9.7,9.7v182.3
				C313,262,308.6,266.4,303.2,266.4z"/>
			<rect x="178.6" y="72.5" class="st3" width="126.2" height="185.9"/>
			<g>
				<rect x="183.4" y="78.2" class="st21" width="116.5" height="174.6"/>
			</g>
			<path class="st13" d="M287.5,75.5h-91.8v-5.9c0-3.9,3.1-7,7-7h77.8c3.9,0,7,3.1,7,7V75.5z"/>
			<path class="st22" d="M199.3,73.6v-5.5c0-2.1,0.9-4,2.3-5.3c-3.3,0.7-5.8,3.7-5.8,7.2v5.5h91.8v-1.9H199.3z"/>
			<g>
				<g>
					<circle class="st23" cx="206.7" cy="102.2" r="15"/>
					
						<ellipse transform="matrix(0.2281 -0.9736 0.9736 0.2281 60.063 280.1762)" class="st24" cx="206.7" cy="102.2" rx="17.4" ry="17.4"/>
					<path class="st21" d="M209.7,102.4c1.5-1,2.4-2.6,2.4-4.5c0-3-2.4-5.4-5.4-5.4c-3,0-5.4,2.4-5.4,5.4c0,1.9,1,3.5,2.4,4.5
						c-3.4,0.8-5.9,3.8-5.9,7.4v4.5c2.5,1.8,5.5,2.9,8.8,2.9c3.3,0,6.3-1.1,8.8-2.9v-4.5C215.5,106.2,213,103.2,209.7,102.4z"/>
				</g>
				<g>
					<polygon class="st6" points="231,88.4 231.7,89.9 233.4,90.1 232.2,91.3 232.5,92.9 231,92.1 229.6,92.9 229.8,91.3 
						228.7,90.1 230.3,89.9 					"/>
					<polygon class="st6" points="238.1,88.4 238.8,89.9 240.4,90.1 239.3,91.3 239.6,92.9 238.1,92.1 236.6,92.9 236.9,91.3 
						235.8,90.1 237.4,89.9 					"/>
					<polygon class="st6" points="245.2,88.4 245.9,89.9 247.5,90.1 246.4,91.3 246.6,92.9 245.2,92.1 243.7,92.9 244,91.3 
						242.8,90.1 244.5,89.9 					"/>
					<polygon class="st6" points="252.3,88.4 253,89.9 254.6,90.1 253.4,91.3 253.7,92.9 252.3,92.1 250.8,92.9 251.1,91.3 
						249.9,90.1 251.5,89.9 					"/>
					<polygon class="st6" points="259.3,88.4 260.1,89.9 261.7,90.1 260.5,91.3 260.8,92.9 259.3,92.1 257.9,92.9 258.2,91.3 
						257,90.1 258.6,89.9 					"/>
					<g class="st25">
						<line class="st26" x1="229.5" y1="96.8" x2="244.5" y2="96.8"/>
						<line class="st26" x1="278.3" y1="102.8" x2="289.8" y2="102.8"/>
						<line class="st26" x1="229.5" y1="102.8" x2="273.4" y2="102.8"/>
						<line class="st26" x1="229.5" y1="108.8" x2="289.8" y2="108.8"/>
						<line class="st26" x1="270.6" y1="114.9" x2="289.8" y2="114.9"/>
						<line class="st26" x1="229.5" y1="114.9" x2="265.8" y2="114.9"/>
						<line class="st26" x1="249.5" y1="96.8" x2="289.8" y2="96.8"/>
					</g>
				</g>
				<g>
					
						<ellipse transform="matrix(0.9224 -0.3862 0.3862 0.9224 -39.7689 91.0481)" class="st23" cx="206.7" cy="144.5" rx="15" ry="15"/>
					<path class="st21" d="M209.7,144.7c1.5-1,2.4-2.6,2.4-4.5c0-3-2.4-5.4-5.4-5.4c-3,0-5.4,2.4-5.4,5.4c0,1.9,1,3.5,2.4,4.5
						c-3.4,0.8-5.9,3.8-5.9,7.4v4.5c2.5,1.8,5.5,2.9,8.8,2.9c3.3,0,6.3-1.1,8.8-2.9v-4.5C215.5,148.5,213,145.5,209.7,144.7z"/>
				</g>
				<g>
					<polygon class="st6" points="231,130.7 231.7,132.2 233.4,132.4 232.2,133.6 232.5,135.2 231,134.4 229.6,135.2 229.8,133.6 
						228.7,132.4 230.3,132.2 					"/>
					<polygon class="st6" points="238.1,130.7 238.8,132.2 240.4,132.4 239.3,133.6 239.6,135.2 238.1,134.4 236.6,135.2 
						236.9,133.6 235.8,132.4 237.4,132.2 					"/>
					<polygon class="st6" points="245.2,130.7 245.9,132.2 247.5,132.4 246.4,133.6 246.6,135.2 245.2,134.4 243.7,135.2 244,133.6 
						242.8,132.4 244.5,132.2 					"/>
					<polygon class="st27" points="252.3,130.7 253,132.2 254.6,132.4 253.4,133.6 253.7,135.2 252.3,134.4 250.8,135.2 
						251.1,133.6 249.9,132.4 251.5,132.2 					"/>
					<polygon class="st27" points="259.3,130.7 260.1,132.2 261.7,132.4 260.5,133.6 260.8,135.2 259.3,134.4 257.9,135.2 
						258.2,133.6 257,132.4 258.6,132.2 					"/>
					<g class="st25">
						<line class="st26" x1="229.5" y1="139.1" x2="256.3" y2="139.1"/>
						<line class="st26" x1="245.3" y1="145.1" x2="289.8" y2="145.1"/>
						<line class="st26" x1="229.5" y1="145.1" x2="240.4" y2="145.1"/>
						<line class="st26" x1="229.5" y1="151.1" x2="289.8" y2="151.1"/>
						<line class="st28" x1="277.4" y1="157.2" x2="289.8" y2="157.2"/>
						<line class="st26" x1="229.5" y1="157.2" x2="272.7" y2="157.2"/>
						<line class="st26" x1="261.2" y1="139.1" x2="289.8" y2="139.1"/>
					</g>
				</g>
				<g>
					
						<ellipse transform="matrix(0.3809 -0.9246 0.9246 0.3809 -44.7401 306.7751)" class="st23" cx="206.7" cy="186.8" rx="15" ry="15"/>
					<path class="st21" d="M209.7,187c1.5-1,2.4-2.6,2.4-4.5c0-3-2.4-5.4-5.4-5.4c-3,0-5.4,2.4-5.4,5.4c0,1.9,1,3.5,2.4,4.5
						c-3.4,0.8-5.9,3.8-5.9,7.4v4.5c2.5,1.8,5.5,2.9,8.8,2.9c3.3,0,6.3-1.1,8.8-2.9v-4.5C215.5,190.8,213,187.8,209.7,187z"/>
				</g>
				<g>
					<polygon class="st6" points="231,173 231.7,174.5 233.4,174.7 232.2,175.9 232.5,177.5 231,176.7 229.6,177.5 229.8,175.9 
						228.7,174.7 230.3,174.5 					"/>
					<polygon class="st6" points="238.1,173 238.8,174.5 240.4,174.7 239.3,175.9 239.6,177.5 238.1,176.7 236.6,177.5 236.9,175.9 
						235.8,174.7 237.4,174.5 					"/>
					<polygon class="st6" points="245.2,173 245.9,174.5 247.5,174.7 246.4,175.9 246.6,177.5 245.2,176.7 243.7,177.5 244,175.9 
						242.8,174.7 244.5,174.5 					"/>
					<polygon class="st6" points="252.3,173 253,174.5 254.6,174.7 253.4,175.9 253.7,177.5 252.3,176.7 250.8,177.5 251.1,175.9 
						249.9,174.7 251.5,174.5 					"/>
					<polygon class="st27" points="259.3,173 260.1,174.5 261.7,174.7 260.5,175.9 260.8,177.5 259.3,176.7 257.9,177.5 
						258.2,175.9 257,174.7 258.6,174.5 					"/>
					<g class="st25">
						<line class="st26" x1="229.5" y1="181.4" x2="244.5" y2="181.4"/>
						<line class="st26" x1="257.1" y1="187.4" x2="289.8" y2="187.4"/>
						<line class="st26" x1="229.5" y1="187.4" x2="252.1" y2="187.4"/>
						<line class="st26" x1="229.5" y1="193.4" x2="289.8" y2="193.4"/>
						<line class="st26" x1="243.2" y1="199.5" x2="289.8" y2="199.5"/>
						<line class="st26" x1="229.5" y1="199.5" x2="238.4" y2="199.5"/>
						<line class="st26" x1="249.5" y1="181.4" x2="289.8" y2="181.4"/>
					</g>
				</g>
				<g>
					<circle class="st23" cx="206.7" cy="229.1" r="15"/>
					<path class="st21" d="M209.7,229.3c1.5-1,2.4-2.6,2.4-4.5c0-3-2.4-5.4-5.4-5.4c-3,0-5.4,2.4-5.4,5.4c0,1.9,1,3.5,2.4,4.5
						c-3.4,0.8-5.9,3.8-5.9,7.4v4.5c2.5,1.8,5.5,2.9,8.8,2.9c3.3,0,6.3-1.1,8.8-2.9v-4.5C215.5,233.1,213,230.1,209.7,229.3z"/>
				</g>
				<g>
					<polygon class="st6" points="231,215.3 231.7,216.8 233.4,217 232.2,218.1 232.5,219.8 231,219 229.6,219.8 229.8,218.1 
						228.7,217 230.3,216.8 					"/>
					<polygon class="st6" points="238.1,215.3 238.8,216.8 240.4,217 239.3,218.1 239.6,219.8 238.1,219 236.6,219.8 236.9,218.1 
						235.8,217 237.4,216.8 					"/>
					<polygon class="st6" points="245.2,215.3 245.9,216.8 247.5,217 246.4,218.1 246.6,219.8 245.2,219 243.7,219.8 244,218.1 
						242.8,217 244.5,216.8 					"/>
					<polygon class="st6" points="252.3,215.3 253,216.8 254.6,217 253.4,218.1 253.7,219.8 252.3,219 250.8,219.8 251.1,218.1 
						249.9,217 251.5,216.8 					"/>
					<polygon class="st6" points="259.3,215.3 260.1,216.8 261.7,217 260.5,218.1 260.8,219.8 259.3,219 257.9,219.8 258.2,218.1 
						257,217 258.6,216.8 					"/>
					<g class="st25">
						<line class="st26" x1="289.8" y1="241.7" x2="274.7" y2="241.7"/>
						<line class="st26" x1="240.9" y1="235.7" x2="229.5" y2="235.7"/>
						<line class="st26" x1="289.8" y1="235.7" x2="245.9" y2="235.7"/>
						<line class="st26" x1="289.8" y1="229.7" x2="229.5" y2="229.7"/>
						<line class="st26" x1="248.6" y1="223.7" x2="229.5" y2="223.7"/>
						<line class="st26" x1="289.8" y1="223.7" x2="253.4" y2="223.7"/>
						<line class="st26" x1="269.8" y1="241.7" x2="229.5" y2="241.7"/>
					</g>
				</g>
			</g>
			<path class="st29" d="M252.8,183.5c4.1,2.8,8.8,4.3,13.7,4.3c1.4,0,2.8-0.1,4.2-0.4c3.5-0.6,6.6-2,9.4-3.9l8.9,10.8
				c0,0.4,0,0.7,0.1,1.1c0.2,1,0.9,2,1.9,2.3c0.3,0.1,0.6,0.1,0.7,0.4c0.1,0.1,0.1,0.3,0.1,0.4c0.1,0.8,0.9,1.3,1.7,1.2c0,0,0,0,0,0
				l6.6,8c0,0.4,0.2,0.8,0.5,1c0.2,0.1,0.5,0.2,0.5,0.5c0,0.1,0,0.2-0.1,0.3c-0.1,0.3,0,0.8,0.3,1c0.3,0.2,0.7,0.3,1,0.1
				c0,0.7,0.7,1.4,1.4,1.5l6.8,8.2c0.5,0.6,1.3,1,2.1,1c0.1,0,0.2,0,0.3,0v-6.5l-4.9-5.9c0.1-0.1,0.1-0.1,0.2-0.2
				c0.3-0.3,0.5-0.5,0.9-0.8l0.1,0.3c0,0,1.5-0.5,3.7-1.3V202c-2.8,1.7-5,3.1-5,3.1l0,0.1c-0.1,0-0.1,0-0.2,0.1
				c-0.3,0.1-1.5,0-2.6,0l-6.7-8c1.2-0.3,2.9-0.8,4.6-1.4c0,0,0.1,0,0.1,0c0.2-0.1,0.4-0.1,0.7-0.2c0.1,0,0.2-0.1,0.2-0.1
				c0.2-0.1,0.4-0.1,0.5-0.2c0.1,0,0.2-0.1,0.3-0.1c0.2-0.1,0.3-0.1,0.5-0.2c0.1,0,0.2-0.1,0.3-0.1c0.2-0.1,0.3-0.1,0.5-0.2
				c0.1,0,0.2-0.1,0.3-0.1c0.2-0.1,0.3-0.1,0.5-0.2c0.1,0,0.2-0.1,0.3-0.1c0.2-0.1,0.3-0.1,0.5-0.2c0.1,0,0.2-0.1,0.2-0.1
				c0.2-0.1,0.4-0.2,0.7-0.3c0,0,0,0,0.1,0c0.2-0.1,0.5-0.2,0.7-0.3c0.1,0,0.1-0.1,0.2-0.1c0.2-0.1,0.3-0.2,0.5-0.2
				c0.1,0,0.2-0.1,0.2-0.1c0.1-0.1,0.3-0.1,0.4-0.2c0.1,0,0.2-0.1,0.2-0.1c0.1-0.1,0.2-0.1,0.3-0.2c0.1,0,0.2-0.1,0.2-0.1
				c0.1-0.1,0.2-0.1,0.3-0.2c0.1,0,0.1-0.1,0.2-0.1c0.1-0.1,0.2-0.1,0.3-0.2c0.1,0,0.1-0.1,0.2-0.1c0.1-0.1,0.2-0.1,0.3-0.2
				c0,0,0.1-0.1,0.1-0.1c0,0,0,0,0,0V165c-0.1,0.1-0.3,0.2-0.4,0.4c-2.7,2.9-4.6,21.3-4.6,22c-0.1,0.5-7.7,4.9-11.5,7.1
				c0-0.5-0.2-1.1-0.5-1.4c-0.4-0.4-0.9-0.7-1.5-0.9c-0.1,0-0.2,0-0.2,0l-10-12.1c0.7-0.8,1.4-1.6,2-2.5c3.7-5.3,5.1-11.6,4-17.9
				c-1.1-6.3-4.6-11.8-9.9-15.5c-5.3-3.7-11.6-5.1-17.9-4c-6.3,1.1-11.8,4.6-15.5,9.9C239.3,160.9,241.9,175.9,252.8,183.5z
				 M251.2,153.1c2.9-4.1,7.1-6.8,12-7.7c1.1-0.2,2.2-0.3,3.3-0.3c3.8,0,7.5,1.2,10.6,3.4c4.1,2.9,6.8,7.1,7.7,12
				c0.9,4.9-0.2,9.9-3.1,13.9c-2.9,4.1-7.1,6.8-12,7.7c-4.9,0.9-9.9-0.2-13.9-3.1C247.4,173.2,245.3,161.6,251.2,153.1z"/>
		</g>
		<g>
			<path class="st30" d="M123.4,269.8c0,0.9-9.5,1.6-21.1,1.6c-11.7,0-21.1-0.7-21.1-1.6c0-0.9,9.5-1.6,21.1-1.6
				C113.9,268.2,123.4,268.9,123.4,269.8z"/>
			<g>
				<path class="st31" d="M129.8,187c0,0,2.3,2.7,2.8,2.9c0.3,0.1,2.1,0.4,2.6,0.5c0.2,0,0.4,0.1,0.6,0.2c0.2,0.1,0.4,0.3,0.5,0.4
					c0.4,0.5,0.8,1,1.2,1.5c0.1,0.1,0.2,0.3,0.3,0.4c0.1,0.2,0.1,0.4,0.2,0.6c0.3,1.1,0.5,2.3,0.7,3.5c0,0.1,0,0.1,0,0.2
					c-0.1,0.1-0.3,0.1-0.4,0c-0.1-0.1-0.2-0.2-0.3-0.3c0,0.1,0,0.2,0,0.3c-0.2,0.1-0.4,0-0.6-0.1c-0.8-0.5-1.6-1.1-2-2
					c-0.1-0.2-0.2-0.3-0.3-0.5c-0.4-0.4-0.9-0.4-1.4-0.5c-0.4-0.1-0.9-0.2-1.3-0.4c-0.8-0.3-0.9-1.3-0.9-1.4c0-0.1-0.1-0.2-0.2-0.2
					c-0.5-0.4-2.5-1.9-2.5-1.9"/>
			</g>
			<g>
				<path class="st32" d="M102.4,128.7c1.1,0.3,1.7,1.7,2.1,2.7c0.5,1.2,0.7,2.4,0.8,3.7c0.1,0.9,0.2,1.8-0.2,2.6
					c-0.2,0.4-0.4,0.8-0.7,1.1c-0.2,0.2-0.3,0.4-0.5,0.5c-0.2,0.1-0.5,0.2-0.7,0.1c-0.3-0.1-0.5-0.5-0.6-0.9
					c-0.6-2.3-1.3-4.6-2.6-6.7"/>
			</g>
			<g>
				<path class="st33" d="M103.6,136.1c0-0.7,0.8-1.2,1.5-0.5c0.6,0.6,0.7,1.8,0.7,2.7c0,1.1-0.8,1.3-1.5,1.4"/>
			</g>
			<g>
				<path class="st34" d="M111.6,261.7c0,0,0,2.3-0.1,3.1c-0.2,0.8-2.7,0.5-3,0.1c-0.2-0.5,0.1-4.2,0.1-4.2"/>
				<path class="st35" d="M107.7,265.6c-0.1,0.8-0.1,2.4-0.1,2.4l2.6,0.6l0.3-0.5c0,0,0.7,0.6,1.6,0.8c0.6,0.2,1.9,0.3,2.5,0.2
					c2.2-0.1,3.7-0.8,3.8-1.1c0.3-1.3-2.6-1.2-3.2-1.2c-1.7-0.1-2.8-1.4-3.2-2.2c-0.2-0.6-0.1-0.8-0.5-0.7c0,0-0.3,0-0.6,0.4
					c-0.4,0.5-1,0.9-1.7,0.7c-0.4-0.1-0.7-0.3-1-0.6C108.4,264.6,107.8,264.8,107.7,265.6z"/>
			</g>
			<path class="st6" d="M106.6,234c0.3-4-3-9.3-3-9.3s8.7-4.8,8.8-6.2c0,0,1.2,8.2,1.6,11c0.7,5-1.8,33.6-1.8,33.6s-1.8,0.5-4.2,0.1
				c0,0-0.4-11-2.3-18.5C104.9,241.1,106.3,234.9,106.6,234z"/>
			<path class="st6" d="M105.9,188.2c3.2,7.3,6.8,30.7,7.6,38.7c0.4,3.4-2.5,7.4-5.8,4.3c-4-3.7-9.5-20.6-11.5-23.6
				c-2-3-9.5-5.7-4.4-20.9"/>
			<g>
				<path class="st34" d="M91.3,261.8c0,0-0.3,3.2-0.4,4c-0.1,0.8-2.7,0.7-3,0.3c-0.3-0.4-0.2-4.2-0.2-4.2"/>
				<path class="st35" d="M87.1,266.7c-0.1,0.8,0.1,2.2,0.1,2.2l3,0.2l0.2-0.5c0,0,0.9,0.6,1.7,0.6l2.5,0.2c1.8,0.1,2.9,0,3-0.4
					c0.3-1.3-1.9-1.4-2.5-1.5c-1.6-0.1-3.4-1-3.7-1.9c-0.2-0.6-0.1-0.8-0.5-0.7c0,0-0.3,0-0.5,0.4c-0.4,0.6-1,0.9-1.6,0.7
					c-0.4-0.1-0.7-0.3-1-0.6C87.8,265.7,87.2,265.9,87.1,266.7z"/>
			</g>
			<path class="st6" d="M97.8,233.5c-0.6,2.8-7.9,1.8-7.8-0.7c0.2-3.6-2.3-8.1-3.2-25.1c-0.1-1.9-2-2.2-2.8-7.5
				c-0.8-5.3,2.4-11.1,2.4-11.1l11.3-1.6c0,0,4.4,9.8,3.5,19.6C100.2,217,98.4,230.2,97.8,233.5z"/>
			<path class="st6" d="M90,232.2c0,0-2.6,5.1-2.9,8.8c-0.4,5.4,0.1,23.2,0.1,23.2s2.8,0.6,4.3,0.2c0,0,6.5-31.5,6.8-34.9
				C98.5,226,90,232.2,90,232.2z"/>
			<path class="st35" d="M110.2,154c-1.3-1.5-5.4-3.9-10.8-3.7c-3.7,0.1-14,0.7-15.1,3.2c-0.6,1.3-1.2,14.4-0.4,18.9
				c0.6,3.4,2.3,11.8,2.3,13.9s-1.1,2.9-0.6,3.5c1.1,1.3,9,1.9,12.6,1.9c3.3,0,8.8-0.9,9.1-1.9c0.4-1.6-0.6-1.5-0.8-3.1
				c-0.1-1.6-0.9-12.4,0-13.9c1.5-2.5,3-9,3.1-10.9C109.9,160,111.5,155.5,110.2,154z"/>
			<path class="st36" d="M86.9,164.6c-0.4,0.8-3,5.1-3,5.1l-0.1,0.5c0.1,0.9,0.2,1.7,0.3,2.3c0.6,3.4,2.3,11.8,2.3,13.9
				s-1.1,2.9-0.6,3.5c0.5,0.5,2,0.9,3.9,1.2c-0.4-0.5-0.8-1-0.9-1.3c-0.2-0.6,0.8-0.4,1-0.9c0.2-0.5-2.3-10.3-2.9-15.1
				C86.3,169.1,87.3,163.8,86.9,164.6z"/>
			<path class="st31" d="M102.7,145.7c0,0,0,4.5,0.2,4.7c0.2,0.2,1.1,0.6,1.1,0.6s-0.6,3.9-1.6,3.6c-1-0.3-7.5-3.6-7.5-3.6
				s0.9-0.4,0.9-0.7c0-0.4-0.9-7.5-0.9-7.5"/>
			<path class="st31" d="M98.1,129.2c0.9,0.3,3.4-0.3,4.1,0.8c0.7,1,1.3,3.5,1.6,4.2c0.5,1.4,0.9,2.8,1.2,4.3
				c0.5,1.8,1.3,5.2-0.5,6.8c-0.5,0.4-0.8,0.6-1.4,0.7c-0.9,0.2-1.7,0.3-2.6,0.5c-1.3,0.2-2.8,0.5-4.1,0.1c-1.8-0.6-2.7-3-3.2-4.6
				l-2.6-9.4L98.1,129.2z"/>
			<path class="st37" d="M102.6,155.7c0,0,0.4,16.7,1,26.8l-2.4,3.4l-1.7-4.2c0,0-0.7-12.2,1.6-25.8L102.6,155.7z"/>
			<path class="st37" d="M103.1,154.2l-0.1,0.2c-0.1,0.4-0.3,0.8-0.5,1.2l0,0l-1.5,0.1c0,0-1-0.5-1.2-1.1c-0.1-0.6,1.7-1.5,1.7-1.5
				l0.2,0.1C102.3,153.5,102.8,153.8,103.1,154.2L103.1,154.2z"/>
			<path class="st38" d="M95.6,148.7c0,0-1.3,0.9-2,2.1c0.8,1.8,3.1,4.8,5,6.2c0.9-2.4,3.1-3.8,3.1-3.8S96.1,152.1,95.6,148.7z"/>
			<path class="st38" d="M101.6,153.2c0,0,1.9,0.7,3,2.8c0,0,0.4-2.8-0.4-5.3c0,0-1-1.7-1.4-1.7C102.9,151,101.6,153.2,101.6,153.2z
				"/>
			<path class="st35" d="M109.1,153c3.3,1.8,9,20.8,9.6,21c0.6,0.2,13.5,15.3,13.5,15.3l-2,2.8c0,0-13-9.4-16.7-13.6
				c-2.6-2.9-7.6-15.9-7.6-15.9S105.8,151.2,109.1,153z"/>
			<path class="st36" d="M114.7,177.8c-1.3-1.1-5.4-13.2-5.4-13.2l-1,4.1c1.6,3.8,3.7,8.3,5.1,9.8c3.7,4.1,16.7,13.6,16.7,13.6
				l0.8-1.1C131,191,116,178.9,114.7,177.8z"/>
			<g>
				<path class="st13" d="M92.3,184.6l-19.7,3.7c-0.5,0.1-0.9,0.6-0.7,1.2l2.6,13.6c0.1,0.5,0.6,0.8,1.1,0.7l19.7-3.7
					c0.5-0.1,0.9-0.6,0.7-1.2l-2.6-13.6C93.2,184.8,92.8,184.5,92.3,184.6z"/>
				<polygon class="st39" points="92,185.6 73.2,189.2 75.8,202.7 94.7,199.1 				"/>
				<g>
					<line class="st40" x1="92.5" y1="198.4" x2="90.5" y2="186.9"/>
					<line class="st40" x1="90.8" y1="198.8" x2="88.7" y2="187.3"/>
					<line class="st40" x1="88.2" y1="199.3" x2="86.2" y2="187.8"/>
					<line class="st40" x1="85.7" y1="199.8" x2="83.6" y2="188.3"/>
					<line class="st41" x1="83.1" y1="200.4" x2="80.8" y2="188.8"/>
					<line class="st41" x1="80.5" y1="200.9" x2="78.2" y2="189.4"/>
					<line class="st40" x1="78" y1="201.4" x2="75.6" y2="189.9"/>
				</g>
			</g>
			<g>
				<g>
					<path class="st31" d="M81.8,194.5c0,0,0.8,1.6,1.2,2.4c0.3,0.5,2.3,2.3,3.2,3.7c0.4,0.7,0.8,1.4,0.7,2.2
						c-0.1,0.8-0.8,1.5-1.6,1.4c-0.2,0-0.5-0.2-0.6,0c-0.1,0.1-0.1,0.2-0.2,0.3c-0.2,0.3-0.5,0.5-0.9,0.4c-0.3,0-0.6-0.3-0.7-0.7
						c-0.5,0.5-1.4,0.5-2,0c0.3-0.3,0.5-0.6,0.5-1c-0.1-0.4-0.4-0.7-0.6-1c-0.4-0.5-0.6-1.2-0.6-1.9c0-0.5,0.1-1,0.2-1.4
						c0.1-1-0.1-2-0.6-2.9"/>
				</g>
				<path class="st35" d="M87.8,162.7c-0.6,2.1-9.7,16.1-9.7,16.1l4.9,17.7l-2.8,1.7c0,0-8.6-14.3-8.7-18.4c0-4,6.3-18.9,10.9-24.9
					c1.5-1.9,4.4-2.9,4.4-2.9"/>
			</g>
			<g>
				<path class="st42" d="M92.3,140.3c0.6-0.3,1.1-0.7,1.4-0.1c0.2,0.3,0.3,0.7,0.7,0.8c0.3,0.1,0.7-0.2,0.8-0.6
					c0.1-0.4,0-0.7-0.1-1.1c-0.2-0.8-0.5-1.5-0.7-2.3c-0.2-0.8-0.5-1.6-0.2-2.3c0.2-0.4,0.4-0.7,0.7-0.9c1-0.8,2.3-1.3,3.5-1.5
					c1.3-0.3,2.6-0.4,3.8-0.8c0.5-0.2,1-0.4,1.5-0.7c0.7-0.6,1-1.5,1-2.4c0-0.9-0.3-1.7-0.7-2.5c-0.1,0.3-0.2,0.6-0.4,0.9
					c-0.2-0.4-0.4-0.8-0.7-1.1c-0.4,2.1-9.1,1.4-11.1,2.3c-1.4,0.6-2.6,1-2.5,3.3c0,0.1-0.2,0.3-0.3,0.4c-1.3,1.1-1.8,2.5-1.9,4.6
					c-0.2,2.5,1.3,5.3,2.7,7.4c0.4,0.5,0.6,0.9,1.1,1.3c0.5,0.4,1.4,0.6,2,0.5c0.6-0.1,1.9-0.1,1.9-0.7c0-0.5-1-1.3-1.2-1.6"/>
			</g>
			<g>
				<path class="st31" d="M94.6,142.7c0,0,0.1,0.4-0.2,0.8c-0.2,0.3-0.7,0.3-1,0.1c-0.9-0.3-1.6-1.2-1.7-2.1
					c-0.2-1.1,0.4-2.2,1.4-1.9c0.6,0.2,1,0.8,0.9,1.4"/>
			</g>
			<g>
				<path class="st33" d="M102.7,146.1l-2.8,0.5c0,0,0.9,1,2.8,1"/>
			</g>
			<path class="st37" d="M108.9,233.9c0.5-1.7-0.9-4.2-1.6-6.2c-0.7-1.9-6-17.3-6-17.3l-1.2,6.2c1.1,2.7,2.3,5.5,3.5,8l0,0l0,0
				c0.5,1,0.9,1.9,1.4,2.7c0.8,1.9,1.7,4.4,1.6,6.6c-0.3,1-1.6,7.1-0.8,10.6c1.8,7.5,2.3,18.5,2.3,18.5c0.5,0.1,0.9,0.1,1.3,0.2
				c-0.2-2.7-0.4-7.5-0.4-8.5c0-1.3-1.7-9.1-1.6-12.1C107.4,239.6,108.4,235.6,108.9,233.9z"/>
			<g>
				<polygon class="st13" points="95.5,194.8 93.8,195.2 92.6,188.9 94.3,188.5 				"/>
				<g>
					<g>
						<path class="st13" d="M97.9,191.1c-0.2-0.8-1-1.4-1.8-1.2l-2,0.4l0.6,3c0,0,1.6-0.3,2-0.4C97.5,192.7,98,191.9,97.9,191.1z
							 M95.5,191.5c-0.1-0.5,0.2-0.9,0.7-1c0.5-0.1,0.9,0.2,1,0.7c0.1,0.5-0.2,0.9-0.7,1C96,192.3,95.6,192,95.5,191.5z"/>
					</g>
				</g>
			</g>
		</g>
		<g>
			<ellipse class="st30" cx="156.6" cy="282.1" rx="21.9" ry="2"/>
			<g>
				<path class="st43" d="M183.6,163.3l-13.5-1.8v27l7.3,1c0.6,0.1,1.2-0.3,1.4-0.9l5.8-23.9C184.8,164,184.3,163.3,183.6,163.3z"/>
				<path class="st13" d="M166.6,160.2l-4.8,21.3c-0.1,0.6,0.3,1.2,0.8,1.2l15.1,2.2c0.5,0.1,1-0.3,1.1-0.8l4.8-21.3
					c0.1-0.6-0.3-1.2-0.8-1.2l-15.1-2.2C167.3,159.3,166.8,159.7,166.6,160.2z"/>
				<polygon class="st44" points="167.6,160.9 162.9,181.3 177.9,183.4 182.6,163 				"/>
				<g>
					<line class="st45" x1="181" y1="164.5" x2="168.2" y2="162.7"/>
					<line class="st45" x1="180.6" y1="166.5" x2="167.8" y2="164.6"/>
					<line class="st45" x1="175.2" y1="168" x2="167.3" y2="166.9"/>
					<line class="st45" x1="174.7" y1="169.7" x2="166.7" y2="168.6"/>
					<line class="st45" x1="174.1" y1="171.4" x2="166.2" y2="170.2"/>
					<line class="st41" x1="177" y1="180.5" x2="169.1" y2="179.4"/>
				</g>
			</g>
			<g>
				<path class="st33" d="M160.8,181.7c0.9-0.4,1.5-1.1,2.1-1.9c0.6-0.7,1.2-1.4,1.8-2.1c0.2-0.3,0.5-0.6,0.5-1
					c-1-0.1-1.7,1.2-2.7,1.3c0.5-1.7,1.1-3.3,2-4.7c0.2-0.4,0.4-0.8,0.3-1.2c-1.1,0.4-2,1.2-2.8,2c-0.6,0.6-1.1,1.2-1.5,1.9
					c-1.3,2-2.1,4.3-2.7,6.7"/>
			</g>
			<g>
				<path class="st31" d="M156.5,198.9l-10.8-9.1c0,0-5,6.8-3.1,13.4c0.9,3.2,2.1,4.8,2.6,6.4c0.5,1.4,3.7,21.7,3.5,23.2
					c-0.2,1.5-2,5.6-2.6,10c-0.8,5.2-0.7,22.3-1.3,26.8c-0.6,4.5,3.6,5.3,3.8,3.8c2-13.1,7.2-33.5,7.9-40
					C157.1,226.7,156.8,214.7,156.5,198.9z"/>
				<g>
					<path class="st33" d="M156.5,211.8l-4.7,10.8c2,3.3,3.1,7.3,3.3,11.3c0.1,2.1-0.1,4.2,0,6.2c0,0.1,0,0.3,0.1,0.5
						c0.6-3.1,1.1-5.6,1.3-7.3c0.5-4.6,0.5-12,0.4-21.5C156.7,211.8,156.6,211.8,156.5,211.8z"/>
				</g>
				<path class="st31" d="M149.3,269.1c0,0-1,4.7-0.7,5.4c0.3,0.6,1.2,2.4,2.2,3c1,0.7,3.4,1.5,3.5,1.7c0.2,0.3,0.2,0.7-0.1,1
					c-0.9,0.7-2.3,1-3.3,0.8c-3.1-0.5-3.5-1.9-5.3-2.1c-0.3,0-0.9,0.4-1.8,0c-0.9-0.4-1.3-1.3-1.2-2c0.1-1.3,0.9-2.4,1.4-3.4
					c0.5-1,0.9-5.4,0.9-5.4"/>
				<path class="st46" d="M154.4,280.4c0.2-0.4,0.3-1,0.1-1.1c-0.3-0.2-1.3-0.9-2-1.2c-0.6-0.3-1.6-0.5-1.2-0.3
					c0.3,0.2-0.3,0.9-0.9,0.8c-2-0.1-3.4-1.4-4.5-1.7c-1.6-0.4-2.3-2.3-2.4-2.6c-0.3,0.2-1,1.7-1.2,2.2c-0.1,0.4-0.4,1.2-0.2,1.7
					c0.1,0.3,0.3,0.9,0.2,1.6c0,0,0.3,0.2,1.2,0.4c0.5,0.1,1.2,0,1.2,0l0.1-1c0,0,0.4,0,1,0.1c0.6,0.1,1.5,0.6,1.5,0.7
					c0.2,0.3,0.4,0.8,0.7,0.9c0.8,0.4,1.6,0.6,2.6,0.6C152.8,281.6,154,281,154.4,280.4z"/>
			</g>
			<g>
				<path class="st31" d="M171.2,280.2c-0.2-0.3-2.7-0.7-3.9-1.2c-1.1-0.5-2.5-2-2.7-2.6c-0.3-0.6-0.2-3.9-0.2-5.2
					c0.2-9.3,2-32.1,2.2-37.5c0.4-9.5-0.8-19.3-4.4-34.5l-13.6-10.4c0,0-3.8,7.1-2.5,13.8c0.7,3.9,4,4.5,4.5,6
					c0.6,1.5,8.8,26.1,8.8,26.1s-1.6,5.3-1.7,11.1c-0.1,5,2.2,20,2.6,25.7c0,1.1,0.2,3.8-0.1,4.6c-0.4,1-1.4,2.3-1.4,3.6
					c0,0.8,0.6,1.5,1.5,1.8c1,0.3,1.5-0.3,1.8-0.3c1.9-0.1,2.4,1.2,5.8,1.2c1,0,2.5-0.6,3.3-1.4
					C171.5,280.8,171.4,280.4,171.2,280.2z"/>
				<path class="st46" d="M171.5,281.3c0.2-0.4,0.2-1-0.1-1.1c-0.3-0.1-1.5-0.7-2.2-0.8c-0.7-0.2-1.7-0.3-1.3-0.1
					c0.4,0.1-0.2,0.9-0.8,1c-2,0.2-3.7-0.9-4.9-0.9c-1.7-0.1-2.4-1.9-2.5-2.2c-0.3,0.2-1.1,1.9-1.2,2.4c-0.1,0.5-0.2,1.3,0,1.7
					c0.1,0.3,0.4,0.9,0.4,1.6c0,0,0.4,0.2,1.3,0.2c0.6,0,1.3-0.2,1.3-0.2v-1c0,0,0.5-0.1,1-0.1c0.6,0,1.3,0.3,1.7,0.6
					c0.3,0.2,0.6,0.6,0.9,0.7c1,0.2,1.6,0.3,2.7,0.2C170,282.9,171.2,282,171.5,281.3z"/>
			</g>
			<path class="st46" d="M146,188.7c-0.9,1-4.2,6.5-4.2,10.9c0,4.5,1.5,7.3,1.7,8.2c1,6.8,2,15,2,15.5s3.9,3,9.1,2.7
				c9.6-0.6,13.3-3.1,13.3-3.1s-0.5-16.5-1.9-24.6c-0.7-4.1-4-10.6-4-10.6"/>
			<path class="st31" d="M137.3,170.9c0,0,1.5,7.7,2,9c0.4,1.4,2.4,10,4.3,9.9c1.9-0.2,12.3-8.8,12.3-8.8l-1.5-2.9l-9.2,4.4
				c0,0-0.8-9.9-1.6-12.3"/>
			<g>
				<path class="st33" d="M140.8,175.6c1,3.4,3,7,3.6,9.7c0.1,0.5,6.5-1.8,6.5-4.2"/>
			</g>
			<path class="st3" d="M143.5,160.2c0,0-3,0.3-4.6,1.5c-3.9,3-0.9,13.9-0.9,13.9s-0.2,0.6,2.4,0.4c2.6-0.1,4.8-0.9,4.8-0.9
				l-0.8-8.9"/>
			<path class="st46" d="M140,166.4c0,0-0.3,6.4,0.8,9.7c1.1,0,2.2-0.3,2.2-0.3L140,166.4z"/>
			<g>
				<path class="st31" d="M158,140.1c1.8,2.4,1.5,5.7,1,8.7c-0.2,1.5-0.5,3-0.7,4.5c-0.1,0.7-0.3,1.5-0.8,1.9
					c-0.6,0.5-1.4,0.5-2.1,0.4c0,1.2,0,2.5,0,3.7c-2.1,0.1-4.2,0.1-6.4,0c0-0.9-0.2-1.7-0.6-2.5c-1,0-1.7-1.1-2.1-2
					c-0.5-1.1-0.8-2.3-1.1-3.4c-0.4-1.5-0.9-3.1-0.9-4.7c0-1.6,0.3-3.2,1.3-4.5c0.7-0.8,1.6-1.4,2.6-1.9c1.3-0.7,2.9-1.2,4.3-0.6"/>
			</g>
			<g>
				<path class="st42" d="M155.8,151.4c-0.3-1.2-0.2-2,0.2-2.8c0.1-0.3,0.3-0.5,0.6-0.7c0.3-0.2,0.8-0.3,1.1-0.1
					c0.2,0.1,0.4,0.3,0.6,0.5c0.4-1.7,0.5-3.5,0.4-5.2c-0.2-2.8-1.9-4.9-4.3-5.9c-4.5-1.8-11,0-12.8,4.4c-1.4,3.3-0.7,8.1,2,10.9
					c2.3,2.5,5.7,2.8,8.8,2.3c1.6-0.3,4-0.1,4.9-2.3c0.1-0.2-0.1-0.3-0.2-0.3C156.3,152.3,155.8,151.6,155.8,151.4z"/>
			</g>
			<g>
				<path class="st42" d="M156.1,145.5c0.2,0.3,0.1,0.6,0.3,0.9c0.3,0.5,0.6,0.6,1.1,0.8c0.8,0.4,0.6,1.5,0.6,2
					c0.6-0.4,0.7-1.4,0.8-2c0.2-0.6,0.3-1.2,0.4-1.8c0.2-0.6,0.5-1.1,0.5-1.7c0.2-2.1-1.1-4.5-2.7-5.7c-1.2-0.9-2.9-0.8-4.2,0
					c-0.5,0.4-1,0.9-1.2,1.5c-0.1,0.3-0.2,0.6,0,0.8"/>
			</g>
			<g>
				<path class="st46" d="M145.9,160.2c0.1-0.7,0.3-1.6,1-1.9c0.2-0.1,0.4-0.1,0.6-0.1c2.1-0.2,4.2-0.3,6.2-0.3
					c0.9,0,1.8,0.1,2.5,0.4c1.2,0.6,1.9,1.9,2.5,3.1"/>
			</g>
			<g>
				<path class="st3" d="M163.5,186.9c-0.3-0.4-1-0.9-1.2-1.4c-0.6-1.1-1.1-5.9-0.9-7.1c0.2-1.3,1.4-2,1.9-4.9
					c0.7-3.7-0.9-6.6-1.7-7.9c-1.2-1.8-0.5-1.7-0.9-3.9c-0.1-0.4-0.2-0.8-0.4-1.1c-0.3-0.3-2.1-1.1-2.4-1.1c-3.4-0.5-5.3-0.1-8.7,0
					c-1.7,0.1-3.4,0.3-5,0.6c-1.8,0.4-3.4,0.9-3.8,3.4c-0.6,3.8-0.1,7.7,1.1,11.4c0.8,2.4,5.4,10.8,4.2,12.4c-0.3,0.4-0.9,1.1-1,1.5
					c-0.3,1.7,3.5,2.3,5.2,2.4c2.5,0.2,5.3,0.1,7.8,0c1.9-0.1,6-0.7,6.3-3.1C163.9,187.6,163.7,187.2,163.5,186.9z"/>
			</g>
			<path class="st46" d="M162.7,174.2c0,0.7-0.4,1.6-0.5,1.9c-0.5,0.2-2.4,0.6-3.4,0.2c-0.2-2.2-1.6-6.6-1.6-6.6
				S162.7,173.5,162.7,174.2z"/>
			<g>
				<path class="st42" d="M147,153.3c-1.3-0.4-2.7,0.4-3.6,1.4c-1,1.2-1.4,3-0.5,4.3c0.3,0.5,0.8,0.8,1.4,1.1
					c1.5,0.9,3.4,1.4,5.1,0.9c1.7-0.4,3.2-2,3.2-3.7c0-1.6-1.2-2.9-2.4-4"/>
			</g>
			<g>
				<path class="st31" d="M160.3,172.6c0,0,6.2,15,8.9,15c2,0,6.8-13.9,6.8-13.9l-3-1.4l-3.4,5.8l-3.4-10.8"/>
				<path class="st31" d="M172.4,173.4c0,0,1-1.6,0.9-2.7c0-0.4-0.3-2.5-0.1-2.9c0.2-0.4,0.7-1.7,1-2c0.3-0.3,1.4-0.7,1.6-0.5
					c0.3,0.2,0.6-0.7,1-0.6c0.4,0.1,0.8,0.4,0.8,0.8c0,0.4,0.6,0.5,0.7,0.8c0.1,0.3,0,0.5,0.1,0.8c0.1,0.2,0.4,0.1,0.5,0.7
					c0.1,0.5,0,0.5,0,0.8c0,0.3,0.3,0.2,0.2,0.7c-0.1,0.5-0.4,1.1-0.7,1.7c-0.3,0.5-0.9,1.2-1.7,1.7c-0.4,0.2-0.6,0.7-1,1.4"/>
				<path class="st42" d="M174,161.7c-0.1-0.1-0.3-0.3-0.5-0.1c-0.2,0.2-0.2,0.5-0.1,0.6c0.1,0.1,1.8,4.2,1.8,4.2s0.1,0.2,0.4-0.1
					c0.3-0.3,0.2-0.4,0.2-0.4S174.1,161.9,174,161.7z"/>
				<g>
					<path class="st33" d="M176,165.6c-0.3,0.6-0.8,0.8-1.1,1.2c-0.3,0.3-0.3,0.4-0.6,0.7c0.6,0,0.5-0.4,1.2-0.9
						c0.3-0.2,0.7-0.5,0.7-0.9C176.2,165.6,176.1,165.5,176,165.6L176,165.6z"/>
				</g>
			</g>
			<g>
				<path class="st3" d="M154.6,159.2c1.6,0.1,6.3-0.7,9,2c2.2,2.3,3.5,8.3,4.3,10.8c-2.2,2.2-4.3,4-7.6,3.3c-0.1-0.1-1.8-5.3-3-5.8
					"/>
			</g>
			<g>
				<path class="st47" d="M156.4,225.8c-0.6-4-4.4-16.2-4.6-16.6c-2.1-1.6-3.4-3.2-4.1-4.6c-0.5,2.7,0.8,5.3,1.9,7.8
					c2,4.3,3.2,9,4.9,13.5"/>
			</g>
		</g>
		<g>
			<path class="st48" d="M316.3,163.4c-2.7,2.9-4.6,21.3-4.6,22c-0.1,0.7-13.6,8.3-13.6,8.3l1.9,2.2c0,0,14.4-3.6,17-6.8
				c2.2-2.7,7.3-24.4,7.3-24.4S320.7,158.7,316.3,163.4z"/>
			<ellipse class="st30" cx="337.2" cy="287.8" rx="40.2" ry="2.8"/>
			<g>
				<path class="st31" d="M357.5,273.2c0,0,1.1,2.1,1.7,2.8c0.6,0.7,3-0.8,3-1.4c0-0.5-2.1-3.9-2.1-3.9"/>
				<path class="st49" d="M363.2,274.8c0.5,0.7,1.4,2.2,1.4,2.2l-2.1,1.9l-0.6-0.2c0,0-0.4,1-1,1.6c-0.5,0.5-1.6,1.2-2.2,1.5
					c-2.1,1-3.9,1.1-4.1,0.9c-1-1.1,1.8-2.4,2.3-2.7c1.5-1,1.9-2.7,1.8-3.7c-0.1-0.7-0.3-0.8,0.1-0.9c0,0,0.3-0.1,0.7,0.1
					c0.6,0.3,1.4,0.3,1.9-0.2c0.3-0.3,0.6-0.6,0.6-1C362,274.2,362.7,274.1,363.2,274.8z"/>
			</g>
			<g>
				<path class="st31" d="M317.9,280.5c0,0-0.5,1.3-0.5,2.2c0.1,0.9,2.9,0.9,3.3,0.5c0.3-0.4,0.5-4.4,0.5-4.4"/>
				<path class="st49" d="M321.5,283.9c0,0.9-0.3,2.4-0.3,2.4h-3.3l-0.2-0.5c0,0-1.1,0.5-1.9,0.5h-2.8c-2,0-3.2-0.2-3.2-0.6
					c-0.2-1.4,2.2-1.4,2.8-1.4c1.8,0,3.8-0.8,4.2-1.7c0.3-0.6,0.2-0.8,0.5-0.7c0,0,0.3,0.1,0.6,0.5c0.3,0.6,1,1,1.7,0.9
					c0.4-0.1,0.8-0.2,1.1-0.5C320.8,282.7,321.5,283,321.5,283.9z"/>
			</g>
			<path class="st13" d="M334.7,220.6c0,0.1-2.7-2.9-2.7-2.8c-1.1,5.4-6,23.3-7.6,28v0c-0.2,0.7-1.5,2.1-2.6,2.3
				c-2.4,0.6-6.3-0.2-6.6-4.8c0-0.5,0.1-1.1,0-1.7c-0.7-7.1,6.1-38.4,6.3-40.4c0.2-2,4.1-0.6,5.2-0.9
				C332.2,198.5,336.2,213.2,334.7,220.6z"/>
			<path class="st13" d="M324.7,248.3c-1.1-3.3,0.6-7.2,0.6-7.2s-9.5-7.3-10-2.8c0,0.4-0.4,3.4-0.4,5.1c0,6.1,2.1,25.3,2,37.1v0.8
				c0,0,1.6,0.3,4.4,0.3c0.1,0,0.3,0,0.4,0c0.8-7.3,2.5-17.3,3.3-27.3C325.1,251.7,324.9,248.9,324.7,248.3z"/>
			<path class="st13" d="M348.9,246.8c-1.9-2.4-3.9-3.4-4.5-5.2c-1.4-4.2-1-21.1-1.1-25.8c0.4-1,4-10.6-3.4-17.6c0,0-6.7,2.9-12,3.2
				c-4.2,0.3-6.3-0.1-6.3-0.1s4,6,4.2,8.6c0.4,4.5,8.8,31.7,9.5,33.2c1.5,3.4,3.1,4.7,3.6,5.4c3.7,4.9,12.5,15.1,19.1,24.9l0.4,0.6
				c0,0,1.3-0.5,3.8-2.2C358.6,265.3,354.9,254.3,348.9,246.8z"/>
			<path class="st48" d="M316.3,163.4c1.3-1.5,7-3.9,12.7-3.7c3.9,0.1,16.2,1.4,17.4,4c0.6,1.3,0.5,14-0.3,18.6
				c-0.7,3.5-2.7,12.6-2.7,14.7s1.1,3,0.6,3.6c-1.2,1.4-10,2-13.8,2c-3.4,0-9.1-0.9-9.4-2c-0.4-1.6,0.7-1.6,0.8-3.2
				c0.1-1.7,0.9-12.8,0-14.4c-1.6-2.6-4-9.8-4.1-11.8C317.2,169.3,314.9,165,316.3,163.4z"/>
			<path class="st31" d="M325.6,154.9c0,0,0,4.7-0.2,4.9c-0.2,0.2-1.1,0.6-1.1,0.6s0.7,4.1,1.7,3.8s7.8-3.7,7.8-3.7s-1-0.4-1-0.8
				c0-0.4,0.9-7.8,0.9-7.8"/>
			<g>
				<path class="st32" d="M327.4,139.5c-0.8-0.6-2-0.6-2.9-0.2c-0.9,0.4-1.6,1.3-2,2.3c-0.4,0.9-0.5,2,0,2.9c-0.7,0.2-1.1,1-1.1,1.7
					c0,0.8,0.5,1.5,0.9,2.2c0.4,0.6,1.2,1,1.9,0.8c0.5-0.1,0.9-0.5,1.2-0.9c0.3-0.4,0.5-0.9,0.7-1.4c0.9-2.2,1.5-4.6,1.9-6.9"/>
			</g>
			<path class="st31" d="M330.3,137.9c-1,0.3-3.6-0.3-4.3,0.8c-0.7,1.1-1.3,3.7-1.6,4.4c-0.5,1.4-0.9,2.9-1.3,4.4
				c-0.5,1.9-1.8,5.5,0.1,7.1c0.5,0.5,1.2,0.5,1.9,0.6c0.9,0.2,1.8,0.3,2.7,0.5c1.4,0.2,2.9,0.5,4.3,0.1c1.8-0.6,2.8-3.1,3.3-4.8
				l2.7-9.8L330.3,137.9z"/>
			<g>
				<path class="st31" d="M334.3,152c0,0-0.1,0.5,0.3,0.8c0.3,0.3,0.8,0.2,1.1,0c0.9-0.4,1.5-1.4,1.5-2.4c0.1-1.2-0.7-2.2-1.7-1.8
					c-0.6,0.2-0.9,1-0.8,1.6"/>
			</g>
			<g>
				<path class="st42" d="M336.8,146.7c-0.3,1-1.1,3.2-2,3c-0.9-0.2,0.4-3.7,1.1-5c-1.1,0-2.5-0.2-2.9-1.2c-0.1-0.2-0.2-0.5-0.4-0.6
					c-0.2,0-0.4,0.1-0.5,0.2c-0.8,0.5-1.8,0-2.5-0.7c-0.1-0.2-0.3-0.3-0.5-0.3c-0.1,0-0.2,0.1-0.3,0.2c-1.3,0.9-4.7,0.9-4.7-0.7
					c-1.1,0.6-1.8-0.8-1.8-1.8c0.1-0.9,0.8-2.5,2.3-2.5c-0.1-1.2,0.8-1.9,1.8-2.6c0.9-0.7,2.1-1,3.3-1.1c1.8-0.1,3.9,0.7,4.6,2.4
					c0,0.1,0.1,0.3,0.2,0.3c0.1,0.1,0.3,0,0.4,0c1.4-0.4,3-0.2,4.1,0.8c1.1,1,1.4,2.7,0.6,3.9c1.1,0.3,1.7,1.5,1.5,2.6
					c-0.2,1.1-0.9,2-1.6,2.8c1.2,0.4,1.6,2,1,3c-0.6,1.1-2.1,1.7-3.3,1.5c0.3-1.1-0.2-2.4-1.3-2.6"/>
			</g>
			<path class="st50" d="M325.6,165.3c0,0-0.4,17.3-1.1,27.8l2.5,3.5l1.7-4.4c0,0,0.7-12.7-1.7-26.8L325.6,165.3z"/>
			<path class="st50" d="M325.1,163.8l0.1,0.2c0.1,0.4,0.3,0.9,0.5,1.3l0,0l1.6,0.1c0,0,1.1-0.6,1.2-1.2c0.1-0.6-1.7-1.6-1.7-1.6
				l-0.2,0.1C326,163,325.5,163.4,325.1,163.8L325.1,163.8z"/>
			<path class="st38" d="M333,158.1c0,0,1.3,1,2.1,2.1c-0.8,1.8-3.2,5-5.2,6.4c-0.9-2.5-3.2-4-3.2-4S332.4,161.6,333,158.1z"/>
			<path class="st38" d="M326.7,162.7c0,0-1.9,0.8-3.1,2.9c0,0-0.4-2.9,0.4-5.5c0,0,1-1.8,1.5-1.8
				C325.4,160.5,326.7,162.7,326.7,162.7z"/>
			<path class="st51" d="M324.7,248.3c-0.3-0.8-0.4-1.6-0.4-2.4c0,0,0-0.1,0.1-0.1v0c1.1-3.2,3.7-12.3,5.6-19.6l-3-10.5
				c0,0-1.8,21.4-2.4,23c-0.6,1.5-2.4,6.5-2.2,7.6c0.2,1.1,1.3,3,1.2,4.7c-0.2,1.7-0.2,16.8-0.2,16.9c0.6-4.4,1.2-9,1.5-13.7
				C325.1,251.7,324.9,248.9,324.7,248.3z"/>
			<g>
				
					<ellipse transform="matrix(0.7984 -0.6021 0.6021 0.7984 -42.9778 195.3082)" class="st52" cx="270.2" cy="161.8" rx="21.3" ry="21.3"/>
				<line class="st53" x1="284.7" y1="178.4" x2="316.4" y2="216.7"/>
			</g>
			<g>
				<g>
					<path class="st31" d="M314.1,202.5c0,0-1.8,0.5-2.7,0.8c-0.6,0.2-3.4-0.1-5,0.2c-0.8,0.2-1.6,0.5-2.1,1.1
						c-0.5,0.6-0.5,1.7,0.1,2.2c0.2,0.1,0.5,0.2,0.5,0.5c0,0.1,0,0.2-0.1,0.3c-0.1,0.3,0,0.8,0.3,1c0.3,0.2,0.7,0.3,1,0.1
						c0,0.8,0.7,1.4,1.4,1.5c0-0.4,0.1-0.9,0.4-1.1c0.3-0.2,0.8-0.2,1.2-0.2c0.7-0.1,1.4-0.4,1.9-0.9c0.4-0.4,0.6-0.8,0.9-1.2
						c0.7-0.8,1.6-1.3,2.6-1.6"/>
				</g>
				<path class="st54" d="M346.4,163.7c-0.1-0.1-0.1-0.2-0.2-0.3l-8.2,8c-1.9,5.2-5.8,18.8-5.8,18.8s-3.7,1.7-6.1,3
					c-0.6,0.3-2.4,1.5-4.5,3c0,0.6-0.1,1.1-0.1,1.4c-0.1,1.7-0.4,1.7,0.1,3.3c0,1.1-0.4,2.7-0.7,4.3c6.1-1.6,18.8-5.5,19.2-5.8
					c0.7-0.4,4.4-15.4,6.6-24.5C347,169.2,346.8,164.7,346.4,163.7z"/>
				<path class="st48" d="M338,170.5c-0.8,2.2-4.8,21.2-4.8,21.2s-3.9,1-6.4,2.3c-1.9,1-15.2,9.3-15.2,9.3l1.3,3.1
					c0,0,23.7-8.4,24.7-9c1-0.6,10.5-24.6,10.5-28.8c0-2.5-2-5.1-2-5.1"/>
			</g>
			<g>
				<path class="st31" d="M297.3,197.8c-0.8,0.1-1.6-0.5-1.7-1.2c0-0.2,0-0.3-0.1-0.4c-0.1-0.2-0.5-0.3-0.7-0.4
					c-1-0.3-1.6-1.3-1.9-2.3c-0.1-0.5-0.2-1.1,0-1.6c0.2-0.5,0.6-1,1.1-1.2c0.1,0,0.2,0,0.3,0c0.1,0,0.2,0.1,0.2,0.2
					c0.3,0.4,0.5,0.9,0.7,1.4c0.1,0.4,0.2,0.8,0.5,1c0.2,0.1,0.5,0.2,0.7,0.3c0.5,0.2,0.7,0.7,0.8,1.2
					C297.5,195.4,297.1,197,297.3,197.8"/>
			</g>
			<g>
				<path class="st31" d="M300.1,192.9c0.1-0.6-0.1-1.3-0.5-1.7c-0.4-0.4-0.9-0.7-1.5-0.9c-0.1-0.1-0.3-0.1-0.4,0
					c-0.1,0.1,0,0.2,0,0.3c0.2,0.4,0.7,0.5,0.9,0.9c0.1,0.1,0.1,0.3,0.2,0.4C299.1,192.4,299.6,192.8,300.1,192.9"/>
			</g>
			<path class="st55" d="M320.2,180.3c0,0-2.2-5.6-2.7-7.9c-1.1,5.5-0.7,15-1.6,15.8c-0.9,0.8-9.9,6-9.9,6l0,0
				c4.3-1.3,9.5-3.3,10.9-5C317.7,188.2,319,184.5,320.2,180.3L320.2,180.3z"/>
			<path class="st33" d="M325.6,155.3c0,0,3.8,0.8,4.5,0.7c0.7-0.1-1.5,1.2-1.9,1.2c-0.4,0-2.6-0.3-2.6-0.3V155.3z"/>
		</g>
		<g>
			<path class="st20" d="M173.4,24.2c0-0.1-5.3,3.2-5.3,3.2l1.4,9l2.6-6.8l6.9-1.3l9.9-9.3L173.4,24.2z"/>
			<polygon class="st13" points="188.9,19 169.5,36.4 172.1,29.7 			"/>
			<polygon class="st13" points="188.9,19 163.2,24.5 168.1,27.4 188.9,19 172.1,29.7 180.4,34.8 			"/>
		</g>
		<path class="st32" d="M94.8,138.2c0.1,0.1,0.5,0.1,0.6,0.1c0.2,0,0.1,0.1,0.9,0.9c0.6,0.6,1.5,0.7,3.1,0c1.2-0.6,0.9-1.5,1-2
			c0-0.5,0.1-0.6,0.3-0.6c0.2-0.1,0.3,0,0.6,0.3c0.3,0.4,0.9,1.3,2.2,1c1-0.2,1.4-0.7,1.4-1.4c0.1-1.2,0.1-1.2,0.2-1.3
			c0.1-0.1,0-0.6-0.1-0.8c-0.1-0.2-0.9-0.1-1.6,0.2c-0.8,0.2-2,0.6-2.3,0.9c-0.4,0.3-0.3,0.5-0.6,0.6c-0.2,0.1-0.3-0.1-0.8-0.2
			c-0.5-0.1-2.6,0.6-3.3,0.8c-0.8,0.2-1.8,0.7-1.8,0.9C94.7,137.9,94.7,138.1,94.8,138.2z M101.5,136.2c0-0.3,0.3-0.4,1.2-0.7
			s1.3-0.5,1.5-0.4c0.2,0.1,0.4,0.5,0.3,1.2c-0.1,0.8-0.2,1.2-1,1.4c-0.8,0.2-1.3-0.1-1.6-0.5C101.7,136.7,101.5,136.3,101.5,136.2z
			 M96,137.5c0.1-0.2,1.3-0.5,2.2-0.7c0.9-0.2,1.2-0.3,1.4,0c0.1,0.1,0.2,0.5,0.2,1c0,0.5,0,1-1.4,1.4c-1,0.3-1.5,0.1-2-0.5
			C96,138.2,95.9,137.7,96,137.5z"/>
		<g>
			<path class="st13" d="M123.1,79.7h38.7c2.5,0,4.5,2,4.5,4.5v25.1c0,2.5-2,4.5-4.5,4.5h-38.7c-2.5,0-4.5-2-4.5-4.5V84.2
				C118.6,81.7,120.7,79.7,123.1,79.7z"/>
			<g>
				
					<rect x="135.6" y="94.9" transform="matrix(-1 -1.224647e-16 1.224647e-16 -1 278.3385 191.4421)" class="st56" width="7.1" height="1.6"/>
				
					<rect x="130.6" y="92.5" transform="matrix(-1 -1.224647e-16 1.224647e-16 -1 273.3075 186.5555)" class="st56" width="12.2" height="1.6"/>
				
					<rect x="125" y="101.7" transform="matrix(-1 -1.224647e-16 1.224647e-16 -1 284.9261 205.4131)" class="st56" width="34.9" height="2"/>
				
					<rect x="125" y="104.7" transform="matrix(-1 -1.224647e-16 1.224647e-16 -1 284.9261 211.4523)" class="st56" width="34.9" height="2"/>
				
					<rect x="130.6" y="90" transform="matrix(-1 -1.224647e-16 1.224647e-16 -1 273.3075 181.6691)" class="st56" width="12.2" height="1.6"/>
				
					<rect x="138.3" y="87.6" transform="matrix(-1 -1.224647e-16 1.224647e-16 -1 280.9994 176.7827)" class="st56" width="4.5" height="1.6"/>
				<path class="st56" d="M145.6,92.7c0,3.9,3.2,7.2,7.2,7.2c3.9,0,7.2-3.2,7.2-7.2c0-3.9-3.2-7.2-7.2-7.2
					C148.8,85.5,145.6,88.7,145.6,92.7z"/>
				<path class="st57" d="M151.4,92.8c-0.7-0.5-1.2-1.3-1.2-2.2c0-1.4,1.2-2.6,2.6-2.6c1.4,0,2.6,1.2,2.6,2.6c0,0.9-0.5,1.7-1.2,2.2
					c1.6,0.4,2.8,1.8,2.8,3.5v2.1c-1.2,0.9-2.6,1.4-4.2,1.4c-1.6,0-3-0.5-4.2-1.4v-2.1C148.6,94.6,149.8,93.2,151.4,92.8z"/>
			</g>
		</g>
		<g>
			<path class="st13" d="M123.1,68.7c-1,2.6-3.9,3.8-6.5,2.8c-2.6-1-3.8-3.9-2.8-6.5c1-2.6,3.9-3.8,6.5-2.8
				C122.9,63.2,124.1,66.1,123.1,68.7z"/>
			<polyline class="st58" points="116.4,66.2 117.5,68.7 121.2,66.4 			"/>
		</g>
		<g>
			<path class="st13" d="M315.8,28c1.1,2.5-0.1,5.4-2.6,6.5c-2.5,1.1-5.4-0.1-6.5-2.6c-1.1-2.5,0.1-5.4,2.6-6.5
				C311.8,24.3,314.8,25.5,315.8,28z"/>
			<polyline class="st58" points="309.4,31 311.9,32 312.9,27.7 			"/>
		</g>
		<g>
			
				<ellipse transform="matrix(0.1733 -0.9849 0.9849 0.1733 102.421 525.9409)" class="st59" cx="364.5" cy="202" rx="15.3" ry="15.3"/>
			<circle class="st60" cx="364.5" cy="202" r="10.7"/>
			<path class="st60" d="M370.5,202c0,3.3-2.7,6.1-6.1,6.1c-3.3,0-6.1-2.7-6.1-6.1c0-3.3,2.7-6.1,6.1-6.1
				C367.8,195.9,370.5,198.6,370.5,202z"/>
			<circle class="st13" cx="364.5" cy="202" r="2.6"/>
			<g>
				<line class="st24" x1="364.5" y1="202" x2="384.2" y2="182.2"/>
				<polyline class="st24" points="387.4,182.5 383.9,182.5 383.9,179 				"/>
				<polyline class="st24" points="385.6,184.3 382.1,184.3 382.1,180.8 				"/>
				<polyline class="st24" points="383.9,186.1 380.3,186.1 380.3,182.6 				"/>
				<polyline class="st24" points="367.9,202.1 364.3,202.1 364.3,198.6 				"/>
			</g>
		</g>
		<path class="st13" d="M44.2,151.9c0,1-0.8,1.8-1.8,1.8c-1,0-1.8-0.8-1.8-1.8c0-1,0.8-1.8,1.8-1.8
			C43.3,150.1,44.2,150.9,44.2,151.9z"/>
		<path class="st13" d="M389.2,111.7c0,1-0.8,1.8-1.8,1.8c-1,0-1.8-0.8-1.8-1.8c0-1,0.8-1.8,1.8-1.8
			C388.4,109.9,389.2,110.7,389.2,111.7z"/>
		<path class="st13" d="M217.3,44c0,1-0.8,1.8-1.8,1.8c-1,0-1.8-0.8-1.8-1.8c0-1,0.8-1.8,1.8-1.8C216.5,42.1,217.3,42.9,217.3,44z"
			/>
		<g>
			<g>
				<path class="st13" d="M156.4,78.2c-0.3,0-0.6-0.3-0.6-0.6v-4.1c0-0.3,0.3-0.6,0.6-0.6c0.3,0,0.6,0.3,0.6,0.6v4.1
					C157,78,156.8,78.2,156.4,78.2z"/>
			</g>
			<g>
				<path class="st13" d="M158.5,76.2h-4.1c-0.3,0-0.6-0.3-0.6-0.6c0-0.3,0.3-0.6,0.6-0.6h4.1c0.3,0,0.6,0.3,0.6,0.6
					C159.1,75.9,158.8,76.2,158.5,76.2z"/>
			</g>
		</g>
		<g>
			<g>
				<path class="st13" d="M55.7,235c-0.3,0-0.6-0.3-0.6-0.6v-4.1c0-0.3,0.3-0.6,0.6-0.6c0.3,0,0.6,0.3,0.6,0.6v4.1
					C56.3,234.7,56,235,55.7,235z"/>
			</g>
			<g>
				<path class="st13" d="M57.8,232.9h-4.1c-0.3,0-0.6-0.3-0.6-0.6c0-0.3,0.3-0.6,0.6-0.6h4.1c0.3,0,0.6,0.3,0.6,0.6
					C58.3,232.6,58.1,232.9,57.8,232.9z"/>
			</g>
		</g>
		<g>
			<g>
				<path class="st13" d="M404.5,173.4c-0.3,0-0.6-0.3-0.6-0.6v-4.1c0-0.3,0.3-0.6,0.6-0.6c0.3,0,0.6,0.3,0.6,0.6v4.1
					C405.1,173.2,404.8,173.4,404.5,173.4z"/>
			</g>
			<g>
				<path class="st13" d="M406.6,171.4h-4.1c-0.3,0-0.6-0.3-0.6-0.6c0-0.3,0.3-0.6,0.6-0.6h4.1c0.3,0,0.6,0.3,0.6,0.6
					C407.2,171.1,406.9,171.4,406.6,171.4z"/>
			</g>
		</g>
		<g>
			<g>
				
					<rect x="265" y="11.9" transform="matrix(0.9487 0.3162 -0.3162 0.9487 20.7742 -86.951)" class="st61" width="26.7" height="17.4"/>
				<polygon class="st13" points="293.8,16.5 268.4,8.1 284.6,1.9 				"/>
				
					<rect x="267.9" y="10.5" transform="matrix(0.9487 0.3162 -0.3162 0.9487 20.4802 -87.0813)" class="st21" width="21.4" height="18.1"/>
				<polygon class="st13" points="268.4,8.1 262.9,24.6 278.1,21.1 				"/>
				<polygon class="st13" points="293.8,16.5 288.3,33 278.1,21.1 				"/>
				<polygon class="st13" points="288.3,33 262.9,24.6 279.1,18.4 				"/>
			</g>
			<g>
				<path class="st20" d="M262.9,24.6c1.3-0.6,2.6-1.2,3.9-1.8c1.3-0.6,2.6-1.1,4-1.7c2.7-1.1,5.3-2.2,8-3.2l0.4-0.2l0.2,0.4
					c1.5,2.4,3,4.9,4.5,7.4c0.7,1.2,1.5,2.5,2.2,3.7c0.7,1.3,1.4,2.5,2.1,3.8c-0.9-1.2-1.7-2.4-2.5-3.5c-0.8-1.2-1.6-2.4-2.4-3.6
					c-1.6-2.4-3.2-4.8-4.7-7.3l0.6,0.2c-2.7,1-5.4,2-8.1,3c-1.4,0.5-2.7,0.9-4.1,1.4C265.7,23.7,264.3,24.2,262.9,24.6z"/>
			</g>
		</g>
	</g>
</g>
<g id="DESIGNED_BY_FREEPIK" class="st0">
	<g class="st62">
		<g id="XMLID_1_">
			<g id="XMLID_21_">
				<path id="XMLID_29_" class="st63" d="M138.1,351.7c-0.4,0.4-0.8,0.9-1.1,1.5l-0.5-0.2c-0.1-0.3-0.3-0.5-0.7-0.5
					c-0.3,0-0.6,0.3-0.5,0.7c0,0.3,0.3,0.6,0.7,0.5c0.1,0,0.1,0,0.2-0.1l0.5,0.2c-0.3,0.6-0.4,1.1-0.5,1.7l0.7,0.1
					c0.2-1.3,0.8-2.5,1.8-3.5L138.1,351.7z"/>
				<path id="XMLID_28_" class="st63" d="M143.6,349.4c-0.2,0-0.3,0-0.5,0l-0.1-0.6c0.2-0.1,0.3-0.4,0.3-0.6c0-0.4-0.4-0.7-0.8-0.6
					c-0.4,0-0.7,0.4-0.6,0.8c0,0.3,0.2,0.5,0.4,0.6l0.1,0.6c-0.7,0.1-1.4,0.3-2.1,0.6l0.3,0.7c0.9-0.4,1.9-0.7,3-0.7
					c0.5,0,1,0.1,1.5,0.2l0.2-0.7C144.7,349.4,144.1,349.4,143.6,349.4z"/>
				<path id="XMLID_27_" class="st63" d="M150.2,351.9c0.3,0,0.6-0.3,0.5-0.7c0-0.3-0.3-0.6-0.7-0.5c-0.3,0-0.5,0.3-0.5,0.6
					l-0.4,0.4c-0.4-0.4-0.9-0.8-1.4-1.1l-0.4,0.6c1.1,0.7,2,1.7,2.6,2.9l0.7-0.3c-0.3-0.6-0.6-1.1-0.9-1.5l0.4-0.4
					C150.1,351.9,150.1,351.9,150.2,351.9z"/>
				<path id="XMLID_26_" class="st63" d="M143,359.6c-0.4,0-0.8,0-1.2,0c-0.9,0-1.7-0.1-2.5-0.2c-0.4-0.1-0.8-0.2-1.3-0.3
					c1,1.9,3.1,3.1,5.4,3.1c2.9,0,5.3-1.9,5.9-4.5c-0.7,0.4-1.5,0.8-2.5,1.1C145.8,359.3,144.5,359.5,143,359.6z"/>
				<path id="XMLID_22_" class="st63" d="M143.6,350.9c-3.4,0-6.1,2.7-6.1,5.9c0,0.4,0,0.8,0.1,1.3c0.7,0.5,2.7,0.9,5.3,0.7
					c2.9-0.2,5.3-1,6.7-2.2c0-0.2,0-0.4,0-0.6C149.2,353.1,146.7,350.9,143.6,350.9z M141.4,357.4c-1,0-1.8-0.8-1.8-1.8
					c0-1,0.8-1.8,1.8-1.8c1,0,1.8,0.8,1.8,1.8C143.3,356.6,142.5,357.4,141.4,357.4z M146.2,356.5c-0.8,0-1.4-0.6-1.4-1.4
					s0.6-1.4,1.4-1.4s1.4,0.6,1.4,1.4S146.9,356.5,146.2,356.5z"/>
			</g>
			<path id="XMLID_19_" class="st63" d="M159.6,352.8c-0.3-0.1-0.8-0.3-1.4-0.2c-0.6,0.1-0.8,0.3-0.8,1v0.9h2.2v1.7h-2.2v5.5h-1.9
				v-5.5h-1.3v-1.7h1.3v-0.9c0-1.7,0.9-2.8,2.6-2.8c0.6,0,1.2,0.1,1.6,0.3V352.8z"/>
			<path id="XMLID_17_" class="st63" d="M164.3,356.1c-0.2,0-0.4,0-0.5,0c-0.9,0-1.5,0.5-1.5,1.6v3.9h-1.9v-7.2h1.9v0.8
				c0.5-0.7,1.1-1,2-1c0.4,0,0.8,0.1,1.1,0.3L164.3,356.1z"/>
			<path id="XMLID_14_" class="st63" d="M172,358c0,0.2,0,0.5,0,0.7h-5.1c0.2,1,0.9,1.5,1.8,1.5c0.6,0,1.3-0.3,1.8-0.7l1.1,1.2
				c-0.8,0.7-1.9,1.1-3.1,1.1c-2.2,0-3.7-1.5-3.7-3.8c0-2.3,1.5-3.8,3.6-3.8C170.5,354.2,172,355.7,172,358z M166.9,357.3h3.2
				c-0.2-0.9-0.7-1.4-1.6-1.4C167.6,355.9,167,356.4,166.9,357.3z"/>
			<path id="XMLID_11_" class="st63" d="M179.6,358c0,0.2,0,0.5,0,0.7h-5.1c0.2,1,0.9,1.5,1.8,1.5c0.6,0,1.3-0.3,1.8-0.7l1.1,1.2
				c-0.8,0.7-1.9,1.1-3.1,1.1c-2.2,0-3.7-1.5-3.7-3.8c0-2.3,1.5-3.8,3.6-3.8C178.2,354.2,179.6,355.7,179.6,358z M174.5,357.3h3.2
				c-0.2-0.9-0.7-1.4-1.6-1.4C175.2,355.9,174.7,356.4,174.5,357.3z"/>
			<path id="XMLID_8_" class="st63" d="M188,358c0,2.2-1.5,3.8-3.5,3.8c-1,0-1.6-0.4-2.1-0.9v3.7h-1.9v-10.1h1.9v0.8
				c0.5-0.6,1.2-1,2.1-1C186.5,354.2,188,355.8,188,358z M182.3,358c0,1.1,0.7,2,1.8,2c1.1,0,1.9-0.9,1.9-2c0-1.1-0.7-2-1.9-2
				C183,356,182.3,356.8,182.3,358z"/>
			<path id="XMLID_4_" class="st63" d="M191.1,352c0,0.7-0.5,1.2-1.2,1.2c-0.7,0-1.2-0.5-1.2-1.2c0-0.7,0.5-1.2,1.2-1.2
				C190.5,350.8,191.1,351.3,191.1,352z M190.8,361.6h-1.9v-7.2h1.9V361.6z"/>
			<path id="XMLID_2_" class="st63" d="M194,356.9l2.7-2.6h2.4l-3.5,3.4l3.5,3.8h-2.4l-2.7-2.9v2.9h-1.9v-10.7h1.9V356.9z"/>
		</g>
		<g>
			<path class="st63" d="M62.4,361.5v-1.1c-0.5,0.7-1.4,1.2-2.4,1.2c-1.8,0-3.1-1.4-3.1-3.7c0-2.3,1.3-3.7,3.1-3.7
				c1,0,1.8,0.5,2.4,1.2v-3.8h1.1v9.8H62.4z M62.4,359.6v-3.2c-0.4-0.6-1.2-1.1-2.1-1.1c-1.4,0-2.3,1.2-2.3,2.7
				c0,1.6,0.8,2.7,2.3,2.7C61.2,360.7,62,360.2,62.4,359.6z"/>
			<path class="st63" d="M64.9,358c0-2.1,1.5-3.7,3.5-3.7c2.1,0,3.4,1.7,3.4,3.8v0.3h-5.7c0.1,1.3,1,2.4,2.5,2.4
				c0.8,0,1.6-0.3,2.2-0.9l0.5,0.7c-0.7,0.7-1.7,1.1-2.8,1.1C66.4,361.7,64.9,360.2,64.9,358z M68.4,355.2c-1.5,0-2.3,1.3-2.3,2.4
				h4.6C70.7,356.5,70,355.2,68.4,355.2z"/>
			<path class="st63" d="M72.6,360.6l0.6-0.8c0.5,0.5,1.4,1,2.3,1c1.1,0,1.7-0.5,1.7-1.2c0-1.7-4.4-0.7-4.4-3.3c0-1.1,1-2,2.6-2
				c1.2,0,2.1,0.5,2.6,1l-0.5,0.8c-0.4-0.5-1.2-0.9-2.1-0.9c-1,0-1.6,0.5-1.6,1.1c0,1.6,4.4,0.5,4.4,3.3c0,1.2-1,2.1-2.8,2.1
				C74.3,361.7,73.3,361.3,72.6,360.6z"/>
			<path class="st63" d="M79.5,352.7c0-0.4,0.3-0.7,0.7-0.7c0.4,0,0.7,0.3,0.7,0.7c0,0.4-0.3,0.7-0.7,0.7
				C79.8,353.4,79.5,353.1,79.5,352.7z M79.7,361.5v-7.1h1.1v7.1H79.7z"/>
			<path class="st63" d="M82.6,363.3l0.6-0.8c0.6,0.7,1.3,1,2.3,1c1.2,0,2.3-0.6,2.3-2.1v-1c-0.5,0.7-1.4,1.3-2.4,1.3
				c-1.8,0-3.1-1.4-3.1-3.7c0-2.3,1.3-3.7,3.1-3.7c1,0,1.8,0.5,2.4,1.2v-1.1h1.1v6.9c0,2.3-1.6,3.1-3.4,3.1
				C84.2,364.4,83.4,364.1,82.6,363.3z M87.7,359.5v-3.1c-0.4-0.6-1.2-1.1-2.1-1.1c-1.4,0-2.3,1.1-2.3,2.7c0,1.6,0.8,2.7,2.3,2.7
				C86.5,360.6,87.3,360.1,87.7,359.5z"/>
			<path class="st63" d="M95.4,361.5v-4.6c0-1.2-0.6-1.6-1.6-1.6c-0.9,0-1.7,0.5-2.1,1.1v5.2h-1.1v-7.1h1.1v1
				c0.5-0.6,1.5-1.2,2.5-1.2c1.5,0,2.3,0.7,2.3,2.3v5H95.4z"/>
			<path class="st63" d="M97.9,358c0-2.1,1.5-3.7,3.5-3.7c2.1,0,3.4,1.7,3.4,3.8v0.3h-5.7c0.1,1.3,1,2.4,2.5,2.4
				c0.8,0,1.6-0.3,2.2-0.9l0.5,0.7c-0.7,0.7-1.7,1.1-2.8,1.1C99.4,361.7,97.9,360.2,97.9,358z M101.4,355.2c-1.5,0-2.3,1.3-2.3,2.4
				h4.6C103.7,356.5,103,355.2,101.4,355.2z"/>
			<path class="st63" d="M111.4,361.5v-1.1c-0.5,0.7-1.4,1.2-2.4,1.2c-1.8,0-3.1-1.4-3.1-3.7c0-2.3,1.3-3.7,3.1-3.7
				c1,0,1.8,0.5,2.4,1.2v-3.8h1.1v9.8H111.4z M111.4,359.6v-3.2c-0.4-0.6-1.2-1.1-2.1-1.1c-1.4,0-2.3,1.2-2.3,2.7
				c0,1.6,0.8,2.7,2.3,2.7C110.1,360.7,111,360.2,111.4,359.6z"/>
			<path class="st63" d="M117.7,361.5v-9.8h1.1v3.8c0.6-0.8,1.4-1.2,2.4-1.2c1.8,0,3.1,1.5,3.1,3.7c0,2.3-1.3,3.7-3.1,3.7
				c-1,0-1.9-0.5-2.4-1.2v1.1H117.7z M120.9,360.7c1.4,0,2.3-1.2,2.3-2.7c0-1.6-0.9-2.7-2.3-2.7c-0.9,0-1.7,0.5-2.1,1.1v3.2
				C119.2,360.2,120,360.7,120.9,360.7z"/>
			<path class="st63" d="M125.5,363.3c0.2,0.1,0.4,0.1,0.6,0.1c0.5,0,0.8-0.2,1.1-0.7l0.5-1.1l-3-7.1h1.2l2.4,5.8l2.3-5.8h1.2
				l-3.5,8.5c-0.4,1-1.1,1.4-2.1,1.4c-0.2,0-0.6,0-0.8-0.1L125.5,363.3z"/>
		</g>
	</g>
</g>
</svg>
